<svg width="67" height="64" viewBox="0 0 67 64" fill="none" xmlns="http://www.w3.org/2000/svg">
<path d="M42.5729 43.1146H18.875L14.7222 52.7743C13.6991 55.1516 13.1875 56.9271 13.1875 58.1007C13.1875 59.0336 13.6238 59.8611 14.4965 60.5833C15.3993 61.2755 17.3252 61.7269 20.2743 61.9375V63.6076H1V61.9375C3.55787 61.4861 5.21296 60.8993 5.96528 60.1771C7.5 58.7326 9.20023 55.7986 11.066 51.375L32.5972 1H34.1771L55.4826 51.9167C57.1979 56.0093 58.7477 58.6725 60.1319 59.9063C61.5463 61.11 63.5023 61.787 66 61.9375V63.6076H41.8507V61.9375C44.2882 61.8171 45.9282 61.4109 46.7708 60.7188C47.6435 60.0266 48.0799 59.184 48.0799 58.191C48.0799 56.8669 47.478 54.7755 46.2743 51.9167L42.5729 43.1146ZM41.309 39.7743L30.9271 15.0382L20.2743 39.7743H41.309Z" stroke="black" stroke-width="0.77037"/>
</svg>
