<svg width="67" height="59" viewBox="0 0 67 59" fill="none" xmlns="http://www.w3.org/2000/svg">
<path d="M7.14043 58.0182C3.04681 58.0182 1 56.644 1 53.8954C1 52.6673 1.35088 51.6731 2.05264 50.9129C2.87137 50.0357 3.80705 49.5971 4.8597 49.5971C5.61994 49.5971 6.00006 49.8018 6.00006 50.2111C6.00006 50.562 5.91234 50.7374 5.7369 50.7374C5.67842 50.7374 5.47374 50.679 5.12286 50.562C4.94742 50.5035 4.74274 50.4743 4.50881 50.4743C3.86553 50.4743 3.30997 50.7959 2.84213 51.4392C2.37429 51.9655 2.14036 52.6088 2.14036 53.3691C2.14036 54.5387 2.78365 55.4744 4.07021 56.1761C5.23982 56.7024 6.43866 56.9656 7.66675 56.9656C12.1697 56.9656 16.2926 55.1819 20.0353 51.6147C21.4973 50.2696 22.9301 48.6029 24.3336 46.6146C25.7956 44.6263 27.2284 42.3163 28.6319 39.6847C28.6319 39.6262 29.129 38.5443 30.1232 36.439C31.1758 34.3337 32.6963 31.2343 34.6846 27.1407C39.597 17.0821 45.1526 9.889 51.3515 5.56146C47.7842 4.21641 43.3397 3.54389 38.018 3.54389C34.977 3.54389 32.1115 3.80705 29.4214 4.33337C26.7313 4.80122 24.1874 5.53222 21.7897 6.52638C16.1171 8.80711 11.9066 12.2282 9.158 16.7897C7.46207 19.6552 6.6141 22.4915 6.6141 25.2985C6.6141 28.281 7.54979 30.7664 9.42115 32.7548C11.2925 34.8016 13.7195 35.825 16.7019 35.825C20.0353 35.825 22.9886 34.6261 25.5617 32.2285C28.1348 29.7723 29.4214 26.9067 29.4214 23.6319C29.4214 21.3511 28.8074 19.4798 27.5793 18.0177C26.2927 16.4973 24.5091 15.737 22.2283 15.737C20.5324 15.737 19.0119 16.2633 17.6669 17.316C16.3218 18.4856 15.6493 19.9476 15.6493 21.702C15.6493 23.1055 16.4095 23.8073 17.93 23.8073C18.047 23.8073 18.1347 23.7196 18.1932 23.5441C18.3686 23.3687 18.5148 23.281 18.6318 23.281C18.7488 23.3395 18.8072 23.4272 18.8072 23.5441C18.8072 24.1289 18.4856 24.4213 17.8423 24.4213C15.854 24.4213 14.8598 23.4857 14.8598 21.6143C14.8598 19.7429 15.7078 18.1055 17.4037 16.7019C19.0412 15.3569 20.7956 14.6844 22.6669 14.6844C25.1816 14.6844 27.2284 15.5031 28.8074 17.1405C30.4448 18.778 31.2635 20.854 31.2635 23.3687C31.2635 27.2284 29.743 30.474 26.7021 33.1057C23.8365 35.5618 20.4447 36.7899 16.5265 36.7899C12.8423 36.7899 9.83052 35.708 7.49131 33.5443C4.97666 31.205 3.71933 28.3103 3.71933 24.8599C3.71933 22.4038 4.33337 20.0061 5.56146 17.6669C8.25155 12.3452 12.9885 8.36851 19.7722 5.7369C25.3278 3.57313 31.6437 2.49125 38.7198 2.49125C43.983 2.49125 48.7199 3.16377 52.9305 4.50882C56.9071 2.1696 60.5037 1 63.7201 1C64.1879 1 64.4218 1.05848 64.4218 1.17544C64.4218 1.35088 64.3341 1.4386 64.1587 1.4386C63.9247 1.4386 63.5739 1.46784 63.106 1.52632C62.6967 1.52632 62.2288 1.55556 61.7025 1.61404C59.0124 1.96492 56.4685 3.07605 54.0708 4.94742C60.3282 7.34511 63.4569 10.8247 63.4569 15.3861C63.4569 19.6552 61.2639 23.1933 56.8779 26.0003C53.3691 28.2226 49.1877 29.5968 44.3339 30.1232C44.9771 31.8776 45.4742 34.2168 45.8251 37.1408C46.0005 38.7198 46.1468 40.2987 46.2637 41.8777C46.3807 43.4567 46.5561 45.0356 46.79 46.6146C47.4333 51.2345 48.5737 53.8369 50.2111 54.4217C50.9714 54.7141 51.6731 54.8603 52.3164 54.8603C54.8896 54.8603 57.6674 53.1351 60.6498 49.6848C63.223 46.5854 64.8897 43.6029 65.6499 40.7373L65.8254 40.6496L66.264 40.8251V41.0005C65.1528 44.3339 63.1937 47.638 60.3867 50.9129C57.0533 54.6556 53.8661 56.527 50.8252 56.527C49.5386 56.527 48.3398 56.1176 47.2286 55.2989C45.1818 53.9539 43.8075 51.6147 43.1058 48.2813C42.9303 47.2871 42.7841 46.0298 42.6672 44.5093C42.5502 42.9888 42.4625 41.1467 42.404 38.9829C42.404 34.9478 42.1701 32.0822 41.7023 30.3863H39.9478C39.5385 30.3863 39.1291 30.3863 38.7198 30.3863C38.3689 30.3278 38.0472 30.2694 37.7548 30.2109C34.5969 37.8133 31.4975 43.4859 28.4565 47.2286C24.0705 52.4919 18.6903 55.8545 12.3159 57.3165C10.3276 57.7843 8.60243 58.0182 7.14043 58.0182ZM43.8953 29.0705C47.9304 28.3688 51.4392 26.9652 54.4217 24.8599C57.9305 22.2283 59.6849 19.0412 59.6849 15.2984C59.6849 11.2633 57.3457 8.19307 52.6673 6.08778C50.445 8.01763 48.252 10.5908 46.0883 13.8072C43.983 17.0236 41.9069 20.8833 39.8601 25.3863C41.673 26.088 43.0181 27.3161 43.8953 29.0705ZM40.0356 29.3337H40.6496L41.4391 29.246C40.9128 27.9009 40.2402 26.9652 39.4215 26.4389C39.2461 26.7313 39.0706 27.1114 38.8952 27.5793C38.7198 28.0471 38.4858 28.6027 38.1934 29.246C38.4858 29.246 38.7782 29.2752 39.0706 29.3337C39.4215 29.3337 39.7432 29.3337 40.0356 29.3337Z" stroke="black" stroke-width="0.77"/>
</svg>
