<svg width="65" height="77" viewBox="0 0 65 77" fill="none" xmlns="http://www.w3.org/2000/svg">
<path d="M27.4356 75.7696L27.4451 75.7734C27.7835 75.9088 28.0816 76.0076 28.3405 76.0724C28.6214 76.1426 28.8998 76.244 29.1754 76.3755C29.914 76.3686 30.4205 76.274 30.7325 76.1248C30.8895 76.0497 30.982 75.968 31.0356 75.891C31.087 75.8173 31.1174 75.7273 31.1174 75.6058C31.1174 75.4551 31.08 75.4128 31.0727 75.4055C31.0653 75.3982 31.023 75.3608 30.8724 75.3608C30.8198 75.3608 30.7109 75.3759 30.5274 75.426C30.3505 75.4742 30.1263 75.5486 29.8525 75.6513L29.8458 75.6538L29.839 75.656C29.519 75.7627 29.2463 75.8448 29.0231 75.9006C28.8076 75.9544 28.6119 75.9908 28.4572 75.9908C28.0894 75.9908 27.5719 75.8194 26.9515 75.5446C24.015 74.5384 21.8074 72.8425 20.3573 70.4499L19.9451 69.7697L20.7343 69.8684C21.2768 69.9362 21.8558 69.9704 22.4717 69.9704H22.4931L22.5142 69.9728C23.132 70.0414 23.7127 70.0754 24.2569 70.0754C33.4846 70.0754 41.8401 67.337 49.3347 61.8554C57.37 55.8282 61.3597 48.3416 61.3597 39.378C61.3597 36.211 60.6359 32.1916 59.1713 27.3094L27.4356 75.7696ZM27.4356 75.7696L27.4259 75.7663C23.7815 74.5286 21.2061 72.5831 19.6531 69.9498L19.5595 69.7911L19.3772 69.7644C13.6999 68.9336 9.15852 66.8965 5.72704 63.6721C2.17214 60.184 0.385 55.6336 0.385 49.9838C0.385 42.3886 3.14235 35.8351 8.67288 30.3045C14.1316 24.8458 20.6844 22.1217 28.3522 22.1217C33.7446 22.1217 37.9478 23.5376 41.0089 26.3266L41.2478 26.5443L41.5036 26.3466C43.0444 25.156 44.9351 23.6854 47.1756 21.9351L47.1769 21.9341C49.4873 20.1138 52.1477 18.0135 55.158 15.6332L55.3042 15.5176V15.3312V13.336C55.3042 8.90835 55.8204 5.64206 56.8173 3.49621C57.3134 2.42821 57.9213 1.65384 58.6286 1.14631C59.3321 0.641549 60.1556 0.385 61.1147 0.385C61.6906 0.385 62.2285 0.5334 62.732 0.840575L27.4356 75.7696ZM19.4847 68.7018L19.5769 68.9553H19.8465C24.1933 68.9553 28.8391 67.6727 33.7787 65.1324L33.7792 65.1321C35.9626 64.0052 38.041 62.7723 40.0142 61.4333L40.0166 61.4316C42.0631 60.0203 43.969 58.4674 45.734 56.7731C48.336 54.3117 50.1243 52.0699 51.0647 50.0482C54.519 43.3486 56.2493 36.4303 56.2493 29.2973H56.2217C56.2205 29.2871 56.2191 29.275 56.2175 29.2604C56.2114 29.2043 56.204 29.127 56.1953 29.0276C56.1607 28.6295 56.1084 27.9068 56.0384 26.8565C55.8985 24.7579 55.6886 21.329 55.4086 16.5687L55.3661 15.8468L54.7909 16.285C53.3171 17.4079 51.4942 18.8453 49.3228 20.5964C47.2223 22.2767 44.737 24.272 41.8668 26.5821L41.5327 26.851L41.836 27.1543C44.1408 29.4591 45.2935 32.3 45.2935 35.7027C45.2935 40.2893 43.6553 44.1805 40.3688 47.3986L40.3687 47.3986C37.1735 50.5287 33.4319 52.1642 29.1282 52.3172C32.6197 52.0156 35.8514 50.2579 38.8187 47.0971C42.0872 43.6154 43.7533 39.9552 43.7533 36.1228C43.7533 33.2201 42.6982 30.5435 40.616 28.1023L40.3682 27.8118L40.0757 28.0572C35.7204 31.71 32.0274 35.4021 28.9993 39.1342C25.973 42.7941 23.6094 46.4259 21.9134 50.0299L21.7789 50.3157L22.0329 50.5035C22.5927 50.9173 23.1883 51.2615 23.819 51.5368C23.1843 51.2864 22.5976 50.9774 22.0582 50.6105L21.6754 50.3503L21.4892 50.774C19.4468 55.4222 18.4114 59.5023 18.4114 63.0048C18.4114 64.0794 18.5188 65.0878 18.7356 66.0287C18.9484 67.0212 19.1978 67.9128 19.4847 68.7018ZM56.2145 29.2973H55.8643H55.8342C55.8276 29.2362 55.82 29.1551 55.8112 29.054C56.0181 29.0283 56.1372 29.1709 56.158 29.1973C56.1917 29.24 56.2075 29.2795 56.2117 29.2899C56.2127 29.2924 56.2137 29.2949 56.2145 29.2973ZM18.6688 68.9546L19.2907 68.9912L19.0453 68.4186C18.4399 67.0059 18.1314 65.3443 18.1314 63.4249C18.1314 59.6419 19.1638 55.2485 21.252 50.2369L21.3535 49.9934L21.163 49.8109C19.558 48.2728 18.7614 46.4128 18.7614 44.2084C18.7614 43.4298 18.9567 42.4976 19.3666 41.4043C19.6412 40.6836 19.9055 40.1722 20.1528 39.8476C20.3529 39.585 20.5073 39.4882 20.6123 39.4589C20.5934 39.4935 20.5749 39.523 20.5571 39.548C20.5001 39.6278 20.4642 39.6414 20.4598 39.6428L20.4976 39.8758L20.3712 39.7873C19.351 41.2447 18.8315 42.7907 18.8315 44.4184C18.8315 46.3437 19.539 48.0471 20.9325 49.514L21.329 49.9313L21.5633 49.4055C24.68 42.4103 30.7214 35.2099 39.7275 27.8096L40.0673 27.5303L39.7455 27.2304C36.5857 24.286 32.6029 22.8218 27.8271 22.8218C21.1164 22.8218 15.034 25.8254 9.58751 31.7667C4.2823 37.4966 1.61015 43.7822 1.61015 50.6139C1.61015 55.4023 3.25758 59.5903 6.54219 63.1605C8.1817 64.9426 10.0054 66.3037 12.0138 67.237C14.0232 68.2408 16.2432 68.8119 18.6688 68.9546Z" stroke="black" stroke-width="0.77"/>
</svg>
