<svg width="51" height="34" viewBox="0 0 51 34" fill="none" xmlns="http://www.w3.org/2000/svg">
<path d="M24.7031 33.0938C21.5781 33.0938 20.0156 32.125 20.0156 30.1875C20.0156 28.5938 20.9219 26.5938 22.7344 24.1875L25.6875 20.4375L25.2188 20.25C19.9688 26.7188 15.0156 30.7812 10.3594 32.4375C9.07812 32.875 7.96875 33.0938 7.03125 33.0938C3.1875 33.0938 1.26562 31.0469 1.26562 26.9531C1.26562 22.1406 3.1875 17.5469 7.03125 13.1719C12.7188 6.54688 18.4375 2.625 24.1875 1.40625C25.9062 1.0625 27.375 0.890625 28.5938 0.890625C29.8125 0.890625 30.7656 0.984375 31.4531 1.17188C32.1719 1.32812 32.7969 1.5625 33.3281 1.875C34.4531 2.59375 35.0156 3.48438 35.0156 4.54688C35.0156 5.57812 34.8281 6.5625 34.4531 7.5L39.0469 1.82812C39.8906 2.07812 40.6719 2.20312 41.3906 2.20312C43.2344 2.20312 44.5625 2.14062 45.375 2.01562L29.5781 21.0469C25.8281 25.4219 23.9531 28.5 23.9531 30.2812C23.9531 31.2812 24.5469 31.7812 25.7344 31.7812C26.9219 31.7812 28.2812 31.4219 29.8125 30.7031C31.375 29.9844 32.9219 29.0625 34.4531 27.9375C35.9844 26.8125 37.4688 25.5625 38.9062 24.1875C40.375 22.8125 41.7188 21.4688 42.9375 20.1562C44.1875 18.8438 45.2812 17.625 46.2188 16.5L48.4688 13.9688L49.4531 14.7656L47.0625 17.4844C38.0625 27.8906 30.6094 33.0938 24.7031 33.0938ZM11.7188 16.2188C7.3125 21.5625 5.10938 25.9375 5.10938 29.3438C5.10938 30.9062 5.8125 31.6875 7.21875 31.6875C11.7812 31.6875 18.3594 26.6406 26.9531 16.5469L30.8906 11.8125C32.7656 8.96875 33.7031 6.90625 33.7031 5.625C33.7031 3.4375 32.6094 2.34375 30.4219 2.34375C27.4531 2.34375 23.1875 4.875 17.625 9.9375C15.7188 11.6875 13.75 13.7812 11.7188 16.2188Z" stroke="black"/>
</svg>
