<svg width="63" height="76" viewBox="0 0 63 76" fill="none" xmlns="http://www.w3.org/2000/svg">
<path d="M27.1719 63C26.3594 64.0625 25.3594 65.1719 24.1719 66.3281C20.0469 70.9844 15.4219 73.875 10.2969 75C8.89062 75.3125 7.64062 75.4688 6.54688 75.4688C5.48438 75.4688 4.57812 75.3125 3.82812 75C3.07812 74.6562 2.45312 74.2188 1.95312 73.6875C0.984375 72.625 0.5 71.2812 0.5 69.6562C0.5 68 0.765625 66.3438 1.29688 64.6875C1.82812 63 2.59375 61.1875 3.59375 59.25C4.59375 57.2812 5.8125 55.1719 7.25 52.9219L11.9844 45.5625L16.3438 39.375C18.0312 37.125 19.875 34.7812 21.875 32.3438L28.1094 24.9844C38.4844 13.1094 47.0312 5.54688 53.75 2.29688C55.5312 1.42188 57.125 0.984375 58.5312 0.984375C60.8125 0.984375 61.9531 1.84375 61.9531 3.5625C61.9531 5.25 61.5156 7.10938 60.6406 9.14062C59.7969 11.1719 58.5625 13.3125 56.9375 15.5625C55.3438 17.7812 53.375 20.0625 51.0312 22.4062C48.6875 24.7188 46.0312 26.9844 43.0625 29.2031C36.75 33.9219 29.6562 37.8281 21.7812 40.9219C14.8125 49.4531 10.25 55.4688 8.09375 58.9688C5.9375 62.4375 4.5625 64.9375 3.96875 66.4688C3.375 68 3.07812 69.2812 3.07812 70.3125C3.07812 72.9688 4.25 74.2969 6.59375 74.2969C11.6562 74.2969 16.3438 72.0312 20.6562 67.5C22.125 66 23.4375 64.2188 24.5938 62.1562C26.1875 60.1875 27.2188 57.2656 27.6875 53.3906C27.7812 52.6094 27.8281 52.125 27.8281 51.9375L27.2656 47.8594C27.4531 45.4844 28.4219 44.2969 30.1719 44.2969C32.3281 44.2969 33.1875 46.1562 32.75 49.875C32.5625 51.5312 32.0312 53.4844 31.1562 55.7344C30.2812 57.9844 29.3906 59.8125 28.4844 61.2188C28.4219 61.4375 28.3906 61.6719 28.3906 61.9219C28.4219 62.1406 28.4375 62.375 28.4375 62.625C28.4375 64.1875 29.3125 65.0156 31.0625 65.1094C32.7812 65.1094 35.0312 63.8438 37.8125 61.3125C39.6562 59.625 41.2812 57.8438 42.6875 55.9688L43.6719 56.7656C43.1406 57.3281 42.4062 58.1406 41.4688 59.2031C40.5625 60.2656 39.5312 61.3125 38.375 62.3438C35.5625 64.9688 33.0469 66.2812 30.8281 66.2812C28.6094 66.2812 27.3906 65.1875 27.1719 63ZM60.3594 3.75C60.3594 2.5625 59.75 1.96875 58.5312 1.96875C55.9375 1.96875 51.6562 5.34375 45.6875 12.0938L40.0625 18.75L23.3281 39.0469C29.4531 36.6719 35.5938 33.0312 41.75 28.125C47.0938 23.8125 51.5625 19.25 55.1562 14.4375C58.625 9.78125 60.3594 6.21875 60.3594 3.75Z" stroke="black"/>
</svg>
