<svg width="41" height="34" viewBox="0 0 41 34" fill="none" xmlns="http://www.w3.org/2000/svg">
<path d="M31.1875 4.82813C31.125 3.01563 29.9844 2.10938 27.7656 2.10938C23.2344 2.10938 17.375 6.82813 10.1875 16.2656C7.21875 20.2031 5.73438 23.7656 5.73438 26.9531C5.73438 28.3281 6.10938 29.375 6.85938 30.0938C8.17188 31.3125 9.84375 31.9219 11.875 31.9219C13.9375 31.9219 16.1094 31.5 18.3906 30.6563C20.7031 29.8125 22.8438 28.75 24.8125 27.4688C26.7812 26.1875 28.5781 24.7969 30.2031 23.2969C31.8281 21.7656 33.2344 20.3438 34.4219 19.0313C35.6094 17.6875 36.5469 16.5469 37.2344 15.6094C37.9219 14.6719 38.3281 14.125 38.4531 13.9688L39.4844 14.7656L38.2188 16.4531C32.3438 24.1719 25.7812 29.3438 18.5312 31.9688C16.0938 32.8438 13.7969 33.2813 11.6406 33.2813C9.48438 33.2813 7.79688 33.0625 6.57812 32.625C5.35938 32.1875 4.34375 31.5938 3.53125 30.8438C1.96875 29.3125 1.1875 27.4063 1.1875 25.125C1.1875 20.6563 3.125 16.1094 7 11.4844C10.0312 7.85938 13.625 5.07813 17.7812 3.14063C21.1562 1.57813 24.4375 0.82813 27.625 0.89063C30.4375 0.98438 32.2188 1.9375 32.9688 3.75C33.7188 5.59375 33.3125 7.28125 31.75 8.8125C30.7188 9.875 29.7188 10.4063 28.75 10.4063C26.5 10.4063 25.3438 9.48438 25.2812 7.64063C25.25 6.76563 25.5781 6.04688 26.2656 5.48438C26.9844 4.89063 27.6875 4.5625 28.375 4.5C29.375 4.4375 30.3125 4.60938 31.1875 5.01563V4.82813Z" stroke="black"/>
</svg>
