<svg width="75" height="77" viewBox="0 0 75 77" fill="none" xmlns="http://www.w3.org/2000/svg">
<path d="M24.9062 63.25C17.25 71.8125 11.1562 76.0938 6.625 76.0938C2.65625 76.0938 0.671875 74.0469 0.671875 69.9531C0.671875 65.2031 2.625 60.6094 6.53125 56.1719C13.5625 47.9844 20.9844 43.8906 28.7969 43.8906C31.1406 43.8906 32.875 44.6094 34 46.0469C34.3438 46.5156 34.5156 46.9531 34.5156 47.3594C34.5156 47.7656 34.5 48.0312 34.4688 48.1562C34.4688 48.25 34.4688 48.375 34.4688 48.5312L57.7188 15.1562L67.5625 1.23438C68.7188 1.73438 69.7969 1.98438 70.7969 1.98438C71.7969 1.98438 72.7031 1.9375 73.5156 1.84375L28.9844 64.2812C27.1719 66.7188 25.7969 68.6562 24.8594 70.0938C23.9531 71.5 23.5 72.625 23.5 73.4688C23.5 74.2812 23.8906 74.6875 24.6719 74.6875C27.7031 74.6875 31.1406 73.2812 34.9844 70.4688C38.5156 67.9062 42.375 64.0625 46.5625 58.9375C47.3438 57.9375 47.8906 57.2812 48.2031 56.9688L49.2344 57.7656C48.8906 58.1094 48.2812 58.7969 47.4062 59.8281C46.5625 60.8594 45.5 62.0469 44.2188 63.3906C42.9688 64.7344 41.5469 66.1562 39.9531 67.6562C38.3906 69.1562 36.7188 70.5312 34.9375 71.7812C30.9062 74.6562 27.3438 76.0938 24.25 76.0938C21.1875 76.0938 19.6719 75.0938 19.7031 73.0938C19.7344 71.0625 21.5938 67.8438 25.2812 63.4375L24.9062 63.25ZM11.3125 59.3125C6.84375 64.75 4.60938 69.0938 4.60938 72.3438C4.60938 73.9062 5.39062 74.6875 6.95312 74.6875C9.73438 74.6875 13.6094 72.4219 18.5781 67.8906L22.4219 64.1875C24.6406 62 26.4531 59.9062 27.8594 57.9062L32.0312 51.9531C32.75 50.5156 33.1094 49.2812 33.1094 48.25C33.1094 47.2188 32.7344 46.4844 31.9844 46.0469C31.2344 45.5781 30.4531 45.3438 29.6406 45.3438C28.8281 45.3438 27.7969 45.625 26.5469 46.1875C25.3281 46.7188 23.9375 47.5625 22.375 48.7188C18.9688 51.1562 15.2812 54.6875 11.3125 59.3125Z" stroke="black"/>
</svg>
