<svg width="39" height="34" viewBox="0 0 39 34" fill="none" xmlns="http://www.w3.org/2000/svg">
<path d="M23.0938 28.9688C21.1251 30.2188 18.9844 31.25 16.6719 32.0625C14.3907 32.875 12.2188 33.2812 10.1563 33.2812C8.09381 33.2812 6.51569 33.0781 5.42194 32.6719C4.35944 32.2344 3.48444 31.6406 2.79694 30.8906C-0.140563 27.7031 -0.124938 23 2.84381 16.7812C4.12506 14.0312 6.06256 11.5312 8.65631 9.28125C11.2501 7 13.5313 5.29688 15.5001 4.17188C19.3126 1.98438 22.8907 0.890625 26.2344 0.890625C29.5469 0.890625 31.2813 1.92188 31.4376 3.98438C31.6563 7.32812 27.5938 10.9688 19.2501 14.9062C16.1876 16.3438 12.3282 17.8281 7.67194 19.3594C5.82819 22.3594 4.90631 24.8125 4.90631 26.7188C4.90631 28.5938 5.39069 29.9375 6.35944 30.75C7.35944 31.5312 8.79694 31.9219 10.6719 31.9219C12.5782 31.9219 14.6251 31.5156 16.8126 30.7031C19.0313 29.8906 21.0938 28.8594 23.0001 27.6094C24.9376 26.3594 26.6876 25 28.2501 23.5312C29.8126 22.0625 31.1876 20.6562 32.3751 19.3125C33.5938 17.9688 34.5782 16.8125 35.3282 15.8438C36.1094 14.8438 36.6407 14.2188 36.9219 13.9688L37.9063 14.7656C37.5001 15.1094 36.8751 15.8125 36.0313 16.875C35.2188 17.9375 34.1719 19.1562 32.8907 20.5312C31.6407 21.875 30.1876 23.2969 28.5313 24.7969C26.9063 26.2969 25.0938 27.6875 23.0938 28.9688ZM8.75006 17.7188C18.1876 14.4062 24.2657 11.1094 26.9844 7.82812C27.8907 6.73438 28.3438 5.67188 28.3438 4.64062C28.3438 2.89062 27.5313 2.01562 25.9063 2.01562C23.0313 2.01562 19.4376 4.53125 15.1251 9.5625C12.1251 13.0625 10.0001 15.7812 8.75006 17.7188Z" stroke="black"/>
</svg>
