<svg width="79" height="113" viewBox="0 0 79 113" fill="none" xmlns="http://www.w3.org/2000/svg">
<path d="M27.8907 68.25C27.0157 79.5 24.4064 89.5 20.0626 98.25C17.2501 103.938 14.0939 107.906 10.5939 110.156C8.8126 111.312 7.14073 111.891 5.57823 111.891C4.01573 111.891 2.8126 111.453 1.96885 110.578C1.09385 109.734 0.64073 108.766 0.60948 107.672C0.57823 106.609 0.656355 105.594 0.843855 104.625C1.0001 103.656 1.3751 102.5 1.96885 101.156C2.53135 99.8438 3.32823 98.25 4.35948 96.375C5.35948 94.5312 6.67198 92.2969 8.29698 89.6719L14.1564 80.4375L26.5314 61.6875C25.5939 60.2188 24.9532 58.75 24.6095 57.2812C24.2657 55.8125 24.172 54.6094 24.3282 53.6719C24.4532 52.7344 24.7814 51.9531 25.3126 51.3281C25.8439 50.6719 26.5001 50.3438 27.2814 50.3438C28.0314 50.3438 28.6564 50.5938 29.1564 51.0938C29.6251 51.5938 29.8595 52.1562 29.8595 52.7812C29.8595 53.4062 29.7814 53.9531 29.6251 54.4219C29.4376 54.8594 29.2032 55.2812 28.922 55.6875C28.2657 56.6875 27.5626 57.375 26.8126 57.75C26.9376 58.4375 27.2032 59.2031 27.6095 60.0469L50.6251 24.375C52.6251 21.2812 54.9532 18.0625 57.6095 14.7188C60.297 11.375 62.5782 8.76562 64.4532 6.89062C68.3907 2.95312 71.5157 0.984375 73.8282 0.984375C75.172 0.984375 76.172 1.375 76.8282 2.15625C77.4845 2.9375 77.8439 4.17188 77.9064 5.85938C77.9689 7.51562 77.3751 9.82812 76.1251 12.7969C74.8751 15.7344 73.1564 18.875 70.9689 22.2188C68.7814 25.5312 66.2189 28.9375 63.2814 32.4375C60.3751 35.9062 57.2814 39.2812 54.0001 42.5625C47.0626 49.375 40.3439 54.8438 33.8439 58.9688L30.5157 64.125C32.0157 65.4062 33.9689 66.125 36.3751 66.2812C38.8126 66.4375 41.1251 66.1875 43.3126 65.5312C45.5001 64.8438 47.422 63.9688 49.0782 62.9062C51.3282 61.4375 53.7189 59.1406 56.2501 56.0156L57.3282 56.7656C56.9845 57.0781 56.5157 57.5938 55.922 58.3125C55.3282 59.0312 54.5782 59.8281 53.672 60.7031C52.797 61.5469 51.7657 62.4219 50.5782 63.3281C49.422 64.2031 48.0939 64.9844 46.5939 65.6719C43.2501 67.2344 39.6095 67.8125 35.672 67.4062C33.422 67.1562 31.4689 66.4375 29.8126 65.25L27.8907 68.25ZM35.5314 56.3438C44.5626 50.1875 53.4689 41.6406 62.2501 30.7031C68.6876 22.7031 72.8907 15.7812 74.8595 9.9375C76.0782 6.3125 76.1564 3.90625 75.0939 2.71875C74.6876 2.28125 74.2032 2.0625 73.6407 2.0625C73.1095 2.0625 72.5001 2.28125 71.8126 2.71875C71.1251 3.125 70.2814 3.875 69.2814 4.96875C67.3126 7.15625 64.8907 10.5 62.0157 15L35.5314 56.3438ZM26.3439 70.5938L10.547 94.7812L6.79698 100.969C4.54698 104.875 3.42198 107.469 3.42198 108.75C3.42198 109.281 3.6251 109.734 4.03135 110.109C4.40635 110.516 4.98448 110.719 5.76573 110.719C6.51573 110.719 7.53135 110.281 8.8126 109.406C10.0626 108.531 11.4064 107.281 12.8439 105.656C14.2501 104.031 15.6876 102.031 17.1564 99.6562C18.5939 97.3125 19.9376 94.6562 21.1876 91.6875C23.9376 85.0625 25.6564 78.0312 26.3439 70.5938Z" stroke="black"/>
</svg>
