<svg width="79" height="71" viewBox="0 0 79 71" fill="none" xmlns="http://www.w3.org/2000/svg">
<path d="M42.6094 40.875C55.7344 34.25 67.0001 25.2812 76.4063 13.9688L77.3438 14.7656C67.3751 26.8281 55.2032 36.25 40.8282 43.0312L32.4844 53.0156C25.4532 61.0156 19.7344 66.0312 15.3282 68.0625C12.6094 69.2812 9.46882 69.8906 5.90632 69.8906C3.93757 69.8906 2.5157 69.2188 1.6407 67.875C1.04695 66.9688 1.03132 65.8594 1.59382 64.5469C2.15632 63.2656 2.93757 62.0938 3.93757 61.0312C4.90632 59.9688 6.21882 58.8281 7.87507 57.6094C9.53132 56.3906 11.5938 55.0781 14.0626 53.6719C19.1251 50.7969 25.9376 47.5469 34.5001 43.9219L53.3907 20.4375L53.0157 20.25C47.2969 26.75 42.1719 30.7969 37.6407 32.3906C36.2969 32.8594 35.1407 33.0938 34.1719 33.0938C30.3907 33.0938 28.4376 31.0469 28.3126 26.9531C28.3126 22.1094 30.1719 17.5156 33.8907 13.1719C40.6094 4.98438 47.9219 0.890625 55.8282 0.890625C57.8907 0.890625 59.5157 1.23438 60.7032 1.92188C62.6407 3.01562 63.0782 4.875 62.0157 7.5L66.422 1.82812C67.3282 2.07812 68.1563 2.20312 68.9063 2.20312C70.7188 2.20312 72.0313 2.14062 72.8438 2.01562L42.6094 40.875ZM61.2657 5.15625C61.2032 3.28125 59.7969 2.34375 57.0469 2.34375C54.1094 2.34375 49.9219 4.90625 44.4844 10.0312C42.6407 11.8125 40.6563 14.0312 38.5313 16.6875C34.2501 22 32.1407 26.1875 32.2032 29.25C32.2657 30.1562 32.4688 30.7969 32.8126 31.1719C33.1563 31.5156 33.7344 31.6875 34.5469 31.6875C35.3907 31.6875 36.4688 31.4375 37.7813 30.9375C39.0938 30.4062 40.5938 29.5312 42.2813 28.3125C46.1876 25.5312 50.3126 21.6094 54.6563 16.5469L58.3126 12.0938C60.2813 9.21875 61.2657 6.90625 61.2657 5.15625ZM32.8594 45.9375C16.8907 52.9375 7.40632 58.4688 4.40632 62.5312C3.34382 64 2.81257 65.4062 2.81257 66.75C2.81257 67.0938 3.10945 67.4844 3.7032 67.9219C4.2657 68.3906 5.06257 68.625 6.09382 68.625C7.12507 68.625 8.15632 68.4844 9.18757 68.2031C10.2188 67.9531 11.2969 67.5 12.4219 66.8438C13.5469 66.2188 14.7657 65.3438 16.0782 64.2188C17.3907 63.125 18.8751 61.7344 20.5313 60.0469C22.1563 58.3906 23.9844 56.4062 26.0157 54.0938L32.8594 45.9375Z" stroke="black"/>
</svg>
