<svg width="61" height="77" viewBox="0 0 61 77" fill="none" xmlns="http://www.w3.org/2000/svg">
<path d="M8.65625 75.1094C7.8125 74.9531 6.875 74.875 5.84375 74.875C4.0625 74.875 2.59375 75.0312 1.4375 75.3438L53.3281 1.23438C55.4219 1.54688 57.5938 1.54688 59.8438 1.23438L13.3438 65.7812L13.5781 66.2969C15.9531 63.5469 18.1562 61.1094 20.1875 58.9844L25.7656 53.3594C28.9531 50.2656 31.5312 48.0781 33.5 46.7969C36.4688 44.8594 39.2812 43.8906 41.9375 43.8906C44.7188 43.8906 46.4688 44.8906 47.1875 46.8906C48.5938 50.7656 44.2031 58.1719 34.0156 69.1094L32.1875 71.125C31.1875 72.25 30.6875 73.1094 30.6875 73.7031C30.6875 74.0156 31.0312 74.2812 31.7188 74.5C32.4062 74.6875 33.375 74.7812 34.625 74.7812C35.875 74.7812 37.3438 74.3906 39.0312 73.6094C40.7188 72.7969 42.3594 71.7812 43.9531 70.5625C45.5469 69.3438 47.0625 68 48.5 66.5312C49.9375 65.0625 51.2188 63.6719 52.3438 62.3594C53.5 61.0469 54.4688 59.8906 55.25 58.8906C56.0312 57.8906 56.5625 57.25 56.8438 56.9688L57.875 57.7656C57.5625 58.1094 56.9844 58.7969 56.1406 59.8281C55.3281 60.8594 54.3125 62.0625 53.0938 63.4375C51.9062 64.7812 50.5469 66.2031 49.0156 67.7031C47.5156 69.2031 45.9062 70.5625 44.1875 71.7812C40.25 74.6562 36.6719 76.0938 33.4531 76.0938C30.8906 76.0938 29 75.3906 27.7812 73.9844C27.4062 73.5469 27.2188 73.0312 27.2188 72.4375C27.2188 71.8438 27.2969 71.1719 27.4531 70.4219C27.6406 69.6406 28.0781 68.6562 28.7656 67.4688C30.3594 64.7812 32.4688 61.9688 35.0938 59.0312C37.7188 56.0625 39.4531 54.0469 40.2969 52.9844C41.1406 51.9219 41.8125 51 42.3125 50.2188C43.25 48.7188 43.7188 47.5625 43.7188 46.75C43.7188 45.625 42.9844 45.0625 41.5156 45.0625C39.5469 45.0625 37.2812 45.9375 34.7188 47.6875C28.5 51.8438 21.25 59.0781 12.9688 69.3906L8.65625 75.1094Z" stroke="black"/>
</svg>
