<svg width="37" height="50" viewBox="0 0 37 50" fill="none" xmlns="http://www.w3.org/2000/svg">
<path d="M34.7969 6.625C34.3594 7.03125 33.8594 7.35938 33.2969 7.60938C32.7344 7.82812 32.0938 7.9375 31.375 7.9375C30.6562 7.9375 30.0312 7.67188 29.5 7.14062C29 6.57812 28.75 5.95312 28.75 5.26562C28.75 4.57812 28.875 3.96875 29.125 3.4375C29.375 2.90625 29.7188 2.4375 30.1562 2.03125C31.0625 1.09375 32.0469 0.625 33.1094 0.625C34.2031 0.625 35 0.921875 35.5 1.51562C36.0312 2.07812 36.2969 2.70312 36.2969 3.39062C36.2969 4.07812 36.1562 4.6875 35.875 5.21875C35.625 5.75 35.2656 6.21875 34.7969 6.625ZM5.03125 46.3281C5.03125 47.2969 5.95312 47.7812 7.79688 47.7812C9.64062 47.7812 11.375 47.3594 13 46.5156C14.6562 45.6719 16.3125 44.625 17.9688 43.375C19.6562 42.0938 21.2812 40.7031 22.8438 39.2031L27.0625 34.9844C28.3125 33.6719 29.3438 32.5469 30.1562 31.6094C30.9688 30.6406 31.4531 30.0781 31.6094 29.9219L32.5469 30.7656C32.2344 31.0781 31.6406 31.75 30.7656 32.7812C29.9219 33.7812 28.8594 34.9688 27.5781 36.3438C26.2969 37.6875 24.8594 39.1094 23.2656 40.6094C21.6719 42.1094 20 43.4844 18.25 44.7344C14.2188 47.6406 10.6875 49.0938 7.65625 49.0938C5.71875 49.0938 4.17188 48.75 3.01562 48.0625C1.85938 47.3438 1.28125 46.5312 1.28125 45.625C1.28125 44.7188 1.375 43.9062 1.5625 43.1875C1.75 42.4688 2.09375 41.6094 2.59375 40.6094C3.09375 39.6094 3.79688 38.4375 4.70312 37.0938C5.57812 35.75 6.73438 34.1406 8.17188 32.2656C9.57812 30.3906 11.2969 28.2188 13.3281 25.75L20.5469 17.2188C20.9219 17.3125 21.6875 17.3594 22.8438 17.3594H25.0469C25.8594 17.3594 26.5156 17.3281 27.0156 17.2656C16.6719 29.6094 10.8594 36.6406 9.57812 38.3594C8.26562 40.0469 7.29688 41.375 6.67188 42.3438C5.57812 44 5.03125 45.3281 5.03125 46.3281Z" stroke="black"/>
</svg>
