<svg width="85" height="87" viewBox="0 0 85 87" fill="none" xmlns="http://www.w3.org/2000/svg">
<path d="M82.2188 6.625C81.7812 7.03125 81.2812 7.35938 80.7188 7.60938C80.1562 7.82812 79.5156 7.9375 78.7969 7.9375C78.1094 7.9375 77.5 7.67188 76.9688 7.14062C76.4375 6.57812 76.1719 5.95312 76.1719 5.26562C76.1719 4.57812 76.2969 3.96875 76.5469 3.4375C76.7969 2.90625 77.1406 2.4375 77.5781 2.03125C78.5469 1.09375 79.5625 0.625 80.625 0.625C81.6875 0.625 82.4688 0.921875 82.9688 1.51562C83.4688 2.07812 83.7188 2.70312 83.7188 3.39062C83.7188 4.07812 83.5781 4.6875 83.2969 5.21875C83.0469 5.75 82.6875 6.21875 82.2188 6.625ZM68.0156 17.2656C68.3281 17.3281 68.9219 17.3594 69.7969 17.3594C70.8906 17.3594 71.8281 17.3594 72.6094 17.3594C73.9844 17.3594 74.8906 17.3281 75.3281 17.2656L51.6094 47.875L44.625 56.5C52.6562 52.625 58.8438 49 63.1875 45.625C66.5312 43.0312 69.4219 40.3594 71.8594 37.6094C74.2969 34.8281 76.4375 32.2812 78.2812 29.9688L79.2188 30.7656C73.5312 37.8906 68.125 43.375 63 47.2188C59.4062 49.875 55.875 52.1094 52.4062 53.9219L42.8906 58.6094C36.3906 66.4219 31.5156 71.8125 28.2656 74.7812C25.0156 77.75 22.4688 79.8594 20.625 81.1094C18.75 82.3906 16.9688 83.375 15.2812 84.0625C12.3438 85.2812 8.96875 85.8906 5.15625 85.8906C3.1875 85.8906 1.875 85.2188 1.21875 83.875C1.0625 83.5 0.984375 82.8906 0.984375 82.0469C0.984375 81.2344 1.51562 80.0781 2.57812 78.5781C3.64062 77.1094 5.48438 75.4688 8.10938 73.6562C13.4219 69.9688 22.5469 65.4375 35.4844 60.0625L53.5312 37.2812C60.9688 27.5 65.2344 21.8125 66.3281 20.2188C67.4219 18.5938 67.9844 17.6094 68.0156 17.2656ZM33.8906 61.9844C22.4219 66.8906 14.375 70.875 9.75 73.9375C4.9375 77.125 2.53125 80.0625 2.53125 82.75C2.53125 83.0938 2.75 83.4844 3.1875 83.9219C3.59375 84.3906 4.32812 84.625 5.39062 84.625C6.45312 84.625 7.53125 84.5156 8.625 84.2969C9.71875 84.0781 10.875 83.6719 12.0938 83.0781C13.2812 82.5156 14.5781 81.7031 15.9844 80.6406C17.3906 79.6094 18.9688 78.25 20.7188 76.5625C22.4688 74.9062 24.4219 72.875 26.5781 70.4688L33.8906 61.9844Z" stroke="black"/>
</svg>
