<svg width="61" height="77" viewBox="0 0 61 77" fill="none" xmlns="http://www.w3.org/2000/svg">
<path d="M53.3281 1.23438C55.3906 1.57812 57.5469 1.57812 59.7969 1.23438L21.2188 54.9062C13.9062 65.5312 9.32812 72.2656 7.48438 75.1094C6.64062 74.9531 5.9375 74.875 5.375 74.875C4.78125 74.875 4.32812 74.8906 4.01562 74.9219C3.70312 74.9531 3.39062 75 3.07812 75.0625C2.73438 75.0938 2.42188 75.1406 2.14062 75.2031C1.85938 75.2656 1.625 75.3125 1.4375 75.3438L53.3281 1.23438ZM29.1406 73.3281C29.1406 74.2969 29.9062 74.7812 31.4375 74.7812C32.9688 74.7812 34.6094 74.3594 36.3594 73.5156C38.1094 72.6406 39.8281 71.5625 41.5156 70.2812C43.2344 69 44.8594 67.6094 46.3906 66.1094C47.9531 64.5781 49.3438 63.1562 50.5625 61.8438C52.4062 59.8438 53.7969 58.2031 54.7344 56.9219L55.6719 57.7656C55.5469 57.8906 55.0781 58.4219 54.2656 59.3594C53.4844 60.2969 52.4531 61.4531 51.1719 62.8281C49.9219 64.1719 48.4688 65.625 46.8125 67.1875C45.1875 68.7188 43.4688 70.1562 41.6562 71.5C37.5 74.5625 33.8906 76.0938 30.8281 76.0938C27.7031 76.0938 26.1406 74.4219 26.1406 71.0781C26.1406 68.2969 28.0469 65.0469 31.8594 61.3281C33.3906 59.7344 34.1562 58.6562 34.1562 58.0938C34.1562 56.8438 33.2344 55.9062 31.3906 55.2812C29.5469 56.3125 27.9219 56.8281 26.5156 56.8281C24.1719 56.8281 23 56.3438 23 55.375C23 54.8125 23.4375 54.3125 24.3125 53.875C25.2188 53.4375 26.3125 53.2188 27.5938 53.2188C28.9062 53.2188 30.1562 53.3906 31.3438 53.7344C32.3438 53.2344 33.125 52.6875 33.6875 52.0938C35.0625 50.6562 36.3281 49.2344 37.4844 47.8281C38.6406 46.4219 39.75 45.25 40.8125 44.3125C43.2188 42.1875 45.6406 41.125 48.0781 41.125C49.5781 41.125 50.7812 41.5156 51.6875 42.2969C52.625 43.0781 53.0781 44.0156 53.0469 45.1094C53.0156 46.2031 52.6719 47 52.0156 47.5C51.3594 48 50.6406 48.25 49.8594 48.25C49.0781 48.25 48.3906 47.9844 47.7969 47.4531C47.2344 46.9219 46.9688 46.3125 47 45.625C47.0938 44.3125 47.7344 43.4688 48.9219 43.0938C48.4531 42.7188 47.8438 42.5312 47.0938 42.5312C46.375 42.5312 45.6562 42.6719 44.9375 42.9531C44.25 43.2031 43.5 43.6562 42.6875 44.3125C41.0312 45.5938 38.9688 47.8125 36.5 50.9688C35.3438 52.2812 34.1406 53.4062 32.8906 54.3438C35.8594 55.7188 37.3438 57.75 37.3438 60.4375C37.3438 62.625 36.3438 64.9062 34.3438 67.2812C33.5 68.2812 32.5938 69.2344 31.625 70.1406C29.9688 71.6406 29.1406 72.7031 29.1406 73.3281Z" stroke="black"/>
</svg>
