<svg width="56" height="77" viewBox="0 0 56 77" fill="none" xmlns="http://www.w3.org/2000/svg">
<path d="M4.45312 73.2344C4.45312 74.2656 5.20312 74.7812 6.70312 74.7812C8.20312 74.7812 9.79688 74.3906 11.4844 73.6094C13.2031 72.7969 14.8906 71.7812 16.5469 70.5625C18.2344 69.3438 19.8594 68.0156 21.4219 66.5781C22.9844 65.1094 24.4062 63.7188 25.6875 62.4062L28.9219 58.9375C29.7969 57.9375 30.3906 57.2812 30.7031 56.9688L31.6406 57.7656C31.2969 58.1094 30.6562 58.7969 29.7188 59.8281C28.8125 60.8594 27.6875 62.0469 26.3438 63.3906C25.0312 64.7344 23.5469 66.1562 21.8906 67.6562C20.2656 69.1562 18.5625 70.5312 16.7812 71.7812C12.625 74.6562 8.98438 76.0938 5.85938 76.0938C4.54688 76.0938 3.46875 75.7344 2.625 75.0156C1.75 74.2969 1.3125 73.5312 1.3125 72.7188C1.3125 71.875 1.35938 71.2031 1.45312 70.7031C1.51562 70.2031 1.67188 69.6406 1.92188 69.0156C2.17188 68.3594 2.53125 67.6094 3 66.7656C3.46875 65.8906 4.09375 64.8438 4.875 63.625L12.0469 53.0312L48.2812 1.23438C50.5312 1.54688 52.7031 1.54688 54.7969 1.23438C24.9844 42.6719 9.54688 64.1875 8.48438 65.7812C7.42188 67.3438 6.64062 68.5312 6.14062 69.3438C5.64062 70.125 5.26562 70.7656 5.01562 71.2656C4.64062 72.0156 4.45312 72.6719 4.45312 73.2344Z" stroke="black"/>
</svg>
