<svg width="77" height="34" viewBox="0 0 77 34" fill="none" xmlns="http://www.w3.org/2000/svg">
<path d="M8.64062 32.1094C7.92188 31.9531 7.01562 31.875 5.92188 31.875C4.01562 31.875 2.54688 32.0312 1.51562 32.3438L17.7812 9.09375C19.8125 6.25 20.8594 4.5625 20.9219 4.03125C21.0469 3 20.7188 2.48438 19.9375 2.48438C18.7812 2.48438 15.9062 5.34375 11.3125 11.0625L8.3125 14.7656C8.0625 14.8906 7.79688 14.8281 7.51562 14.5781C7.26562 14.2969 7.20312 14.0938 7.32812 13.9688C8.23438 13 9.25 11.7812 10.375 10.3125C11.5312 8.8125 12.7344 7.375 13.9844 6C17.0469 2.59375 19.5938 0.890625 21.625 0.890625C25.0625 0.890625 26.1562 2.65625 24.9062 6.1875C24.6562 6.9375 24.1094 7.90625 23.2656 9.09375L13.4219 22.7812L13.6562 23.2969C22.0625 13.5781 28.2344 7.29688 32.1719 4.45312C35.2969 2.07812 38.1875 0.890625 40.8438 0.890625C42.6562 0.890625 44.0938 1.39062 45.1562 2.39062C46 3.23438 46.3906 4.125 46.3281 5.0625C46.2969 6 46.2344 6.71875 46.1406 7.21875C46.0781 7.6875 45.9688 8.17188 45.8125 8.67188C45.4375 9.70312 44.7812 10.9531 43.8438 12.4219C50.5312 5.60938 55.5938 1.84375 59.0312 1.125C59.7188 0.96875 60.4688 0.890625 61.2812 0.890625C62.125 0.890625 62.8906 1.03125 63.5781 1.3125C64.2969 1.59375 64.875 1.95312 65.3125 2.39062C66.125 3.20312 66.5156 4.1875 66.4844 5.34375C66.4844 6.46875 66.2656 7.625 65.8281 8.8125C65.4219 10 64.7188 11.4062 63.7188 13.0312C61.625 16.375 58.0938 20.7344 53.125 26.1094C51.0625 28.2656 49.9844 29.5312 49.8906 29.9062C49.7969 30.25 49.75 30.5156 49.75 30.7031L49.4219 30.75C49.4219 31.5 50.3125 31.875 52.0938 31.875C53.875 31.875 55.5 31.4844 56.9688 30.7031C58.4688 29.8906 59.9844 28.875 61.5156 27.6562C63.0469 26.4062 64.5312 25.0469 65.9688 23.5781C67.4375 22.1094 68.7656 20.7188 69.9531 19.4062L72.9531 15.9375C73.7656 14.9375 74.3125 14.2812 74.5938 13.9688L75.5781 14.7656C75.2656 15.0781 74.6719 15.7656 73.7969 16.8281C72.9531 17.8594 71.9062 19.0625 70.6562 20.4375C69.4375 21.8125 68.0625 23.25 66.5312 24.75C65 26.25 63.4219 27.625 61.7969 28.875C58.0156 31.7812 54.8438 33.2344 52.2812 33.2344C49.5625 33.2344 47.6406 32.5156 46.5156 31.0781C46.1719 30.6406 46 30.125 46 29.5312C46 28.9375 46.0938 28.25 46.2812 27.4688C46.5 26.6875 46.9688 25.7031 47.6875 24.5156C49.125 22.0781 51.2188 19.3125 53.9688 16.2188C56.7188 13.125 58.5 11.0469 59.3125 9.98438C60.1562 8.92188 60.8438 8 61.375 7.21875C62.3438 5.6875 62.8281 4.53125 62.8281 3.75C62.8281 2.625 62.0312 2.0625 60.4375 2.0625C57.3125 2.0625 51.9062 5.96875 44.2188 13.7812C40.9375 17.0938 37.2812 21.2969 33.25 26.3906L28.8906 32.1094C28.1719 31.9531 27.2656 31.875 26.1719 31.875C24.3906 31.875 22.9219 32.0312 21.7656 32.3438C26.3906 26.6875 28.9375 23.5625 29.4062 22.9688C36.4375 13.6875 40.3281 8.4375 41.0781 7.21875C42.1094 5.4375 42.625 4.20312 42.625 3.51562C42.625 2.54688 41.8594 2.0625 40.3281 2.0625C38.2969 2.0625 35.9219 3.15625 33.2031 5.34375C27.4844 9.90625 20.75 16.9219 13 26.3906L8.64062 32.1094Z" stroke="black"/>
</svg>
