<svg width="58" height="34" viewBox="0 0 58 34" fill="none" xmlns="http://www.w3.org/2000/svg">
<path d="M8.6875 32.1094C7.84375 31.9531 6.90625 31.875 5.875 31.875C4.21875 31.875 2.76562 32.0312 1.51562 32.3438L17.7812 9.09375C19.8125 6.25 20.8594 4.5625 20.9219 4.03125C21.0469 3 20.7188 2.48438 19.9375 2.48438C18.7812 2.48438 15.9062 5.34375 11.3125 11.0625L8.3125 14.7656C8.0625 14.8906 7.79688 14.8281 7.51562 14.5781C7.26562 14.2969 7.20312 14.0938 7.32812 13.9688C8.23438 13 9.25 11.7812 10.375 10.3125C11.5312 8.8125 12.7344 7.375 13.9844 6C17.0469 2.59375 19.5938 0.890625 21.625 0.890625C25.0625 0.890625 26.1562 2.65625 24.9062 6.1875C24.6562 6.9375 24.1094 7.90625 23.2656 9.09375L13.4219 22.7812L13.6562 23.2969C21.5312 14.6719 27.125 8.96875 30.4375 6.1875C33.5938 3.5625 35.9375 2.03125 37.4688 1.59375C39.0312 1.125 40.2969 0.890625 41.2656 0.890625C42.2656 0.890625 43.1094 1.03125 43.7969 1.3125C44.5156 1.59375 45.0938 1.95312 45.5312 2.39062C46.3438 3.20312 46.7344 4.1875 46.7031 5.34375C46.7031 6.46875 46.4844 7.625 46.0469 8.8125C45.6406 10 44.9375 11.4062 43.9375 13.0312C41.8438 16.375 38.3125 20.7344 33.3438 26.1094C31.2812 28.2656 30.2031 29.5312 30.1094 29.9062C30.0156 30.25 29.9688 30.5156 29.9688 30.7031C29.9688 31.4219 30.9219 31.7812 32.8281 31.7812C34.7656 31.7812 36.5625 31.3906 38.2188 30.6094C39.9062 29.7969 41.5469 28.7812 43.1406 27.5625C44.7656 26.3438 46.2969 25.0156 47.7344 23.5781C49.2031 22.1094 50.5156 20.7188 51.6719 19.4062C52.8281 18.0625 53.7969 16.9062 54.5781 15.9375C55.3594 14.9375 55.8906 14.2812 56.1719 13.9688L57.1562 14.7656C56.8438 15.1094 56.2812 15.7969 55.4688 16.8281C54.6562 17.8594 53.6406 19.0469 52.4219 20.3906C51.2344 21.7344 49.875 23.1562 48.3438 24.6562C46.8438 26.1562 45.25 27.5312 43.5625 28.7812C39.625 31.6562 36.0625 33.0938 32.875 33.0938C30.0625 33.0938 28.1094 32.3906 27.0156 30.9844C26.6719 30.5469 26.5 30.0312 26.5 29.4375C26.5 28.8438 26.5781 28.1719 26.7344 27.4219C26.9219 26.6406 27.3438 25.6562 28 24.4688C29.4688 21.9375 31.5469 19.1562 34.2344 16.125C36.9531 13.0938 38.7344 11.0469 39.5781 9.98438C40.4219 8.92188 41.0938 8 41.5938 7.21875C42.5312 5.71875 43 4.5625 43 3.75C43 2.625 42.25 2.0625 40.75 2.0625C37.6562 2.0625 32.5469 5.5625 25.4219 12.5625C21.8281 16.0625 17.7031 20.6719 13.0469 26.3906L8.6875 32.1094Z" stroke="black"/>
</svg>
