<svg width="44" height="34" viewBox="0 0 44 34" fill="none" xmlns="http://www.w3.org/2000/svg">
<path d="M28.0938 25.4531C26.9375 25.4531 26.0938 24.9844 25.5625 24.0469C21.8438 28.2656 17.8282 31.0625 13.5157 32.4375C12.0782 32.875 10.6719 33.0938 9.29692 33.0938C7.95317 33.0938 6.79692 32.9375 5.82817 32.625C4.85942 32.3125 4.06254 31.875 3.43754 31.3125C0.90629 29.125 0.65629 25.3594 2.68754 20.0156C3.46879 17.9219 4.48442 15.9688 5.73442 14.1562C6.95317 12.3438 8.32817 10.6719 9.85942 9.14062C11.4219 7.57812 13.0938 6.1875 14.875 4.96875C18.9063 2.25 22.8438 0.890625 26.6875 0.890625C28.3438 0.890625 29.7657 1.32812 30.9532 2.20312C32.1719 3.04688 32.8282 4.28125 32.9219 5.90625C33.0157 7.5 32.9219 9 32.6407 10.4062C32.3594 11.8125 31.9375 13.2188 31.375 14.625C30.25 17.5 28.6563 20.2188 26.5938 22.7812C26.8125 23.6875 27.4063 24.1406 28.375 24.1406C29.375 24.1406 30.3125 23.9219 31.1875 23.4844C32.0938 23.0156 32.9844 22.4531 33.8594 21.7969C34.7657 21.1094 35.6407 20.3594 36.4844 19.5469C37.3594 18.7031 38.1563 17.9062 38.875 17.1562L40.6563 15.1875C41.1563 14.5938 41.5157 14.1875 41.7344 13.9688L42.7657 14.7656C42.3594 15.1406 41.8438 15.6719 41.2188 16.3594C40.5938 17.0469 39.8907 17.7812 39.1094 18.5625C39.1094 18.5625 38.2813 19.375 36.625 21C33.4063 23.9688 30.5625 25.4531 28.0938 25.4531ZM8.64067 31.3125C9.14067 31.5625 9.84379 31.6875 10.75 31.6875C12.7813 31.6875 15.3907 30.5469 18.5782 28.2656C21.0157 26.5156 23.1875 24.5 25.0938 22.2188V22.0312C25.0938 19.375 26.0938 17.375 28.0938 16.0312C28.625 15.6562 29.125 15.3906 29.5938 15.2344C31.0938 12.0469 31.7969 9.4375 31.7032 7.40625C31.5157 4.1875 30.3282 2.57812 28.1407 2.57812C24.4532 2.57812 19.2813 6.73438 12.625 15.0469C8.34379 20.4219 6.32817 24.6094 6.57817 27.6094C6.57817 29.3281 7.26567 30.5625 8.64067 31.3125Z" stroke="black"/>
</svg>
