<svg width="82" height="81" viewBox="0 0 82 81" fill="none" xmlns="http://www.w3.org/2000/svg">
<path d="M56.2031 47.0938C52.5781 47.0938 50.7656 45.5469 50.7656 42.4531C50.7656 37.7656 55.9062 31.6562 66.1875 24.125C69.75 21.5312 71.7188 19.6562 72.0938 18.5C72.1875 18.1562 72.2344 17.8281 72.2344 17.5156C72.2344 17.1719 72.0625 16.8438 71.7188 16.5312C71.4062 16.2188 70.7188 16.0625 69.6562 16.0625C64.75 16.0625 57.1406 20.8594 46.8281 30.4531C42.0156 35.0781 38.6719 38.4219 36.7969 40.4844L31.8281 46.1094C30.5156 47.8281 29.0625 49.8281 27.4688 52.1094L17.9062 66.4062L10.7812 77.6562C9.96875 78.9062 9.5 79.6406 9.375 79.8594C8.46875 80.1094 7.46875 80.2344 6.375 80.2344C5.25 80.2344 4.54688 80.2188 4.26562 80.1875C3.95312 80.1875 3.625 80.1719 3.28125 80.1406C2.6875 80.0781 2.10938 79.9688 1.54688 79.8125L25.5 47.2812L40.6875 25.9062L59.1562 1.20312C60.8438 1.39062 62.1094 1.48438 62.9531 1.48438C64.5156 1.48438 65.6094 1.375 66.2344 1.15625L51.1406 19.625L39.9844 34.5312L40.3125 34.9062C50.0312 25.5625 57.2031 19.6875 61.8281 17.2812C64.2031 16.0312 65.9688 15.3281 67.125 15.1719C68.3125 14.9844 69.375 14.8906 70.3125 14.8906C73.2812 14.8906 74.7656 16.1875 74.7656 18.7812C74.7656 23.9062 70.0625 29.7656 60.6562 36.3594C56.4375 39.3906 54.0312 41.4688 53.4375 42.5938C53.25 42.9688 53.1562 43.3281 53.1562 43.6719C53.1562 45.0781 54.2656 45.7812 56.4844 45.7812C61.8594 45.7812 68.7188 40.8125 77.0625 30.875L79.5469 27.9688L80.5781 28.7656L78.1406 31.5781C69.4219 41.9219 62.1094 47.0938 56.2031 47.0938Z" stroke="black"/>
</svg>
