<svg width="61" height="70" viewBox="0 0 61 70" fill="none" xmlns="http://www.w3.org/2000/svg">
<path d="M4.01562 68.8906C1.92188 68.8906 0.875 67.7656 0.875 65.5156C0.875 60.0469 5.96875 51.1562 16.1562 38.8438C19.5 34.8438 23.3594 30.5938 27.7344 26.0938C25.0469 28.2188 22.5781 29.75 20.3281 30.6875C18.1094 31.625 16.3594 32.0938 15.0781 32.0938C11.2656 32.0938 9.35938 30.0781 9.35938 26.0469C9.35938 21.4219 11.2656 16.9375 15.0781 12.5938C20.6719 6.125 26.3438 2.3125 32.0938 1.15625C33.8125 0.78125 35.5156 0.59375 37.2031 0.59375C41.0469 0.59375 42.9688 2.14062 42.9688 5.23438C42.9688 6.35938 42.7969 7.4375 42.4531 8.46875C43.7031 6.9375 44.7188 5.64062 45.5 4.57812L47.8438 1.53125C48.3438 1.75 49.0312 1.85938 49.9062 1.85938C51.8438 1.85938 53.2188 1.82812 54.0312 1.76562C45.75 12.0469 40.7344 18.2031 38.9844 20.2344L33.4062 26.6094C33.625 27.1719 33.7656 27.8906 33.8281 28.7656C33.9844 29.3906 34.3906 29.9062 35.0469 30.3125C35.7344 30.6875 36.5938 30.875 37.625 30.875C38.6875 30.875 39.9375 30.4844 41.375 29.7031C42.8125 28.8906 44.2656 27.875 45.7344 26.6562C47.2344 25.4062 48.6875 24.0469 50.0938 22.5781C51.5 21.1094 52.7812 19.7188 53.9375 18.4062L58.3438 12.9688L59.375 13.7656L57.7812 15.8281C51.9375 23.3594 46.6562 28.375 41.9375 30.875C40.375 31.6875 38.8125 32.0938 37.25 32.0938C35.6875 32.0938 34.4219 31.5781 33.4531 30.5469C31.2656 40.4531 27.0312 49.375 20.75 57.3125C16.9375 62.1562 13.125 65.5312 9.3125 67.4375C7.40625 68.4062 5.64062 68.8906 4.01562 68.8906ZM19.7656 15.7344C15.3906 21.0781 13.2031 25.2969 13.2031 28.3906C13.2031 29.9219 13.9062 30.6875 15.3125 30.6875C19.1875 30.6875 24 28.0625 29.75 22.8125C31.8438 20.9375 33.6094 19.1406 35.0469 17.4219C37.5781 14.4219 39.0938 12.5781 39.5938 11.8906C41.0625 9.89062 41.7969 7.53125 41.7969 4.8125C41.7969 3.46875 41.0625 2.57812 39.5938 2.14062C39.1562 2.01562 38.6406 1.95312 38.0469 1.95312C37.4844 1.95312 36.5625 2.23438 35.2812 2.79688C34.0312 3.32812 32.5938 4.15625 30.9688 5.28125C27.1875 7.84375 23.4531 11.3281 19.7656 15.7344ZM2.375 66.3125C2.375 67.3438 2.9375 67.8594 4.0625 67.8594C5.15625 67.8594 6.54688 67.3281 8.23438 66.2656C9.89062 65.2344 11.6562 63.8125 13.5312 62C15.4062 60.1875 17.3125 58.0469 19.25 55.5781C21.2188 53.1094 23.0625 50.4375 24.7812 47.5625C28.625 41.25 31.1719 35.1719 32.4219 29.3281C32.5469 28.6406 32.5469 28.1094 32.4219 27.7344L19.7188 42.5938C11.0625 53.1875 6.01562 59.6406 4.57812 61.9531C3.10938 64.2969 2.375 65.75 2.375 66.3125Z" stroke="black"/>
</svg>
