<svg width="39" height="40" viewBox="0 0 39 40" fill="none" xmlns="http://www.w3.org/2000/svg">
<path d="M12.1094 35.3438C12.1094 36.7812 12.7188 37.5 13.9375 37.5C15.1875 37.5 16.5469 37.125 18.0156 36.375C19.5156 35.625 21.0312 34.6719 22.5625 33.5156C24.125 32.3594 25.6562 31.0781 27.1562 29.6719L31.2344 25.5938C32.4844 24.3125 33.5625 23.1562 34.4688 22.125L36.3906 19.9688L37.3281 20.7656C36.7344 21.2969 35.9375 22.125 34.9375 23.25L31.5625 27C23.9375 35.0625 17.375 39.0938 11.875 39.0938C10.0938 39.0938 8.65625 38.6562 7.5625 37.7812C6.5 36.9062 5.96875 35.7344 5.96875 34.2656C5.96875 29.6094 12.75 22.7344 26.3125 13.6406C19.6875 12.5469 15.1094 11.4375 12.5781 10.3125C10.5156 14.5625 7.34375 18.8906 3.0625 23.2969C2.0625 24.3281 1.45312 24.8906 1.23438 24.9844C0.984375 25.0781 0.828125 25.1562 0.765625 25.2188C0.703125 25.25 0.65625 25.1562 0.625 24.9375C0.59375 24.7188 0.59375 24.5625 0.625 24.4688C0.65625 24.3438 0.71875 24.2188 0.8125 24.0938C2.28125 22.4375 3.64062 20.8438 4.89062 19.3125C7.79688 15.6875 9.9375 12.4688 11.3125 9.65625C10.1875 8.9375 9.54688 8.17188 9.39062 7.35938C9.23438 6.54688 9.23438 5.79688 9.39062 5.10938C9.57812 4.39062 9.85938 3.75 10.2344 3.1875C11.0469 1.96875 11.9844 1.35938 13.0469 1.35938C15.0156 1.35938 16 2.07812 16 3.51562C16 4.23438 15.8594 4.84375 15.5781 5.34375L14.7344 6.79688C14.1719 7.51562 13.8906 8.34375 13.8906 9.28125C13.8906 9.84375 15.0781 10.375 17.4531 10.875C19.8594 11.375 21.5625 11.7188 22.5625 11.9062C24.75 12.3125 26.4844 12.5469 27.7656 12.6094C28.6406 12.6406 29.0781 12.875 29.0781 13.3125C29.0781 13.5938 28.5625 14.1406 27.5312 14.9531C26.5312 15.7656 25.4219 16.75 24.2031 17.9062C22.9844 19.0625 21.7969 20.2812 20.6406 21.5625C19.4844 22.8125 18.3906 24.0938 17.3594 25.4062C16.3281 26.7188 15.4219 27.9844 14.6406 29.2031C12.9531 31.8281 12.1094 33.875 12.1094 35.3438Z" stroke="black"/>
</svg>
