<svg width="44" height="41" viewBox="0 0 44 41" fill="none" xmlns="http://www.w3.org/2000/svg">
<path d="M27.4375 30.375C27.8125 30.4375 28.2812 30.4688 28.8438 30.4688C29.4375 30.4688 30.1406 30.25 30.9531 29.8125C31.7656 29.375 32.5938 28.8125 33.4375 28.125C34.3125 27.4375 35.1719 26.6875 36.0156 25.875C36.8594 25.0312 37.625 24.2344 38.3125 23.4844C39.0312 22.7031 39.6562 22 40.1875 21.375L41.2656 19.9688L42.2969 20.7656C41.9219 21.1406 41.4375 21.6562 40.8438 22.3125L38.875 24.5625C34.5312 29.25 31.0938 31.5938 28.5625 31.5938H27.7656C27.5156 31.5938 27.2656 31.5625 27.0156 31.5C24.3906 37.2188 18.8125 40.0781 10.2812 40.0781C6.5625 40.0781 3.85938 39.1875 2.17188 37.4062C1.45312 36.625 1.09375 35.625 1.09375 34.4062C1.09375 33.1875 1.39062 32.1562 1.98438 31.3125C2.54688 30.4375 3.21875 29.7188 4 29.1562C5.59375 28 7.03125 27.4219 8.3125 27.4219C9.5625 27.4219 10.1875 28.0156 10.1875 29.2031C10.0938 30.0156 9.40625 30.625 8.125 31.0312C7.71875 31.1562 7.32812 31.2188 6.95312 31.2188C6.54688 31.2188 6.17188 31.0938 5.82812 30.8438C5.45312 30.5625 5.15625 30.3594 4.9375 30.2344C4.75 30.4219 4.51562 30.6406 4.23438 30.8906C3.92188 31.1406 3.625 31.4375 3.34375 31.7812C2.65625 32.625 2.3125 33.5 2.3125 34.4062C2.3125 35.2812 2.60938 35.9844 3.20312 36.5156C3.79688 37.0469 4.5 37.4531 5.3125 37.7344C6.53125 38.1719 7.8125 38.3906 9.15625 38.3906C10.4688 38.3906 11.8281 38.1094 13.2344 37.5469C14.6719 36.9844 16.0781 36.0469 17.4531 34.7344C21.2344 31.1406 23.2812 25.8125 23.5938 18.75C23.7812 14 24.3594 10.2812 25.3281 7.59375C25.3594 7.5 25.375 7.35938 25.375 7.17188L14.3125 20.7656C13.6875 21.5156 13.2344 22 12.9531 22.2188C12.6406 22.4375 12.4844 22.5469 12.4844 22.5469C12.1094 22.5781 11.8594 22.4844 11.7344 22.2656C11.6719 22.1094 11.8125 21.8125 12.1562 21.375C20.2188 11.75 24.75 6.28125 25.75 4.96875C26.25 2.53125 27.0625 1.3125 28.1875 1.3125C28.7188 1.3125 29.1562 1.45312 29.5 1.73438C29.875 2.01562 30.0625 2.375 30.0625 2.8125C30.0312 3.40625 29.5469 4.25 28.6094 5.34375C27.7031 6.40625 27.1406 7.09375 26.9219 7.40625C26.7344 7.6875 26.6094 7.9375 26.5469 8.15625C26.4844 8.34375 26.4531 8.53125 26.4531 8.71875V9.28125C26.4219 10.125 26.5 11.125 26.6875 12.2812L27.8594 20.0625C28.5469 24.3125 28.4062 27.75 27.4375 30.375Z" stroke="black"/>
</svg>
