<svg width="46" height="56" viewBox="0 0 46 56" fill="none" xmlns="http://www.w3.org/2000/svg">
<path d="M4.3125 52.2812C4.3125 53.2188 5.0625 53.7031 6.5625 53.7344C8.0625 53.7656 9.5625 53.4375 11.0625 52.75C12.5938 52.0625 14.1094 51.1875 15.6094 50.125C17.1094 49.0625 18.5625 47.875 19.9688 46.5625C21.375 45.2188 22.6875 43.8906 23.9062 42.5781C25.125 41.2656 26.2188 40.0312 27.1875 38.875L29.625 35.9688L30.6562 36.7656L28.2188 39.5781C19.5 49.9219 12.1719 55.0938 6.23438 55.0938C4.51562 55.0938 3.23438 54.75 2.39062 54.0625C1.51562 53.375 1.07812 52.625 1.07812 51.8125C1.07812 51 1.125 50.3281 1.21875 49.7969C1.28125 49.2656 1.4375 48.6875 1.6875 48.0625C1.9375 47.4062 2.3125 46.6406 2.8125 45.7656C3.28125 44.8906 3.92188 43.8281 4.73438 42.5781L12.0469 32.0312L24.1406 15.0156H20.4375C19.5 15.0156 19.0312 14.7969 19.0312 14.3594C19.0312 13.8906 19.625 13.6562 20.8125 13.6562H25.0781L33.75 1.46875C35.9375 1.8125 38.1094 1.8125 40.2656 1.46875L31.2188 13.6562H43.3125C44.1875 13.6562 44.625 13.8906 44.625 14.3594C44.625 14.7969 44.2344 15.0156 43.4531 15.0156H30.1875L10.7812 41.4062C7.4375 46.125 5.53125 49.0312 5.0625 50.125C4.5625 51.2188 4.3125 51.9375 4.3125 52.2812Z" stroke="black"/>
</svg>
