<svg width="53" height="34" viewBox="0 0 53 34" fill="none" xmlns="http://www.w3.org/2000/svg">
<path d="M5.20312 30.2344C5.20312 31.3594 5.95312 31.9219 7.45312 31.9219C9.54688 31.9219 11.7969 31.125 14.2031 29.5312C19.3906 26.0625 24.7969 20.875 30.4219 13.9688C30.4219 13.9688 33.9688 9.70312 41.0625 1.17188C42.5625 1.35938 43.9219 1.45312 45.1406 1.45312C46.3594 1.45312 47.375 1.40625 48.1875 1.3125L43.5938 6.60938L27 26.8125C25.9062 28.1562 25.3594 29.25 25.3594 30.0938C25.3594 31.2188 26.1094 31.7812 27.6094 31.7812C29.1094 31.7812 30.6562 31.3906 32.25 30.6094C33.875 29.7969 35.4844 28.7812 37.0781 27.5625C38.7031 26.3438 40.2812 25.0156 41.8125 23.5781C43.3438 22.1094 44.7344 20.7188 45.9844 19.4062L50.9062 13.9688L51.8438 14.7656L50.0156 16.8281C49.1094 17.8594 48 19.0469 46.6875 20.3906L42.3281 24.6562C36.3594 30.2812 31.4062 33.0938 27.4688 33.0938C26.1875 33.0938 25.125 32.75 24.2812 32.0625C23.4688 31.3438 23.0312 30.3906 22.9688 29.2031C22.9062 26.9219 23.7031 24.3438 25.3594 21.4688C18.1719 29.2188 12.0781 33.0938 7.07812 33.0938C4.26562 33.0938 2.46875 32.0938 1.6875 30.0938C1.46875 29.5312 1.34375 28.8125 1.3125 27.9375C1.28125 27.0625 1.5 26.0156 1.96875 24.7969C2.40625 23.5781 3.07812 22.2656 3.98438 20.8594C4.89062 19.4219 6 17.875 7.3125 16.2188L15.75 6C17.0625 4.375 18.4531 2.76562 19.9219 1.17188C21.1406 1.35938 22.125 1.45312 22.875 1.45312H24.4688C25.8125 1.45312 26.6719 1.40625 27.0469 1.3125C23.3906 5.3125 20.8281 8.20312 19.3594 9.98438L10.0312 21.1875C6.75 25 5.14062 28.0156 5.20312 30.2344Z" stroke="black"/>
</svg>
