<svg width="50" height="35" viewBox="0 0 50 35" fill="none" xmlns="http://www.w3.org/2000/svg">
<path d="M21.6719 2.17188C23.1719 2.35938 24.5625 2.45312 25.8438 2.45312C27.125 2.45312 28.1875 2.40625 29.0312 2.3125C26.25 4.8125 24.1719 6.84375 22.7969 8.40625L16.5156 15.3438C16.0156 15.9062 15.3594 16.5938 14.5469 17.4062L9.25 23.0312C5.90625 26.6875 4.23438 29.1406 4.23438 30.3906C4.23438 31.6406 4.46875 32.375 4.9375 32.5938C5.40625 32.7812 6.28125 32.875 7.5625 32.875C8.8125 32.875 10.4219 32.5156 12.3906 31.7969C14.3594 31.0469 16.3594 30.0781 18.3906 28.8906C22.0781 26.7344 25.375 24.375 28.2812 21.8125C31.2188 19.2188 33.2031 17.2656 34.2344 15.9531C35.2656 14.6406 36.0469 13.375 36.5781 12.1562C37.4531 10.1562 37.8906 7.67188 37.8906 4.70312C37.8906 3.54688 38.25 2.60938 38.9688 1.89062C39.6875 1.14062 40.5625 0.765625 41.5938 0.765625C43.3438 0.765625 44.2188 1.625 44.2188 3.34375C44.2188 6.90625 41.1094 11.7031 34.8906 17.7344L33.625 18.9062C31.6875 21.5312 31.1875 23.375 32.125 24.4375C32.4688 24.7812 33.1094 24.9531 34.0469 24.9531C35.0156 24.9531 36.1719 24.5625 37.5156 23.7812C38.8594 23 40.1719 22.0781 41.4531 21.0156C42.7656 19.9219 43.9688 18.8125 45.0625 17.6875L47.6406 14.9688L48.625 15.7656C42.2188 22.6719 37.1875 26.125 33.5312 26.125C32 26.125 31.0312 25.6719 30.625 24.7656C30.25 23.8594 30.4062 22.6562 31.0938 21.1562C24.3125 26.8438 18 30.75 12.1562 32.875C10 33.6875 8.03125 34.0938 6.25 34.0938C4.46875 34.0938 3.14062 33.75 2.26562 33.0625C1.39062 32.3438 0.953125 31.4844 0.953125 30.4844C0.953125 29.4531 1.0625 28.5312 1.28125 27.7188C1.5 26.875 1.9375 25.875 2.59375 24.7188C3.78125 22.5938 5.67188 19.9219 8.26562 16.7031C10.8281 13.4844 13.1094 10.8438 15.1094 8.78125L21.6719 2.17188Z" stroke="black"/>
</svg>
