<svg width="66" height="36" viewBox="0 0 66 36" fill="none" xmlns="http://www.w3.org/2000/svg">
<path d="M11.25 21.5C5.625 27.625 2.8125 31.4062 2.8125 32.8438C2.8125 33.4688 3.17188 33.7812 3.89062 33.7812C4.57812 33.7812 5.35938 33.6562 6.23438 33.4062C7.10938 33.1562 8.125 32.75 9.28125 32.1875C11.7188 30.9688 14.375 29.3125 17.25 27.2188C22.25 23.5312 26.3438 19.8594 29.5312 16.2031L30.7969 14.6562V14.7031C33.7969 11.1719 37.4688 7.32812 41.8125 3.17188C43.3125 3.35938 44.5 3.45312 45.375 3.45312C47.125 3.45312 48.3281 3.40625 48.9844 3.3125L32.2969 21.125L27.375 26.6562C24.8438 29.6875 23.5781 31.7031 23.5781 32.7031C23.5781 33.4219 24.0312 33.7812 24.9375 33.7812C25.875 33.7812 27.2344 33.4375 29.0156 32.75C30.8281 32.0312 32.7812 31.0625 34.875 29.8438C41.0625 26.2812 46.5625 21.5938 51.375 15.7812C53.375 13.4062 54.5312 11.4688 54.8438 9.96875C55.1562 8.4375 55.3125 7.0625 55.3125 5.84375C55.3125 4.59375 55.6094 3.53125 56.2031 2.65625C56.7969 1.75 57.5938 1.29688 58.5938 1.29688C60.6562 1.29688 61.6875 2.3125 61.6875 4.34375C61.6875 7.71875 58.5781 12.5156 52.3594 18.7344C51.8281 19.2656 51.2344 19.8281 50.5781 20.4219L48.5156 22.2031C47.5156 24.7031 48.1406 25.9531 50.3906 25.9531C53.5469 25.9531 58 22.625 63.75 15.9688L64.7812 16.7656L61.8281 19.8125C57.0781 24.6875 53.125 27.125 49.9688 27.125C48.7188 27.125 47.8281 26.8125 47.2969 26.1875C46.7656 25.5312 46.625 24.6562 46.875 23.5625C40.5 28.5312 34.5312 32.0312 28.9688 34.0625C27.125 34.75 25.5469 35.0938 24.2344 35.0938C22.2656 35.0938 21.2812 34.0781 21.2812 32.0469C21.2812 29.6094 22.3438 26.6406 24.4688 23.1406L21.4688 25.7188C13.9375 31.9688 8.03125 35.0938 3.75 35.0938C1.71875 35.0938 0.703125 34.0938 0.703125 32.0938C0.703125 27.5312 4.65625 20.8125 12.5625 11.9375C15.0938 9.09375 17.9844 6.17188 21.2344 3.17188C22.4531 3.35938 23.4375 3.45312 24.1875 3.45312H25.8281C27.0781 3.45312 27.9375 3.40625 28.4062 3.3125L16.5 15.7812L11.25 21.5Z" stroke="black"/>
</svg>
