<svg width="55" height="34" viewBox="0 0 55 34" fill="none" xmlns="http://www.w3.org/2000/svg">
<path d="M4.9375 33.0938C2.28125 33.0938 0.953125 32.2656 0.953125 30.6094C0.953125 30.0781 1.23438 29.5781 1.79688 29.1094C2.35938 28.6406 2.9375 28.4062 3.53125 28.4062C4.34375 28.4062 5.01562 28.5938 5.54688 28.9688C6.39062 29.5938 7.32812 29.9062 8.35938 29.9062C9.35938 29.9062 10.6719 29.5 12.2969 28.6875C13.9219 27.8438 15.5625 26.6562 17.2188 25.125C20.5625 22.0312 23.625 17.8594 26.4062 12.6094C28.5 9.57812 29.5469 7.10938 29.5469 5.20312C29.5469 3.29688 28.8125 2.34375 27.3438 2.34375C25.5312 2.34375 23.8438 2.90625 22.2812 4.03125C19.5 6.09375 15.8438 9.67188 11.3125 14.7656C11.0625 14.8281 10.8125 14.75 10.5625 14.5312C10.3438 14.3125 10.2656 14.125 10.3281 13.9688C15.3281 8.40625 18.75 4.98438 20.5938 3.70312C22.4375 2.42188 23.8594 1.64062 24.8594 1.35938C25.8594 1.04688 27.0469 0.890625 28.4219 0.890625C29.8281 0.890625 31.0469 1.45312 32.0781 2.57812C33.1094 3.70312 33.625 5.04688 33.625 6.60938C33.625 8.17188 33.3438 9.90625 32.7812 11.8125C36.3438 6.96875 40.2969 3.625 44.6406 1.78125C46.0781 1.1875 47.3438 0.890625 48.4375 0.890625C49.5312 0.890625 50.3594 1 50.9219 1.21875C51.4844 1.4375 51.9375 1.71875 52.2812 2.0625C52.9062 2.65625 53.2188 3.42188 53.2188 4.35938C53.2188 5.26562 52.9219 5.95312 52.3281 6.42188C51.7344 6.85938 51.0156 7.07812 50.1719 7.07812C49.3594 7.07812 48.6562 6.73438 48.0625 6.04688C47.5 5.35938 47.1875 4.42188 47.125 3.23438C46.9688 3.20312 46.8125 3.1875 46.6562 3.1875H46.3281C44.3594 3.1875 41.8125 4.59375 38.6875 7.40625C35.5938 10.2188 32.7969 13.7812 30.2969 18.0938L28.7031 21.0938C27.1406 24.5 26.3594 27.1875 26.3594 29.1562C26.3594 30.9062 27.2656 31.7812 29.0781 31.7812C30.9219 31.7812 32.7031 31.3594 34.4219 30.5156C36.1719 29.6406 37.8906 28.5625 39.5781 27.2812C41.2969 26 42.9219 24.6094 44.4531 23.1094C46.0156 21.5781 47.4062 20.1562 48.625 18.8438C50.4688 16.8438 51.8594 15.2031 52.7969 13.9219L53.7812 14.7656C53.6562 14.8906 53.1875 15.4219 52.375 16.3594C51.5938 17.2969 50.5625 18.4531 49.2812 19.8281C48 21.1719 46.5312 22.625 44.875 24.1875C43.25 25.7188 41.5312 27.1562 39.7188 28.5C35.5312 31.5625 31.9062 33.0938 28.8438 33.0938C25.7812 33.0938 23.7188 31.8281 22.6562 29.2969C22.2812 28.3906 22.0938 27.2969 22.0938 26.0156C22.0938 24.7031 22.4688 22.8438 23.2188 20.4375C18.875 26.4375 14.0312 30.4062 8.6875 32.3438C7.25 32.8438 6 33.0938 4.9375 33.0938Z" stroke="black"/>
</svg>
