<svg width="77" height="71" viewBox="0 0 77 71" fill="none" xmlns="http://www.w3.org/2000/svg">
<path d="M27.7344 29.7188C27.7344 31.1562 28.6562 31.875 30.5 31.875C32.3438 31.875 34.375 31.4062 36.5938 30.4688C38.8438 29.5 41.0469 28.25 43.2031 26.7188C47.3594 23.8125 51.1875 20.1875 54.6875 15.8438C60.1875 9.5625 63.4844 5.76562 64.5781 4.45312C64.5781 4.45312 65.4219 3.40625 67.1094 1.3125C68.3281 1.53125 69.2188 1.64062 69.7812 1.64062C71.375 1.64062 72.5781 1.57812 73.3906 1.45312L57.0781 21.5625L48.7812 32.6719L41.6562 41.9531C49.7188 38.0781 55.9062 34.2188 60.2188 30.375C63.0312 27.875 65.6719 25.125 68.1406 22.125L74.8906 13.9688L75.875 14.7656L69.9688 21.75C66.4688 25.875 63.5469 28.9531 61.2031 30.9844C58.8594 33.0156 56.7188 34.6875 54.7812 36C51.0938 38.4375 46.1719 41.1094 40.0156 44.0156C34.2031 51.2969 29.8281 56.3594 26.8906 59.2031C23.9219 62.0469 21.5781 64.0625 19.8594 65.25C18.1406 66.4688 16.4688 67.4219 14.8438 68.1094C12.0938 69.2969 8.82812 69.8906 5.04688 69.8906C3.14062 69.8906 1.875 69.2188 1.25 67.875C1.0625 67.5 0.96875 66.9062 0.96875 66.0938C0.96875 65.2812 1.5 64.1406 2.5625 62.6719C3.59375 61.2344 5.375 59.625 7.90625 57.8438C12.9688 54.2812 21.7188 49.875 34.1562 44.625L53.2344 20.4375L52.7188 20.25C49.75 23.4375 46.7188 25.9688 43.625 27.8438C37.8438 31.3438 33.2188 33.0938 29.75 33.0938C28 33.0938 26.6875 32.75 25.8125 32.0625C24.9375 31.3438 24.5 30.4844 24.5 29.4844C24.5 28.4531 24.5938 27.5312 24.7812 26.7188C24.9688 25.875 25.3438 24.875 25.9062 23.7188C27.0625 21.5 29.2656 18.1094 32.5156 13.5469C33.9531 11.7656 35.6875 9.84375 37.7188 7.78125L44.2344 1.17188L46.4375 1.40625C46.9375 1.4375 47.7031 1.45312 48.7344 1.45312C49.7969 1.45312 50.75 1.40625 51.5938 1.3125C48.8125 3.8125 46.7344 5.84375 45.3594 7.40625L42.0312 11.1562C35.125 18.8125 31.2344 23.2812 30.3594 24.5625C28.6094 27.0625 27.7344 28.7812 27.7344 29.7188ZM32.5156 46.6406C16.7969 53.3594 7.34375 58.7031 4.15625 62.6719C3.03125 64.0781 2.46875 65.4375 2.46875 66.75C2.46875 67.0938 2.6875 67.4844 3.125 67.9219C3.53125 68.3906 4.42188 68.625 5.79688 68.625C7.17188 68.625 8.70312 68.3125 10.3906 67.6875C12.0469 67.0938 13.9062 66 15.9688 64.4062C19.75 61.4062 25.2656 55.4844 32.5156 46.6406Z" stroke="black"/>
</svg>
