<svg width="65" height="77" viewBox="0 0 65 77" fill="none" xmlns="http://www.w3.org/2000/svg">
<path d="M32.5625 38.625C35.5 38.9375 37.2969 40.3594 37.9531 42.8906C44.8594 38.7031 51.2812 33 57.2188 25.7812L61.9531 19.9688L62.9375 20.7656L57.8281 27C53.8906 31.6562 50.3125 35.2812 47.0938 37.875C43.9062 40.4375 40.9375 42.5156 38.1875 44.1094C38.2812 44.6406 38.3281 45.5781 38.3281 46.9219C38.3281 48.2656 37.8125 50.0781 36.7812 52.3594C35.7812 54.6406 34.4062 56.8906 32.6562 59.1094C30.9375 61.3281 28.9531 63.4531 26.7031 65.4844C24.4531 67.5156 22.0938 69.2969 19.625 70.8281C14.2188 74.2031 9.375 75.8906 5.09375 75.8906C3.625 75.8906 2.57812 75.5 1.95312 74.7188C1.32812 73.9688 1.01562 72.9219 1.01562 71.5781C1.01562 70.2656 1.79688 68.6094 3.35938 66.6094C4.89062 64.6406 7.0625 62.5312 9.875 60.2812C15.125 56.0625 23 51.0156 33.5 45.1406C33.5938 44.4844 33.6406 43.6562 33.6406 42.6562C33.6406 41.6875 33.3906 40.8906 32.8906 40.2656C32.4219 39.6406 31.9062 39.3281 31.3438 39.3281H31.25C30.2812 39.8594 29.3594 40.3281 28.4844 40.7344C27.6094 41.1719 26.875 41.5625 26.2812 41.9062C25.6875 42.2812 25.2969 42.5312 25.1094 42.6562C24.9219 42.8125 24.7812 42.9375 24.6875 43.0312C24.5 43.2188 24.3125 43.3125 24.125 43.3125C23.9375 43.3125 23.6719 43.2031 23.3281 42.9844C22.9844 42.7969 22.8125 42.6406 22.8125 42.5156C22.8125 42.1094 23.5625 41.5781 25.0625 40.9219C27.875 39.7031 30.0625 38.125 31.625 36.1875C32.9688 34.5312 34.3281 32.4688 35.7031 30L39.6875 22.8281C40.875 20.6719 42.2031 18.6094 43.6719 16.6406C40.2656 16.0156 37.7188 14.5469 36.0312 12.2344C33.0938 17.6406 30.0625 21.625 26.9375 24.1875C26.375 24.6562 26 24.8906 25.8125 24.8906C25.5938 24.8906 25.4844 24.8125 25.4844 24.6562L29.3281 19.9688C31.4219 17.5 32.8438 15.5625 33.5938 14.1562L35.2344 11.0156C34.5469 9.64062 34.2031 8.40625 34.2031 7.3125C34.2031 6.1875 34.3125 5.3125 34.5312 4.6875C34.75 4.03125 35.0625 3.46875 35.4688 3C36.3125 1.90625 37.25 1.35938 38.2812 1.35938C40.2188 1.35938 41.1875 1.96875 41.1875 3.1875C41.1875 3.9375 41 4.53125 40.625 4.96875C40.2812 5.40625 39.9062 5.8125 39.5 6.1875C38.3438 7.25 37.7656 8.20312 37.7656 9.04688C37.7656 9.89062 37.9062 10.6406 38.1875 11.2969C38.5 11.9219 38.9375 12.5312 39.5 13.125C40.7812 14.4375 42.3906 15.3281 44.3281 15.7969C47.0469 12.3594 49.75 9.84375 52.4375 8.25C55.1562 6.625 57.4375 5.8125 59.2812 5.8125C62.5312 5.8125 64.1562 6.71875 64.1562 8.53125C64.1562 10.125 62.7812 11.7812 60.0312 13.5C57.0938 15.375 53.7812 16.4844 50.0938 16.8281C46.5625 25.5469 42.1562 31.875 36.875 35.8125C35.4062 36.9062 33.9688 37.8438 32.5625 38.625ZM50.4688 15.8906C53.6875 15.4531 56.5312 14.4375 59 12.8438C61.375 11.3438 62.5625 9.89062 62.5625 8.48438C62.5625 8.01562 62.3125 7.625 61.8125 7.3125C61.3438 6.96875 60.7031 6.79688 59.8906 6.79688C59.1094 6.79688 58.3281 6.96875 57.5469 7.3125C56.7656 7.625 55.9688 8.15625 55.1562 8.90625C53.3125 10.5 51.75 12.8281 50.4688 15.8906ZM33.2188 46.5469L21.0312 53.8594C13.2188 58.7344 7.8125 63.0312 4.8125 66.75C3.21875 68.6875 2.42188 70.5312 2.42188 72.2812C2.42188 72.9062 2.625 73.4688 3.03125 73.9688C3.40625 74.4688 4.14062 74.7188 5.23438 74.7188C6.32812 74.7188 7.73438 74.3125 9.45312 73.5C11.1719 72.6875 13 71.5781 14.9375 70.1719C16.8438 68.7969 18.7812 67.1875 20.75 65.3438C22.6875 63.5 24.5 61.5312 26.1875 59.4375C29.9375 54.7812 32.2812 50.4844 33.2188 46.5469Z" stroke="black"/>
</svg>
