<svg width="14" height="10" viewBox="0 0 14 10" fill="none" xmlns="http://www.w3.org/2000/svg">
<path d="M10.9824 5.02734L11.076 5.06262C11.0954 5.0112 11.113 4.96576 11.1288 4.9262C11.1288 4.92629 11.1288 4.92638 11.1288 4.92647L11.1287 4.92647L11.1286 4.92989C11.1252 5.022 11.1009 5.13861 11.052 5.28163C11.0034 5.41991 10.9417 5.5526 10.8669 5.67977L10.8666 5.68037C10.7445 5.89131 10.5392 6.13569 10.2457 6.41373L10.2457 6.41373L10.2447 6.41469C9.71082 6.9346 8.99044 7.30742 8.07776 7.52894C9.18242 7.19867 10.0485 6.60758 10.6706 5.75435C10.868 5.48586 11.0051 5.25451 11.0762 5.06201L10.9824 5.02734ZM10.9824 5.02734C11.0723 4.78906 11.127 4.66992 11.1465 4.66992C11.1582 4.66992 11.1758 4.6875 11.1992 4.72266M10.9824 5.02734C10.916 5.20703 10.7852 5.42969 10.5898 5.69531L11.1992 4.72266M11.1992 4.72266C11.2039 4.72806 11.2081 4.73463 11.2118 4.74237C11.2114 4.74286 11.2108 4.74356 11.21 4.74441C11.2083 4.74616 11.2034 4.75114 11.1953 4.75622C11.1875 4.76102 11.1705 4.76992 11.1465 4.76992C11.1461 4.76992 11.1456 4.76992 11.1452 4.76991C11.1399 4.76984 11.135 4.76929 11.1305 4.76846C11.1176 4.76604 11.1087 4.76124 11.1049 4.75897C11.0992 4.75553 11.0968 4.75283 11.0977 4.75382C11.0984 4.75448 11.1004 4.75663 11.1038 4.76098C11.1071 4.76522 11.1112 4.77086 11.116 4.77813L11.1153 4.7786L11.1219 4.78614L11.1992 4.72266ZM1.06045 8.30168C1.10015 8.68129 1.45045 8.87109 2.11133 8.87109C2.59961 8.87109 3.15234 8.65625 3.76953 8.22656L4.55082 7.61307C4.56963 7.62038 4.58856 7.62759 4.60761 7.6347L4.64258 7.54102L4.58082 7.46237L4.53426 7.49892C4.02988 7.29496 3.62263 7.01602 3.3125 6.66211C2.99219 6.30273 2.82031 5.90625 2.79688 5.47266C2.77344 5.04688 2.91406 4.68359 3.21875 4.38281C3.53906 4.06641 3.97266 3.9082 4.51953 3.9082C5.28125 3.9082 5.92188 4.23438 6.44141 4.88672L1.06045 8.30168ZM1.06045 8.30168C1.03829 8.29204 1.01757 8.28053 0.998517 8.26692L1.02734 8.22656L1.05664 8.18555H1.15664V8.22656C1.15664 8.22722 1.15664 8.22788 1.15664 8.22854C1.19949 8.23894 1.25015 8.24414 1.30859 8.24414C1.41797 8.24414 1.50586 8.2168 1.57227 8.16211C1.63477 8.10352 1.66602 8.03516 1.66602 7.95703C1.66602 7.78125 1.56836 7.69336 1.37305 7.69336C1.23242 7.69336 1.10938 7.73047 1.00391 7.80469C0.953125 7.83984 0.910156 7.88867 0.875 7.95117C0.839844 8.01367 0.822266 8.0957 0.822266 8.19727C0.822266 8.29883 0.847656 8.40234 0.898438 8.50781C1.07422 8.85547 1.46289 9.0293 2.06445 9.0293C2.5918 9.0293 3.10938 8.87109 3.61719 8.55469L1.06045 8.30168ZM6.93301 7.68866C6.96605 7.60391 6.9934 7.51982 7.01496 7.43642L7.16889 7.51682L9.3421 4.8867C10.776 3.21838 11.6626 2.20519 12.0043 1.84412L12.0046 1.84373C12.3209 1.50589 12.5595 1.26081 12.7212 1.10716C12.6591 1.17818 12.5867 1.26488 12.5043 1.36682L12.5033 1.36799L11.9291 2.10041L11.9291 2.1004L11.9279 2.102L7.9611 7.37543L7.79914 7.59074L7.79648 7.59129L7.77377 7.6213L6.80421 8.90271L6.4828 8.88262C6.35692 8.87475 6.25496 8.8707 6.17773 8.8707C6.13861 8.8707 6.10169 8.87185 6.06708 8.87425L6.77697 7.99648L6.77774 7.9971L6.78497 7.98504C6.7952 7.96799 6.80502 7.95333 6.81437 7.94086L6.8148 7.94118L6.82012 7.93231C6.83436 7.90858 6.84657 7.88428 6.85652 7.8594L6.9013 7.74744L6.91041 7.74666L6.93301 7.68866ZM12.7586 1.06496L12.6855 0.95155C12.774 0.923626 12.8569 0.90334 12.9344 0.89045C12.9067 0.913181 12.8789 0.938639 12.8512 0.966399C12.824 0.993563 12.7931 1.02645 12.7586 1.06496ZM11.2119 4.74245C11.2294 4.77948 11.235 4.84319 11.2285 4.93359C11.2246 5.03906 11.1973 5.16602 11.1465 5.31445C11.0957 5.45898 11.0312 5.59766 10.9531 5.73047L11.2119 4.74245ZM1.0073 8.49891C1.0006 8.48734 0.994201 8.47555 0.988115 8.46355C0.943148 8.36988 0.922266 8.28141 0.922266 8.19727C0.922266 8.11332 0.935789 8.05295 0.956641 8.01067L0.956641 8.18555V8.22656C0.956641 8.32633 0.97357 8.41742 1.0073 8.49891ZM1.11476 8.10417L0.96419 7.99662C0.992632 7.94708 1.02522 7.91156 1.06083 7.88691L1.06146 7.88647C1.14854 7.82518 1.25107 7.79336 1.37305 7.79336C1.45774 7.79336 1.50258 7.81264 1.52588 7.83361C1.54717 7.85277 1.56602 7.88744 1.56602 7.95703C1.56602 8.00382 1.549 8.04589 1.50625 8.0869C1.46226 8.12206 1.39951 8.14414 1.30859 8.14414C1.20328 8.14414 1.14439 8.12533 1.11476 8.10417ZM3.68594 6.88697C3.57768 6.79652 3.4783 6.69958 3.38771 6.5962L3.38715 6.59557C3.08019 6.25118 2.91881 5.87572 2.89673 5.46726L2.89672 5.46716C2.87487 5.07012 3.00462 4.73472 3.289 4.45398L3.28903 4.45396C3.51772 4.22805 3.81043 4.08618 4.17255 4.03254C4.09752 4.05231 4.02542 4.07819 3.95635 4.11028C3.78171 4.18935 3.6273 4.29573 3.49374 4.42929C3.20603 4.717 3.06016 5.06253 3.06016 5.46094C3.06016 6.01787 3.27191 6.49395 3.68594 6.88697Z" stroke="black" stroke-width="0.2"/>
</svg>
