<svg width="101" height="68" viewBox="0 0 101 68" fill="none" xmlns="http://www.w3.org/2000/svg">
<path d="M45.1562 57.6719C40.7188 57.6719 36.5938 57.0781 32.7812 55.8906C28.4062 59.5156 25.125 62.0312 22.9375 63.4375C18.875 65.9688 14.7344 67.2344 10.5156 67.2344C5.70312 67.2344 2.59375 65.8438 1.1875 63.0625C0.78125 62.2188 0.578125 61.3906 0.578125 60.5781C0.578125 59.7656 0.71875 59.1094 1 58.6094C1.28125 58.1094 1.625 57.7188 2.03125 57.4375C2.875 56.8438 3.85938 56.5469 4.98438 56.5469C6.54688 56.5469 7.32812 57.25 7.32812 58.6562C7.32812 59.2812 7.07812 59.8281 6.57812 60.2969C6.04688 60.7344 5.34375 60.9531 4.46875 60.9531C3.5625 60.9531 2.89062 60.7969 2.45312 60.4844V60.8125C2.45312 64.25 5.26562 65.9688 10.8906 65.9688C14.7969 65.9688 19.2188 64.25 24.1562 60.8125L31.1406 55.3281C26.7031 53.6719 23.1562 51.3281 20.5 48.2969C17.9375 45.4219 16.5625 42.25 16.375 38.7812C16.1875 35.375 17.3125 32.4688 19.75 30.0625C22.3125 27.5312 25.7812 26.2656 30.1562 26.2656C36.25 26.2656 41.375 28.875 45.5312 34.0938C46.7812 35.6875 47.8438 37.3906 48.7188 39.2031C58.75 29.5781 65.3125 23.3906 68.4062 20.6406L76.0938 13.9844C86.4688 5.45312 94.1094 1.1875 99.0156 1.1875C99.5781 1.1875 99.8594 1.28125 99.8594 1.46875C99.8594 1.6875 99.5938 1.89062 99.0625 2.07812C98.5625 2.26562 98 2.67188 97.375 3.29688C96.75 3.92188 95.8438 4.96875 94.6562 6.4375L90.0625 12.2969L58.3281 54.4844C67.0469 51.8906 73.8438 47.25 78.7188 40.5625C80.2812 38.4375 81.3281 36.6562 81.8594 35.2188C82.5781 33.3125 83.0156 32.3594 83.1719 32.3594C83.2656 32.3594 83.4062 32.5 83.5938 32.7812C83.8125 33.0312 83.8906 33.5938 83.8281 34.4688C83.7969 35.3125 83.5781 36.3281 83.1719 37.5156C82.7656 38.6719 82.25 39.7812 81.625 40.8438C80.5938 42.625 78.8906 44.6406 76.5156 46.8906C71.7344 51.5469 65.1719 54.7344 56.8281 56.4531L48.8125 67.0469L45.8125 66.8594C44.8125 66.7969 44.0156 66.7656 43.4219 66.7656C42.8594 66.7656 42.375 66.7969 41.9688 66.8594L40.6562 67.0469L47.5938 58.4688C47.6875 58.3125 47.7812 58.1719 47.875 58.0469C47.9688 57.8906 48.0469 57.7344 48.1094 57.5781C47.1094 57.6406 46.125 57.6719 45.1562 57.6719ZM49.375 40.6562C50.6562 43.9375 51.2969 46.75 51.2969 49.0938C51.2969 51.4375 51.1094 53.2812 50.7344 54.625L68.125 33.5781C79.5938 20.2344 86.7031 12.1094 89.4531 9.20312C92.2031 6.26562 94.2344 4.1875 95.5469 2.96875L92.4062 4.28125C88.1875 6.125 82.1562 10.4375 74.3125 17.2188L64.4688 26.125L49.375 40.6562ZM32.2656 54.3906C38.3594 48.9531 43.4844 44.2188 47.6406 40.1875C45.0469 34.2812 41.0938 30.4062 35.7812 28.5625C34 27.9688 32.25 27.6719 30.5312 27.6719C28.8438 27.6719 27.3281 27.9844 25.9844 28.6094C24.6719 29.2031 23.5156 30 22.5156 31C20.3594 33.1562 19.2812 35.7188 19.2812 38.6875C19.2812 43.9062 21.7188 48.2031 26.5938 51.5781C28.2188 52.7031 30.1094 53.6406 32.2656 54.3906ZM33.9062 54.9062C37.3438 55.875 41.1875 56.3594 45.4375 56.3594C46.5312 56.3594 47.625 56.3125 48.7188 56.2188C49.4375 54.375 49.7969 52.5938 49.7969 50.875C49.7969 47.6875 49.2812 44.6406 48.25 41.7344C41.2188 48.3594 36.4375 52.75 33.9062 54.9062Z" stroke="black"/>
</svg>
