<svg width="13" height="10" viewBox="0 0 13 10" fill="none" xmlns="http://www.w3.org/2000/svg">
<path d="M9.28646 2.955C8.68944 3.58739 8.05614 4.35417 7.38655 5.25479L7.3865 5.25485C6.72597 6.14463 6.05325 6.88094 5.36869 7.46494L5.36848 7.46512C4.6868 8.04997 4.03981 8.46701 3.42758 8.7197C3.2585 8.78568 3.06451 8.83506 2.84506 8.86721C2.97607 8.82286 3.1134 8.75896 3.25684 8.67655C3.44715 8.56723 3.6571 8.41495 3.88644 8.22122C4.11981 8.02739 4.39342 7.77533 4.70698 7.46569L4.70702 7.46572L4.70909 7.46354L5.79307 6.32682L5.79309 6.32684L5.79449 6.32531L7.24175 4.74328L7.24176 4.74329L7.24297 4.74192C8.58339 3.22202 9.8516 2.14039 11.0471 1.49119C10.9888 1.52693 10.9307 1.56501 10.8726 1.60541L10.8719 1.6059L10.5906 1.80512L10.5906 1.80508L10.5882 1.80687C10.0769 2.19234 9.64272 2.57499 9.28646 2.955ZM9.28646 2.955C9.28653 2.95493 9.2866 2.95486 9.28666 2.95479L9.35938 3.02344L9.28642 2.95504C9.28644 2.95503 9.28645 2.95501 9.28646 2.955ZM5.19947 5.177C5.08174 5.21934 4.96407 5.25517 4.84645 5.28451L4.82422 5.2207L4.84615 5.28458C4.6258 5.33952 4.40561 5.3717 4.18555 5.38131C4.13867 5.38335 4.09179 5.38438 4.04492 5.38438C3.94743 5.38438 3.85959 5.37504 3.78079 5.35708L3.76523 5.41053C3.84147 5.43273 3.93528 5.4461 4.04492 5.45196C4.08925 5.45433 4.13616 5.45547 4.18555 5.45547C4.36948 5.45547 4.59439 5.40668 4.85694 5.3152C4.97132 5.27592 5.0855 5.22984 5.19947 5.177ZM5.19947 5.177C5.35409 5.10531 5.50834 5.02119 5.66221 4.92475M5.19947 5.177C5.41335 5.10008 5.62742 5.00164 5.84173 4.88152L5.84183 4.88146C6.45751 4.53729 6.94722 4.08716 7.31291 3.53103C7.61397 3.07087 7.80215 2.5888 7.87848 2.08402M5.66221 4.92475C5.66212 4.9248 5.66202 4.92486 5.66192 4.92492L5.60938 4.83984L5.66249 4.92457C5.6624 4.92463 5.6623 4.92469 5.66221 4.92475ZM5.66221 4.92475C5.93332 4.75727 6.19589 4.55826 6.44996 4.328L6.44997 4.32801L6.45059 4.32743C6.70525 4.09267 6.93599 3.8341 7.1428 3.55179M7.1428 3.55179C7.49649 3.08111 7.74233 2.59176 7.87848 2.08402M7.1428 3.55179C7.14268 3.55195 7.14256 3.55211 7.14244 3.55227L7.0625 3.49219L7.14318 3.55127C7.14305 3.55145 7.14292 3.55162 7.1428 3.55179ZM7.87848 2.08402C7.90127 1.93331 7.91408 1.78057 7.91696 1.62579L7.87109 1.61719L7.917 1.62351C7.91738 1.60191 7.91758 1.58027 7.91758 1.55859C7.91758 1.54065 7.91654 1.52706 7.91504 1.51718C7.91359 1.50756 7.91201 1.50359 7.9119 1.50331C7.91189 1.50329 7.91189 1.50329 7.91189 1.50329C7.91204 1.50361 7.91545 1.51103 7.92548 1.51838C7.93663 1.52656 7.94918 1.52969 7.95898 1.52969C7.98283 1.52969 7.99812 1.51825 8.00333 1.5132C8.00492 1.51166 8.00564 1.51069 8.00565 1.5107C8.00567 1.51071 8.004 1.513 8.00119 1.51901C7.99687 1.52822 7.99209 1.54123 7.98707 1.55859C7.98151 1.57786 7.97565 1.6025 7.96982 1.63329C7.94881 1.78511 7.91834 1.93535 7.87848 2.08402ZM7.91859 5.22632C7.93709 5.21046 7.95876 5.1949 7.98383 5.17978C7.979 5.19394 7.97617 5.2095 7.97617 5.22656C7.97617 5.27188 7.99048 5.31474 8.01954 5.35082C8.04731 5.38529 8.08439 5.4085 8.1229 5.42443C8.13452 5.42924 8.14676 5.43359 8.15958 5.4375C8.15148 5.43637 8.14358 5.43519 8.13588 5.43396C8.05021 5.42029 7.99634 5.40127 7.96586 5.38247C7.92655 5.35674 7.90266 5.33497 7.88938 5.31823C7.87642 5.30188 7.87734 5.29532 7.87734 5.29688C7.87734 5.27793 7.88446 5.2552 7.91811 5.22673L7.91859 5.22632ZM9.45025 5.25493C9.15581 5.35498 8.89914 5.41652 8.67919 5.44163C8.86664 5.40771 9.07738 5.34048 9.31024 5.24257L9.49535 5.16474L9.49001 5.16164L9.49705 5.15819C10.4035 4.71496 11.0281 4.06649 11.3625 3.21258C11.4841 2.9085 11.5453 2.59916 11.5453 2.28516C11.5453 1.96508 11.4576 1.68686 11.2782 1.45618L11.2297 1.39391L11.2367 1.3902L11.141 1.29452C10.997 1.15049 10.8258 1.02931 10.6281 0.930329C10.8756 1.02719 11.0963 1.15002 11.291 1.29829L11.3397 1.33539L11.3401 1.33516L11.4347 1.42575C11.7819 1.75814 11.9547 2.16551 11.9547 2.6543C11.9547 3.12079 11.7365 3.59954 11.2784 4.09195C10.8557 4.54519 10.3291 4.90058 9.69675 5.15735L9.54758 5.21792L9.668 5.32479C9.95457 5.57913 10.1031 5.94182 10.1031 6.42773C10.1031 6.83439 9.95163 7.23294 9.63864 7.62512L9.63851 7.62528C9.16963 8.21516 8.52394 8.61249 7.69515 8.81493C7.5959 8.83904 7.4996 8.85859 7.40621 8.87364C7.6498 8.80225 7.89773 8.67978 8.14965 8.5087C8.8336 8.04999 9.30024 7.40944 9.54881 6.59158L9.54906 6.59072C9.62926 6.31806 9.67031 6.06428 9.67031 5.83008C9.67031 5.60074 9.64173 5.41582 9.56722 5.29661L9.52524 5.22944L9.45025 5.25493ZM3.78351 3.32642C3.4949 3.70822 3.30837 4.06053 3.23548 4.38139C3.26 4.20003 3.32802 3.98667 3.44402 3.73979L3.44422 3.73938C3.59207 3.42092 3.79546 3.11448 4.05537 2.82016C4.31951 2.52156 4.63226 2.24126 4.99416 1.97946C5.35602 1.71769 5.74699 1.48845 6.16723 1.29182C6.27528 1.2417 6.38387 1.19458 6.49301 1.15046C6.06225 1.35724 5.63433 1.62112 5.20932 1.94164L5.20909 1.94182C4.63683 2.37595 4.16145 2.83707 3.78414 3.32559L3.78413 3.32559L3.78351 3.32642ZM1.06211 8.20898C1.06211 8.28706 1.07559 8.35981 1.10161 8.42716C1.05526 8.34551 1.03359 8.25915 1.03359 8.16797C1.03359 8.10139 1.04375 8.04616 1.06211 8.00026L1.06211 8.17383V8.20898ZM1.22023 8.09245L1.06895 7.9844C1.07869 7.9634 1.09026 7.9445 1.10346 7.92747C1.14737 7.8708 1.21692 7.82502 1.32222 7.79596C1.37666 7.78244 1.43066 7.77578 1.48438 7.77578C1.52307 7.77578 1.56891 7.78893 1.62341 7.82419L1.6234 7.8242L1.62473 7.82503C1.65128 7.84163 1.67148 7.86949 1.67148 7.93359C1.67148 7.99089 1.65234 8.03609 1.6117 8.0752C1.56771 8.11035 1.50496 8.13242 1.41406 8.13242C1.30875 8.13242 1.24985 8.11361 1.22023 8.09245Z" stroke="black" stroke-width="0.2"/>
</svg>
