<svg width="10" height="11" viewBox="0 0 10 11" fill="none" xmlns="http://www.w3.org/2000/svg">
<path d="M4.61513 4.27839C5.35981 4.0493 6.15629 3.69463 7.00423 3.21599L7.00428 3.21596C7.81734 2.75641 8.42017 2.30647 8.80581 1.86458L8.8059 1.86448C8.80679 1.86345 8.80768 1.86243 8.80857 1.8614C8.65149 2.08694 8.4139 2.33106 8.08785 2.59384C7.46422 3.09039 6.69594 3.52328 5.78134 3.89148C5.37866 4.05059 4.98994 4.17949 4.61513 4.27839ZM3.03056 4.58735L3.03304 4.58709C2.44345 5.24119 1.99702 5.82891 1.69612 6.34989C1.39028 6.87941 1.23008 7.34801 1.23008 7.75195C1.23008 8.06824 1.30516 8.33261 1.46561 8.53481C1.52768 8.61304 1.60116 8.68024 1.68536 8.73683C1.62895 8.7066 1.57624 8.67262 1.52714 8.63499C1.3514 8.50028 1.21675 8.31478 1.12483 8.07411C1.06738 7.91955 1.0375 7.73851 1.0375 7.5293C1.0375 6.64594 1.43979 5.675 2.2645 4.61411L2.3506 4.50335L2.36881 4.4808C3.18127 3.4749 4.16609 2.63115 5.32407 1.94952C6.25255 1.40493 7.1117 1.07265 7.90251 0.947667C7.76894 0.990671 7.62842 1.04538 7.48109 1.11137C7.07049 1.2953 6.60078 1.56975 6.0725 1.93305C5.04278 2.63265 4.08995 3.45196 3.21399 4.39076L3.03056 4.58735ZM1.05149 3.57522C1.04264 3.55291 1.03428 3.53021 1.02641 3.50713C0.97546 3.35418 0.949609 3.18926 0.949609 3.01172C0.949609 2.84268 0.995329 2.66264 1.0914 2.4705L1.0914 2.4705L1.09173 2.46982C1.18836 2.27286 1.32293 2.08171 1.49674 1.89657C1.67477 1.70718 1.88585 1.52823 2.13058 1.35995C2.37881 1.19195 2.65042 1.04461 2.94564 0.918086C2.97007 0.907619 2.99451 0.89735 3.01896 0.88728C2.7964 0.997378 2.57423 1.12711 2.35249 1.27633C1.811 1.63867 1.42037 2.05105 1.18805 2.51553C1.06656 2.75454 1.00156 2.97729 1.00156 3.18164C1.00156 3.32777 1.01752 3.45954 1.05149 3.57522ZM4.54889 8.32202C4.10543 8.58303 3.65047 8.75704 3.1836 8.84475C3.51561 8.73302 3.86131 8.54054 4.22016 8.27141L4.22044 8.27119C4.75684 7.86591 5.22704 7.36969 5.63117 6.78331L5.63133 6.78307C6.02477 6.20865 6.23477 5.71883 6.23477 5.32031C6.23477 5.14097 6.18772 4.98834 6.06918 4.89135C6.03982 4.86733 6.00628 4.84717 5.96903 4.83049C6.1274 4.86215 6.25298 4.92272 6.34968 5.00843L6.35065 5.00928C6.49974 5.13803 6.57383 5.30143 6.57383 5.50781C6.57383 5.72763 6.52621 5.96337 6.42825 6.21577L6.42797 6.21653C6.3336 6.46566 6.19905 6.71623 6.02343 6.96821C5.84817 7.21967 5.63413 7.46449 5.38075 7.70251C5.13248 7.93549 4.8553 8.142 4.54895 8.32198L4.54889 8.32202Z" stroke="black" stroke-width="0.2"/>
</svg>
