<svg width="68" height="83" viewBox="0 0 68 83" fill="none" xmlns="http://www.w3.org/2000/svg">
<path d="M62.8125 4.32812C65.7188 4.32812 67.1719 5.48438 67.1719 7.79688C67.1719 11.2344 64.5156 15.0938 59.2031 19.375C54.1406 23.4062 47.9219 26.9062 40.5469 29.875C32.7969 32.9375 25.6562 34.625 19.125 34.9375C9.46875 45.5938 4.64062 53.9531 4.64062 60.0156C4.64062 64.8281 6.92188 67.7031 11.4844 68.6406C11.4844 60.2031 14.3906 52.5625 20.2031 45.7188C23.7969 41.5 27.875 38.5625 32.4375 36.9062C34.6875 36.0625 37.0469 35.6406 39.5156 35.6406C42.0156 35.6406 43.9531 36.25 45.3281 37.4688C46.7031 38.6562 47.3906 40.1875 47.3906 42.0625C47.3906 43.9375 46.9844 45.9219 46.1719 48.0156C45.3906 50.0781 44.2812 52.1406 42.8438 54.2031C41.4062 56.2656 39.6562 58.2656 37.5938 60.2031C35.5625 62.1094 33.2969 63.7969 30.7969 65.2656C25.3281 68.4844 19.625 70.0938 13.6875 70.0938H13.2656C13.1406 70.0938 13 70.0781 12.8438 70.0469C13.0312 75.4844 13.9531 79.2812 15.6094 81.4375C15.7344 81.5938 15.7969 81.7188 15.7969 81.8125V82.0469C15.7969 82.2031 15.6562 82.2812 15.375 82.2812C14.1875 82.2812 13.0781 79.8125 12.0469 74.875C11.7344 73.375 11.5469 71.7344 11.4844 69.9531C6.89062 69.3281 3.8125 66.9688 2.25 62.875C1.75 61.5312 1.5 59.9844 1.5 58.2344C1.5 50.9219 4.82812 42.9844 11.4844 34.4219C6.23438 33.2344 2.89062 30.5312 1.45312 26.3125C1.01562 25 0.796875 23.5938 0.796875 22.0938C0.796875 20.5938 1.20312 19.0312 2.01562 17.4062C2.82812 15.75 3.95312 14.1562 5.39062 12.625C6.85938 11.0625 8.59375 9.59375 10.5938 8.21875C12.625 6.84375 14.8438 5.64062 17.25 4.60938C22.5 2.35938 27.8438 1.23438 33.2812 1.23438C35.8125 1.23438 37.0781 1.5 37.0781 2.03125C37.0781 2.28125 36.875 2.40625 36.4688 2.40625L33.0469 2.21875C26.4531 2.21875 19.8594 4.4375 13.2656 8.875C9.01562 11.7188 6 14.9219 4.21875 18.4844C3.28125 20.3281 2.8125 21.9844 2.8125 23.4531C2.8125 24.8906 3.01562 26.0938 3.42188 27.0625C3.85938 28 4.46875 28.875 5.25 29.6875C6.9375 31.4375 9.29688 32.6562 12.3281 33.3438C18.8906 25.2188 26.8438 18.4062 36.1875 12.9062C45.9375 7.1875 54.8125 4.32812 62.8125 4.32812ZM66.0469 7.9375C66.0469 6.28125 64.8281 5.45312 62.3906 5.45312C57.8906 5.45312 51.4375 8.34375 43.0312 14.125C34.8438 19.6875 27.2656 26.2031 20.2969 33.6719C28.9531 32.7344 38.7344 29.1875 49.6406 23.0312C56.1094 19.375 60.8438 15.8281 63.8438 12.3906C65.3125 10.7031 66.0469 9.21875 66.0469 7.9375ZM12.8438 68.8281C13.0625 68.8594 13.2812 68.875 13.5 68.875H14.2031C18.1719 68.875 22.5312 67.0938 27.2812 63.5312C31.5 60.3438 35.2031 56.4375 38.3906 51.8125C41.5156 47.25 43.0781 43.5 43.0781 40.5625C43.0781 39.25 42.7344 38.3125 42.0469 37.75C41.3594 37.1875 40.1875 36.9062 38.5312 36.9062C36.9062 36.9062 35.1094 37.2812 33.1406 38.0312C31.1719 38.7812 29.2188 39.8438 27.2812 41.2188C25.375 42.5938 23.5469 44.25 21.7969 46.1875C20.0469 48.125 18.5 50.2812 17.1562 52.6562C14.2812 57.7812 12.8438 63.1562 12.8438 68.7812V68.8281Z" stroke="black"/>
</svg>
