<svg width="13" height="10" viewBox="0 0 13 10" fill="none" xmlns="http://www.w3.org/2000/svg">
<path d="M0.859375 8.75977C1 8.94336 1.33203 9.03516 1.85547 9.03516C2.61719 9.03516 3.31641 8.92773 3.95312 8.71289L0.859375 8.75977ZM0.859375 8.75977C0.820312 8.70898 0.800781 8.65625 0.800781 8.60156M0.859375 8.75977L0.800781 8.60156M0.800781 8.60156C0.800781 8.54297 0.828125 8.48438 0.882812 8.42578L0.800781 8.60156ZM4.19193 8.51435L3.95267 8.6084L3.95126 8.60798L3.92115 8.61814C3.55726 8.74093 3.17198 8.82818 2.76513 8.87967C3.02538 8.83252 3.2651 8.76069 3.48389 8.66368L3.74705 8.547L3.73247 8.54325L3.75449 8.53138C4.16239 8.31143 4.56227 8.01061 4.95438 7.63038L4.95439 7.63037C5.34639 7.25014 5.69763 6.88714 6.00801 6.54141L6.00803 6.54143L6.0097 6.53947L7.02338 5.35002L7.02338 5.35002L7.02415 5.3491L8.00711 4.1672L8.53242 3.58936C8.71428 3.39592 8.92162 3.18858 9.15453 2.9673C9.3882 2.74899 9.66303 2.53361 9.97953 2.32133L10.0614 2.26641L10.0077 2.18375C9.88806 1.99991 9.74913 1.83667 9.59118 1.69379C9.7663 1.82976 9.92328 1.98521 10.0624 2.15994L10.1182 2.23008L10.194 2.18221C10.6072 1.92126 10.9982 1.71943 11.3674 1.57546C11.0036 1.75348 10.6393 2.00049 10.2746 2.31488L10.2107 2.36993L10.2542 2.44218C10.5338 2.90703 10.6734 3.41068 10.6734 3.95508C10.6734 4.5102 10.6098 4.99627 10.4843 5.41462C10.3578 5.83621 10.1836 6.22655 9.96189 6.58597C9.74009 6.94157 9.47435 7.26275 9.16448 7.54967L9.16403 7.55009C8.85759 7.83737 8.52263 8.08044 8.15902 8.27947L8.15884 8.27957C7.86337 8.44207 7.56276 8.57317 7.25692 8.67296C7.53044 8.57435 7.79347 8.45249 8.04592 8.3074L8.04624 8.30722C8.39706 8.1039 8.72181 7.85881 9.02043 7.57214L9.02092 7.57166C9.31976 7.28079 9.57881 6.95798 9.79796 6.60335L9.79816 6.60302C10.265 5.84098 10.4984 5.00646 10.4984 4.10156C10.4984 3.50127 10.4011 2.98239 10.2022 2.54821L10.1447 2.42244L10.0433 2.51656C9.60005 2.92813 9.1854 3.41208 8.79908 3.96784C8.79897 3.968 8.79886 3.96816 8.79875 3.96832L7.72752 5.4727C6.58953 7.02614 5.41011 8.03551 4.19193 8.51435ZM2.01953 8.24961C1.68335 8.24961 1.42081 8.27009 1.23833 8.31474C1.42847 8.23625 1.61837 8.19766 1.80859 8.19766C2.04259 8.19766 2.20776 8.20356 2.30732 8.21462C2.40953 8.22598 2.52184 8.24307 2.64437 8.26602C2.84908 8.30992 3.05388 8.36251 3.25875 8.42378C2.76924 8.30842 2.35559 8.24961 2.01953 8.24961ZM4.24972 5.54053C4.34702 5.51822 4.44306 5.48985 4.53784 5.4554L6.82422 3.70312L6.90064 3.76762C6.90064 3.76762 6.90065 3.76762 6.90065 3.76761C7.17169 3.44646 7.37393 3.13031 7.50416 2.81938C7.41419 3.12137 7.26595 3.4244 7.05805 3.72875L7.05777 3.72916C6.49256 4.56552 5.72646 5.12968 4.75615 5.42383L4.75599 5.42388C4.57591 5.47878 4.40722 5.51751 4.24972 5.54053ZM3.82094 2.08887C4.1079 1.86695 4.42392 1.67342 4.76926 1.5084C5.1643 1.32422 5.57357 1.18915 5.99722 1.10323C5.64261 1.20678 5.28875 1.35692 4.93577 1.55323L4.93537 1.55345C4.26429 1.93069 3.70689 2.40612 3.26455 2.97996L3.26443 2.98013C2.83181 3.54371 2.60508 4.0727 2.60508 4.56445C2.60508 4.7996 2.6672 5.00419 2.79294 5.17371C2.56975 4.9655 2.46523 4.73558 2.46523 4.48242C2.46523 4.17013 2.51974 3.87591 2.62826 3.59899C2.73768 3.31978 2.89269 3.05292 3.09405 2.79837C3.29556 2.54363 3.53761 2.30711 3.82079 2.08899L3.82094 2.08887Z" stroke="black" stroke-width="0.2"/>
</svg>
