<svg width="10" height="11" viewBox="0 0 10 11" fill="none" xmlns="http://www.w3.org/2000/svg">
<path d="M9.15531 2.85416C9.36142 2.60379 9.46043 2.34256 9.46043 2.06836C9.46043 1.9986 9.45475 1.93193 9.44331 1.86829C9.44353 1.87635 9.44363 1.88444 9.44363 1.89258C9.44363 2.35695 9.20773 2.77165 8.76243 3.13599C8.56007 3.30191 8.32455 3.44861 8.05665 3.57656C7.78973 3.70405 7.50533 3.8114 7.2036 3.89875C7.20355 3.89877 7.20351 3.89878 7.20347 3.89879L7.17566 3.80273C6.88269 3.88867 6.58191 3.95508 6.27332 4.00195L9.15531 2.85416ZM9.15531 2.85416C8.94666 3.10369 8.66301 3.32445 8.30112 3.51494C7.74483 3.80515 7.11501 3.99435 6.4105 4.08119L9.15531 2.85416ZM5.67566 6.28125C5.49598 6.12109 5.28309 6.04102 5.03699 6.04102C4.40809 6.04102 3.83387 6.33203 3.31434 6.91406C2.8301 7.45417 2.54833 8.06353 2.46901 8.74216L5.67566 6.28125ZM5.67566 6.28125C5.85926 6.44141 5.95105 6.65234 5.95105 6.91406C5.95105 7.17578 5.87098 7.43945 5.71082 7.70508L5.67566 6.28125ZM4.99196 8.30829C4.57403 8.59402 4.08909 8.77916 3.53517 8.86183C3.53621 8.8615 3.53725 8.86116 3.5383 8.86083C3.76323 8.78853 3.98194 8.6942 4.19437 8.57796L4.19493 8.57765C4.4108 8.45773 4.61286 8.3217 4.80104 8.16956L4.80122 8.16941C4.99284 8.01372 5.16132 7.85138 5.30628 7.68227L5.30634 7.6822C5.61219 7.32471 5.78152 6.9931 5.78152 6.69141C5.78152 6.64235 5.77677 6.5956 5.7672 6.55138C5.82296 6.65534 5.85105 6.77557 5.85105 6.91406C5.85105 7.15438 5.77775 7.40032 5.62534 7.65318C5.47329 7.90156 5.26289 8.12009 4.99196 8.30829ZM1.53066 8.51198C1.63333 8.62081 1.75728 8.70958 1.90123 8.77926C1.64503 8.69485 1.4257 8.57111 1.24171 8.40929L1.24151 8.40912C0.949682 8.15376 0.802434 7.84031 0.795176 7.46292L0.795184 7.46292L0.795144 7.46167C0.780286 6.99364 0.922711 6.54184 1.22836 6.10413L1.22853 6.10387C1.68082 5.45182 2.36081 5.01461 3.27854 4.79659C3.57524 4.72814 3.88787 4.69375 4.21668 4.69375H4.25184H4.4486L4.33261 4.5348C4.23533 4.40149 4.16434 4.24746 4.12033 4.07145L4.1189 4.06571L4.12176 4.0663L4.09208 3.91789C4.08967 3.90583 4.08816 3.89102 4.08816 3.87305V3.87291V3.87277V3.87263V3.8725V3.87236V3.87222V3.87209V3.87195V3.87181V3.87167V3.87154V3.8714V3.87126V3.87112V3.87099V3.87085V3.87071V3.87057V3.87044V3.8703V3.87016V3.87003V3.86989V3.86975V3.86961V3.86948V3.86934V3.8692V3.86906V3.86893V3.86879V3.86865V3.86852V3.86838V3.86824V3.8681V3.86797V3.86783V3.86769V3.86755V3.86742V3.86728V3.86714V3.867V3.86687V3.86673V3.86659V3.86646V3.86632V3.86618V3.86604V3.86591V3.86577V3.86563V3.86549V3.86536V3.86522V3.86508V3.86494V3.86481V3.86467V3.86453V3.8644V3.86426V3.86412V3.86398V3.86385V3.86371V3.86357V3.86343V3.8633V3.86316V3.86302V3.86288V3.86275V3.86261V3.86247V3.86234V3.8622V3.86206V3.86192V3.86179V3.86165V3.86151V3.86137V3.86124V3.8611V3.86096V3.86082V3.86069V3.86055V3.86041V3.86028V3.86014V3.86V3.85986V3.85973V3.85959V3.85945V3.85931V3.85918V3.85904V3.8589V3.85876V3.85863V3.85849V3.85835V3.85822V3.85808V3.85794V3.8578V3.85767V3.85753V3.85739V3.85725V3.85712V3.85698V3.85684V3.8567V3.85657V3.85643V3.85629V3.85616V3.85602V3.85588V3.85574V3.85561V3.85547V3.85533V3.85519V3.85506V3.85492V3.85478V3.85464V3.85451V3.85437V3.85423V3.8541V3.85396V3.85382V3.85368V3.85355V3.85341V3.85327V3.85313V3.853V3.85286V3.85272V3.85258V3.85245V3.85231V3.85217V3.85204V3.8519V3.85176V3.85162V3.85149V3.85135V3.85121V3.85107V3.85094V3.8508V3.85066V3.85052V3.85039V3.85025V3.85011V3.84998V3.84984V3.8497V3.84956V3.84943V3.84929V3.84915V3.84901V3.84888V3.84874V3.8486V3.84846V3.84833V3.84819V3.84805V3.84792V3.84778V3.84764V3.8475V3.84737V3.84723V3.84709V3.84695V3.84682V3.84668V3.84654V3.84641V3.84627V3.84613V3.84599V3.84586V3.84572V3.84558V3.84544V3.84531V3.84517V3.84503V3.84489V3.84476V3.84462V3.84448V3.84435V3.84421V3.84407V3.84393V3.8438V3.84366V3.84352V3.84338V3.84325V3.84311V3.84297V3.84283V3.8427V3.84256V3.84242V3.84229V3.84215V3.84201V3.84187V3.84174V3.8416V3.84146V3.84132V3.84119V3.84105V3.84091V3.84077V3.84064V3.8405V3.84036V3.84023V3.84009V3.83995V3.83981V3.83968V3.83954V3.8394V3.83926V3.83913V3.83899V3.83885V3.83871V3.83858V3.83844V3.8383V3.83817V3.83803V3.83789V3.83775V3.83762V3.83748V3.83734V3.8372V3.83707V3.83693V3.83679V3.83665V3.83652V3.83638V3.83624V3.83611V3.83597V3.83583V3.83569V3.83556V3.83542V3.83528V3.83514V3.83501V3.83487V3.83473V3.83459V3.83446V3.83432V3.83418V3.83405V3.83391V3.83377V3.83363V3.8335V3.83336V3.83322V3.83308V3.83295V3.83281V3.83267V3.83253V3.8324V3.83226V3.83212V3.83199V3.83185V3.83171V3.83157V3.83144V3.8313V3.83116V3.83102V3.83089V3.83075V3.83061V3.83047V3.83034V3.8302V3.83006V3.82993V3.82979V3.82965V3.82951V3.82938V3.82924V3.8291V3.82896V3.82883V3.82869V3.82855V3.82841V3.82828V3.82814V3.828V3.82787V3.82773V3.82759V3.82745V3.82732V3.82718V3.82704V3.8269V3.82677V3.82663V3.82649V3.82635V3.82622V3.82608V3.82594V3.82581V3.82567V3.82553V3.82539V3.82526V3.82512V3.82498V3.82484V3.82471V3.82457V3.82443V3.8243V3.82416V3.82402V3.82388V3.82375V3.82361V3.82347V3.82333V3.8232V3.82306V3.82292V3.82278V3.82265V3.82251V3.82237V3.82224V3.8221V3.82196V3.82182V3.82169V3.82155V3.82141V3.82127V3.82114V3.821V3.82086V3.82072V3.82059V3.82045V3.82031V3.82018V3.82004V3.8199V3.81976V3.81963V3.81949V3.81935V3.81921V3.81908V3.81894V3.8188V3.81866V3.81853V3.81839V3.81825V3.81812V3.81798V3.81784V3.8177V3.81757V3.81743V3.81729V3.81715V3.81702V3.81688V3.81674V3.8166V3.81647V3.81633V3.81619V3.81606V3.81592V3.81578V3.81564V3.81551V3.81537V3.81523V3.81509V3.81496V3.81482V3.81468V3.81454V3.81441V3.81427V3.81413V3.814V3.81386V3.81372V3.81358V3.81345V3.81331V3.81317V3.81303V3.8129V3.81276V3.81262V3.81248V3.81235V3.81221V3.81207V3.81194V3.8118V3.81166V3.81152V3.81139V3.81125V3.81111V3.81097V3.81084V3.8107V3.81056V3.81042V3.81029V3.81015V3.81001V3.80988V3.80974V3.8096V3.80946V3.80933V3.80919V3.80905V3.80891V3.80878V3.80864V3.8085V3.80836V3.80823V3.80809V3.80795V3.80782V3.80768V3.80754V3.8074V3.80727V3.80713V3.80699V3.80685V3.80672V3.80658V3.80644V3.8063V3.80617V3.80603V3.80589V3.80576V3.80562V3.80548V3.80534V3.80521V3.80507V3.80493V3.80479V3.80466V3.80452V3.80438V3.80424V3.80411V3.80397V3.80383V3.8037V3.80356V3.80342V3.80328V3.80315V3.80301V3.80287V3.80273H4.08817L4.08815 3.80139C4.08066 3.24327 4.25605 2.734 4.61772 2.27058C5.12515 1.62309 5.83239 1.19471 6.74653 0.988166L6.74653 0.988171L6.74747 0.987949C6.89323 0.953535 7.0377 0.928314 7.18093 0.912239C7.0937 0.932076 7.01052 0.955917 6.93144 0.983826C6.65845 1.08018 6.3958 1.20855 6.14355 1.3687L6.14294 1.3691C5.89502 1.52904 5.66512 1.71297 5.45329 1.92081C5.24209 2.12801 5.05824 2.3457 4.90203 2.57395C4.56712 3.05252 4.39207 3.50777 4.39207 3.9375V4.01953V4.06063L4.3819 4.05929L4.39207 4.09894V4.10626L4.39402 4.10654L4.41864 4.20257C4.46049 4.3658 4.52939 4.52201 4.6246 4.67103L4.62992 4.67935L4.60217 4.67756L4.76287 4.85923C4.89726 5.01114 5.03639 5.13032 5.18024 5.21318C4.94499 5.12977 4.71658 4.97248 4.49464 4.73622L4.46053 4.69991L4.411 4.70527C3.62855 4.78997 2.8966 5.14486 2.21593 5.76185L2.21592 5.76184L2.21523 5.76248C1.79662 6.1492 1.49943 6.55969 1.32867 6.99471L1.32867 6.99471L1.32834 6.99558C1.24126 7.22364 1.20051 7.47277 1.20458 7.74175L1.20457 7.74175L1.20462 7.74326C1.21323 8.0274 1.32373 8.28397 1.52934 8.51056L1.52933 8.51057L1.53066 8.51198ZM1.691 2.35512C1.691 2.3551 1.6912 2.35525 1.6916 2.35561L1.691 2.35512Z" stroke="black" stroke-width="0.2"/>
</svg>
