<svg width="72" height="81" viewBox="0 0 72 81" fill="none" xmlns="http://www.w3.org/2000/svg">
<path d="M18.5625 79.2344C18.9063 79.5781 19.0782 79.8438 19.0782 80.0312C19.0782 80.25 18.8907 80.3594 18.5157 80.3594C17.2344 80.3594 16.1875 78.4375 15.375 74.5938C14.9063 72.5938 14.6407 70.5 14.5782 68.3125V66.9531C10.3907 66.5156 7.00003 65.1562 4.40628 62.875C1.90628 60.6875 0.625034 57.9688 0.562534 54.7188C0.437534 50.7812 1.64066 47 4.17191 43.375C7.92191 37.9688 13.5469 34.375 21.0469 32.5938C23.4844 32.0312 26.0469 31.75 28.7344 31.75H29.0157C28.1719 30.5938 27.5625 29.2656 27.1875 27.7656C22.2813 26.7031 18.2813 25.0469 15.1875 22.7969C12.125 20.5156 9.92191 17.8594 8.57816 14.8281C8.39066 14.4844 8.29691 14.1094 8.29691 13.7031C8.29691 13.2969 8.43753 13.0938 8.71878 13.0938C9.03128 13.0938 9.34378 13.4688 9.65628 14.2188C12.5 20.5938 18.2657 24.6875 26.9532 26.5C26.9219 26.3438 26.9063 26.1719 26.9063 25.9844C26.9063 25.7969 26.9063 25.6094 26.9063 25.4219C26.8438 20.7656 28.3125 16.5156 31.3125 12.6719C35.5 7.32812 41.3282 3.8125 48.7969 2.125C51.0469 1.59375 53.2657 1.32812 55.4532 1.32812C60.5157 1.32812 64.4532 2.23438 67.2657 4.04688C70.0782 5.82812 71.4844 8.32812 71.4844 11.5469C71.4844 13.9531 70.6094 16.2188 68.8594 18.3438C67.1094 20.4375 64.75 22.2656 61.7813 23.8281C55.3125 27.2031 47.6563 28.8906 38.8125 28.8906C36.0625 28.8906 33.5 28.7344 31.125 28.4219C31.4375 29.6406 31.9532 30.8125 32.6719 31.9375C35.7344 32.2812 38.0469 32.9062 39.6094 33.8125C41.2032 34.6875 42.0157 35.6094 42.0469 36.5781C42.0469 37.5781 41.2813 38.0781 39.75 38.0781C36.4063 38.0781 33.2813 36.5312 30.375 33.4375C24.3125 34.0938 18.6094 36.8438 13.2657 41.6875C9.98441 44.7188 7.68753 47.9062 6.37503 51.25C5.71878 52.9688 5.40628 54.8594 5.43753 56.9219C5.50003 58.9844 6.29691 60.8594 7.82816 62.5469C9.39066 64.2031 11.6719 65.2656 14.6719 65.7344C15.1719 59.9844 17.4532 54.8438 21.5157 50.3125C25.6719 45.6562 30.2657 43.3281 35.2969 43.3281C37.2657 43.3281 38.9688 43.9688 40.4063 45.25C41.875 46.5312 42.6094 48.2188 42.6094 50.3125C42.6094 52.4062 41.9688 54.5156 40.6875 56.6406C39.4063 58.7344 37.6407 60.5625 35.3907 62.125C30.5469 65.4375 24.6407 67.0938 17.6719 67.0938L15.9844 67.0469C15.9532 67.2969 15.9375 67.5312 15.9375 67.75V68.4531C15.9375 71.6406 16.4688 74.5781 17.5313 77.2656C17.9063 78.2656 18.25 78.9219 18.5625 79.2344ZM30.9375 27.1562C32.6875 27.4062 34.875 27.5312 37.5 27.5312C40.1563 27.5312 42.7188 27.3594 45.1875 27.0156C47.6563 26.6406 50.0625 26.1094 52.4063 25.4219C54.7813 24.7344 57.0157 23.8906 59.1094 22.8906C61.2032 21.8906 63.0313 20.75 64.5938 19.4688C68.0313 16.6562 69.75 13.5469 69.75 10.1406C69.75 7.92188 68.625 6.10938 66.375 4.70312C64.0313 3.23438 61.3594 2.5 58.3594 2.5C55.3907 2.5 52.8438 2.875 50.7188 3.625C48.5938 4.375 46.5469 5.375 44.5782 6.625C42.6407 7.875 40.8438 9.3125 39.1875 10.9375C37.5313 12.5625 36.0938 14.2656 34.875 16.0469C32.25 19.7969 30.9375 23.2812 30.9375 26.5V27.1562ZM33.7032 33.3438C35.8594 35.7812 38.0625 37 40.3125 37C40.8125 37 41.0625 36.8438 41.0625 36.5312C41.0625 36.2188 40.8594 35.9062 40.4532 35.5938C40.0782 35.25 39.5625 34.9219 38.9063 34.6094C37.375 33.8906 35.6407 33.4688 33.7032 33.3438ZM16.0313 65.875C16.6563 65.9375 17.5469 65.9688 18.7032 65.9688C19.8594 65.9688 21.3125 65.6875 23.0625 65.125C24.8125 64.5625 26.5157 63.8281 28.1719 62.9219C29.8594 61.9844 31.4375 60.9219 32.9063 59.7344C34.4063 58.5156 35.7188 57.25 36.8438 55.9375C39.25 53.125 40.4532 50.6562 40.4532 48.5312C40.4532 47.2188 39.9688 46.2188 39 45.5312C38.0313 44.8438 36.7032 44.5 35.0157 44.5C33.3282 44.5 31.4063 45.0156 29.25 46.0469C27.125 47.0469 25.125 48.4844 23.25 50.3594C19.0313 54.6406 16.625 59.8125 16.0313 65.875Z" stroke="black"/>
</svg>
