<svg width="14" height="10" viewBox="0 0 14 10" fill="none" xmlns="http://www.w3.org/2000/svg">
<path d="M2.47579 9.79534C2.35565 9.83857 2.23703 9.87126 2.11999 9.89321C1.94761 9.92619 1.74786 9.94392 1.52148 9.94712C1.49642 9.94748 1.47103 9.94766 1.44531 9.94766C1.17479 9.94766 0.921798 9.88296 0.68802 9.75357L0.519531 8.6875C0.28125 8.75391 0.162109 8.9082 0.162109 9.15039C0.162109 9.37695 0.304688 9.57812 0.589844 9.75391C0.859375 9.92188 1.16992 10.0059 1.52148 10.0059C2.43555 10.0059 3.25781 9.73047 3.98828 9.17969C4.38281 8.88281 4.81055 8.45508 5.27148 7.89648C5.73242 7.33789 6.14844 6.73242 6.51953 6.08008L7.26953 5.91602L7.24784 5.8184L6.49816 5.98239L6.45464 5.99191L6.43261 6.03063C6.06426 6.67815 5.65149 7.27884 5.19435 7.83284C4.73633 8.3879 4.31422 8.80928 3.92815 9.09978L3.92808 9.09984C3.47912 9.43836 2.99529 9.6701 2.47579 9.79534ZM2.47579 9.79534C2.55789 9.7658 2.6407 9.73135 2.72422 9.69204C2.9311 9.59469 3.14417 9.46175 3.36343 9.29432L3.36364 9.29416C3.58812 9.12178 3.8209 8.90268 4.06205 8.63783C4.57229 8.08403 5.11139 7.32775 5.67972 6.3714L5.67994 6.37153L5.68319 6.36503C5.68817 6.35507 5.69199 6.34829 5.69466 6.34402L5.69619 6.34172L5.93644 6.10147L5.60138 6.17581C5.46006 6.20717 5.32277 6.2399 5.18953 6.27401M2.47579 9.79534C2.35734 9.8239 2.23704 9.84692 2.11487 9.8644L2.10156 9.79492L5.18953 6.27401M5.18953 6.27401C5.37153 6.22451 5.55915 6.1794 5.75241 6.13869M5.68235 4.33367L5.68248 4.33355C6.02609 4.03734 6.27069 3.76453 6.40794 3.51499L6.40827 3.51438C6.43011 3.47399 6.4504 3.43559 6.4691 3.39918C6.46286 3.41758 6.45623 3.43633 6.44922 3.45544C6.38226 3.63389 6.28908 3.80555 6.16913 3.97048L6.16912 3.97047L6.16825 3.9717C6.05163 4.13723 5.91404 4.29188 5.75517 4.43561C5.60026 4.5754 5.43213 4.69821 5.25068 4.80408C4.86647 5.02467 4.51656 5.13047 4.19922 5.13047C4.08221 5.13047 3.97743 5.12205 3.88418 5.10589C3.90673 5.10718 3.92972 5.10781 3.95312 5.10781C4.51322 5.10781 5.09026 4.84231 5.68235 4.33367ZM4.27587 2.8891C4.81708 2.49209 5.4934 2.19486 6.30787 1.99973C6.84859 1.87708 7.54534 1.81484 8.40039 1.81484C8.67644 1.81484 9.00819 1.83787 9.39629 1.88444L9.39637 1.88445C10.1496 1.97421 10.667 2.01992 10.9434 2.01992C11.2229 2.01992 11.4804 1.99397 11.7152 1.94133C11.9491 1.88891 12.1589 1.81385 12.3438 1.71527C12.3798 1.69622 12.415 1.67639 12.4495 1.6558C11.8762 2.11187 11.1303 2.34141 10.2051 2.34141C9.87867 2.34141 9.46121 2.31064 8.95158 2.24839L8.95157 2.24839C7.96068 2.12746 7.30211 2.06602 6.98242 2.06602C6.66338 2.06602 6.35195 2.09791 6.04825 2.16181C5.7499 2.22151 5.46318 2.30512 5.18817 2.41274C4.91339 2.52026 4.65794 2.6479 4.422 2.79581C4.372 2.82634 4.32328 2.85743 4.27587 2.8891ZM0.447186 9.08178L0.296484 8.99313V9.16797V9.19727C0.296484 9.26157 0.307265 9.32196 0.327853 9.37852C0.282609 9.30324 0.262109 9.22707 0.262109 9.15039C0.262109 9.04594 0.287563 8.9699 0.330615 8.91414C0.373555 8.85853 0.441514 8.81338 0.544426 8.78438C0.603278 8.77067 0.659372 8.76406 0.712891 8.76406C0.751587 8.76406 0.797428 8.77721 0.851925 8.81247C0.887038 8.83519 0.905859 8.86637 0.905859 8.92188C0.905859 8.97814 0.88573 9.02342 0.840088 9.06369C0.79462 9.10381 0.735305 9.12656 0.654297 9.12656C0.560346 9.12656 0.493571 9.10906 0.447186 9.08178Z" stroke="black" stroke-width="0.2"/>
</svg>
