<svg width="9" height="10" viewBox="0 0 9 10" fill="none" xmlns="http://www.w3.org/2000/svg">
<path d="M8.00161 3.47269C8.01394 3.47015 8.02374 3.46914 8.03125 3.46914C8.05112 3.46914 8.06637 3.4703 8.07767 3.47202C8.08928 3.47379 8.09429 3.47581 8.09505 3.47616C8.09564 3.47643 8.089 3.47354 8.08221 3.46421C8.07465 3.45381 8.07188 3.44224 8.07188 3.43359C8.07188 3.41952 8.07643 3.41106 8.07832 3.40827M8.00161 3.47269L8.07912 3.40724C8.07917 3.40723 8.07894 3.40757 8.07832 3.40827M8.00161 3.47269L8.03711 3.55078L7.99993 3.47304L8.00161 3.47269ZM8.07832 3.40827C8.0774 3.40931 8.07561 3.41115 8.07257 3.4138C8.06432 3.42097 8.05102 3.43025 8.03125 3.44135C8.02092 3.44715 8.00883 3.45344 7.99477 3.46018L8.07832 3.40827ZM0.296484 8.2207C0.296484 8.28411 0.305963 8.34395 0.324538 8.39997C0.281662 8.32652 0.262109 8.25104 0.262109 8.17383C0.262109 8.06701 0.287769 7.99014 0.330615 7.93465C0.37347 7.87915 0.441412 7.83481 0.544903 7.80767L0.544914 7.80771L0.547748 7.80687C0.605964 7.78975 0.660906 7.78164 0.712891 7.78164C0.751587 7.78164 0.797428 7.79479 0.851925 7.83005L0.851876 7.83013L0.855548 7.83229C0.88583 7.8501 0.905859 7.87806 0.905859 7.93945C0.905859 7.99518 0.88611 8.04013 0.841381 8.08012C0.796761 8.11632 0.735286 8.13828 0.648438 8.13828C0.547335 8.13828 0.484286 8.12161 0.447934 8.0998L0.296484 8.00893V8.18555V8.2207ZM6.10134 5.73512C4.95303 7.52753 3.70782 8.55049 2.36828 8.83509C2.37255 8.83359 2.37682 8.83209 2.3811 8.83057C2.63512 8.74043 2.8979 8.5922 3.16937 8.38859L3.16938 8.3886L3.17021 8.38796C3.71576 7.96983 4.34107 7.28993 5.04601 6.35402C5.30699 6.02294 5.51068 5.77274 5.65749 5.60272C6.03646 5.16906 6.28569 4.88675 6.40593 4.75488L6.31166 4.6488C6.58866 4.45416 6.88347 4.23555 7.19606 3.99308L7.19607 3.99309L7.19765 3.99182C7.42071 3.81143 7.60379 3.67832 7.74774 3.59082C7.81408 3.5505 7.87053 3.52083 7.91757 3.50076C7.83921 3.54694 7.75372 3.61136 7.66159 3.69156C7.53482 3.79798 7.3962 3.94104 7.24586 4.11908C7.09492 4.29782 6.92706 4.51912 6.74235 4.78242L6.74234 4.7824L6.74125 4.78402L6.10258 5.73324L6.10256 5.73322L6.10134 5.73512ZM2.8862 4.88261L2.90199 4.81605C3.04092 4.23029 3.42287 3.60096 4.06084 2.92818L4.06118 2.92783C4.6553 2.29513 5.34608 1.76246 6.13406 1.32985L6.13464 1.32952C6.69503 1.017 7.20254 0.816268 7.65819 0.723192C7.48485 0.783088 7.30383 0.863985 7.11533 0.965101C6.66417 1.20711 6.16429 1.56811 5.61596 2.04569L5.61573 2.04589C4.91524 2.6598 4.31239 3.31569 3.80764 4.01367L3.8076 4.01372C3.65349 4.2271 3.52245 4.42951 3.4148 4.6209L3.30256 4.82042L3.31282 4.81797C3.25804 4.92639 3.21529 5.02207 3.18532 5.1045C3.15274 5.19407 3.13242 5.27548 3.13242 5.34375C3.13242 5.4417 3.13957 5.52738 3.16301 5.58597L3.16295 5.58599L3.16448 5.58944C3.18703 5.64019 3.22211 5.68452 3.26559 5.72318L3.26552 5.72326L3.26911 5.72616C3.30049 5.75156 3.33563 5.77251 3.3741 5.78944C3.33573 5.78544 3.3006 5.78038 3.26867 5.77432C3.17802 5.75709 3.12019 5.73305 3.08635 5.70832L3.08636 5.70831L3.08481 5.70722C2.93124 5.5994 2.85195 5.44246 2.85195 5.2207C2.85195 5.15771 2.86087 5.05989 2.88024 4.9243L2.8862 4.88261ZM4.69011 4.37213C4.87317 4.29291 5.05874 4.20502 5.24683 4.1085L5.24705 4.10839C5.84746 3.79837 6.36117 3.49539 6.78751 3.19933L6.78802 3.19897C7.21223 2.90045 7.57867 2.61292 7.88688 2.33634C8.21304 2.0475 8.46122 1.79538 8.62868 1.58051C8.69758 1.49211 8.75525 1.407 8.79896 1.3258C8.76065 1.45167 8.68963 1.59428 8.58123 1.75452L8.58105 1.75479C8.41175 2.00686 8.16864 2.26977 7.84906 2.54315L7.84862 2.54353C7.18989 3.11365 6.31993 3.6499 5.23609 4.15109C5.0542 4.23165 4.87221 4.30533 4.69011 4.37213Z" stroke="black" stroke-width="0.2"/>
</svg>
