<svg width="15" height="10" viewBox="0 0 15 10" fill="none" xmlns="http://www.w3.org/2000/svg">
<mask id="path-1-inside-1_237_54" fill="white">
<path d="M0.910156 8.00391C0.910156 8.08203 0.876953 8.15039 0.810547 8.20898C0.744141 8.26367 0.658203 8.29102 0.552734 8.29102C0.443359 8.29102 0.359375 8.27344 0.300781 8.23828V8.27344C0.300781 8.44531 0.384766 8.58594 0.552734 8.69531C0.716797 8.80469 0.912109 8.85938 1.13867 8.85938C1.6582 8.85938 2.16406 8.67578 2.65625 8.30859C3.01953 8.03906 3.39258 7.68555 3.77539 7.24805L4.87109 5.93555C4.75781 5.9668 4.64844 6 4.54297 6.03516L4.24414 6.12891C3.14258 6.51172 2.41211 6.98047 2.05273 7.53516C2.0332 7.57031 2.01172 7.58789 1.98828 7.58789C1.96094 7.58789 1.95117 7.57812 1.95898 7.55859C1.96289 7.53516 1.9668 7.51758 1.9707 7.50586C1.9707 7.49023 1.98633 7.44922 2.01758 7.38281C2.05273 7.3125 2.12305 7.22656 2.22852 7.125C2.33398 7.01953 2.45312 6.91797 2.58594 6.82031C3.01562 6.50781 3.42969 6.2793 3.82812 6.13477C4.23047 5.99023 4.62695 5.86133 5.01758 5.74805C5.25586 5.41992 5.48828 5.11328 5.71484 4.82812C6.29297 4.13281 6.67773 3.68164 6.86914 3.47461C6.86914 3.47461 7.02734 3.30664 7.34375 2.9707C6.65625 3.39648 6.10156 3.60938 5.67969 3.60938C5.48047 3.60938 5.31445 3.5625 5.18164 3.46875C5.05273 3.37109 4.98828 3.25 4.98828 3.10547C4.98828 2.95703 5 2.83594 5.02344 2.74219C5.04688 2.64844 5.08984 2.55078 5.15234 2.44922C5.27344 2.25 5.48828 2.0293 5.79688 1.78711C5.99609 1.63086 6.10352 1.53125 6.11914 1.48828C6.13477 1.44531 6.14258 1.41406 6.14258 1.39453C6.14258 1.27734 6.08008 1.18164 5.95508 1.10742C5.83398 1.0332 5.63281 0.996094 5.35156 0.996094C4.73047 0.996094 4.1875 1.20898 3.72266 1.63477C3.66016 1.68945 3.60938 1.7168 3.57031 1.7168C3.53125 1.7168 3.51172 1.70312 3.51172 1.67578C3.51172 1.63672 3.54688 1.58203 3.61719 1.51172C4.10156 1.08594 4.6875 0.873047 5.375 0.873047C5.70312 0.873047 5.95508 0.933594 6.13086 1.05469C6.31055 1.17188 6.40039 1.33398 6.40039 1.54102C6.40039 1.7793 6.35156 1.97266 6.25391 2.12109C6.08594 2.38672 5.83398 2.62695 5.49805 2.8418C5.37305 2.91992 5.29297 2.98047 5.25781 3.02344C5.22266 3.0625 5.20508 3.10352 5.20508 3.14648C5.20508 3.18555 5.21289 3.22266 5.22852 3.25781C5.24805 3.28906 5.2793 3.32031 5.32227 3.35156C5.42383 3.41797 5.55078 3.45117 5.70312 3.45117C5.85938 3.45117 6.01758 3.42773 6.17773 3.38086C6.33789 3.33398 6.50781 3.26562 6.6875 3.17578C7.07422 2.98047 7.42383 2.74414 7.73633 2.4668C8.63086 1.68945 9.16602 1.24414 9.3418 1.13086C9.51758 1.01367 9.64453 0.935547 9.72266 0.896484L9.89844 0.814453C9.92969 0.798828 9.96289 0.791016 9.99805 0.791016C10.0371 0.791016 10.0566 0.800781 10.0566 0.820312C10.0566 0.835938 10.0469 0.849609 10.0273 0.861328C10.0117 0.869141 9.98828 0.882812 9.95703 0.902344C9.92578 0.921875 9.89844 0.9375 9.875 0.949219C9.85547 0.960938 9.83008 0.976562 9.79883 0.996094L9.50586 1.20703C9.13477 1.51172 8.77344 1.88477 8.42188 2.32617L7.50195 3.51562L6.67578 4.6582L6.03125 5.47266L8.29883 4.91016L8.59766 4.55273C9.45312 3.54883 10.4082 2.65625 11.4629 1.875C12.4941 1.11719 13.2539 0.738281 13.7422 0.738281C13.918 0.738281 14.0488 0.779297 14.1348 0.861328C14.2246 0.939453 14.2695 1.04102 14.2695 1.16602C14.2695 1.28711 14.2148 1.43945 14.1055 1.62305C14 1.80664 13.8438 2.00586 13.6367 2.2207C13.4336 2.43164 13.1836 2.65234 12.8867 2.88281C12.5898 3.11328 12.2539 3.3418 11.8789 3.56836C11.0352 4.07617 10.1367 4.48438 9.18359 4.79297C8.17578 6.01562 7.49805 7.00391 7.15039 7.75781C7.03711 8 6.98047 8.20312 6.98047 8.36719C6.98047 8.53125 7.01758 8.65625 7.0918 8.74219C7.16602 8.82422 7.30078 8.86523 7.49609 8.86523C7.69531 8.86523 7.91211 8.80273 8.14648 8.67773C8.38477 8.54883 8.61328 8.36719 8.83203 8.13281C9.31641 7.61328 9.67578 6.96484 9.91016 6.1875C9.94531 6.07031 9.99219 6.01172 10.0508 6.01172C10.082 6.01172 10.1035 6.07617 10.1152 6.20508C10.1309 6.33008 10.1055 6.49023 10.0391 6.68555C9.97656 6.88086 9.88477 7.08398 9.76367 7.29492C9.64258 7.50195 9.49414 7.70898 9.31836 7.91602C9.14648 8.11914 8.95898 8.30273 8.75586 8.4668C8.30664 8.83008 7.86328 9.01172 7.42578 9.01172C7.07422 9.01172 6.83984 8.84961 6.72266 8.52539C6.6875 8.43555 6.66992 8.32227 6.66992 8.18555C6.66992 8.04492 6.69336 7.86719 6.74023 7.65234C6.78711 7.43359 6.86719 7.19531 6.98047 6.9375C7.23047 6.38672 7.62109 5.77148 8.15234 5.0918C7.79688 5.19336 7.42188 5.29102 7.02734 5.38477L5.86719 5.67188L5 6.67383C4.44531 7.2832 3.99219 7.72266 3.64062 7.99219C3.29297 8.26172 2.99609 8.4668 2.75 8.60742C2.27344 8.87695 1.75195 9.01172 1.18555 9.01172C0.876953 9.01172 0.613281 8.93555 0.394531 8.7832C0.179688 8.63086 0.0722656 8.44531 0.0722656 8.22656C0.0722656 7.98438 0.191406 7.83203 0.429688 7.76953C0.496094 7.75 0.558594 7.74023 0.617188 7.74023C0.8125 7.74023 0.910156 7.82812 0.910156 8.00391ZM9.35938 4.58789C10.6094 4.10742 11.7227 3.47266 12.6992 2.68359C13.2773 2.21484 13.6777 1.81055 13.9004 1.4707C14.0098 1.30273 14.0645 1.16602 14.0645 1.06055C14.0645 0.927734 13.9785 0.861328 13.8066 0.861328C13.6387 0.861328 13.4531 0.910156 13.25 1.00781C13.0469 1.10547 12.8242 1.24023 12.582 1.41211C12.3438 1.58008 12.0898 1.7832 11.8203 2.02148C11.5547 2.25586 11.2832 2.51172 11.0059 2.78906C10.7285 3.0625 10.4492 3.35156 10.168 3.65625L9.35938 4.58789Z"/>
</mask>
<path d="M0.910156 8.00391C0.910156 8.08203 0.876953 8.15039 0.810547 8.20898C0.744141 8.26367 0.658203 8.29102 0.552734 8.29102C0.443359 8.29102 0.359375 8.27344 0.300781 8.23828V8.27344C0.300781 8.44531 0.384766 8.58594 0.552734 8.69531C0.716797 8.80469 0.912109 8.85938 1.13867 8.85938C1.6582 8.85938 2.16406 8.67578 2.65625 8.30859C3.01953 8.03906 3.39258 7.68555 3.77539 7.24805L4.87109 5.93555C4.75781 5.9668 4.64844 6 4.54297 6.03516L4.24414 6.12891C3.14258 6.51172 2.41211 6.98047 2.05273 7.53516C2.0332 7.57031 2.01172 7.58789 1.98828 7.58789C1.96094 7.58789 1.95117 7.57812 1.95898 7.55859C1.96289 7.53516 1.9668 7.51758 1.9707 7.50586C1.9707 7.49023 1.98633 7.44922 2.01758 7.38281C2.05273 7.3125 2.12305 7.22656 2.22852 7.125C2.33398 7.01953 2.45312 6.91797 2.58594 6.82031C3.01562 6.50781 3.42969 6.2793 3.82812 6.13477C4.23047 5.99023 4.62695 5.86133 5.01758 5.74805C5.25586 5.41992 5.48828 5.11328 5.71484 4.82812C6.29297 4.13281 6.67773 3.68164 6.86914 3.47461C6.86914 3.47461 7.02734 3.30664 7.34375 2.9707C6.65625 3.39648 6.10156 3.60938 5.67969 3.60938C5.48047 3.60938 5.31445 3.5625 5.18164 3.46875C5.05273 3.37109 4.98828 3.25 4.98828 3.10547C4.98828 2.95703 5 2.83594 5.02344 2.74219C5.04688 2.64844 5.08984 2.55078 5.15234 2.44922C5.27344 2.25 5.48828 2.0293 5.79688 1.78711C5.99609 1.63086 6.10352 1.53125 6.11914 1.48828C6.13477 1.44531 6.14258 1.41406 6.14258 1.39453C6.14258 1.27734 6.08008 1.18164 5.95508 1.10742C5.83398 1.0332 5.63281 0.996094 5.35156 0.996094C4.73047 0.996094 4.1875 1.20898 3.72266 1.63477C3.66016 1.68945 3.60938 1.7168 3.57031 1.7168C3.53125 1.7168 3.51172 1.70312 3.51172 1.67578C3.51172 1.63672 3.54688 1.58203 3.61719 1.51172C4.10156 1.08594 4.6875 0.873047 5.375 0.873047C5.70312 0.873047 5.95508 0.933594 6.13086 1.05469C6.31055 1.17188 6.40039 1.33398 6.40039 1.54102C6.40039 1.7793 6.35156 1.97266 6.25391 2.12109C6.08594 2.38672 5.83398 2.62695 5.49805 2.8418C5.37305 2.91992 5.29297 2.98047 5.25781 3.02344C5.22266 3.0625 5.20508 3.10352 5.20508 3.14648C5.20508 3.18555 5.21289 3.22266 5.22852 3.25781C5.24805 3.28906 5.2793 3.32031 5.32227 3.35156C5.42383 3.41797 5.55078 3.45117 5.70312 3.45117C5.85938 3.45117 6.01758 3.42773 6.17773 3.38086C6.33789 3.33398 6.50781 3.26562 6.6875 3.17578C7.07422 2.98047 7.42383 2.74414 7.73633 2.4668C8.63086 1.68945 9.16602 1.24414 9.3418 1.13086C9.51758 1.01367 9.64453 0.935547 9.72266 0.896484L9.89844 0.814453C9.92969 0.798828 9.96289 0.791016 9.99805 0.791016C10.0371 0.791016 10.0566 0.800781 10.0566 0.820312C10.0566 0.835938 10.0469 0.849609 10.0273 0.861328C10.0117 0.869141 9.98828 0.882812 9.95703 0.902344C9.92578 0.921875 9.89844 0.9375 9.875 0.949219C9.85547 0.960938 9.83008 0.976562 9.79883 0.996094L9.50586 1.20703C9.13477 1.51172 8.77344 1.88477 8.42188 2.32617L7.50195 3.51562L6.67578 4.6582L6.03125 5.47266L8.29883 4.91016L8.59766 4.55273C9.45312 3.54883 10.4082 2.65625 11.4629 1.875C12.4941 1.11719 13.2539 0.738281 13.7422 0.738281C13.918 0.738281 14.0488 0.779297 14.1348 0.861328C14.2246 0.939453 14.2695 1.04102 14.2695 1.16602C14.2695 1.28711 14.2148 1.43945 14.1055 1.62305C14 1.80664 13.8438 2.00586 13.6367 2.2207C13.4336 2.43164 13.1836 2.65234 12.8867 2.88281C12.5898 3.11328 12.2539 3.3418 11.8789 3.56836C11.0352 4.07617 10.1367 4.48438 9.18359 4.79297C8.17578 6.01562 7.49805 7.00391 7.15039 7.75781C7.03711 8 6.98047 8.20312 6.98047 8.36719C6.98047 8.53125 7.01758 8.65625 7.0918 8.74219C7.16602 8.82422 7.30078 8.86523 7.49609 8.86523C7.69531 8.86523 7.91211 8.80273 8.14648 8.67773C8.38477 8.54883 8.61328 8.36719 8.83203 8.13281C9.31641 7.61328 9.67578 6.96484 9.91016 6.1875C9.94531 6.07031 9.99219 6.01172 10.0508 6.01172C10.082 6.01172 10.1035 6.07617 10.1152 6.20508C10.1309 6.33008 10.1055 6.49023 10.0391 6.68555C9.97656 6.88086 9.88477 7.08398 9.76367 7.29492C9.64258 7.50195 9.49414 7.70898 9.31836 7.91602C9.14648 8.11914 8.95898 8.30273 8.75586 8.4668C8.30664 8.83008 7.86328 9.01172 7.42578 9.01172C7.07422 9.01172 6.83984 8.84961 6.72266 8.52539C6.6875 8.43555 6.66992 8.32227 6.66992 8.18555C6.66992 8.04492 6.69336 7.86719 6.74023 7.65234C6.78711 7.43359 6.86719 7.19531 6.98047 6.9375C7.23047 6.38672 7.62109 5.77148 8.15234 5.0918C7.79688 5.19336 7.42188 5.29102 7.02734 5.38477L5.86719 5.67188L5 6.67383C4.44531 7.2832 3.99219 7.72266 3.64062 7.99219C3.29297 8.26172 2.99609 8.4668 2.75 8.60742C2.27344 8.87695 1.75195 9.01172 1.18555 9.01172C0.876953 9.01172 0.613281 8.93555 0.394531 8.7832C0.179688 8.63086 0.0722656 8.44531 0.0722656 8.22656C0.0722656 7.98438 0.191406 7.83203 0.429688 7.76953C0.496094 7.75 0.558594 7.74023 0.617188 7.74023C0.8125 7.74023 0.910156 7.82812 0.910156 8.00391ZM9.35938 4.58789C10.6094 4.10742 11.7227 3.47266 12.6992 2.68359C13.2773 2.21484 13.6777 1.81055 13.9004 1.4707C14.0098 1.30273 14.0645 1.16602 14.0645 1.06055C14.0645 0.927734 13.9785 0.861328 13.8066 0.861328C13.6387 0.861328 13.4531 0.910156 13.25 1.00781C13.0469 1.10547 12.8242 1.24023 12.582 1.41211C12.3438 1.58008 12.0898 1.7832 11.8203 2.02148C11.5547 2.25586 11.2832 2.51172 11.0059 2.78906C10.7285 3.0625 10.4492 3.35156 10.168 3.65625L9.35938 4.58789Z" stroke="black" stroke-width="0.4" mask="url(#path-1-inside-1_237_54)"/>
</svg>
