<svg width="115" height="68" viewBox="0 0 115 68" fill="none" xmlns="http://www.w3.org/2000/svg">
<path d="M7.28125 59.0312C7.28125 59.6562 7.01562 60.2031 6.48438 60.6719C5.95312 61.1094 5.26562 61.3281 4.42188 61.3281C3.54688 61.3281 2.875 61.1875 2.40625 60.9062V61.1875C2.40625 62.5625 3.07812 63.6875 4.42188 64.5625C5.73438 65.4375 7.29688 65.875 9.10938 65.875C13.2656 65.875 17.3125 64.4062 21.25 61.4688C24.1562 59.3125 27.1406 56.4844 30.2031 52.9844L38.9688 42.4844C38.0625 42.7344 37.1875 43 36.3438 43.2812L33.9531 44.0312C25.1406 47.0938 19.2969 50.8438 16.4219 55.2812C16.2656 55.5625 16.0938 55.7031 15.9062 55.7031C15.6875 55.7031 15.6094 55.625 15.6719 55.4688C15.7031 55.2812 15.7344 55.1406 15.7656 55.0469C15.7656 54.9219 15.8906 54.5938 16.1406 54.0625C16.4219 53.5 16.9844 52.8125 17.8281 52C18.6719 51.1562 19.625 50.3438 20.6875 49.5625C24.125 47.0625 27.4375 45.2344 30.625 44.0781C33.8438 42.9219 37.0156 41.8906 40.1406 40.9844C42.0469 38.3594 43.9062 35.9062 45.7188 33.625C50.3438 28.0625 53.4219 24.4531 54.9531 22.7969C54.9531 22.7969 56.2188 21.4531 58.75 18.7656C53.25 22.1719 48.8125 23.875 45.4375 23.875C43.8438 23.875 42.5156 23.5 41.4531 22.75C40.4219 21.9688 39.9062 21 39.9062 19.8438C39.9062 18.6562 40 17.6875 40.1875 16.9375C40.375 16.1875 40.7188 15.4062 41.2188 14.5938C42.1875 13 43.9062 11.2344 46.375 9.29688C47.9688 8.04688 48.8281 7.25 48.9531 6.90625C49.0781 6.5625 49.1406 6.3125 49.1406 6.15625C49.1406 5.21875 48.6406 4.45312 47.6406 3.85938C46.6719 3.26562 45.0625 2.96875 42.8125 2.96875C37.8438 2.96875 33.5 4.67188 29.7812 8.07812C29.2812 8.51562 28.875 8.73438 28.5625 8.73438C28.25 8.73438 28.0938 8.625 28.0938 8.40625C28.0938 8.09375 28.375 7.65625 28.9375 7.09375C32.8125 3.6875 37.5 1.98438 43 1.98438C45.625 1.98438 47.6406 2.46875 49.0469 3.4375C50.4844 4.375 51.2031 5.67188 51.2031 7.32812C51.2031 9.23438 50.8125 10.7812 50.0312 11.9688C48.6875 14.0938 46.6719 16.0156 43.9844 17.7344C42.9844 18.3594 42.3438 18.8438 42.0625 19.1875C41.7812 19.5 41.6406 19.8281 41.6406 20.1719C41.6406 20.4844 41.7031 20.7812 41.8281 21.0625C41.9844 21.3125 42.2344 21.5625 42.5781 21.8125C43.3906 22.3438 44.4062 22.6094 45.625 22.6094C46.875 22.6094 48.1406 22.4219 49.4219 22.0469C50.7031 21.6719 52.0625 21.125 53.5 20.4062C56.5938 18.8438 59.3906 16.9531 61.8906 14.7344C69.0469 8.51562 73.3281 4.95312 74.7344 4.04688C76.1406 3.10938 77.1562 2.48438 77.7812 2.17188L79.1875 1.51562C79.4375 1.39062 79.7031 1.32812 79.9844 1.32812C80.2969 1.32812 80.4531 1.40625 80.4531 1.5625C80.4531 1.6875 80.375 1.79688 80.2188 1.89062C80.0938 1.95312 79.9062 2.0625 79.6562 2.21875C79.4062 2.375 79.1875 2.5 79 2.59375C78.8438 2.6875 78.6406 2.8125 78.3906 2.96875L76.0469 4.65625C73.0781 7.09375 70.1875 10.0781 67.375 13.6094L60.0156 23.125L53.4062 32.2656L48.25 38.7812L66.3906 34.2812L68.7812 31.4219C75.625 23.3906 83.2656 16.25 91.7031 10C99.9531 3.9375 106.031 0.90625 109.938 0.90625C111.344 0.90625 112.391 1.23438 113.078 1.89062C113.797 2.51562 114.156 3.32812 114.156 4.32812C114.156 5.29688 113.719 6.51562 112.844 7.98438C112 9.45312 110.75 11.0469 109.094 12.7656C107.469 14.4531 105.469 16.2188 103.094 18.0625C100.719 19.9062 98.0312 21.7344 95.0312 23.5469C88.2812 27.6094 81.0938 30.875 73.4688 33.3438C65.4062 43.125 59.9844 51.0312 57.2031 57.0625C56.2969 59 55.8438 60.625 55.8438 61.9375C55.8438 63.25 56.1406 64.25 56.7344 64.9375C57.3281 65.5938 58.4062 65.9219 59.9688 65.9219C61.5625 65.9219 63.2969 65.4219 65.1719 64.4219C67.0781 63.3906 68.9062 61.9375 70.6562 60.0625C74.5312 55.9062 77.4062 50.7188 79.2812 44.5C79.5625 43.5625 79.9375 43.0938 80.4062 43.0938C80.6562 43.0938 80.8281 43.6094 80.9219 44.6406C81.0469 45.6406 80.8438 46.9219 80.3125 48.4844C79.8125 50.0469 79.0781 51.6719 78.1094 53.3594C77.1406 55.0156 75.9531 56.6719 74.5469 58.3281C73.1719 59.9531 71.6719 61.4219 70.0469 62.7344C66.4531 65.6406 62.9062 67.0938 59.4062 67.0938C56.5938 67.0938 54.7188 65.7969 53.7812 63.2031C53.5 62.4844 53.3594 61.5781 53.3594 60.4844C53.3594 59.3594 53.5469 57.9375 53.9219 56.2188C54.2969 54.4688 54.9375 52.5625 55.8438 50.5C57.8438 46.0938 60.9688 41.1719 65.2188 35.7344C62.375 36.5469 59.375 37.3281 56.2188 38.0781L46.9375 40.375L40 48.3906C35.5625 53.2656 31.9375 56.7812 29.125 58.9375C26.3438 61.0938 23.9688 62.7344 22 63.8594C18.1875 66.0156 14.0156 67.0938 9.48438 67.0938C7.01562 67.0938 4.90625 66.4844 3.15625 65.2656C1.4375 64.0469 0.578125 62.5625 0.578125 60.8125C0.578125 58.875 1.53125 57.6562 3.4375 57.1562C3.96875 57 4.46875 56.9219 4.9375 56.9219C6.5 56.9219 7.28125 57.625 7.28125 59.0312ZM74.875 31.7031C84.875 27.8594 93.7812 22.7812 101.594 16.4688C106.219 12.7188 109.422 9.48438 111.203 6.76562C112.078 5.42188 112.516 4.32812 112.516 3.48438C112.516 2.42188 111.828 1.89062 110.453 1.89062C109.109 1.89062 107.625 2.28125 106 3.0625C104.375 3.84375 102.594 4.92188 100.656 6.29688C98.75 7.64062 96.7188 9.26562 94.5625 11.1719C92.4375 13.0469 90.2656 15.0938 88.0469 17.3125C85.8281 19.5 83.5938 21.8125 81.3438 24.25L74.875 31.7031Z" stroke="black"/>
</svg>
