<svg width="13" height="10" viewBox="0 0 13 10" fill="none" xmlns="http://www.w3.org/2000/svg">
<path d="M7.92453 5.83566C8.14968 5.6353 8.3539 5.41526 8.5371 5.17558C8.36845 5.40075 8.17701 5.60965 7.96266 5.80229C7.94999 5.81349 7.93728 5.82461 7.92453 5.83566ZM2.69547 8.62159C2.75652 8.58717 2.81802 8.54996 2.87998 8.51C3.36505 8.20126 3.91948 7.67491 4.54303 6.93762L4.59937 6.87102L4.60263 6.87244L4.65047 6.81218C5.05695 6.30017 5.36863 5.8925 5.58492 5.58972C6.61665 4.16869 7.61832 3.07479 8.58935 2.30492L8.58942 2.30487C9.17958 1.83613 9.7422 1.5045 10.2774 1.30642C9.1666 1.89653 7.96859 3.13396 6.6814 4.99963C6.20765 5.67917 5.71709 6.27621 5.20989 6.79116L5.04228 6.96133H5.04539C4.23396 7.75186 3.45056 8.30345 2.69547 8.62159ZM4.05891 6.42394C4.02632 6.38024 3.99673 6.33387 3.97009 6.28481C3.85026 6.06407 3.78738 5.7833 3.78738 5.4375C3.78738 4.74054 4.07544 4.03983 4.66635 3.33379C5.25695 2.63202 6.02924 2.0664 6.98605 1.63815L6.98645 1.63797C7.7637 1.28601 8.57198 1.06789 9.41173 0.983586C9.35645 0.99519 9.30006 1.00793 9.24256 1.02181C8.89725 1.10122 8.54666 1.21419 8.19082 1.36045C7.83513 1.50275 7.48172 1.67258 7.13059 1.86985L7.13017 1.87009C6.78318 2.06724 6.44994 2.28217 6.13046 2.51487C5.81096 2.7476 5.51482 2.99236 5.24214 3.24921C4.96906 3.50253 4.73085 3.76246 4.52787 4.0291C4.09606 4.59168 3.86863 5.11104 3.86863 5.58398C3.86863 5.92164 3.93045 6.20431 4.05891 6.42394ZM11.0291 1.00922C10.9678 1.02574 10.9111 1.04306 10.8591 1.06122L10.8579 0.995521L11.0291 1.00922ZM0.283234 8.19591C0.299059 8.34783 0.360915 8.48204 0.463264 8.59842C0.330164 8.47398 0.258615 8.32804 0.242081 8.1592C0.23373 8.05228 0.252643 7.9722 0.290306 7.9118C0.327953 7.85142 0.390676 7.80052 0.488475 7.76342L0.489016 7.76321C0.59156 7.72364 0.667262 7.71446 0.721149 7.72322C0.770593 7.73125 0.808067 7.75517 0.838188 7.80101C0.868071 7.84666 0.87644 7.88021 0.875977 7.9038C0.87556 7.92505 0.867855 7.94852 0.843388 7.97601C0.768833 8.05009 0.71333 8.07619 0.67634 8.0803L0.6757 8.08037C0.550176 8.09514 0.471914 8.0832 0.427418 8.06095L0.282696 7.98859V8.15039V8.18555H0.282155L0.283234 8.19591Z" stroke="black" stroke-width="0.2"/>
</svg>
