<svg width="97" height="67" viewBox="0 0 97 67" fill="none" xmlns="http://www.w3.org/2000/svg">
<path d="M68.7813 33.375C70.375 31.0312 71.6407 28.5156 72.5782 25.8281C73.5157 23.1406 73.9844 20.8438 73.9844 18.9375C73.9844 17 74.1563 16.0312 74.5 16.0312C74.875 16.0312 75.0625 17.1719 75.0625 19.4531C75.0625 21.7031 74.5938 24.2031 73.6563 26.9531C72.7188 29.6719 71.4532 32.2188 69.8594 34.5938C68.2657 36.9375 66.3907 39.0781 64.2344 41.0156C62.0782 42.9219 59.7813 44.5625 57.3438 45.9375C52.1563 48.7812 47.0625 50.2031 42.0625 50.2031H40.9844C33.2032 57.7969 25.6875 62.7188 18.4375 64.9688C16.0625 65.7188 13.9532 66.0938 12.1094 66.0938C10.2344 66.0938 8.6563 65.9219 7.37505 65.5781C6.0938 65.2031 5.00005 64.7188 4.0938 64.125C2.31255 62.875 1.32817 61.2812 1.14067 59.3438C0.984422 57.375 1.81255 56.0469 3.62505 55.3594C5.4063 54.6719 6.6563 54.875 7.37505 55.9688C7.9688 56.875 7.95317 57.6719 7.32817 58.3594C6.67192 59.0156 6.06255 59.375 5.50005 59.4375C4.43755 59.5625 3.62505 59.4844 3.06255 59.2031V59.4844C3.2188 60.9844 4.0313 62.2656 5.50005 63.3281C6.9688 64.3594 8.81255 64.875 11.0313 64.875C13.25 64.875 15.25 64.6094 17.0313 64.0781C18.8125 63.5469 20.6719 62.6562 22.6094 61.4062C26.3907 59 30.7657 54.8594 35.7344 48.9844C31.5782 47.0469 29.5 43.2188 29.5 37.5C29.5 31.6875 31.9063 25.9062 36.7188 20.1562C41.5313 14.4375 47.8125 9.84375 55.5625 6.375C63.8438 2.625 72.5625 0.75 81.7188 0.75L89.9219 1.40625L94.7032 1.07812C95.8594 1.07812 96.4375 1.29688 96.4375 1.73438C96.4375 2.26562 95.875 2.5625 94.75 2.625C93.6563 2.6875 92.6407 2.71875 91.7032 2.71875C90.7969 2.6875 89.9375 2.67188 89.125 2.67188C88.2188 2.89062 87.4375 3.125 86.7813 3.375L84.7188 4.125C75.4375 8.21875 65.2344 18.3281 54.1094 34.4531C50.2969 39.9219 46.3438 44.7344 42.25 48.8906H42.625C47.0625 48.8906 51.7188 47.4688 56.5938 44.625C61.5625 41.7188 65.625 37.9688 68.7813 33.375ZM86.7344 2.34375C85.1094 2.09375 83.2813 1.96875 81.25 1.96875C79.2188 1.96875 76.8438 2.29688 74.125 2.95312C71.4063 3.57812 68.6407 4.46875 65.8282 5.625C63.0157 6.75 60.2188 8.09375 57.4375 9.65625C54.6875 11.2188 52.0469 12.9219 49.5157 14.7656C46.9844 16.6094 44.6407 18.5469 42.4844 20.5781C40.3282 22.5781 38.4532 24.625 36.8594 26.7188C33.4532 31.1562 31.75 35.1406 31.75 38.6719C31.75 43.4844 33.3594 46.5938 36.5782 48C39.8282 43.9062 42.3125 40.6562 44.0313 38.25C52.3125 26.8438 60.375 18.0312 68.2188 11.8125C74.75 6.625 80.9219 3.46875 86.7344 2.34375Z" stroke="black"/>
</svg>
