<svg width="15" height="14" viewBox="0 0 15 14" fill="none" xmlns="http://www.w3.org/2000/svg">
<path d="M8.86658 2.47995C9.18619 2.24322 9.52152 2.02625 9.87254 1.82903C10.2235 1.62794 10.5748 1.45425 10.9265 1.30805L10.9268 1.3079C11.2827 1.16158 11.6315 1.04856 11.973 0.969099C12.0418 0.952518 12.1089 0.937551 12.1744 0.924214C11.3462 1.00198 10.5389 1.21638 9.75206 1.56772C9.27772 1.7837 8.83847 2.03999 8.43414 2.3365L8.434 2.3366C8.03376 2.62908 7.68829 2.94977 7.39707 3.29848C7.10627 3.64667 6.87927 4.01697 6.71541 4.40943C6.55554 4.79776 6.47695 5.16754 6.47695 5.51953C6.47695 5.8729 6.55211 6.15277 6.69453 6.36641C6.77899 6.49308 6.87577 6.60302 6.98498 6.69654C6.72728 6.4467 6.59922 6.10813 6.59922 5.68945C6.59922 5.17186 6.82466 4.62001 7.25747 4.03626M8.86658 2.47995C8.86669 2.47987 8.8668 2.4798 8.86691 2.47972L8.92578 2.56055L8.86626 2.48019C8.86637 2.48011 8.86647 2.48003 8.86658 2.47995ZM8.86658 2.47995C8.54681 2.71289 8.24855 2.96176 7.97187 3.22658L7.97135 3.22709C7.69837 3.49216 7.4603 3.76186 7.25747 4.03626M7.25747 4.03626C7.2575 4.03622 7.25753 4.03618 7.25756 4.03614L7.33789 4.0957M7.25747 4.03626L7.33789 4.0957M7.33789 4.0957C7.53711 3.82617 7.77148 3.56055 8.04102 3.29883L11.1582 2.33203C10.0605 3.22266 9.01367 4.38086 8.01758 5.80664L7.30859 6.81445C6.90234 6.58008 6.69922 6.20508 6.69922 5.68945C6.69922 5.20117 6.91211 4.66992 7.33789 4.0957ZM6.65806 8.63791L6.66867 8.63508L6.65656 8.65009C4.86003 10.8762 3.4218 12.2678 2.33987 12.8433C2.09762 12.9718 1.86243 13.0687 1.63414 13.1348C2.04016 12.9627 2.49082 12.6544 2.98451 12.2201C3.78759 11.5136 4.72238 10.4574 5.7886 9.05465L5.98637 8.79446L5.98492 8.79495L5.98881 8.78965L7.28373 7.02598L7.35166 6.93346L7.34839 6.93169L7.39038 6.87199L8.09937 5.86418L8.09955 5.86391C9.09148 4.44409 10.1322 3.29326 11.2212 2.40968L11.2213 2.40962C11.7944 1.94364 12.3255 1.59677 12.8148 1.366C12.4359 1.58956 12.0485 1.88573 11.6527 2.25285C10.8955 2.95486 10.1273 3.90049 9.34757 5.08741L7.97805 6.94854L7.89161 7.06602H7.88579L7.85578 7.1057C7.37127 7.74651 7.0385 8.17653 6.85644 8.39732L6.65806 8.63791ZM13.7524 0.957174C13.699 0.971858 13.6455 0.988128 13.5917 1.00598L13.5895 0.944773L13.7524 0.957174ZM9.87824 6.43234C9.68388 6.56153 9.49064 6.67071 9.29848 6.76012C9.48135 6.663 9.66763 6.5459 9.85729 6.40926L9.85755 6.40907C10.465 5.96838 10.9829 5.42851 11.4112 4.79008L11.4114 4.78973C11.561 4.56474 11.6859 4.34473 11.7857 4.1298C11.6851 4.39388 11.5553 4.65173 11.3961 4.9034C11.2048 5.20176 10.9789 5.48327 10.7181 5.7479C10.4573 6.00871 10.1775 6.23666 9.87887 6.43193L9.87824 6.43234ZM5.65255 8.90774C4.9814 9.13814 4.22294 9.51219 3.37772 10.0278C2.10058 10.7996 1.20974 11.5308 0.71738 12.2232C0.595715 12.3936 0.511166 12.5493 0.478932 12.6863C0.489939 12.5386 0.547203 12.3592 0.658896 12.146L0.658903 12.146L0.65947 12.1449C0.779232 11.9091 0.954744 11.6668 1.18816 11.418L1.18871 11.4174C1.4183 11.1687 1.69683 10.9207 2.02499 10.6736C2.35284 10.4268 2.71992 10.191 3.12648 9.96644L3.12726 9.966C3.8932 9.53385 4.73484 9.18099 5.65255 8.90774Z" stroke="black" stroke-width="0.2"/>
</svg>
