<svg width="124" height="71" viewBox="0 0 124 71" fill="none" xmlns="http://www.w3.org/2000/svg">
<path d="M55.1719 7.07812C55.1719 5.14062 53.4688 4.17188 50.0625 4.17188C44.5625 4.17188 39.5469 6.34375 35.0156 10.6875C32.4531 13.1875 30.6406 15.5156 29.5781 17.6719C28.5469 19.8281 27.9375 21.3125 27.75 22.125C27.4375 23.3125 27.1875 23.9062 27 23.9062C26.6562 23.9062 26.4844 23.7188 26.4844 23.3438V22.6875C26.4844 22.1875 26.8438 21.125 27.5625 19.5C28.2812 17.875 29.1094 16.3438 30.0469 14.9062C30.9844 13.4688 32.1094 12.0312 33.4219 10.5938C34.7344 9.15625 36.2344 7.875 37.9219 6.75C41.7344 4.15625 45.8906 2.85938 50.3906 2.85938C53.7656 2.85938 56.0625 3.8125 57.2812 5.71875C57.6562 6.28125 57.8438 7.125 57.8438 8.25C57.8438 9.375 57.3125 10.7969 56.25 12.5156C55.2188 14.2344 53.4375 15.8906 50.9062 17.4844L48.8438 18.8438C48.3438 19.1562 48.0938 19.5625 48.0938 20.0625C48.0938 21.0938 48.9531 21.6094 50.6719 21.6094C56.9219 21.6094 64.5469 17.7969 73.5469 10.1719C81.0469 4.20312 85.7656 1.21875 87.7031 1.21875C88.1406 1.21875 88.3594 1.35938 88.3594 1.64062C88.3594 1.89062 88.1094 2.09375 87.6094 2.25C87.1406 2.375 86.4062 2.70312 85.4062 3.23438C84.4375 3.73438 83.25 4.51562 81.8438 5.57812C80.4688 6.60938 78.8594 8 77.0156 9.75C75.1719 11.4688 73.0625 13.6406 70.6875 16.2656C68.3125 18.8906 65.6406 22.0312 62.6719 25.6875L52.7344 38.4844C45.0781 48.6719 37.3281 56.4688 29.4844 61.875C22.4531 66.6875 16.0156 69.0938 10.1719 69.0938C5.76562 69.0938 2.875 67.8125 1.5 65.25C1.0625 64.5 0.84375 63.7344 0.84375 62.9531C0.84375 62.1406 0.984375 61.4844 1.26562 60.9844C1.54688 60.4844 1.90625 60.0938 2.34375 59.8125C3.15625 59.2188 3.95312 58.9219 4.73438 58.9219C6.60938 58.9219 7.54688 59.625 7.54688 61.0312C7.54688 61.6562 7.28125 62.2031 6.75 62.6719C6.21875 63.1094 5.53125 63.3281 4.6875 63.3281C3.8125 63.3281 3.14062 63.1875 2.67188 62.9062V63.1875C2.67188 64.5625 3.34375 65.6875 4.6875 66.5625C6 67.4375 7.67188 67.875 9.70312 67.875C11.7656 67.875 13.8594 67.4688 15.9844 66.6562C18.1406 65.8125 20.5 64.4219 23.0625 62.4844C28.5312 58.3906 34.6094 51.8125 41.2969 42.75C43.7969 39.375 46.7344 35.9688 50.1094 32.5312L58.9688 23.9062L66.6094 16.7344C60.3906 20.8594 55.0781 22.9219 50.6719 22.9219C47.5469 22.9219 45.9844 21.6562 45.9844 19.125C45.9844 16.125 48.3125 12.9531 52.9688 9.60938C54.4375 8.60938 55.1719 7.76562 55.1719 7.07812ZM80.1562 44.5781C80.5312 44.5781 80.7188 45.25 80.7188 46.5938C80.7188 47.9062 80.3594 49.4375 79.6406 51.1875C78.9531 52.9062 78.0156 54.6406 76.8281 56.3906C75.6719 58.1094 74.3125 59.7656 72.75 61.3594C71.2188 62.9531 69.6094 64.375 67.9219 65.625C64.2344 68.3125 60.8906 69.6562 57.8906 69.6562C53.6406 69.6562 51.5156 68.0312 51.5156 64.7812C51.5156 62.4688 52.2031 60.1719 53.5781 57.8906C56.1719 53.6094 60.1094 48.875 65.3906 43.6875C66.9531 42.2188 67.9844 40.4062 68.4844 38.25C68.6094 37.7188 68.6719 37.2812 68.6719 36.9375C68.6719 36.5938 68.625 36.2812 68.5312 36C66.6562 36.5938 64.9062 36.9219 63.2812 36.9844C61.6875 37.0156 60.4219 36.7812 59.4844 36.2812C58.5469 35.75 58.0781 35.2031 58.0781 34.6406C58.0781 34.0469 58.4688 33.5312 59.25 33.0938C60.0625 32.6562 61.1875 32.4062 62.625 32.3438C65.5938 32.25 67.7656 32.8906 69.1406 34.2656C72.4844 32.6094 76.75 28.8281 81.9375 22.9219C88.0312 16.2969 94.3438 11.2188 100.875 7.6875C106.812 4.4375 112.031 2.8125 116.531 2.8125C118.875 2.8125 120.625 3.40625 121.781 4.59375C122.938 5.75 123.359 7.20312 123.047 8.95312C122.672 11.1094 121.625 12.5625 119.906 13.3125C119.406 13.5312 118.797 13.6406 118.078 13.6406C117.391 13.6406 116.859 13.3594 116.484 12.7969C116.109 12.2031 115.969 11.5938 116.062 10.9688C116.188 10.3125 116.562 9.73438 117.188 9.23438C117.812 8.70312 118.531 8.4375 119.344 8.4375C120.156 8.4375 120.828 8.67188 121.359 9.14062C121.703 7.60938 121.562 6.5 120.938 5.8125C119.719 4.53125 118.328 3.89062 116.766 3.89062C115.203 3.89062 113.75 4.09375 112.406 4.5C111.094 4.90625 109.625 5.60938 108 6.60938C105.281 8.29688 100.984 11.875 95.1094 17.3438C85.4844 26.8438 77.1406 32.8906 70.0781 35.4844C70.6406 36.6094 70.9219 37.8281 70.9219 39.1406C70.9219 40.4219 70.7656 41.7812 70.4531 43.2188C70.1406 44.6562 69.5312 46.2188 68.625 47.9062C66.6562 51.5938 63.2344 55.6094 58.3594 59.9531C55.4531 62.5469 54 64.5156 54 65.8594C54 66.6719 54.3125 67.2969 54.9375 67.7344C55.5625 68.1406 56.5469 68.3438 57.8906 68.3438C59.2656 68.3438 60.5781 68.1094 61.8281 67.6406C63.1094 67.1719 64.4375 66.4844 65.8125 65.5781C67.1875 64.6719 68.5625 63.5781 69.9375 62.2969C71.3125 60.9844 72.625 59.5 73.875 57.8438C76.5625 54.2188 78.4375 50.2812 79.5 46.0312C79.75 45.0625 79.9688 44.5781 80.1562 44.5781ZM62.9531 33.375C62.2344 33.4062 61.625 33.5625 61.125 33.8438C60.625 34.0938 60.375 34.3438 60.375 34.5938C60.375 34.8125 60.6406 35.0625 61.1719 35.3438C61.7031 35.5938 62.4531 35.6875 63.4219 35.625C65.1094 35.5625 66.5625 35.2969 67.7812 34.8281C66.5938 33.7031 64.9844 33.2188 62.9531 33.375Z" stroke="black"/>
</svg>
