<svg width="17" height="10" viewBox="0 0 17 10" fill="none" xmlns="http://www.w3.org/2000/svg">
<mask id="path-1-inside-1_237_51" fill="white">
<path d="M7.77148 1.25977C7.77148 1.01758 7.55859 0.896484 7.13281 0.896484C6.44531 0.896484 5.81836 1.16797 5.25195 1.71094C4.93164 2.02344 4.70508 2.31445 4.57227 2.58398C4.44336 2.85352 4.36719 3.03906 4.34375 3.14062C4.30469 3.28906 4.27344 3.36328 4.25 3.36328C4.20703 3.36328 4.18555 3.33984 4.18555 3.29297V3.21094C4.18555 3.14844 4.23047 3.01562 4.32031 2.8125C4.41016 2.60938 4.51367 2.41797 4.63086 2.23828C4.74805 2.05859 4.88867 1.87891 5.05273 1.69922C5.2168 1.51953 5.4043 1.35938 5.61523 1.21875C6.0918 0.894531 6.61133 0.732422 7.17383 0.732422C7.5957 0.732422 7.88281 0.851562 8.03516 1.08984C8.08203 1.16016 8.10547 1.26562 8.10547 1.40625C8.10547 1.54688 8.03906 1.72461 7.90625 1.93945C7.77734 2.1543 7.55469 2.36133 7.23828 2.56055L6.98047 2.73047C6.91797 2.76953 6.88672 2.82031 6.88672 2.88281C6.88672 3.01172 6.99414 3.07617 7.20898 3.07617C7.99023 3.07617 8.94336 2.59961 10.0684 1.64648C11.0059 0.900391 11.5957 0.527344 11.8379 0.527344C11.8926 0.527344 11.9199 0.544922 11.9199 0.580078C11.9199 0.611328 11.8887 0.636719 11.8262 0.65625C11.7676 0.671875 11.6758 0.712891 11.5508 0.779297C11.4297 0.841797 11.2812 0.939453 11.1055 1.07227C10.9336 1.20117 10.7324 1.375 10.502 1.59375C10.2715 1.80859 10.0078 2.08008 9.71094 2.4082C9.41406 2.73633 9.08008 3.12891 8.70898 3.58594L7.4668 5.18555C6.50977 6.45898 5.54102 7.43359 4.56055 8.10938C3.68164 8.71094 2.87695 9.01172 2.14648 9.01172C1.5957 9.01172 1.23438 8.85156 1.0625 8.53125C1.00781 8.4375 0.980469 8.3418 0.980469 8.24414C0.980469 8.14258 0.998047 8.06055 1.0332 7.99805C1.06836 7.93555 1.11328 7.88672 1.16797 7.85156C1.26953 7.77734 1.36914 7.74023 1.4668 7.74023C1.70117 7.74023 1.81836 7.82812 1.81836 8.00391C1.81836 8.08203 1.78516 8.15039 1.71875 8.20898C1.65234 8.26367 1.56641 8.29102 1.46094 8.29102C1.35156 8.29102 1.26758 8.27344 1.20898 8.23828V8.27344C1.20898 8.44531 1.29297 8.58594 1.46094 8.69531C1.625 8.80469 1.83398 8.85938 2.08789 8.85938C2.3457 8.85938 2.60742 8.80859 2.87305 8.70703C3.14258 8.60156 3.4375 8.42773 3.75781 8.18555C4.44141 7.67383 5.20117 6.85156 6.03711 5.71875C6.34961 5.29688 6.7168 4.87109 7.13867 4.44141L8.24609 3.36328L9.20117 2.4668C8.42383 2.98242 7.75977 3.24023 7.20898 3.24023C6.81836 3.24023 6.62305 3.08203 6.62305 2.76562C6.62305 2.39062 6.91406 1.99414 7.49609 1.57617C7.67969 1.45117 7.77148 1.3457 7.77148 1.25977ZM10.8945 5.94727C10.9414 5.94727 10.9648 6.03125 10.9648 6.19922C10.9648 6.36328 10.9199 6.55469 10.8301 6.77344C10.7441 6.98828 10.627 7.20508 10.4785 7.42383C10.334 7.63867 10.1641 7.8457 9.96875 8.04492C9.77734 8.24414 9.57617 8.42188 9.36523 8.57812C8.9043 8.91406 8.48633 9.08203 8.11133 9.08203C7.58008 9.08203 7.31445 8.87891 7.31445 8.47266C7.31445 8.18359 7.40039 7.89648 7.57227 7.61133C7.89648 7.07617 8.38867 6.48438 9.04883 5.83594C9.24414 5.65234 9.37305 5.42578 9.43555 5.15625C9.45117 5.08984 9.45898 5.03516 9.45898 4.99219C9.45898 4.94922 9.45312 4.91016 9.44141 4.875C9.20703 4.94922 8.98828 4.99023 8.78516 4.99805C8.58594 5.00195 8.42773 4.97266 8.31055 4.91016C8.19336 4.84375 8.13477 4.77539 8.13477 4.70508C8.13477 4.63086 8.18359 4.56641 8.28125 4.51172C8.38281 4.45703 8.52344 4.42578 8.70312 4.41797C9.07422 4.40625 9.3457 4.48633 9.51758 4.6582C9.93555 4.45117 10.4688 3.97852 11.1172 3.24023C11.8789 2.41211 12.668 1.77734 13.4844 1.33594C14.2266 0.929688 14.8789 0.726562 15.4414 0.726562C15.7344 0.726562 15.9531 0.800781 16.0977 0.949219C16.2422 1.09375 16.2949 1.27539 16.2559 1.49414C16.209 1.76367 16.0781 1.94531 15.8633 2.03906C15.8008 2.06641 15.7246 2.08008 15.6348 2.08008C15.5488 2.08008 15.4824 2.04492 15.4355 1.97461C15.3887 1.90039 15.3711 1.82422 15.3828 1.74609C15.3984 1.66406 15.4453 1.5918 15.5234 1.5293C15.6016 1.46289 15.6914 1.42969 15.793 1.42969C15.8945 1.42969 15.9785 1.45898 16.0449 1.51758C16.0879 1.32617 16.0703 1.1875 15.9922 1.10156C15.8398 0.941406 15.666 0.861328 15.4707 0.861328C15.2754 0.861328 15.0938 0.886719 14.9258 0.9375C14.7617 0.988281 14.5781 1.07617 14.375 1.20117C14.0352 1.41211 13.498 1.85938 12.7637 2.54297C11.5605 3.73047 10.5176 4.48633 9.63477 4.81055C9.70508 4.95117 9.74023 5.10352 9.74023 5.26758C9.74023 5.42773 9.7207 5.59766 9.68164 5.77734C9.64258 5.95703 9.56641 6.15234 9.45312 6.36328C9.20703 6.82422 8.7793 7.32617 8.16992 7.86914C7.80664 8.19336 7.625 8.43945 7.625 8.60742C7.625 8.70898 7.66406 8.78711 7.74219 8.8418C7.82031 8.89258 7.94336 8.91797 8.11133 8.91797C8.2832 8.91797 8.44727 8.88867 8.60352 8.83008C8.76367 8.77148 8.92969 8.68555 9.10156 8.57227C9.27344 8.45898 9.44531 8.32227 9.61719 8.16211C9.78906 7.99805 9.95312 7.8125 10.1094 7.60547C10.4453 7.15234 10.6797 6.66016 10.8125 6.12891C10.8438 6.00781 10.8711 5.94727 10.8945 5.94727ZM8.74414 4.54688C8.6543 4.55078 8.57812 4.57031 8.51562 4.60547C8.45312 4.63672 8.42188 4.66797 8.42188 4.69922C8.42188 4.72656 8.45508 4.75781 8.52148 4.79297C8.58789 4.82422 8.68164 4.83594 8.80273 4.82812C9.01367 4.82031 9.19531 4.78711 9.34766 4.72852C9.19922 4.58789 8.99805 4.52734 8.74414 4.54688Z"/>
</mask>
<path d="M7.77148 1.25977C7.77148 1.01758 7.55859 0.896484 7.13281 0.896484C6.44531 0.896484 5.81836 1.16797 5.25195 1.71094C4.93164 2.02344 4.70508 2.31445 4.57227 2.58398C4.44336 2.85352 4.36719 3.03906 4.34375 3.14062C4.30469 3.28906 4.27344 3.36328 4.25 3.36328C4.20703 3.36328 4.18555 3.33984 4.18555 3.29297V3.21094C4.18555 3.14844 4.23047 3.01562 4.32031 2.8125C4.41016 2.60938 4.51367 2.41797 4.63086 2.23828C4.74805 2.05859 4.88867 1.87891 5.05273 1.69922C5.2168 1.51953 5.4043 1.35938 5.61523 1.21875C6.0918 0.894531 6.61133 0.732422 7.17383 0.732422C7.5957 0.732422 7.88281 0.851562 8.03516 1.08984C8.08203 1.16016 8.10547 1.26562 8.10547 1.40625C8.10547 1.54688 8.03906 1.72461 7.90625 1.93945C7.77734 2.1543 7.55469 2.36133 7.23828 2.56055L6.98047 2.73047C6.91797 2.76953 6.88672 2.82031 6.88672 2.88281C6.88672 3.01172 6.99414 3.07617 7.20898 3.07617C7.99023 3.07617 8.94336 2.59961 10.0684 1.64648C11.0059 0.900391 11.5957 0.527344 11.8379 0.527344C11.8926 0.527344 11.9199 0.544922 11.9199 0.580078C11.9199 0.611328 11.8887 0.636719 11.8262 0.65625C11.7676 0.671875 11.6758 0.712891 11.5508 0.779297C11.4297 0.841797 11.2812 0.939453 11.1055 1.07227C10.9336 1.20117 10.7324 1.375 10.502 1.59375C10.2715 1.80859 10.0078 2.08008 9.71094 2.4082C9.41406 2.73633 9.08008 3.12891 8.70898 3.58594L7.4668 5.18555C6.50977 6.45898 5.54102 7.43359 4.56055 8.10938C3.68164 8.71094 2.87695 9.01172 2.14648 9.01172C1.5957 9.01172 1.23438 8.85156 1.0625 8.53125C1.00781 8.4375 0.980469 8.3418 0.980469 8.24414C0.980469 8.14258 0.998047 8.06055 1.0332 7.99805C1.06836 7.93555 1.11328 7.88672 1.16797 7.85156C1.26953 7.77734 1.36914 7.74023 1.4668 7.74023C1.70117 7.74023 1.81836 7.82812 1.81836 8.00391C1.81836 8.08203 1.78516 8.15039 1.71875 8.20898C1.65234 8.26367 1.56641 8.29102 1.46094 8.29102C1.35156 8.29102 1.26758 8.27344 1.20898 8.23828V8.27344C1.20898 8.44531 1.29297 8.58594 1.46094 8.69531C1.625 8.80469 1.83398 8.85938 2.08789 8.85938C2.3457 8.85938 2.60742 8.80859 2.87305 8.70703C3.14258 8.60156 3.4375 8.42773 3.75781 8.18555C4.44141 7.67383 5.20117 6.85156 6.03711 5.71875C6.34961 5.29688 6.7168 4.87109 7.13867 4.44141L8.24609 3.36328L9.20117 2.4668C8.42383 2.98242 7.75977 3.24023 7.20898 3.24023C6.81836 3.24023 6.62305 3.08203 6.62305 2.76562C6.62305 2.39062 6.91406 1.99414 7.49609 1.57617C7.67969 1.45117 7.77148 1.3457 7.77148 1.25977ZM10.8945 5.94727C10.9414 5.94727 10.9648 6.03125 10.9648 6.19922C10.9648 6.36328 10.9199 6.55469 10.8301 6.77344C10.7441 6.98828 10.627 7.20508 10.4785 7.42383C10.334 7.63867 10.1641 7.8457 9.96875 8.04492C9.77734 8.24414 9.57617 8.42188 9.36523 8.57812C8.9043 8.91406 8.48633 9.08203 8.11133 9.08203C7.58008 9.08203 7.31445 8.87891 7.31445 8.47266C7.31445 8.18359 7.40039 7.89648 7.57227 7.61133C7.89648 7.07617 8.38867 6.48438 9.04883 5.83594C9.24414 5.65234 9.37305 5.42578 9.43555 5.15625C9.45117 5.08984 9.45898 5.03516 9.45898 4.99219C9.45898 4.94922 9.45312 4.91016 9.44141 4.875C9.20703 4.94922 8.98828 4.99023 8.78516 4.99805C8.58594 5.00195 8.42773 4.97266 8.31055 4.91016C8.19336 4.84375 8.13477 4.77539 8.13477 4.70508C8.13477 4.63086 8.18359 4.56641 8.28125 4.51172C8.38281 4.45703 8.52344 4.42578 8.70312 4.41797C9.07422 4.40625 9.3457 4.48633 9.51758 4.6582C9.93555 4.45117 10.4688 3.97852 11.1172 3.24023C11.8789 2.41211 12.668 1.77734 13.4844 1.33594C14.2266 0.929688 14.8789 0.726562 15.4414 0.726562C15.7344 0.726562 15.9531 0.800781 16.0977 0.949219C16.2422 1.09375 16.2949 1.27539 16.2559 1.49414C16.209 1.76367 16.0781 1.94531 15.8633 2.03906C15.8008 2.06641 15.7246 2.08008 15.6348 2.08008C15.5488 2.08008 15.4824 2.04492 15.4355 1.97461C15.3887 1.90039 15.3711 1.82422 15.3828 1.74609C15.3984 1.66406 15.4453 1.5918 15.5234 1.5293C15.6016 1.46289 15.6914 1.42969 15.793 1.42969C15.8945 1.42969 15.9785 1.45898 16.0449 1.51758C16.0879 1.32617 16.0703 1.1875 15.9922 1.10156C15.8398 0.941406 15.666 0.861328 15.4707 0.861328C15.2754 0.861328 15.0938 0.886719 14.9258 0.9375C14.7617 0.988281 14.5781 1.07617 14.375 1.20117C14.0352 1.41211 13.498 1.85938 12.7637 2.54297C11.5605 3.73047 10.5176 4.48633 9.63477 4.81055C9.70508 4.95117 9.74023 5.10352 9.74023 5.26758C9.74023 5.42773 9.7207 5.59766 9.68164 5.77734C9.64258 5.95703 9.56641 6.15234 9.45312 6.36328C9.20703 6.82422 8.7793 7.32617 8.16992 7.86914C7.80664 8.19336 7.625 8.43945 7.625 8.60742C7.625 8.70898 7.66406 8.78711 7.74219 8.8418C7.82031 8.89258 7.94336 8.91797 8.11133 8.91797C8.2832 8.91797 8.44727 8.88867 8.60352 8.83008C8.76367 8.77148 8.92969 8.68555 9.10156 8.57227C9.27344 8.45898 9.44531 8.32227 9.61719 8.16211C9.78906 7.99805 9.95312 7.8125 10.1094 7.60547C10.4453 7.15234 10.6797 6.66016 10.8125 6.12891C10.8438 6.00781 10.8711 5.94727 10.8945 5.94727ZM8.74414 4.54688C8.6543 4.55078 8.57812 4.57031 8.51562 4.60547C8.45312 4.63672 8.42188 4.66797 8.42188 4.69922C8.42188 4.72656 8.45508 4.75781 8.52148 4.79297C8.58789 4.82422 8.68164 4.83594 8.80273 4.82812C9.01367 4.82031 9.19531 4.78711 9.34766 4.72852C9.19922 4.58789 8.99805 4.52734 8.74414 4.54688Z" stroke="black" stroke-width="0.4" mask="url(#path-1-inside-1_237_51)"/>
</svg>
