<svg width="100" height="69" viewBox="0 0 100 69" fill="none" xmlns="http://www.w3.org/2000/svg">
<path d="M27.4062 63.8594C22.4688 66.0156 17.0625 67.0938 11.1875 67.0938C6.1875 67.0938 2.95312 66.2812 1.48438 64.6562C1.07812 64.1875 0.875 63.6562 0.875 63.0625C0.875 62.4688 1.125 61.875 1.625 61.2812C2.125 60.6875 2.84375 60.1875 3.78125 59.7812C5.65625 58.9062 8.40625 58.4688 12.0312 58.4688C15.625 58.4688 20.5156 59.5625 26.7031 61.75C31.1406 58.8438 36.5781 53 43.0156 44.2188C36.6406 44.0312 31.4375 42.625 27.4062 40C23.4688 37.4062 21.5 34.0625 21.5 29.9688C21.5 25.875 23.375 22.0938 27.125 18.625C30.9375 15.0938 35.2031 13.3281 39.9219 13.3281C40.6094 13.3281 40.9531 13.5156 40.9531 13.8906C40.9531 14.1719 40.0938 14.4062 38.375 14.5938C36.6562 14.75 34.8906 15.2969 33.0781 16.2344C31.2969 17.1719 29.8125 18.3125 28.625 19.6562C26.2188 22.375 25.0156 25.1875 25.0156 28.0938C25.0156 31 25.4531 33.3281 26.3281 35.0781C27.2344 36.8281 28.5156 38.2812 30.1719 39.4375C33.4219 41.6562 38.0312 42.7969 44 42.8594L50.375 33.625C58.125 22.0625 65.25 13.75 71.75 8.6875C78.0938 3.78125 84.6719 1.32812 91.4844 1.32812C95.1094 1.32812 97.5156 2.4375 98.7031 4.65625C99.0781 5.375 99.2656 6.35938 99.2656 7.60938C99.2656 8.85938 98.8438 10.4062 98 12.25C97.1875 14.0625 96.0312 15.9219 94.5312 17.8281C93.0625 19.7344 91.3125 21.6406 89.2812 23.5469C87.25 25.4531 85.0312 27.2969 82.625 29.0781C80.2188 30.8594 77.6562 32.5469 74.9375 34.1406C72.25 35.7344 69.5 37.1875 66.6875 38.5C60.7812 41.2188 55.2344 42.9688 50.0469 43.75C43.1719 52.9375 36.3438 59.2969 29.5625 62.8281C35.25 64.8594 42.0469 65.875 49.9531 65.875C56.9531 65.875 62.0625 64.2656 65.2812 61.0469C65.75 60.5781 66.0469 60.4844 66.1719 60.7656C66.3906 61.2656 66.1562 61.8594 65.4688 62.5469C61.1875 66.2969 56.1719 68.1719 50.4219 68.1719C44.6719 68.1719 37 66.7344 27.4062 63.8594ZM51.1719 42.25C57.7344 41.125 64.6875 38.4375 72.0312 34.1875C78.7812 30.3125 84.4531 25.8125 89.0469 20.6875C93.7656 15.4688 96.125 10.8125 96.125 6.71875C96.125 4.90625 95.125 3.59375 93.125 2.78125C92.5312 2.53125 91.8906 2.40625 91.2031 2.40625C81.2656 2.40625 71.5625 10.1875 62.0938 25.75L56.4688 34.5625C54.6875 37.3125 52.9219 39.875 51.1719 42.25ZM11.75 60.8594C5.375 60.8594 2.1875 61.6406 2.1875 63.2031C2.1875 64.2656 3.79688 65.0938 7.01562 65.6875C8.04688 65.875 9.5625 65.9688 11.5625 65.9688C16.625 65.9688 20.9688 64.9844 24.5938 63.0156C19.1562 61.5781 14.875 60.8594 11.75 60.8594Z" stroke="black"/>
</svg>
