<svg width="13" height="10" viewBox="0 0 13 10" fill="none" xmlns="http://www.w3.org/2000/svg">
<path d="M8.58594 5.4375C7.84766 5.77734 7.1543 5.99609 6.50586 6.09375M8.58594 5.4375C8.9375 5.27344 9.28125 5.0918 9.61719 4.89258C9.95703 4.69336 10.2773 4.48242 10.5781 4.25977C10.8789 4.03711 11.1562 3.80664 11.4102 3.56836C11.6641 3.33008 11.8828 3.0918 12.0664 2.85352L6.50586 6.09375M8.58594 5.4375L8.5586 5.37891L11.9288 0.880248M8.58594 5.4375L8.5589 5.37877C8.80388 5.26196 9.05222 5.1307 9.30389 4.98505M6.50586 6.09375C5.68679 7.18833 4.87304 7.96177 4.06461 8.41408L6.50586 6.09375ZM9.30389 4.98505C9.30382 4.98509 9.30376 4.98513 9.30369 4.98516L9.29176 4.96438C9.29184 4.96434 9.29192 4.9643 9.292 4.96425L9.304 4.98499C9.30396 4.98501 9.30392 4.98503 9.30389 4.98505ZM9.30389 4.98505C9.39619 4.93206 9.48692 4.87813 9.57608 4.82325C9.57619 4.82318 9.57631 4.82311 9.57642 4.82304C9.78863 4.69242 9.99189 4.55648 10.1862 4.4152M10.1862 4.4152C10.2996 4.33811 10.4104 4.25951 10.5186 4.17939C10.8165 3.95887 11.0908 3.73088 11.3417 3.49544C11.5923 3.26027 11.8073 3.02592 11.9872 2.79248L11.9878 2.79167C12.1713 2.55847 12.3112 2.33301 12.4087 2.11534L12.4091 2.11464C12.5118 1.89006 12.5582 1.71185 12.5582 1.57617C12.5582 1.42842 12.5358 1.32363 12.4995 1.25374M10.1862 4.4152C10.6633 4.06831 11.0864 3.68925 11.4551 3.27788M10.1862 4.4152L11.4551 3.27788M12.4995 1.25374C12.4996 1.2539 12.4996 1.25406 12.4997 1.25422L12.5879 1.20703L12.4992 1.25329C12.4993 1.25344 12.4994 1.25359 12.4995 1.25374ZM12.4995 1.25374C12.412 1.09059 12.2588 0.97704 12.0235 0.924354M12.0235 0.924354C11.9936 0.908419 11.962 0.893736 11.9288 0.880248M12.0235 0.924354C12.1167 0.973954 12.1938 1.03568 12.2514 1.11127C12.3285 1.21245 12.3656 1.33195 12.3656 1.46484C12.3656 2.01387 12.0506 2.61935 11.4551 3.27788M12.0235 0.924354L11.4551 3.27788M11.9288 0.880248C11.929 0.88033 11.9292 0.880411 11.9294 0.880493L11.9188 0.905693C11.9185 0.905651 11.9182 0.905608 11.9179 0.905565L11.9283 0.88001C11.9285 0.880089 11.9287 0.880169 11.9288 0.880248ZM11.4551 3.27788C11.4552 3.27781 11.4553 3.27775 11.4553 3.27768L11.3809 3.21094L11.455 3.27801C11.4551 3.27796 11.4551 3.27792 11.4551 3.27788ZM3.70449 8.51163L3.66936 8.5011L3.63576 8.51578C3.48328 8.58237 3.32707 8.64058 3.1671 8.69041C3.23716 8.65947 3.30544 8.62595 3.37194 8.58983L3.59325 8.46964L3.34978 8.40527C2.66726 8.22484 2.12228 8.13242 1.71875 8.13242C1.31831 8.13242 1.0097 8.15676 0.79846 8.20854C0.729713 8.22539 0.667701 8.24597 0.614793 8.2716C0.655306 8.2422 0.704195 8.21464 0.762417 8.18941L0.762432 8.18945L0.764945 8.18827C0.979612 8.0881 1.306 8.03359 1.75391 8.03359C2.18598 8.03359 2.7845 8.16579 3.55456 8.43803L3.60125 8.45454L3.64268 8.42741C4.21324 8.05373 4.90169 7.3108 5.7076 6.21147L5.8018 6.08297L5.8021 6.08297L5.8069 6.07602L5.82012 6.05798L5.81937 6.05796L5.83229 6.03923L6.62917 4.88494L6.62918 4.88494L6.62994 4.8838C7.59617 3.44225 8.47976 2.41331 9.27998 1.79C9.66605 1.49142 10.0577 1.26792 10.4551 1.11845C9.58605 1.54832 8.74413 2.44781 7.92685 3.79084L7.22466 4.89095C7.2246 4.89104 7.22454 4.89114 7.22447 4.89124C7.00286 5.23337 6.78335 5.55192 6.56598 5.84693L6.45273 6.00062L6.45038 6.00098L6.42579 6.03384C5.5713 7.17575 4.72849 7.95794 3.89913 8.38982L3.69592 8.49564L3.91062 8.57231C3.84275 8.5527 3.77404 8.53247 3.70449 8.51163ZM6.71482 5.9566L6.72699 5.96557C6.73022 5.96118 6.73346 5.95679 6.73669 5.95239C6.7294 5.95381 6.72211 5.95521 6.71482 5.9566ZM6.49414 8.95938C7.00716 8.95938 7.44752 8.89131 7.81068 8.75101C7.43028 8.9481 7.01141 9.04648 6.55273 9.04648C6.1117 9.04648 5.57512 8.97728 4.94206 8.83759C5.41655 8.91895 5.93404 8.95938 6.49414 8.95938ZM3.9651 5.63728C4.07044 5.70919 4.186 5.77215 4.31161 5.82633C4.09866 5.75007 3.90507 5.65495 3.73054 5.54132C3.26164 5.23236 3.0375 4.84355 3.0375 4.37109C3.0375 3.89387 3.25481 3.44622 3.70853 3.02654L3.70858 3.02649C3.78195 2.95853 3.85658 2.89609 3.93247 2.83913C3.8681 2.89455 3.80833 2.95342 3.75324 3.01576C3.44046 3.36916 3.27695 3.74337 3.27695 4.13672C3.27695 4.5086 3.33271 4.81676 3.45157 5.05449L3.45156 5.05449L3.45222 5.05575C3.57314 5.28925 3.74428 5.48312 3.96424 5.63668L3.9651 5.63728Z" stroke="black" stroke-width="0.2"/>
</svg>
