<svg width="16" height="10" viewBox="0 0 16 10" fill="none" xmlns="http://www.w3.org/2000/svg">
<path d="M10.2324 8.4375C9.76367 8.71484 9.35938 8.85352 9.01953 8.85352C8.79297 8.85352 8.67969 8.77148 8.67969 8.60742C8.67969 8.53711 8.73047 8.41016 8.83203 8.22656L9.25787 8.86676C9.63428 8.79203 9.96857 8.66533 10.2618 8.48734L10.2324 8.4375ZM10.2324 8.4375L10.2619 8.4873C10.3666 8.42375 10.466 8.35366 10.5603 8.27706C10.5605 8.27619 10.5607 8.27523 10.561 8.27417C10.5638 8.26132 10.566 8.24033 10.566 8.20898C10.566 8.20414 10.5658 8.20066 10.5655 8.19835C10.4658 8.28563 10.3548 8.36534 10.2324 8.4375ZM10.5964 8.30348C10.5011 8.3834 10.3967 8.45673 10.2833 8.52356L10.5964 8.30348ZM10.5964 8.30348L10.6367 8.34375M10.5964 8.30348L8.24023 8.23828C8.2207 8.32422 8.21094 8.42188 8.21094 8.53125C8.21094 8.64062 8.26758 8.74805 8.38086 8.85352C8.49805 8.95898 8.64062 9.01172 8.80859 9.01172C8.98047 9.01172 9.13672 8.99609 9.27734 8.96484C9.80859 8.85938 10.2617 8.65234 10.6367 8.34375M10.6367 8.34375L10.6007 8.29994C10.6226 8.28142 10.6441 8.26256 10.6651 8.24335C10.6623 8.29415 10.6529 8.32761 10.6367 8.34375ZM10.6367 8.13281C10.6437 8.137 10.6494 8.14292 10.6539 8.15059L10.6367 8.13281ZM10.6367 8.13281C10.6138 8.15497 10.5902 8.17668 10.5659 8.19793C10.5668 8.19984 10.5684 8.20276 10.571 8.20613C10.5718 8.20709 10.5726 8.20804 10.5735 8.20898C10.5767 8.21246 10.5806 8.21578 10.5853 8.21856L10.591 8.20898L10.6367 8.13281ZM3.68845 7.80532L3.69018 7.80755C3.69025 7.80749 3.69031 7.80744 3.69038 7.80739C3.69046 7.80733 3.69053 7.80727 3.69061 7.80721L3.68888 7.805M3.68845 7.80532C3.68859 7.80521 3.68873 7.8051 3.68888 7.805M3.68845 7.80532L3.62891 7.72852M3.68845 7.80532C3.35043 8.05852 3.02964 8.27096 2.72608 8.44282C2.72588 8.44294 2.72567 8.44305 2.72547 8.44316C2.64904 8.48643 2.57369 8.52712 2.49944 8.56524M3.68888 7.805L3.62891 7.72852M3.68888 7.805L3.62891 7.72852M3.62891 7.72852L0.476562 8.80078L0.525912 8.73451M2.49944 8.56524C2.30551 8.66384 2.12152 8.74051 1.94729 8.79593C1.94693 8.79605 1.94656 8.79617 1.94619 8.79628C1.71457 8.86986 1.50021 8.90586 1.30273 8.90586C1.27678 8.90586 1.25139 8.90551 1.22656 8.90481C0.95424 8.89712 0.749345 8.84766 0.603683 8.76452C0.603553 8.76444 0.603423 8.76437 0.603294 8.7643C0.57958 8.75074 0.557438 8.73629 0.536833 8.72098M2.49944 8.56524C2.49938 8.56527 2.49932 8.5653 2.49925 8.56533L2.51537 8.59673L2.4996 8.56516C2.49954 8.56518 2.49949 8.56521 2.49944 8.56524ZM0.536833 8.72098C0.475355 8.67381 0.426278 8.62216 0.389168 8.56563C0.422447 8.62832 0.468206 8.68475 0.525912 8.73451M0.536833 8.72098C0.536652 8.72085 0.53647 8.72071 0.536289 8.72058L0.525912 8.73451M0.536833 8.72098L0.525912 8.73451M0.429688 8.2207L0.529342 8.22901L0.526335 8.2651C0.489537 8.2545 0.457321 8.2397 0.429688 8.2207ZM0.429688 8.2207L0.383649 8.28767L0.381348 8.29102L0.373035 8.30311C0.389624 8.31451 0.407102 8.32459 0.425387 8.33342C0.424348 8.31953 0.423828 8.3054 0.423828 8.29102L0.429688 8.2207ZM13.7236 1.50185C13.4378 1.81533 13.1447 2.157 12.8443 2.52678L12.8442 2.52677L12.843 2.52842L11.9172 3.71788L11.9172 3.71785L11.9156 3.71995L10.9781 4.99144L10.9781 4.99143L10.9771 4.99281C10.2739 5.98115 9.73668 6.74016 9.36539 7.26974C8.99662 7.79572 8.78698 8.10175 8.74462 8.178L8.74453 8.17816C8.69267 8.27189 8.65245 8.35353 8.62493 8.42233C8.59842 8.4886 8.57969 8.55251 8.57969 8.60742C8.57969 8.7152 8.61866 8.80974 8.706 8.87299C8.72658 8.88789 8.74898 8.90041 8.77295 8.91079C8.64434 8.90399 8.5377 8.85989 8.44839 8.77976C8.34727 8.68541 8.31094 8.6028 8.31094 8.53125C8.31094 8.42856 8.32004 8.33924 8.33728 8.26253C8.35884 8.18413 8.39731 8.08281 8.45432 7.9574C8.71501 7.38622 9.19349 6.65359 9.8945 5.75779L10.8126 4.63506L11.7773 3.54168L12.7248 2.51821L13.6195 1.60587L13.6202 1.60518L13.7236 1.50185ZM14.4615 0.756774C14.4391 0.776381 14.416 0.797025 14.3922 0.818701L14.3122 0.723293C14.4297 0.646238 14.5364 0.582519 14.6322 0.531919C14.7258 0.482527 14.8064 0.447114 14.8749 0.423676C14.7703 0.495735 14.632 0.60754 14.4615 0.756774ZM11.7659 2.86174C12.1339 2.51643 12.4732 2.2073 12.7839 1.93421L12.1632 2.49826L12.1632 2.49824L12.1617 2.49966L10.4858 4.08689L10.612 3.96297L10.613 3.96199L11.7657 2.86198C11.7658 2.8619 11.7659 2.86182 11.7659 2.86174ZM6.01726 8.5759L6.15675 8.66785C6.12379 8.70026 6.09325 8.72871 6.06511 8.75326C6.0178 8.79454 5.97961 8.82274 5.94996 8.8401C5.93153 8.85089 5.91972 8.85551 5.91345 8.8575C5.91048 8.85525 5.90637 8.85173 5.9012 8.84643C5.89891 8.84072 5.89334 8.8246 5.88855 8.79103C5.88265 8.74973 5.8793 8.69294 5.8793 8.61914C5.8793 8.47968 5.92563 8.25811 6.02663 7.94729C6.13025 7.63648 6.27663 7.28949 6.4664 6.90605C6.66017 6.5224 6.89303 6.10901 7.16517 5.66581C7.44124 5.21866 7.75055 4.75369 8.09318 4.27089C8.81359 3.26233 9.62187 2.2534 10.5181 1.24413L10.4145 1.14452C10.4465 1.11563 10.4782 1.0872 10.5097 1.05924C10.7648 0.833268 10.9657 0.665391 11.1129 0.554485C11.1867 0.498892 11.2451 0.459103 11.2889 0.433671C11.3109 0.420942 11.3274 0.412878 11.339 0.408243C11.3426 0.406838 11.3452 0.405931 11.3471 0.405355L11.2045 0.52759L11.2044 0.527574L11.2029 0.52895C11.0122 0.699346 10.818 0.924211 10.6198 1.20164L10.6188 1.20309L9.98597 2.12301L9.98594 2.12299L9.98443 2.12532L8.44341 4.50423L8.44339 4.50421L8.44217 4.5062C7.0143 6.82746 6.20375 8.18704 6.01726 8.5759ZM6.2563 5.43585L6.9138 4.73967L6.76029 4.90701L6.76008 4.90725C5.67016 6.10312 4.69126 7.03405 3.82309 7.70301C4.13785 7.45198 4.48056 7.15479 4.85114 6.81166C5.27451 6.41965 5.74252 5.96141 6.2551 5.43709L6.25511 5.4371L6.2563 5.43585ZM0.344043 8.04428C0.344543 8.04335 0.345046 8.04242 0.345553 8.04151L0.344343 8.04068L0.344043 8.04428Z" stroke="black" stroke-width="0.2"/>
</svg>
