<svg width="121" height="72" viewBox="0 0 121 72" fill="none" xmlns="http://www.w3.org/2000/svg">
<path d="M68.4375 67.8594C68.4375 69.1719 69.3438 69.8281 71.1562 69.8281C73.875 69.8281 77.1094 68.7188 80.8594 66.5C82.0781 65.7812 83.1562 64.9688 84.0938 64.0625C84.25 64.1562 84.3281 64.3594 84.3281 64.6719C84.3281 65.2344 84.25 65.5938 84.0938 65.75C81.0938 68.2188 77.4688 69.875 73.2188 70.7188C72.0938 70.9688 70.8438 71.0938 69.4688 71.0938C68.125 71.0938 66.9844 70.6719 66.0469 69.8281C65.1406 68.9844 64.6875 68.125 64.6875 67.25C64.6875 66.375 64.7656 65.5938 64.9219 64.9062C65.1094 64.2188 65.4375 63.3594 65.9062 62.3281C68.0312 57.6719 71.9062 51.75 77.5312 44.5625L84.8906 35.5625L92.625 26.7969L100.219 18.5938L107.391 11.2812L113.625 5.04688C112.688 5.70312 111.688 6.45312 110.625 7.29688L107.109 10.25L96.8438 19.5781L80.0156 35.5156C71.2656 43.8281 61.6094 54.1562 51.0469 66.5C48.6406 69.2812 47.0469 70.6719 46.2656 70.6719C46.0469 70.6719 45.8125 70.5312 45.5625 70.25C45.3438 69.9375 45.2344 69.1719 45.2344 67.9531C45.2344 66.7031 45.6406 64.8281 46.4531 62.3281C47.2969 59.7969 48.4844 56.9844 50.0156 53.8906C51.5781 50.7969 53.4531 47.4688 55.6406 43.9062C57.8594 40.3125 60.3438 36.5781 63.0938 32.7031C68.875 24.6094 75.3594 16.5156 82.5469 8.42188L78.8438 11.9844L72.9375 18.0312L64.5938 26.8906L53.6719 38.7969C40.1719 53.6094 28.7344 63.4219 19.3594 68.2344C15.6719 70.1094 12.3594 71.0469 9.42188 71.0469C6.48438 71.0469 4.28125 70.5 2.8125 69.4062C1.34375 68.2812 0.609375 66.8281 0.609375 65.0469C0.609375 63.7344 0.96875 62.7812 1.6875 62.1875C2.78125 61.25 3.71875 60.7812 4.5 60.7812C6.40625 60.7812 7.35938 61.5 7.35938 62.9375C7.35938 63.5625 7.09375 64.1094 6.5625 64.5781C6.03125 65.0469 5.34375 65.2812 4.5 65.2812C3.625 65.2812 2.9375 65.1094 2.4375 64.7656L2.39062 65.3281C2.39062 66.7031 2.98438 67.7969 4.17188 68.6094C5.32812 69.3906 6.875 69.7812 8.8125 69.7812C10.7188 69.7812 12.5938 69.5 14.4375 68.9375C16.25 68.3438 18.2812 67.3906 20.5312 66.0781C22.7812 64.7344 25.2812 62.9844 28.0312 60.8281C30.8125 58.6719 33.8906 56.0312 37.2656 52.9062C40.6406 49.7812 44.375 46.125 48.4688 41.9375L62.0156 27.5938C70.0469 18.8125 76.8906 11.9062 82.5469 6.875C86.6406 3.25 89.0469 1.4375 89.7656 1.4375C90.6094 1.4375 91.0312 1.59375 91.0312 1.90625C91.0312 2.09375 90.8438 2.35938 90.4688 2.70312L89.1562 3.82812C87.6875 5.14062 86.1719 6.89062 84.6094 9.07812L79.5469 16.4375L67.2188 35.4688C55.7812 54.0625 49.3281 64.8906 47.8594 67.9531L55.6875 59L62.4844 51.4062L68.9531 44.4688L75.7031 37.625L83.3438 30.125L92.5781 21.3125C106.797 7.96875 115.75 1.29688 119.438 1.29688C119.75 1.29688 119.906 1.42188 119.906 1.67188C119.906 1.92188 119.5 2.32812 118.688 2.89062C117.875 3.42188 116.719 4.34375 115.219 5.65625C113.719 6.96875 111.812 8.89062 109.5 11.4219C107.188 13.9531 104.812 16.7188 102.375 19.7188L94.9688 29.2344L87.4688 39.4062C76.2188 55.2188 70.2812 63.6875 69.6562 64.8125C68.8438 66.2812 68.4375 67.2969 68.4375 67.8594Z" stroke="black"/>
</svg>
