<svg width="135" height="73" viewBox="0 0 135 73" fill="none" xmlns="http://www.w3.org/2000/svg">
<path d="M45.9062 71.8906C45.4375 71.8906 45.2031 71.7188 45.2031 71.375C45.2031 71.0312 45.2969 70.7812 45.4844 70.625C46.9844 69.4688 48.3438 67.25 49.5625 63.9688C50.0312 62.625 50.5469 61.0625 51.1094 59.2812L53.0781 52.8125C56.7969 40.6875 62.625 27.8594 70.5625 14.3281L58 29.8438L49 40.2969L43.4219 46.5312C32.1094 58.9062 23.2812 66.5625 16.9375 69.5C14.625 70.5625 12.5938 71.0938 10.8438 71.0938C9.0625 71.0938 7.57812 70.9375 6.39062 70.625C5.20312 70.2812 4.21875 69.8125 3.4375 69.2188C1.90625 68.0625 1.14062 66.5781 1.14062 64.7656C1.14062 63.5156 1.5 62.625 2.21875 62.0938C3.28125 61.25 4.21875 60.8281 5.03125 60.8281C6.9375 60.8281 7.89062 61.5469 7.89062 62.9844C7.89062 63.6094 7.625 64.1562 7.09375 64.625C6.5625 65.0938 5.89062 65.3281 5.07812 65.3281C4.23438 65.3281 3.54688 65.1719 3.01562 64.8594V65.1406C3.01562 66.5156 3.625 67.6406 4.84375 68.5156C6.03125 69.3906 7.625 69.8281 9.625 69.8281C11.625 69.8281 13.6406 69.3906 15.6719 68.5156C17.7031 67.6406 20.0781 66.1875 22.7969 64.1562C28.6406 59.8438 35.6562 53.0938 43.8438 43.9062L56.8281 29C67.4844 16.25 73.4844 8.875 74.8281 6.875C75.3906 6.1875 75.7969 5.84375 76.0469 5.84375C76.2969 5.84375 76.4219 5.95312 76.4219 6.17188C76.4219 6.39062 76.3594 6.625 76.2344 6.875L75.5781 8.09375C74.4219 10 73.5312 12.0469 72.9062 14.2344C72.3125 16.3906 71.8438 18.1094 71.5 19.3906C71.1875 20.6406 70.8125 22 70.375 23.4688L68.875 28.4375C66.6562 35.4375 63.9688 41.9531 60.8125 47.9844C60.8125 47.9844 58.0938 52.875 52.6562 62.6562L66.8594 45.7812L73.0938 38.6562L79.5625 31.5312L85.8906 24.7812C97.8281 12.4062 107.859 4.90625 115.984 2.28125C118.734 1.375 121.594 0.921875 124.562 0.921875C127.562 0.890625 129.891 1.60938 131.547 3.07812C133.234 4.51562 134.094 6.5625 134.125 9.21875C134.188 12.1875 132.688 15.5 129.625 19.1562C126.438 22.9062 122.438 25.9375 117.625 28.25C116.5 28.7812 115.688 29.0469 115.188 29.0469C114.719 29.0469 114.484 28.9375 114.484 28.7188C114.484 28.4688 115.078 28.1094 116.266 27.6406C117.484 27.1406 119.031 26.25 120.906 24.9688C122.812 23.6875 124.531 22.25 126.062 20.6562C129.469 17 131.172 13.4531 131.172 10.0156C131.172 7.54688 130.5 5.64062 129.156 4.29688C127.844 2.92188 125.922 2.23438 123.391 2.23438C120.891 2.23438 118.172 2.78125 115.234 3.875C112.297 4.96875 109.094 6.71875 105.625 9.125C98.7812 13.8438 90.5156 21.5 80.8281 32.0938L69.9062 44.3281L60.8125 55.0156L48.4844 69.6875C47.2656 71.1562 46.4062 71.8906 45.9062 71.8906ZM37 17.0938C36.4375 17.75 35.8438 18.0781 35.2188 18.0781C34.5938 18.0781 34.0469 17.8906 33.5781 17.5156C33.1094 17.1094 32.875 16.625 32.875 16.0625C32.875 15.4688 33.0625 14.9531 33.4375 14.5156C33.8438 14.0781 34.375 13.8594 35.0312 13.8594C35.6875 13.8594 36.2812 14.0156 36.8125 14.3281C37.375 14.6094 37.875 15.0312 38.3125 15.5938C39.25 16.8125 39.7188 18.3594 39.7188 20.2344C39.7188 22.0781 39.2969 23.7812 38.4531 25.3438C37.6094 26.875 36.5 28.1875 35.125 29.2812C32.1875 31.625 28.7969 32.7969 24.9531 32.7969C21.0469 32.7969 17.8281 31.7188 15.2969 29.5625C12.4844 27.2188 11.0781 23.9844 11.0781 19.8594C11.0781 15.4219 13.0312 11.7188 16.9375 8.75C20.875 5.75 25.9531 4.25 32.1719 4.25C35.8906 4.25 38.7031 4.54688 40.6094 5.14062C42.5469 5.70312 44.2188 6.28125 45.625 6.875C47.0312 7.4375 48.4375 8.0625 49.8438 8.75L54.625 10.9531C57.0625 11.9531 59.0469 12.4531 60.5781 12.4531C63.5469 12.4531 66.1875 11.4219 68.5 9.35938C68.6562 9.23438 68.8281 9.17188 69.0156 9.17188C69.2344 9.17188 69.3438 9.28125 69.3438 9.5C69.3438 9.75 69.125 10.125 68.6875 10.625C66.8438 12.4688 64.0625 13.7812 60.3438 14.5625C59.3438 14.75 58.4219 14.8438 57.5781 14.8438C56.7344 14.8438 55.7344 14.75 54.5781 14.5625C53.4219 14.375 52.25 14.125 51.0625 13.8125C48.6562 13.125 46.4688 12.2188 44.5 11.0938C42.5625 9.96875 40.8906 9.09375 39.4844 8.46875C38.1094 7.8125 36.875 7.3125 35.7812 6.96875C33.9688 6.375 31.9375 6.07812 29.6875 6.07812C27.4375 6.07812 25.2656 6.4375 23.1719 7.15625C21.1094 7.84375 19.2812 8.8125 17.6875 10.0625C14.2812 12.8125 12.5781 16.1719 12.5781 20.1406C12.5781 23.4844 13.6875 26.2344 15.9062 28.3906C18.1562 30.5781 21.1094 31.6719 24.7656 31.6719C28.2344 31.6719 31.2812 30.6562 33.9062 28.625C36.8125 26.4375 38.2656 23.6719 38.2656 20.3281C38.2656 19.0781 37.8438 18 37 17.0938Z" stroke="black"/>
</svg>
