<svg width="18" height="10" viewBox="0 0 18 10" fill="none" xmlns="http://www.w3.org/2000/svg">
<mask id="path-1-inside-1_237_48" fill="white">
<path d="M6.11328 9.11133C6.05469 9.11133 6.02539 9.08984 6.02539 9.04688C6.02539 9.00391 6.03711 8.97266 6.06055 8.95312C6.24805 8.80859 6.41797 8.53125 6.57031 8.12109C6.62891 7.95312 6.69336 7.75781 6.76367 7.53516L7.00977 6.72656C7.47461 5.21094 8.20312 3.60742 9.19531 1.91602L7.625 3.85547L6.5 5.16211L5.80273 5.94141C4.38867 7.48828 3.28516 8.44531 2.49219 8.8125C2.20312 8.94531 1.94922 9.01172 1.73047 9.01172C1.50781 9.01172 1.32227 8.99219 1.17383 8.95312C1.02539 8.91016 0.902344 8.85156 0.804688 8.77734C0.613281 8.63281 0.517578 8.44727 0.517578 8.2207C0.517578 8.06445 0.5625 7.95312 0.652344 7.88672C0.785156 7.78125 0.902344 7.72852 1.00391 7.72852C1.24219 7.72852 1.36133 7.81836 1.36133 7.99805C1.36133 8.07617 1.32812 8.14453 1.26172 8.20312C1.19531 8.26172 1.11133 8.29102 1.00977 8.29102C0.904297 8.29102 0.818359 8.27148 0.751953 8.23242V8.26758C0.751953 8.43945 0.828125 8.58008 0.980469 8.68945C1.12891 8.79883 1.32812 8.85352 1.57812 8.85352C1.82812 8.85352 2.08008 8.79883 2.33398 8.68945C2.58789 8.58008 2.88477 8.39844 3.22461 8.14453C3.95508 7.60547 4.83203 6.76172 5.85547 5.61328L7.47852 3.75C8.81055 2.15625 9.56055 1.23438 9.72852 0.984375C9.79883 0.898438 9.84961 0.855469 9.88086 0.855469C9.91211 0.855469 9.92773 0.869141 9.92773 0.896484C9.92773 0.923828 9.91992 0.953125 9.9043 0.984375L9.82227 1.13672C9.67773 1.375 9.56641 1.63086 9.48828 1.9043C9.41406 2.17383 9.35547 2.38867 9.3125 2.54883C9.27344 2.70508 9.22656 2.875 9.17188 3.05859L8.98438 3.67969C8.70703 4.55469 8.37109 5.36914 7.97656 6.12305C7.97656 6.12305 7.63672 6.73438 6.95703 7.95703L8.73242 5.84766L9.51172 4.95703L10.3203 4.06641L11.1113 3.22266C12.6035 1.67578 13.8574 0.738281 14.873 0.410156C15.2168 0.296875 15.5742 0.240234 15.9453 0.240234C16.3203 0.236328 16.6113 0.326172 16.8184 0.509766C17.0293 0.689453 17.1367 0.945312 17.1406 1.27734C17.1484 1.64844 16.9609 2.0625 16.5781 2.51953C16.1797 2.98828 15.6797 3.36719 15.0781 3.65625C14.9375 3.72266 14.8359 3.75586 14.7734 3.75586C14.7148 3.75586 14.6855 3.74219 14.6855 3.71484C14.6855 3.68359 14.7598 3.63867 14.9082 3.58008C15.0605 3.51758 15.2539 3.40625 15.4883 3.24609C15.7266 3.08594 15.9414 2.90625 16.1328 2.70703C16.5586 2.25 16.7715 1.80664 16.7715 1.37695C16.7715 1.06836 16.6875 0.830078 16.5195 0.662109C16.3555 0.490234 16.1152 0.404297 15.7988 0.404297C15.4863 0.404297 15.1465 0.472656 14.7793 0.609375C14.4121 0.746094 14.0117 0.964844 13.5781 1.26562C12.7227 1.85547 11.6895 2.8125 10.4785 4.13672L9.11328 5.66602L7.97656 7.00195L6.43555 8.83594C6.2832 9.01953 6.17578 9.11133 6.11328 9.11133ZM5 2.26172C4.92969 2.34375 4.85547 2.38477 4.77734 2.38477C4.69922 2.38477 4.63086 2.36133 4.57227 2.31445C4.51367 2.26367 4.48438 2.20312 4.48438 2.13281C4.48438 2.05859 4.50781 1.99414 4.55469 1.93945C4.60547 1.88477 4.67188 1.85742 4.75391 1.85742C4.83594 1.85742 4.91016 1.87695 4.97656 1.91602C5.04688 1.95117 5.10938 2.00391 5.16406 2.07422C5.28125 2.22656 5.33984 2.41992 5.33984 2.6543C5.33984 2.88477 5.28711 3.09766 5.18164 3.29297C5.07617 3.48438 4.9375 3.64844 4.76562 3.78516C4.39844 4.07812 3.97461 4.22461 3.49414 4.22461C3.00586 4.22461 2.60352 4.08984 2.28711 3.82031C1.93555 3.52734 1.75977 3.12305 1.75977 2.60742C1.75977 2.05273 2.00391 1.58984 2.49219 1.21875C2.98438 0.84375 3.61914 0.65625 4.39648 0.65625C4.86133 0.65625 5.21289 0.693359 5.45117 0.767578C5.69336 0.837891 5.90234 0.910156 6.07812 0.984375C6.25391 1.05469 6.42969 1.13281 6.60547 1.21875L7.20312 1.49414C7.50781 1.61914 7.75586 1.68164 7.94727 1.68164C8.31836 1.68164 8.64844 1.55273 8.9375 1.29492C8.95703 1.2793 8.97852 1.27148 9.00195 1.27148C9.0293 1.27148 9.04297 1.28516 9.04297 1.3125C9.04297 1.34375 9.01562 1.39062 8.96094 1.45312C8.73047 1.68359 8.38281 1.84766 7.91797 1.94531C7.79297 1.96875 7.67773 1.98047 7.57227 1.98047C7.4668 1.98047 7.3418 1.96875 7.19727 1.94531C7.05273 1.92188 6.90625 1.89062 6.75781 1.85156C6.45703 1.76562 6.18359 1.65234 5.9375 1.51172C5.69531 1.37109 5.48633 1.26172 5.31055 1.18359C5.13867 1.10156 4.98438 1.03906 4.84766 0.996094C4.62109 0.921875 4.36719 0.884766 4.08594 0.884766C3.80469 0.884766 3.5332 0.929688 3.27148 1.01953C3.01367 1.10547 2.78516 1.22656 2.58594 1.38281C2.16016 1.72656 1.94727 2.14648 1.94727 2.64258C1.94727 3.06055 2.08594 3.4043 2.36328 3.67383C2.64453 3.94727 3.01367 4.08398 3.4707 4.08398C3.9043 4.08398 4.28516 3.95703 4.61328 3.70312C4.97656 3.42969 5.1582 3.08398 5.1582 2.66602C5.1582 2.50977 5.10547 2.375 5 2.26172Z"/>
</mask>
<path d="M6.11328 9.11133C6.05469 9.11133 6.02539 9.08984 6.02539 9.04688C6.02539 9.00391 6.03711 8.97266 6.06055 8.95312C6.24805 8.80859 6.41797 8.53125 6.57031 8.12109C6.62891 7.95312 6.69336 7.75781 6.76367 7.53516L7.00977 6.72656C7.47461 5.21094 8.20312 3.60742 9.19531 1.91602L7.625 3.85547L6.5 5.16211L5.80273 5.94141C4.38867 7.48828 3.28516 8.44531 2.49219 8.8125C2.20312 8.94531 1.94922 9.01172 1.73047 9.01172C1.50781 9.01172 1.32227 8.99219 1.17383 8.95312C1.02539 8.91016 0.902344 8.85156 0.804688 8.77734C0.613281 8.63281 0.517578 8.44727 0.517578 8.2207C0.517578 8.06445 0.5625 7.95312 0.652344 7.88672C0.785156 7.78125 0.902344 7.72852 1.00391 7.72852C1.24219 7.72852 1.36133 7.81836 1.36133 7.99805C1.36133 8.07617 1.32812 8.14453 1.26172 8.20312C1.19531 8.26172 1.11133 8.29102 1.00977 8.29102C0.904297 8.29102 0.818359 8.27148 0.751953 8.23242V8.26758C0.751953 8.43945 0.828125 8.58008 0.980469 8.68945C1.12891 8.79883 1.32812 8.85352 1.57812 8.85352C1.82812 8.85352 2.08008 8.79883 2.33398 8.68945C2.58789 8.58008 2.88477 8.39844 3.22461 8.14453C3.95508 7.60547 4.83203 6.76172 5.85547 5.61328L7.47852 3.75C8.81055 2.15625 9.56055 1.23438 9.72852 0.984375C9.79883 0.898438 9.84961 0.855469 9.88086 0.855469C9.91211 0.855469 9.92773 0.869141 9.92773 0.896484C9.92773 0.923828 9.91992 0.953125 9.9043 0.984375L9.82227 1.13672C9.67773 1.375 9.56641 1.63086 9.48828 1.9043C9.41406 2.17383 9.35547 2.38867 9.3125 2.54883C9.27344 2.70508 9.22656 2.875 9.17188 3.05859L8.98438 3.67969C8.70703 4.55469 8.37109 5.36914 7.97656 6.12305C7.97656 6.12305 7.63672 6.73438 6.95703 7.95703L8.73242 5.84766L9.51172 4.95703L10.3203 4.06641L11.1113 3.22266C12.6035 1.67578 13.8574 0.738281 14.873 0.410156C15.2168 0.296875 15.5742 0.240234 15.9453 0.240234C16.3203 0.236328 16.6113 0.326172 16.8184 0.509766C17.0293 0.689453 17.1367 0.945312 17.1406 1.27734C17.1484 1.64844 16.9609 2.0625 16.5781 2.51953C16.1797 2.98828 15.6797 3.36719 15.0781 3.65625C14.9375 3.72266 14.8359 3.75586 14.7734 3.75586C14.7148 3.75586 14.6855 3.74219 14.6855 3.71484C14.6855 3.68359 14.7598 3.63867 14.9082 3.58008C15.0605 3.51758 15.2539 3.40625 15.4883 3.24609C15.7266 3.08594 15.9414 2.90625 16.1328 2.70703C16.5586 2.25 16.7715 1.80664 16.7715 1.37695C16.7715 1.06836 16.6875 0.830078 16.5195 0.662109C16.3555 0.490234 16.1152 0.404297 15.7988 0.404297C15.4863 0.404297 15.1465 0.472656 14.7793 0.609375C14.4121 0.746094 14.0117 0.964844 13.5781 1.26562C12.7227 1.85547 11.6895 2.8125 10.4785 4.13672L9.11328 5.66602L7.97656 7.00195L6.43555 8.83594C6.2832 9.01953 6.17578 9.11133 6.11328 9.11133ZM5 2.26172C4.92969 2.34375 4.85547 2.38477 4.77734 2.38477C4.69922 2.38477 4.63086 2.36133 4.57227 2.31445C4.51367 2.26367 4.48438 2.20312 4.48438 2.13281C4.48438 2.05859 4.50781 1.99414 4.55469 1.93945C4.60547 1.88477 4.67188 1.85742 4.75391 1.85742C4.83594 1.85742 4.91016 1.87695 4.97656 1.91602C5.04688 1.95117 5.10938 2.00391 5.16406 2.07422C5.28125 2.22656 5.33984 2.41992 5.33984 2.6543C5.33984 2.88477 5.28711 3.09766 5.18164 3.29297C5.07617 3.48438 4.9375 3.64844 4.76562 3.78516C4.39844 4.07812 3.97461 4.22461 3.49414 4.22461C3.00586 4.22461 2.60352 4.08984 2.28711 3.82031C1.93555 3.52734 1.75977 3.12305 1.75977 2.60742C1.75977 2.05273 2.00391 1.58984 2.49219 1.21875C2.98438 0.84375 3.61914 0.65625 4.39648 0.65625C4.86133 0.65625 5.21289 0.693359 5.45117 0.767578C5.69336 0.837891 5.90234 0.910156 6.07812 0.984375C6.25391 1.05469 6.42969 1.13281 6.60547 1.21875L7.20312 1.49414C7.50781 1.61914 7.75586 1.68164 7.94727 1.68164C8.31836 1.68164 8.64844 1.55273 8.9375 1.29492C8.95703 1.2793 8.97852 1.27148 9.00195 1.27148C9.0293 1.27148 9.04297 1.28516 9.04297 1.3125C9.04297 1.34375 9.01562 1.39062 8.96094 1.45312C8.73047 1.68359 8.38281 1.84766 7.91797 1.94531C7.79297 1.96875 7.67773 1.98047 7.57227 1.98047C7.4668 1.98047 7.3418 1.96875 7.19727 1.94531C7.05273 1.92188 6.90625 1.89062 6.75781 1.85156C6.45703 1.76562 6.18359 1.65234 5.9375 1.51172C5.69531 1.37109 5.48633 1.26172 5.31055 1.18359C5.13867 1.10156 4.98438 1.03906 4.84766 0.996094C4.62109 0.921875 4.36719 0.884766 4.08594 0.884766C3.80469 0.884766 3.5332 0.929688 3.27148 1.01953C3.01367 1.10547 2.78516 1.22656 2.58594 1.38281C2.16016 1.72656 1.94727 2.14648 1.94727 2.64258C1.94727 3.06055 2.08594 3.4043 2.36328 3.67383C2.64453 3.94727 3.01367 4.08398 3.4707 4.08398C3.9043 4.08398 4.28516 3.95703 4.61328 3.70312C4.97656 3.42969 5.1582 3.08398 5.1582 2.66602C5.1582 2.50977 5.10547 2.375 5 2.26172Z" stroke="black" stroke-width="0.4" mask="url(#path-1-inside-1_237_48)"/>
</svg>
