<svg width="9" height="10" viewBox="0 0 9 10" fill="none" xmlns="http://www.w3.org/2000/svg">
<path d="M4.47484 8.04894L4.4753 8.04864C4.88344 7.78682 5.26478 7.48256 5.61935 7.13572C5.97436 6.78454 6.28257 6.4165 6.54426 6.03166C6.80589 5.64691 7.01107 5.25738 7.16037 4.86306C7.30881 4.46713 7.38242 4.07674 7.38242 3.69141C7.38242 3.37562 7.30023 3.12355 7.14048 2.92785C7.24617 3.10167 7.29531 3.32179 7.29531 3.58008C7.29531 4.34173 6.98753 5.15443 6.38682 6.01603C6.11365 6.41189 5.7972 6.78761 5.43768 7.14319C5.08204 7.49881 4.70627 7.81135 4.31035 8.0806C4.31028 8.08064 4.31021 8.08069 4.31014 8.08074L4.25391 7.99805C3.86719 8.26367 3.47656 8.47461 3.08203 8.63086C2.6875 8.78711 2.34766 8.86523 2.0625 8.86523C1.77734 8.86523 1.55469 8.83398 1.39453 8.77148L4.47484 8.04894ZM4.47484 8.04894C4.07515 8.30848 3.68152 8.50887 3.29381 8.65091L4.47484 8.04894ZM2.8221 5.59657L2.91797 5.625L2.80955 5.63912C2.81692 5.61012 2.82463 5.58113 2.83268 5.55216C2.92829 5.20797 3.06009 4.88527 3.22799 4.58381C3.39619 4.28182 3.59484 4.00488 3.82399 3.75281C4.05326 3.50063 4.3011 3.2853 4.56746 3.10646L4.56747 3.10646L4.56835 3.10586C4.59389 3.08831 4.61943 3.07117 4.64498 3.05444C4.62612 3.06753 4.60725 3.08086 4.58836 3.09441C3.72202 3.71322 3.13292 4.54853 2.8221 5.59657ZM0.764858 8.3939C0.857953 8.54255 0.982838 8.66333 1.1373 8.75689C1.09022 8.73389 1.04527 8.70838 1.0024 8.68041C0.769805 8.52864 0.590825 8.29923 0.468149 7.98511L0.468155 7.9851L0.467735 7.98407C0.384147 7.77691 0.340234 7.51324 0.340234 7.18945C0.340234 6.8685 0.393086 6.52259 0.500245 6.15123C0.611426 5.77947 0.764898 5.41097 0.960958 5.04571C1.16117 4.67999 1.39814 4.32351 1.67206 3.97626C1.95013 3.62869 2.25531 3.30034 2.58764 2.99119C2.91988 2.68213 3.27334 2.40014 3.64805 2.14518L3.64824 2.14505C4.02674 1.88628 4.41458 1.66442 4.81175 1.47932C5.35548 1.22608 5.88223 1.05515 6.39227 0.965456C6.29964 0.989203 6.2086 1.01679 6.11917 1.04824C5.75655 1.17576 5.39103 1.35071 5.02263 1.57254C4.65472 1.79408 4.28937 2.05482 3.92655 2.35454C3.56407 2.65398 3.21744 2.97698 2.88665 3.32353L2.88663 3.32355C2.55983 3.6661 2.25464 4.02445 1.97108 4.39858L1.97068 4.39912C1.69102 4.77331 1.44644 5.14603 1.23711 5.51729L1.23686 5.51773C0.795258 6.31026 0.567969 7.00925 0.567969 7.61133C0.567969 7.91781 0.631334 8.18069 0.764858 8.3939Z" stroke="black" stroke-width="0.2"/>
</svg>
