<svg width="12" height="10" viewBox="0 0 12 10" fill="none" xmlns="http://www.w3.org/2000/svg">
<path d="M6.3216 5.47979L6.38941 5.38512L7.26203 4.16697C7.2621 4.16687 7.26218 4.16677 7.26225 4.16667C7.57293 3.72623 7.96148 3.22985 8.42749 2.67769C8.89581 2.12278 9.34885 1.68496 9.78689 1.36639L9.8498 1.32064L9.90962 1.37036C10.2348 1.6406 10.3969 2.00157 10.3969 2.44336C10.3969 3.09214 10.2151 3.67674 9.85147 4.19405C9.68619 4.43184 9.49438 4.63986 9.27606 4.81776C9.05989 4.99389 8.83324 5.14239 8.59611 5.26297L8.5955 5.26327C8.39722 5.36241 8.19429 5.44132 7.98677 5.49988C8.33216 5.43466 8.6721 5.32509 9.00676 5.171C9.57316 4.9069 10.0273 4.56596 10.372 4.14941C10.7277 3.71409 10.9 3.27294 10.9 2.82422C10.9 2.22037 10.6091 1.74288 10.0058 1.38691L9.86713 1.30507L9.99052 1.22452C9.95906 1.24131 9.92694 1.25878 9.89415 1.27694L9.84868 1.30211L9.80194 1.27937C9.78915 1.27315 9.77627 1.26699 9.76331 1.2609L9.83299 1.30355L9.70148 1.39016L9.46206 1.54783C8.83215 1.98075 8.18507 2.53848 7.52094 3.22203L7.52059 3.22239C7.11136 3.63934 6.58725 4.27756 5.94758 5.13956C5.94755 5.13959 5.94752 5.13963 5.94749 5.13967L5.86566 5.25073L5.82579 5.30484L5.82898 5.30695L5.76572 5.3918L4.7872 6.7043L4.78633 6.70547L4.78632 6.70546C4.50024 7.07777 4.24098 7.396 4.00864 7.65984M6.3216 5.47979L3.93359 7.59375M6.3216 5.47979L6.31732 5.4789L6.27918 5.53011C5.4325 6.66679 4.64383 7.51441 3.91358 8.07703C3.49636 8.39848 3.10078 8.62495 2.7264 8.76011M6.3216 5.47979L6.35938 5.58984C4.66016 7.87109 3.17969 9.01172 1.91797 9.01172C1.30469 9.01172 0.914062 8.84766 0.746094 8.51953M4.00864 7.65984L3.93359 7.59375M4.00864 7.65984C4.00867 7.65981 4.00869 7.65979 4.00871 7.65976L3.93359 7.59375M4.00864 7.65984C3.78036 7.9196 3.57035 8.13378 3.37872 8.3015M3.93359 7.59375C3.70703 7.85156 3.5 8.0625 3.3125 8.22656M3.37872 8.3015C3.37886 8.30137 3.379 8.30125 3.37913 8.30113L3.3125 8.22656M3.37872 8.3015C3.19153 8.46874 3.01216 8.60209 2.84063 8.70011L2.83994 8.7005C2.802 8.72178 2.76415 8.74166 2.7264 8.76011M3.37872 8.3015C3.3786 8.30161 3.37847 8.30171 3.37835 8.30182L3.3125 8.22656M3.3125 8.22656L2.7264 8.76011M2.7264 8.76011C2.59433 8.8078 2.46489 8.84412 2.33806 8.86924C2.3375 8.86935 2.33694 8.86946 2.33638 8.86957C2.1936 8.89775 2.05414 8.91172 1.91797 8.91172C1.86094 8.91172 1.80627 8.91027 1.75391 8.90742C1.48164 8.89257 1.27164 8.83966 1.11611 8.75424L1.1621 8.6836L1.1153 8.7538C1.04774 8.7166 0.990476 8.67325 0.942871 8.62421M2.7264 8.76011L2.79102 8.61328C2.63086 8.70312 2.47461 8.76562 2.32227 8.80078C2.16992 8.83203 1.98047 8.84766 1.75391 8.84766C1.52344 8.84766 1.32617 8.79297 1.16211 8.68359C1.02226 8.59253 0.940632 8.47845 0.917219 8.34136C0.897159 8.3331 0.877882 8.3236 0.859454 8.31276L0.892923 8.25586L0.910156 8.22656H1.01016V8.25586C1.01016 8.25962 1.0102 8.26336 1.0103 8.26708C1.05683 8.27913 1.10939 8.28516 1.16797 8.28516C1.26953 8.28516 1.35352 8.25586 1.41992 8.19727C1.48633 8.13867 1.51953 8.06641 1.51953 7.98047C1.51953 7.89453 1.48633 7.83008 1.41992 7.78711M2.7264 8.76011C2.598 8.82288 2.47076 8.86914 2.34475 8.89822L2.34237 8.89877L2.34236 8.89874C2.22083 8.92367 2.07913 8.93881 1.91797 8.94476C1.86535 8.9467 1.81065 8.94766 1.75391 8.94766C1.50729 8.94766 1.29007 8.88896 1.10704 8.76707C1.04221 8.72479 0.987234 8.67712 0.942871 8.62421M0.942871 8.62421C0.8563 8.52095 0.810156 8.39776 0.810156 8.25586V8.22656V8.05172L0.960858 8.14037C1.00724 8.16765 1.07402 8.18516 1.16797 8.18516C1.24898 8.18516 1.30829 8.1624 1.35376 8.12228C1.3994 8.08201 1.41953 8.03673 1.41953 7.98047C1.41953 7.92548 1.40107 7.89438 1.36659 7.87171M0.942871 8.62421C0.898975 8.57898 0.863293 8.52892 0.83532 8.47438M1.36659 7.87171C1.36698 7.87195 1.36738 7.87219 1.36778 7.87244L1.41992 7.78711M1.36659 7.87171C1.36626 7.8715 1.36593 7.87128 1.3656 7.87107L1.41992 7.78711M1.36659 7.87171C1.30648 7.83518 1.26051 7.82266 1.22656 7.82266C1.09985 7.82266 1.00108 7.85486 0.92379 7.9136L0.921431 7.91539L0.921405 7.91536C0.879439 7.94533 0.844131 7.98476 0.815673 8.03535C0.791721 8.07794 0.775781 8.14128 0.775781 8.23242C0.775781 8.31329 0.795015 8.39362 0.83532 8.47438M1.41992 7.78711C1.34961 7.74414 1.28516 7.72266 1.22656 7.72266C1.08203 7.72266 0.960938 7.75977 0.863281 7.83398C0.808594 7.87305 0.763672 7.92383 0.728516 7.98633C0.693359 8.04883 0.675781 8.13086 0.675781 8.23242C0.675781 8.33008 0.699219 8.42578 0.746094 8.51953M5.68555 5.33203L5.63042 5.41546C5.62884 5.41442 5.62726 5.41337 5.62569 5.41232L5.68555 5.33203ZM5.68555 5.33203L5.60538 5.27226L5.60458 5.27332C5.62966 5.29337 5.65665 5.31294 5.68555 5.33203ZM6.12163 4.2205C6.12224 4.22033 6.12284 4.22017 6.12342 4.22002C6.12359 4.22004 6.12377 4.22007 6.12394 4.22009C6.12317 4.22023 6.1224 4.22036 6.12163 4.2205ZM6.12163 4.2205C6.08006 4.22772 6.04013 4.23698 6.00195 4.24835C5.87468 4.28622 5.76682 4.34746 5.68239 4.43468C5.79783 4.34966 5.90394 4.31289 6.00195 4.31289C6.06134 4.31289 6.10068 4.31668 6.12417 4.32166C6.12704 4.32112 6.12992 4.32059 6.13281 4.32007C6.12362 4.31108 6.11289 4.2942 6.11289 4.27148C6.11289 4.25777 6.11657 4.24547 6.12189 4.2356M6.12163 4.2205C6.12057 4.22077 6.11947 4.22106 6.11832 4.22135L6.12189 4.2356M6.12189 4.2356L6.13086 4.27148L6.14258 4.31836L6.1346 4.27148L6.12709 4.22736M6.12189 4.2356C6.12296 4.23361 6.1241 4.23172 6.12529 4.22993C6.12589 4.22903 6.12649 4.22817 6.12709 4.22736M6.12709 4.22736C6.1288 4.22503 6.13049 4.22305 6.13206 4.22139C6.13004 4.22105 6.12799 4.22072 6.1259 4.22039L6.12709 4.22736ZM5.43359 3.13477C5.75391 2.61914 5.93164 2.2168 5.9668 1.92773M5.43359 3.13477C5.28516 3.37695 5.11133 3.62109 4.91211 3.86719C4.7168 4.10938 4.50781 4.33008 4.28516 4.5293L5.9668 1.92773M5.43359 3.13477L5.51854 3.18753C5.51858 3.18746 5.51863 3.18739 5.51867 3.18732M5.43359 3.13477L5.51885 3.18702C5.51879 3.18712 5.51873 3.18722 5.51867 3.18732M5.9668 1.92773C5.97852 1.79492 6.00195 1.72852 6.03711 1.72852C6.07617 1.72852 6.09766 1.74414 6.10156 1.77539M5.9668 1.92773L6.10156 1.77539M5.51867 3.18732C5.75421 2.80814 5.91815 2.48228 6.00386 2.21238C5.99131 2.32213 5.96646 2.45537 5.92821 2.61316C5.86763 2.86305 5.77466 3.11379 5.64884 3.36543L5.64856 3.36599C5.52714 3.61264 5.37316 3.85042 5.18622 4.07932L5.18559 4.08011C5.00348 4.30773 4.79487 4.50878 4.55956 4.68336L4.55952 4.68339C4.19587 4.95345 3.80698 5.1275 3.3919 5.20638C3.47189 5.17721 3.55263 5.14117 3.63408 5.09846C3.88397 4.96945 4.12296 4.8046 4.3511 4.60447L4.3511 4.60448L4.35184 4.60382C4.57864 4.40089 4.7913 4.17628 4.98983 3.93011C5.19141 3.68111 5.36776 3.43352 5.51867 3.18732ZM6.10156 1.77539C6.10547 1.80273 6.10938 1.88867 6.11328 2.0332C6.11719 2.17773 6.08789 2.37891 6.02539 2.63672C5.96289 2.89453 5.86719 3.15234 5.73828 3.41016C5.61328 3.66406 5.45508 3.9082 5.26367 4.14258C5.07617 4.37695 4.86133 4.58398 4.61914 4.76367C4.08789 5.1582 3.50195 5.35547 2.86133 5.35547C2.62305 5.35547 2.41016 5.26562 2.22266 5.08594L6.10156 1.77539ZM0.83532 8.47438C0.83525 8.47424 0.835179 8.4741 0.835109 8.47396L0.746094 8.51953M0.83532 8.47438C0.835392 8.47452 0.835465 8.47467 0.835536 8.47481L0.746094 8.51953M5.70659 5.12946L5.70465 5.13209L5.73513 5.15454C5.72509 5.14633 5.71557 5.13796 5.70659 5.12946Z" stroke="black" stroke-width="0.2"/>
</svg>
