<svg width="85" height="79" viewBox="0 0 85 79" fill="none" xmlns="http://www.w3.org/2000/svg">
<path d="M83.4688 71.3594C83.8438 71.3594 84.0312 71.5469 84.0312 71.9219C84.0312 72.5781 82.7031 73.6562 80.0469 75.1562C79.2656 75.5938 78.3438 76 77.2812 76.375C74.625 77.3125 72.0938 77.7812 69.6875 77.7812C67.2812 77.7812 64.9844 77.6562 62.7969 77.4062C60.6094 77.1562 58.2812 76.7188 55.8125 76.0938C50.875 74.8438 45.1094 72.625 38.5156 69.4375L29.3281 65.1719C24.6406 66.3594 20.4531 66.9531 16.7656 66.9531C13.1094 66.9531 10.3594 66.8125 8.51562 66.5312C6.67188 66.25 5.15625 65.875 3.96875 65.4062C1.75 64.5 0.640625 63.4062 0.640625 62.125C0.640625 61.125 1.59375 60.1875 3.5 59.3125C5.5 58.4062 7.85938 57.9531 10.5781 57.9531C16.7031 57.9531 23.875 59.3438 32.0938 62.125C33.4062 61.5625 34.6875 60.9375 35.9375 60.25L39.7812 58.1875C47.75 53.5625 55.1094 47 61.8594 38.5C66.2969 32.9375 69.4531 27.4844 71.3281 22.1406C72.2656 19.4531 72.7344 16.8906 72.7344 14.4531C72.7344 10.7344 71.6562 7.8125 69.5 5.6875C67.3438 3.53125 63.9688 2.45312 59.375 2.45312C51.3125 2.45312 42.9531 6.96875 34.2969 16C28.7656 21.8125 25 27.2188 23 32.2188C22.375 33.8125 22.0625 35.1094 22.0625 36.1094C22.0625 37.1094 22.1719 38.0469 22.3906 38.9219C22.6406 39.7656 23.0625 40.5312 23.6562 41.2188C25.0625 42.7812 27.2031 43.5625 30.0781 43.5625C33.1406 43.5625 36.7812 41.9062 41 38.5938C45.0312 35.4375 48.6562 31.5938 51.875 27.0625C55.2188 22.3438 57.2969 17.9219 58.1094 13.7969C58.2969 12.8594 58.4688 12.3906 58.625 12.3906C59.125 12.3906 59.375 12.875 59.375 13.8438C59.375 18.5 57.8281 23.2812 54.7344 28.1875C51.7656 32.9062 48.0312 36.7812 43.5312 39.8125C38.8125 43.0312 34.25 44.6406 29.8438 44.6406C26.5312 44.6406 23.9375 43.6406 22.0625 41.6406C20.25 39.7344 19.3438 37.5 19.3438 34.9375C19.3438 32.375 19.75 29.9688 20.5625 27.7188C21.375 25.4375 22.625 23.125 24.3125 20.7812C27.9375 15.625 33.0156 11.0312 39.5469 7C43.9219 4.28125 49.0312 2.51562 54.875 1.70312C56.625 1.45312 58.4062 1.32812 60.2188 1.32812C62.0625 1.32812 63.9062 1.60938 65.75 2.17188C67.625 2.73438 69.2656 3.625 70.6719 4.84375C73.7031 7.53125 75.2188 11.4844 75.2188 16.7031C75.2188 26.6406 71.2812 36 63.4062 44.7812C55.8438 53.1875 46.5156 59.375 35.4219 63.3438C37.3281 64.125 39.4531 65.0781 41.7969 66.2031C44.1719 67.2969 47.0312 68.5469 50.375 69.9531C53.75 71.3906 56.7344 72.5469 59.3281 73.4219C64.2344 75.0781 67.9688 75.9062 70.5312 75.9062C75.0312 75.9062 78.5625 74.9688 81.125 73.0938L82.8594 71.6406C82.9844 71.5781 83.0781 71.5156 83.1406 71.4531C83.2344 71.3906 83.3438 71.3594 83.4688 71.3594ZM26.7969 64.0469C19.5781 60.8594 14 59.2656 10.0625 59.2656C7.84375 59.2656 6.23438 59.5156 5.23438 60.0156C4.23438 60.4844 3.73438 61.0469 3.73438 61.7031C3.73438 63.6719 5.98438 64.9375 10.4844 65.5C11.8594 65.6875 13.5 65.7812 15.4062 65.7812C19.2188 65.7812 23.0156 65.2031 26.7969 64.0469Z" stroke="black"/>
</svg>
