<svg width="11" height="11" viewBox="0 0 11 11" fill="none" xmlns="http://www.w3.org/2000/svg">
<path d="M4.85656 9.21399L4.85798 9.21464C5.67851 9.61131 6.39262 9.88573 7.0011 10.0398C7.30602 10.117 7.5926 10.1708 7.86096 10.2014C8.1303 10.2322 8.41361 10.2477 8.71094 10.2477C8.87889 10.2477 9.05277 10.2286 9.23271 10.19C9.10116 10.2056 8.96234 10.2133 8.81641 10.2133C8.479 10.2133 7.99934 10.1052 7.38405 9.89749C7.38404 9.89749 7.38404 9.89748 7.38403 9.89748L7.41602 9.80273C7.0918 9.69336 6.71875 9.54883 6.29688 9.36914L4.85656 9.21399ZM4.85656 9.21399L3.70813 8.68078L3.6759 8.66582L3.64146 8.67455C3.50575 8.70893 3.37361 8.73924 3.24503 8.7655C3.28966 8.75313 3.33427 8.74012 3.37885 8.72649L3.6358 8.64792L3.39 8.53938C2.75565 8.25928 2.21545 8.07398 1.77203 7.98823C2.4201 8.04152 3.15567 8.20651 3.97966 8.48535L4.01592 8.49762L4.05111 8.48254C4.21801 8.41101 4.38096 8.33153 4.53993 8.24412C4.54008 8.24404 4.54023 8.24395 4.54038 8.24387L5.01994 7.98655L5.01996 7.9866L5.02285 7.98493C6.03145 7.39955 6.96048 6.57034 7.81061 5.49984C8.37057 4.79792 8.77147 4.10656 9.01038 3.42569L9.01044 3.42552C9.13071 3.08073 9.1918 2.74925 9.1918 2.43164C9.1918 2.06259 9.11001 1.74669 8.94197 1.48962C9.1796 1.79037 9.30234 2.19486 9.30234 2.71289C9.30234 3.92593 8.82253 5.0729 7.85141 6.15581C6.91766 7.19373 5.76583 7.95806 4.39405 8.44881L4.14857 8.53663L4.38981 8.6355C4.62589 8.73225 4.8897 8.85056 5.18133 8.99055L5.18278 8.99122C5.48089 9.12851 5.83927 9.28517 6.25776 9.46117L4.85656 9.21399ZM6.8418 4.14844C7.22852 3.53516 7.42188 2.9375 7.42188 2.35547C7.42188 2.23438 7.39062 2.17383 7.32812 2.17383C7.30859 2.17383 7.28711 2.23242 7.26367 2.34961M6.8418 4.14844L2.95703 5.77734C3.13281 5.97266 3.40039 6.07031 3.75977 6.07031C4.14258 6.07031 4.59766 5.86328 5.125 5.44922C5.62891 5.05469 6.08203 4.57422 6.48438 4.00781C6.90234 3.41797 7.16211 2.86523 7.26367 2.34961M6.8418 4.14844C6.4707 4.73828 6.00391 5.22266 5.44141 5.60156L6.8418 4.14844ZM7.26367 2.34961L7.32187 2.36125L7.36173 2.36922C7.36267 2.36451 7.36361 2.35992 7.36453 2.35547C7.37482 2.30586 7.38388 2.2723 7.39125 2.2522C7.39428 2.24395 7.39602 2.24077 7.39599 2.24075C7.39597 2.24074 7.39567 2.24126 7.39503 2.24216C7.39384 2.24387 7.38908 2.25046 7.37976 2.25728C7.36979 2.26458 7.35204 2.27383 7.32812 2.27383C7.32689 2.27383 7.32123 2.27328 7.31489 2.26918C7.31074 2.26651 7.30902 2.26406 7.30892 2.26393C7.30888 2.26387 7.30912 2.26421 7.30958 2.2651C7.31138 2.26859 7.31472 2.27702 7.31746 2.29296C7.32016 2.30864 7.32188 2.32922 7.32188 2.35547C7.32188 2.35734 7.32187 2.3592 7.32187 2.36107L7.26367 2.34961ZM1.30298 8.868L1.29704 8.91158C1.29723 8.91161 1.29742 8.91164 1.29761 8.91166C1.29779 8.91168 1.29796 8.91171 1.29814 8.91173L1.3036 8.86805C1.30339 8.86804 1.30319 8.86802 1.30298 8.868ZM0.69499 8.76199C0.635862 8.74519 0.582014 8.72716 0.533354 8.70798C0.259925 8.59619 0.180078 8.48284 0.180078 8.39062C0.180078 8.36302 0.192436 8.32663 0.239557 8.28028C0.283795 8.23676 0.353357 8.19014 0.453211 8.14216C0.400465 8.19466 0.366797 8.25909 0.366797 8.33789C0.366797 8.50838 0.467877 8.6378 0.628708 8.72827C0.649599 8.74002 0.6717 8.75126 0.69499 8.76199ZM4.49813 5.97364C4.71592 5.86669 4.94557 5.71724 5.18665 5.52796C5.69877 5.12699 6.15844 4.63933 6.5659 4.06572L6.56597 4.06563C6.93351 3.54695 7.18357 3.05206 7.31186 2.58133C7.26866 3.07017 7.08552 3.57445 6.75721 4.0951L6.75715 4.09519C6.39327 4.67357 5.93616 5.14772 5.38554 5.51862L5.38506 5.51895C5.08204 5.72564 4.78648 5.87669 4.49813 5.97364ZM2.79016 5.71705C2.60772 5.50708 2.51797 5.26668 2.51797 4.99219C2.51797 4.68263 2.56701 4.39341 2.66437 4.12381L2.66452 4.1234C2.76238 3.84862 2.91375 3.56784 3.12022 3.28109L3.12022 3.28109L3.12087 3.28017C3.5647 2.64885 4.18856 2.0834 4.99588 1.5851L4.99614 1.58494C5.39197 1.33895 5.83825 1.15622 6.3358 1.0375C5.63824 1.29914 4.93118 1.80851 4.21492 2.5558L4.21467 2.55606C3.51839 3.28775 3.03859 3.97411 2.78215 4.6152L2.7819 4.61583C2.70199 4.8196 2.65781 4.99533 2.65781 5.13867C2.65781 5.27097 2.67229 5.39637 2.70181 5.51449L2.70172 5.51451L2.70295 5.51864C2.72371 5.5887 2.75284 5.65488 2.79016 5.71705Z" stroke="black" stroke-width="0.2"/>
</svg>
