<svg width="11" height="10" viewBox="0 0 11 10" fill="none" xmlns="http://www.w3.org/2000/svg">
<path d="M6.65782 8.42195C6.64908 8.18707 6.7865 7.9703 7.0243 7.77178C7.52515 7.27062 7.84693 6.87627 7.99935 6.58633C8.07819 6.43616 8.12659 6.30334 8.14771 6.18719C8.16952 6.06724 8.17717 5.93052 8.16965 5.77636L8.16953 5.77392L8.16956 5.77392C8.16628 5.63933 8.11803 5.52447 8.02185 5.42497L7.91858 5.31814L7.91063 5.32148L7.92073 5.32725L7.86802 5.34251L7.89022 5.38692C7.92091 5.44829 7.93594 5.51447 7.93594 5.58398C7.93594 5.64344 7.93169 5.70127 7.92306 5.75739L7.92238 5.76182L7.92228 5.7618C7.88011 5.97266 7.70121 6.19145 7.42417 6.4187M6.65782 8.42195C6.65781 8.42127 6.65781 8.4206 6.65781 8.41992H6.75781L6.6579 8.424C6.65787 8.42332 6.65784 8.42263 6.65782 8.42195ZM6.65782 8.42195C6.65832 8.59099 6.72152 8.73035 6.85454 8.82283C6.86544 8.83041 6.87671 8.8376 6.88835 8.84443M6.88835 8.84443C6.80258 8.81581 6.73115 8.7786 6.67303 8.7338M6.88835 8.84443C7.01231 8.9171 7.1778 8.94766 7.37305 8.94766C7.37695 8.94766 7.38086 8.94764 7.38477 8.94761C7.7665 8.94454 8.15069 8.79162 8.53679 8.50109C8.53714 8.50083 8.53749 8.50057 8.53783 8.50031C8.56186 8.48222 8.58589 8.46359 8.60993 8.44444M6.88835 8.84443C7.01666 8.88723 7.17708 8.91079 7.37305 8.91169C7.37694 8.91171 7.38085 8.91172 7.38477 8.91172C7.70562 8.91172 8.087 8.7778 8.53216 8.49382L8.53335 8.49306L8.53336 8.49307C8.55902 8.4772 8.58454 8.46099 8.60993 8.44444M6.67303 8.7338C6.5233 8.61449 6.4484 8.46755 6.44173 8.28731M6.67303 8.7338C6.67321 8.73395 6.6734 8.73409 6.67358 8.73424L6.61133 8.8125M6.67303 8.7338C6.67284 8.73366 6.67266 8.73351 6.67247 8.73337L6.61133 8.8125M6.44173 8.28731C6.43429 8.0827 6.45854 7.89515 6.51323 7.72376C6.56938 7.54784 6.64402 7.38564 6.73698 7.23685M6.44173 8.28731C6.44173 8.28734 6.44173 8.28736 6.44173 8.28738L6.3418 8.29102M6.44173 8.28731L6.3418 8.29102M6.73698 7.23685C6.83539 7.08171 6.945 6.93812 7.0658 6.80596L7.06558 6.8062L6.99219 6.73828M6.73698 7.23685C6.73692 7.23695 6.73686 7.23705 6.73679 7.23715L6.65234 7.18359M6.73698 7.23685C6.73704 7.23676 6.73709 7.23668 6.73714 7.23659L6.65234 7.18359M6.99219 6.73828L7.06599 6.80576L7.42417 6.4187M6.99219 6.73828L7.35547 6.3457M6.99219 6.73828C6.86719 6.875 6.75391 7.02344 6.65234 7.18359M7.42417 6.4187L7.42886 6.41362L7.35547 6.3457M7.42417 6.4187C7.42236 6.42018 7.42055 6.42166 7.41873 6.42315L7.35547 6.3457M7.35547 6.3457L8.85547 8.0918C9.375 7.57227 9.76172 6.9375 10.0156 6.1875C10.0508 6.07031 10.0781 6.01172 10.0977 6.01172C10.168 6.01172 10.2031 6.09766 10.2031 6.26953C10.2031 6.4375 10.1582 6.63477 10.0684 6.86133C9.98242 7.08789 9.86523 7.30664 9.7168 7.51758C9.56836 7.72852 9.39648 7.92578 9.20117 8.10938M7.35547 6.3457C7.63281 6.11914 7.78906 5.91797 7.82422 5.74219M7.35547 6.3457L7.82422 5.74219M6.65234 7.18359C6.55469 7.33984 6.47656 7.50977 6.41797 7.69336C6.35938 7.87695 6.33398 8.07617 6.3418 8.29102M6.3418 8.29102C6.34961 8.50195 6.43945 8.67578 6.61133 8.8125M6.61133 8.8125C6.7832 8.94531 7.04102 9.01172 7.38477 9.01172C7.73242 9.01172 8.13281 8.86719 8.58594 8.57812C8.80078 8.44531 9.00586 8.28906 9.20117 8.10938M9.20117 8.10938L9.13347 8.03578C9.13335 8.03589 9.13322 8.03601 9.1331 8.03612M9.20117 8.10938L9.13268 8.03651C9.13282 8.03638 9.13296 8.03625 9.1331 8.03612M9.8615 1.55053C10.2625 1.90722 10.4741 2.35522 10.4961 2.89453C10.5195 3.39453 10.3105 3.87305 9.86914 4.33008C9.44171 4.7761 8.88519 5.10718 8.19958 5.32332C8.18878 5.31064 8.17747 5.29819 8.16565 5.28597L8.09375 5.35547L8.12183 5.45145C8.13557 5.44743 8.14926 5.44336 8.1629 5.43926C8.23098 5.53722 8.26652 5.64796 8.26953 5.77148C8.27734 5.93164 8.26953 6.07617 8.24609 6.20508C8.22266 6.33398 8.16992 6.47656 8.08789 6.63281C7.92773 6.9375 7.5957 7.3418 7.0918 7.8457L9.8615 1.55053ZM9.8615 1.55053C9.85228 1.55614 9.84302 1.56182 9.83371 1.56756L9.78125 1.48242L9.84421 1.40473C9.85354 1.41229 9.86279 1.4199 9.87195 1.42754C10.2174 1.22244 10.5016 1.10011 10.7246 1.06055M9.8615 1.55053L9.57031 1.33008C10.1484 1.03711 10.5723 0.890625 10.8418 0.890625C10.916 0.890625 10.9531 0.90625 10.9531 0.9375C10.957 0.96875 10.9473 0.992188 10.9238 1.00781C10.9004 1.02344 10.834 1.04102 10.7246 1.06055M10.7246 1.06055L10.714 1.00098M10.7246 1.06055L10.714 1.00097C10.7611 0.994002 10.8036 0.990625 10.8418 0.990625C10.8571 0.990625 10.8685 0.991444 10.8766 0.992584C10.8837 0.993574 10.8866 0.994584 10.8867 0.994614C10.8868 0.99462 10.8867 0.994587 10.8865 0.994507C10.8854 0.994053 10.8766 0.9902 10.8678 0.979062C10.8607 0.970134 10.8563 0.95989 10.8543 0.949847C10.8543 0.949398 10.8542 0.948949 10.8541 0.948501C10.8543 0.946669 10.8549 0.943722 10.8564 0.940054C10.8568 0.939166 10.8572 0.938314 10.8576 0.9375C10.8611 0.930551 10.8658 0.926303 10.8684 0.924607C10.8696 0.923811 10.8695 0.923825 10.8677 0.924522C10.8647 0.925676 10.8569 0.928704 10.8418 0.933034C10.8385 0.933977 10.8349 0.934983 10.8309 0.936044C10.8014 0.943836 10.7605 0.952554 10.7071 0.962085C10.7071 0.962091 10.7071 0.962098 10.707 0.962104L10.714 1.00098M10.714 1.00098C10.6146 1.01568 10.4952 1.04637 10.3544 1.095C10.2569 1.12871 10.1505 1.17058 10.035 1.22072M10.714 1.00098L10.035 1.22072M10.035 1.22072C9.93768 1.27256 9.83558 1.33149 9.72879 1.39729L9.60868 1.47129L9.61239 1.4743L9.54953 1.51672C8.57423 2.17485 7.57386 3.25418 6.54703 4.74727C4.96215 6.96441 3.59629 8.27347 2.45091 8.70726L2.45023 8.70752C2.36506 8.74049 2.28316 8.76935 2.20447 8.79419C2.27499 8.76407 2.34613 8.72893 2.41788 8.68888L2.41788 8.6889L2.4194 8.68801C2.59468 8.58611 2.7779 8.44886 2.96907 8.27761L2.96907 8.27761L2.96992 8.27684C3.16105 8.10163 3.37467 7.87797 3.61062 7.60663C3.84656 7.3353 4.1134 7.00759 4.41105 6.62378L4.41107 6.62379L4.4122 6.62228L5.42587 5.2629L5.42589 5.26292L5.42711 5.2612C6.25767 4.09686 7.19603 3.12002 8.24192 2.32979L8.24199 2.32973C8.80496 1.9036 9.20053 1.63556 9.43339 1.51913L9.58718 1.44224L9.57987 1.43734L10.035 1.22072ZM2.19301 4.40923C2.19455 4.4651 2.19971 4.51902 2.2085 4.57095C2.19702 4.51735 2.19015 4.46139 2.18784 4.40301C2.18059 4.11584 2.24489 3.82686 2.38332 3.53505C2.52291 3.24078 2.71583 2.9623 2.96315 2.69971C2.99244 2.6691 3.02233 2.63876 3.05282 2.60869C2.99503 2.66925 2.93908 2.73114 2.88497 2.79434L2.8847 2.79466C2.41501 3.34793 2.17637 3.88694 2.19301 4.40923ZM2.19301 4.40923C2.19301 4.40915 2.19301 4.40907 2.19301 4.40899L2.29297 4.40625M2.19301 4.40923C2.19302 4.40931 2.19302 4.40938 2.19302 4.40945L2.29297 4.40625M2.29297 4.40625C2.30078 4.69141 2.41016 4.91406 2.62109 5.07422L2.96094 2.85938C2.5 3.40234 2.27734 3.91797 2.29297 4.40625ZM9.1331 8.03612C9.3235 7.85709 9.49073 7.66506 9.63502 7.46003C9.77895 7.25549 9.89207 7.04412 9.97486 6.82586L9.97539 6.82446C10.0625 6.60479 10.1031 6.42055 10.1031 6.26953C10.1031 6.25983 10.103 6.25059 10.1028 6.2418M9.1331 8.03612C8.96575 8.19005 8.79135 8.32611 8.60993 8.44444M10.1028 6.2418C9.84422 6.99556 9.45224 7.63645 8.92618 8.16251L8.92564 8.16305C8.82027 8.26681 8.71503 8.36069 8.60993 8.44444M10.1028 6.2418C10.1025 6.23297 10.1022 6.22459 10.1017 6.21665C10.1017 6.21552 10.1016 6.21439 10.1015 6.21327C10.0986 6.16423 10.0917 6.13245 10.0842 6.11404C10.0811 6.10638 10.0789 6.10376 10.0789 6.10375C10.0789 6.10375 10.0794 6.10438 10.0806 6.10536C10.0859 6.10967 10.0931 6.11172 10.0977 6.11172C10.121 6.11172 10.1378 6.10289 10.1463 6.09709C10.1546 6.09144 10.1588 6.08615 10.1596 6.08517C10.1599 6.08485 10.16 6.08468 10.16 6.08468C10.1601 6.08471 10.1576 6.08829 10.1531 6.09795C10.1426 6.12056 10.1286 6.15896 10.1114 6.21623L10.1104 6.21959L10.1103 6.21957C10.1078 6.22699 10.1053 6.2344 10.1028 6.2418ZM7.82422 5.74219C7.83203 5.69141 7.83594 5.63867 7.83594 5.58398C7.83594 5.5293 7.82422 5.47852 7.80078 5.43164L7.82422 5.74219ZM6.86296 5.25513C6.86335 5.27047 6.86551 5.28567 6.8696 5.30046C6.85548 5.2881 6.84931 5.27909 6.84671 5.27418C6.8474 5.27269 6.84859 5.27069 6.85061 5.26803C6.85333 5.26445 6.85731 5.2601 6.86296 5.25513ZM4.89284 4.73662C4.53625 5.00605 4.15309 5.18084 3.7424 5.26173C3.81565 5.23432 3.88892 5.20134 3.9622 5.16291C4.21247 5.03371 4.4517 4.86665 4.67996 4.66241L4.67996 4.66242L4.68068 4.66177C4.9074 4.45493 5.11998 4.22643 5.31844 3.97638C5.51987 3.72361 5.69798 3.47234 5.8526 3.22256L5.85263 3.22251C6.09377 2.83253 6.2589 2.49568 6.34112 2.21452C6.32992 2.33268 6.30404 2.47891 6.26211 2.65451C6.20151 2.90828 6.10855 3.16086 5.98282 3.41231L5.98228 3.4134C5.86087 3.66383 5.70696 3.90338 5.5202 4.13206L5.51957 4.13284C5.33747 4.36047 5.12885 4.56151 4.89354 4.7361L4.89354 4.73609L4.89284 4.73662ZM9.67434 1.52711L9.65568 1.50937L9.71829 1.56012C10.1495 1.90952 10.3739 2.35358 10.3962 2.89861L10.3962 2.89921C10.418 3.36472 10.2249 3.81773 9.79721 4.26061L9.79694 4.26089C9.36184 4.71491 8.78627 5.04868 8.06567 5.25949L8.02845 5.27038C8.55401 5.02952 9.02409 4.6224 9.44002 4.05523L9.44008 4.05514C9.87275 3.46369 10.0912 2.91062 10.0746 2.39909L10.0745 2.3986C10.0618 2.05904 9.92694 1.76707 9.67434 1.52711ZM0.358984 8.25586C0.358984 8.38014 0.393716 8.49029 0.459736 8.58536C0.368449 8.47947 0.324609 8.35493 0.324609 8.20898C0.324609 8.10454 0.350063 8.02849 0.393115 7.97274C0.436057 7.91712 0.504019 7.87197 0.606936 7.84297C0.665784 7.82927 0.721875 7.82266 0.775391 7.82266C0.813787 7.82266 0.859218 7.8356 0.913158 7.87025C0.943945 7.89183 0.9625 7.92302 0.9625 7.98047C0.9625 8.03835 0.942964 8.08389 0.901455 8.12328C0.856792 8.16218 0.796218 8.18516 0.710938 8.18516C0.618045 8.18516 0.556113 8.16613 0.515637 8.1383L0.358984 8.0306V8.2207V8.25586Z" stroke="black" stroke-width="0.2"/>
</svg>
