<svg width="87" height="68" viewBox="0 0 87 68" fill="none" xmlns="http://www.w3.org/2000/svg">
<path d="M7.26562 58.8438C7.26562 59.5312 7 60.1094 6.46875 60.5781C5.9375 61.0469 5.26562 61.2812 4.45312 61.2812C3.64062 61.2812 2.96875 61.125 2.4375 60.8125V61.0469C2.4375 62.3906 3.21875 63.5625 4.78125 64.5625C6.34375 65.5 8.25 65.9688 10.5 65.9688C12.7812 65.9688 14.875 65.5781 16.7812 64.7969C18.7188 64.0156 20.5312 62.9531 22.2188 61.6094C23.9062 60.2344 25.5 58.625 27 56.7812C28.5312 54.9375 30 52.9688 31.4062 50.875C32.8125 48.7812 34.1875 46.5938 35.5312 44.3125L40.6406 36.0625C33.0469 35.8125 26.9062 34.3125 22.2188 31.5625C17.3125 28.6875 15.0156 25.0625 15.3281 20.6875C15.4844 17.9062 16.5 15.3438 18.375 13C20.25 10.625 22.6875 8.5625 25.6875 6.8125C32.0938 3.15625 39.6719 1.32812 48.4219 1.32812C52.0156 1.32812 54.6719 1.75 56.3906 2.59375C56.8594 2.84375 57.0938 3.0625 57.0938 3.25C57.0938 3.40625 56.9375 3.48438 56.625 3.48438C56.3438 3.48438 56.0938 3.46875 55.875 3.4375C55.6875 3.375 55.2812 3.28125 54.6562 3.15625C52.5 2.65625 50.3125 2.40625 48.0938 2.40625C45.875 2.40625 43.5625 2.625 41.1562 3.0625C38.7812 3.46875 36.5 4.0625 34.3125 4.84375C32.125 5.625 30.0781 6.57812 28.1719 7.70312C26.2969 8.82812 24.6562 10.0938 23.25 11.5C20.25 14.5625 18.6562 17.9219 18.4688 21.5781C18.25 24.7656 20.0312 27.625 23.8125 30.1562C28.1562 33.0938 34.0156 34.6719 41.3906 34.8906C52.2344 17.7656 62.1562 7.21875 71.1562 3.25C74.0938 1.96875 76.7344 1.32812 79.0781 1.32812C83.7031 1.32812 85.9219 3.26562 85.7344 7.14062C85.5469 10.4531 83.75 14.1562 80.3438 18.25C74.6875 25.0312 67.3125 30.0625 58.2188 33.3438C55.0625 34.5 51.7969 35.2969 48.4219 35.7344L43.0312 43.75C34.625 55.9375 26.5312 63.3281 18.75 65.9219C16.4062 66.7031 14.1562 67.0938 12 67.0938C9.84375 67.0938 8.09375 66.9375 6.75 66.625C5.4375 66.2812 4.3125 65.8125 3.375 65.2188C1.5 64 0.5625 62.4844 0.5625 60.6719C0.5625 58.7344 1.53125 57.5 3.46875 56.9688C3.96875 56.8438 4.46875 56.7812 4.96875 56.7812C5.46875 56.7812 5.96875 56.9531 6.46875 57.2969C7 57.6406 7.26562 58.1562 7.26562 58.8438ZM49.3125 34.4219C58.0625 32.9531 65.9062 29.1719 72.8438 23.0781C77 19.4219 79.9688 15.75 81.75 12.0625C83.7188 7.96875 83.875 5.09375 82.2188 3.4375C81.5938 2.8125 80.5312 2.51562 79.0312 2.54688C77.5625 2.57812 75.8125 3.1875 73.7812 4.375C71.75 5.5625 69.625 7.28125 67.4062 9.53125C63.1875 13.75 58.2656 20.3281 52.6406 29.2656C50.8281 32.0469 49.7188 33.7656 49.3125 34.4219Z" stroke="black"/>
</svg>
