<svg width="11" height="10" viewBox="0 0 11 10" fill="none" xmlns="http://www.w3.org/2000/svg">
<path d="M3.70226 7.78614C3.51094 8.02126 3.30707 8.22724 3.09051 8.4037L3.08964 8.4044L3.08964 8.4044C2.87147 8.57813 2.63665 8.71587 2.38532 8.81725L3.70226 7.78614ZM3.70226 7.78614C3.89582 7.55305 4.08133 7.30436 4.2588 7.04013C4.43553 6.77699 4.60827 6.5022 4.77701 6.21577L3.70226 7.78614ZM0.60539 8.14037L0.454688 8.05172V8.22656V8.25586C0.454688 8.3483 0.478343 8.4332 0.522266 8.51076C0.45235 8.41813 0.420313 8.31762 0.420313 8.20898C0.420313 8.10489 0.446067 8.02908 0.489799 7.97336C0.533657 7.91748 0.603309 7.87198 0.708937 7.84284C0.763381 7.82932 0.817377 7.82266 0.871094 7.82266C0.909385 7.82266 0.952499 7.83552 1.00194 7.86951L1.00192 7.86955L1.00427 7.87107C1.03938 7.89379 1.0582 7.92496 1.0582 7.98047C1.0582 8.03673 1.03807 8.08201 0.992432 8.12228C0.946964 8.1624 0.887648 8.18516 0.806641 8.18516C0.717391 8.18516 0.652284 8.16795 0.60539 8.14037Z" stroke="black" stroke-width="0.2"/>
</svg>
