<svg width="15" height="10" viewBox="0 0 15 10" fill="none" xmlns="http://www.w3.org/2000/svg">
<path d="M8.80242 2.97659C8.89812 2.861 8.99429 2.75678 9.09097 2.66413L9.09244 2.66272L9.09245 2.66273C9.1418 2.61733 9.19214 2.57338 9.24345 2.53087C9.14871 2.60461 9.04471 2.68885 8.93137 2.78371L8.80242 2.97659ZM8.80242 2.97659C8.70658 3.08845 8.60155 3.2233 8.4874 3.38076C8.37294 3.53863 8.24506 3.72556 8.10383 3.94133L7.61171 4.69123L7.6114 4.69169C6.10325 7.01784 4.58334 8.36661 3.0548 8.77684C3.37017 8.66424 3.68215 8.50003 3.99073 8.28519L3.99074 8.28519C4.66037 7.81884 5.2686 7.15176 5.81685 6.28796L8.80242 2.97659ZM7.58961 2.46192L7.58926 2.4629C7.51793 2.66563 7.4202 2.86129 7.29572 3.04997C7.17093 3.23521 7.02518 3.40943 6.85825 3.57261C6.69115 3.73207 6.51494 3.87031 6.32966 3.98756C5.95378 4.22155 5.61962 4.34122 5.32518 4.35715C5.4366 4.33725 5.55371 4.297 5.67589 4.23869L5.67589 4.23869L5.67673 4.23828C5.85948 4.14893 6.04107 4.03377 6.22155 3.89339L6.22156 3.8934L6.22263 3.89254C6.40179 3.74921 6.57667 3.59019 6.7473 3.4156L6.74808 3.41479C6.91844 3.23651 7.07325 3.05594 7.2124 2.87305L7.21272 2.87263C7.43359 2.5791 7.59402 2.31907 7.68837 2.09399C7.67212 2.20175 7.6397 2.32418 7.58961 2.46192ZM6.83652 1.2806C6.76049 1.30113 6.68502 1.32402 6.61012 1.34926C6.69 1.31819 6.7713 1.28872 6.85402 1.26084C7.39078 1.08195 8.09377 0.990625 8.9668 0.990625C9.51859 0.990625 10.0505 1.04657 10.5627 1.15825L10.5627 1.15832L10.5664 1.15899C11.0072 1.23771 11.3827 1.27773 11.6914 1.27773C11.9978 1.27773 12.2643 1.24993 12.4895 1.19261L12.4895 1.19262L12.4907 1.1923C12.6685 1.14468 12.8367 1.08563 12.9953 1.01503C12.8548 1.08927 12.7051 1.15734 12.5461 1.21918C11.964 1.44124 11.3551 1.55234 10.7188 1.55234C10.3207 1.55234 9.88438 1.50257 9.40935 1.40216L9.40868 1.40202C8.66187 1.24953 8.10653 1.17148 7.74805 1.17148C7.39829 1.17148 7.09386 1.20717 6.83652 1.2806ZM0.663672 8.08008C0.663672 8.17697 0.679578 8.2671 0.711391 8.34971C0.655702 8.25201 0.629297 8.14654 0.629297 8.0332C0.629297 7.89517 0.668366 7.82039 0.723502 7.77964L0.723537 7.77968L0.726251 7.77753C0.852224 7.67749 0.947414 7.64102 1.01562 7.64102C1.12506 7.64102 1.18888 7.66215 1.22348 7.68824C1.25276 7.71032 1.27305 7.7449 1.27305 7.81055C1.27305 7.8578 1.2557 7.90024 1.21201 7.94163C1.16735 7.98053 1.10677 8.00352 1.02148 8.00352C0.927534 8.00352 0.860758 7.98601 0.814374 7.95873L0.663672 7.87008V8.04492V8.08008Z" stroke="black" stroke-width="0.2"/>
</svg>
