<svg width="11" height="10" viewBox="0 0 11 10" fill="none" xmlns="http://www.w3.org/2000/svg">
<path d="M1.61847 7.7491C1.47425 7.93232 1.37357 8.06885 1.31951 8.15613C1.24355 8.27736 1.19327 8.39335 1.17827 8.50199C1.17738 8.49104 1.17668 8.47982 1.17618 8.46831L1.17618 8.46823C1.16375 8.18761 1.27744 7.82227 1.53674 7.36633C1.7948 6.91256 2.19089 6.3797 2.72756 5.76719C3.10817 5.3361 3.53574 4.89489 4.01042 4.44356L4.01043 4.44355C4.49123 3.98621 4.8618 3.61962 5.12143 3.34427M1.61847 7.7491C1.76765 7.55573 2.29018 6.9942 3.17804 6.0713L3.17815 6.07118C4.52445 4.67611 5.40835 3.55887 5.83881 2.71716C6.02692 2.34933 6.12445 2.04165 6.14081 1.79104C6.11351 2.04175 5.97449 2.32152 5.74416 2.62642C5.59242 2.83004 5.38445 3.06946 5.12143 3.34427M1.61847 7.7491C1.61858 7.74896 1.61869 7.74883 1.6188 7.74869L1.69737 7.81055L1.61817 7.7495C1.61827 7.74936 1.61837 7.74923 1.61847 7.7491ZM5.12143 3.34427C5.12135 3.34436 5.12126 3.34445 5.12117 3.34454L5.04893 3.27539L5.12169 3.34399C5.12161 3.34408 5.12152 3.34417 5.12143 3.34427ZM1.25792 3.10547L1.20805 3.08103M1.25792 3.10547L5.81971 1.09107C5.81975 1.09109 5.81978 1.09112 5.81982 1.09114C5.62231 0.960699 5.35634 0.891016 5.01378 0.891016C4.96505 0.891016 4.91622 0.891991 4.86729 0.893944C4.29441 0.916811 3.70772 1.07366 3.10648 1.36721L3.1064 1.36724C2.80745 1.51289 2.52989 1.68329 2.27356 1.8784L2.27281 1.87898L2.2728 1.87897C2.27055 1.88065 2.2683 1.88233 2.26605 1.88402C2.26602 1.88404 2.26598 1.88407 2.26594 1.8841C2.01225 2.07408 1.79341 2.27458 1.6089 2.48539M1.25792 3.10547C1.16026 3.30469 1.11534 3.49805 1.12315 3.68555C1.13096 3.86914 1.18956 4.01172 1.29893 4.11328C1.40831 4.21094 1.54307 4.25977 1.70323 4.25977C1.86729 4.25977 2.04503 4.21875 2.23643 4.13672C2.42784 4.05078 2.62706 3.9375 2.83409 3.79688C3.04112 3.65234 3.24815 3.48438 3.45518 3.29297M1.25792 3.10547L1.14458 3.11151M1.20805 3.08103C1.30705 2.88066 1.44035 2.68208 1.6089 2.48539M1.20805 3.08103C1.20803 3.08109 1.208 3.08115 1.20797 3.08121L1.16797 3.06178C1.16799 3.06172 1.16802 3.06167 1.16805 3.06162M1.20805 3.08103L1.16813 3.06145C1.1681 3.06151 1.16807 3.06156 1.16805 3.06162M1.6089 2.48539C1.60901 2.48526 1.60912 2.48513 1.60923 2.485L1.57462 2.45533C1.5745 2.45547 1.57438 2.45561 1.57426 2.45575M1.6089 2.48539C1.60879 2.48552 1.60868 2.48565 1.60857 2.48577L1.57426 2.45575M1.57426 2.45575L1.53331 2.41992C1.34581 2.63867 1.19932 2.86133 1.09385 3.08789M1.57426 2.45575C1.40435 2.6526 1.26867 2.85449 1.16805 3.06162M1.16805 3.06162C1.15996 3.07812 1.15219 3.09462 1.14476 3.11111L1.09385 3.08789M1.09385 3.08789L1.14458 3.11151M1.09385 3.08789C0.992292 3.31055 0.945417 3.5293 0.95323 3.74414C0.961042 3.95898 1.04307 4.12891 1.19932 4.25391M1.14458 3.11151C1.05696 3.30603 1.0153 3.4991 1.02324 3.68971L1.02324 3.6898C1.02399 3.70727 1.02515 3.7245 1.02675 3.74147C1.04374 3.92209 1.10937 4.07373 1.23089 4.18656L1.23087 4.18657L1.23233 4.18788C1.2357 4.19089 1.2391 4.19386 1.24251 4.19679L1.19932 4.25391M1.14458 3.11151L1.244 4.19806M1.19932 4.25391C1.35948 4.375 1.58214 4.43555 1.86729 4.43555C2.42198 4.43555 2.97276 4.22461 3.51964 3.80273C3.78526 3.59961 4.03331 3.35742 4.26378 3.07617C4.49815 2.79102 4.69542 2.47461 4.85557 2.12695C5.01573 1.7793 5.08995 1.51172 5.07823 1.32422C5.07787 1.31767 5.0774 1.31144 5.07683 1.3055C5.07492 1.30787 5.07186 1.3119 5.06768 1.31817C5.06625 1.32032 5.06476 1.32262 5.06322 1.32505C5.0632 1.32509 5.06318 1.32512 5.06315 1.32516C5.04843 1.3485 5.02917 1.38464 5.00528 1.43576C4.99094 1.46847 4.97593 1.50129 4.96026 1.53421M1.19932 4.25391L1.244 4.19806M4.96026 1.53421C4.96826 1.49456 4.9737 1.45774 4.97669 1.42371L4.91417 1.39453M4.96026 1.53421C4.93103 1.67907 4.86761 1.86182 4.76475 2.08511C4.60804 2.42529 4.41527 2.73437 4.18652 3.01268L4.18643 3.01279C3.96043 3.28858 3.71787 3.52525 3.45889 3.7233L3.45856 3.72356C2.95178 4.1145 2.44849 4.31477 1.94731 4.33401M4.96026 1.53421C4.77384 1.92591 4.49362 2.33292 4.12223 2.75531M4.91417 1.39453L4.97684 1.42199C4.97967 1.38884 4.98017 1.35834 4.97842 1.33046L4.97838 1.32977C4.97757 1.3152 4.97624 1.30423 4.97477 1.29629C4.97337 1.28871 4.97216 1.28567 4.97217 1.28566C4.97217 1.28566 4.97218 1.28568 4.9722 1.28573L4.9722 1.28574C4.9724 1.28618 4.97597 1.29425 4.98634 1.30274C4.99854 1.31272 5.01473 1.31875 5.03135 1.31875C5.04937 1.31875 5.06248 1.31317 5.06906 1.30964C5.07249 1.3078 5.07506 1.30604 5.07676 1.30475C5.07118 1.24742 5.05605 1.21875 5.03135 1.21875C5.00792 1.21875 4.96885 1.27734 4.91417 1.39453ZM4.91417 1.39453C4.73448 1.80469 4.44542 2.23633 4.04698 2.68945M4.04698 2.68945C3.86339 2.90039 3.66612 3.10156 3.45518 3.29297M4.04698 2.68945L4.12241 2.75511C4.12235 2.75517 4.12229 2.75524 4.12223 2.75531M4.04698 2.68945L4.12208 2.75549C4.12213 2.75543 4.12218 2.75537 4.12223 2.75531M3.45518 3.29297L3.52238 3.36702C3.5225 3.36692 3.52261 3.36682 3.52272 3.36671M3.45518 3.29297L3.52307 3.3664C3.52295 3.3665 3.52284 3.36661 3.52272 3.36671M3.52272 3.36671C3.73632 3.17287 3.93617 2.96907 4.12223 2.75531M3.52272 3.36671C3.31284 3.56073 3.10239 3.73153 2.89133 3.87887L2.89028 3.8796L2.89028 3.8796C2.67932 4.02289 2.47501 4.13922 2.27739 4.22795L2.27583 4.22865L2.27582 4.22863C2.1633 4.27686 2.05373 4.31224 1.94731 4.33401M1.94731 4.33401C1.92043 4.33951 1.89376 4.34414 1.86729 4.34789C1.81169 4.35577 1.757 4.35977 1.70323 4.35977C1.5264 4.35977 1.3713 4.30677 1.244 4.19806M1.94731 4.33401C1.92063 4.33504 1.89396 4.33555 1.86729 4.33555C1.8093 4.33555 1.75465 4.33292 1.70323 4.32778C1.51388 4.30886 1.3683 4.25592 1.26072 4.17496C1.25744 4.17232 1.25419 4.16966 1.25099 4.16698C1.25063 4.16668 1.25027 4.16638 1.24991 4.16607C1.1259 4.06179 1.0598 3.92297 1.05316 3.74051C1.05254 3.72324 1.05229 3.70592 1.05243 3.68856C1.05243 3.68854 1.05243 3.68851 1.05243 3.68849C1.05391 3.50763 1.09719 3.32165 1.18468 3.12974L1.244 4.19806M3.33214 8.16797L3.37509 8.23286C3.01656 8.45789 2.68823 8.62719 2.38995 8.74156C2.38977 8.74163 2.38959 8.7417 2.3894 8.74177C2.30911 8.77254 2.23099 8.79933 2.15505 8.82216C1.97037 8.87687 1.81842 8.90542 1.69737 8.91078C1.68328 8.91141 1.66961 8.91172 1.65635 8.91172C1.51211 8.91172 1.40913 8.8822 1.33734 8.83273L1.30961 8.86463C1.38992 8.93424 1.51387 8.96062 1.65635 8.96467C1.66987 8.96505 1.68355 8.96523 1.69737 8.96523C1.82553 8.96523 1.98398 8.93341 2.17036 8.87358L2.1837 8.91797L2.17053 8.87352C2.24516 8.84956 2.32426 8.82111 2.40769 8.78842L2.40769 8.78842L2.40877 8.78799C2.70583 8.66756 3.03218 8.48811 3.3875 8.25125C3.59702 8.11256 3.80266 7.96323 4.00443 7.80328M3.33214 8.16797L3.37531 8.23272C3.57558 8.10701 3.78528 7.96391 4.00443 7.80328M3.33214 8.16797C2.98057 8.40234 2.66026 8.57812 2.3712 8.69531L5.9337 5.64844C5.79698 5.8125 5.69151 5.94336 5.61729 6.04102C4.91417 6.91602 4.15245 7.625 3.33214 8.16797ZM4.00443 7.80328C4.60194 7.32964 5.16549 6.76291 5.69524 6.10365L5.69527 6.10368L5.69691 6.10152C5.76975 6.00567 5.87404 5.87623 6.01027 5.71275L4.6212 8.38477M4.00443 7.80328C4.30706 7.58147 4.62771 7.32624 4.96645 7.03721L5.11627 7.16609C4.8336 7.62066 4.70672 8.02439 4.72109 8.38014M4.72109 8.38014C4.72108 8.37996 4.72107 8.37978 4.72106 8.3796L4.6212 8.38477M4.72109 8.38014C4.7211 8.38032 4.72111 8.38051 4.72112 8.38069L4.6212 8.38477M4.72109 8.38014C4.72952 8.5416 4.77045 8.65507 4.83522 8.73229M4.6212 8.38477C4.63292 8.61133 4.70518 8.77344 4.838 8.87109L4.88757 8.80086C4.86766 8.7797 4.85024 8.75679 4.83522 8.73229M4.83522 8.73229C4.85375 8.7544 4.87424 8.77353 4.89647 8.78997L7.4044 4.9043L7.32865 4.83901L7.3292 4.83838C6.88063 5.34155 6.49086 5.76833 6.15982 6.11884L6.1598 6.11886C5.82779 6.47064 5.51014 6.8673 5.20676 7.30858L5.20642 7.30908C4.90561 7.75239 4.74853 8.14356 4.76151 8.47655L4.76149 8.47655L4.76162 8.47871C4.7674 8.57413 4.79094 8.66011 4.83522 8.73229ZM4.88874 8.80208C4.90163 8.81567 4.91556 8.82852 4.93057 8.8406C5.01999 8.91257 5.1368 8.94828 5.27159 8.95714C5.29452 8.95864 5.31797 8.95938 5.3419 8.95938C5.46942 8.95938 5.60386 8.93661 5.74505 8.89212L5.75792 8.92969L4.88874 8.80208Z" stroke="black" stroke-width="0.2"/>
</svg>
