<svg width="12" height="10" viewBox="0 0 12 10" fill="none" xmlns="http://www.w3.org/2000/svg">
<path d="M4.50221 1.13717C4.49789 1.02558 4.47507 0.92357 4.41602 0.851626C4.40313 0.835018 4.3892 0.819496 4.37427 0.80504C4.39518 0.8149 4.41501 0.825316 4.4338 0.836268C4.53639 0.89681 4.60647 0.965908 4.65002 1.04158C4.69329 1.11676 4.71369 1.20414 4.70824 1.30722C4.69711 1.5179 4.57793 1.79129 4.32789 2.13182C4.2487 2.23737 4.16401 2.3352 4.07382 2.42538L4.0738 2.42536L4.07208 2.42717L3.84356 2.66741L3.84356 2.6674L3.84301 2.66799C3.75533 2.76165 3.68674 2.8443 3.63945 2.91523C3.59516 2.98166 3.5582 3.05402 3.5582 3.12305C3.5582 3.19748 3.57636 3.26883 3.62302 3.32482C3.52445 3.28114 3.45162 3.21244 3.39985 3.12124C3.31356 2.96357 3.32387 2.77456 3.46833 2.53621L3.46834 2.53621L3.46895 2.53517C3.55471 2.38975 3.65729 2.25543 3.77687 2.13211L3.77689 2.13213L3.77845 2.13044L4.07142 1.81403L4.07156 1.81388C4.2117 1.6619 4.31867 1.53208 4.39021 1.42528C4.42597 1.37191 4.45446 1.32196 4.47369 1.2761C4.49206 1.2323 4.50532 1.18446 4.50221 1.13717ZM4.50221 1.13717C4.50223 1.13774 4.50225 1.13831 4.50228 1.13888L4.40234 1.14258L4.50205 1.13491C4.50211 1.13566 4.50216 1.13642 4.50221 1.13717ZM9.92773 0.955078L9.89493 0.931798L9.27563 2.76562L9.26761 2.75706L9.33677 2.69235C9.35103 2.06803 9.54802 1.48894 9.92773 0.955078ZM9.92773 0.955078C10.0996 0.712891 10.291 0.519531 10.502 0.375C10.7129 0.230469 10.918 0.158203 11.1172 0.158203C11.1641 0.158203 11.2148 0.181641 11.2695 0.228516L11.3208 0.158658C11.2721 0.131201 11.2062 0.113915 11.1172 0.111914C11.1114 0.111784 11.1056 0.111719 11.0996 0.111719C10.9821 0.111719 10.851 0.145296 10.7049 0.218349L10.704 0.218787L10.704 0.218783C10.6293 0.255239 10.5557 0.298176 10.4832 0.347701C10.2775 0.488399 10.0812 0.682268 9.89496 0.931764L9.92773 0.955078ZM9.35226 3.25274L9.30237 3.29623L9.3229 3.35915C9.38672 3.55471 9.4764 3.71958 9.59245 3.85144C9.47702 3.7416 9.38495 3.6088 9.31619 3.45202L9.26191 3.32826L9.15943 3.41635C7.90302 4.49626 6.08007 5.83543 3.68915 7.4342L4.34383 6.95989L4.34383 6.9599L4.3451 6.95895L5.58142 6.03317L5.58143 6.03318L5.58278 6.03214L6.83668 5.05948L6.8367 5.0595L6.83845 5.05808C7.96339 4.14407 8.74236 3.49433 9.17394 3.10982L9.214 3.07413L9.20642 3.02101C9.20306 2.99755 9.20156 2.97694 9.20156 2.95898V2.88281C9.20156 2.62415 9.2348 2.36977 9.30161 2.11954C9.25786 2.32944 9.23594 2.54482 9.23594 2.76562V2.83008V3.0606L9.40426 2.9031L10.2246 2.13552L10.2246 2.13555L10.2266 2.13356C10.6287 1.73542 10.9332 1.3957 11.1379 1.11509C11.2403 0.974767 11.3192 0.847171 11.3729 0.732778C11.4261 0.619347 11.4574 0.512699 11.4574 0.416016C11.4574 0.408258 11.4572 0.400574 11.4568 0.392969C11.4605 0.421185 11.4625 0.45222 11.4625 0.486328C11.4625 0.77707 11.3004 1.15401 10.9465 1.62287C10.595 2.08871 10.0646 2.63189 9.35226 3.25274ZM2.15357 8.44597C1.93769 8.58628 1.71796 8.72836 1.49438 8.87219C1.56088 8.80644 1.63544 8.72615 1.71774 8.63237C1.88868 8.43758 2.07253 8.20022 2.26926 7.92086C2.4657 7.64191 2.6795 7.32021 2.91061 6.95591L2.91075 6.95569C3.66325 5.76262 4.11947 5.04319 4.28006 4.79635L4.81166 4.04276C5.18497 3.53339 5.53614 3.09697 5.86519 2.73309L5.772 2.62843C6.11368 2.38117 6.48196 2.07706 6.87674 1.71679C6.78823 1.84676 6.71561 1.96117 6.65927 2.05976L6.65925 2.05975L6.65816 2.06175C5.36395 4.45136 4.09395 6.28219 2.84917 7.55823L2.05899 8.33084L2.15357 8.44597ZM4.17969 0.796875L4.20525 0.744056C4.2041 0.743748 4.20296 0.74344 4.20182 0.743134L4.17969 0.796875ZM10.6632 4.13726C10.6631 4.13727 10.6628 4.13725 10.6623 4.13717L10.6632 4.13726Z" stroke="black" stroke-width="0.2"/>
</svg>
