<svg width="87" height="76" viewBox="0 0 87 76" fill="none" xmlns="http://www.w3.org/2000/svg">
<path d="M86.5 4.89062C86.5 10.0781 80.7812 17.6562 69.3438 27.625C70.3125 30.5938 72.0312 32.5312 74.5 33.4375C75.1875 33.6875 75.8438 33.8125 76.4688 33.8125C77.125 33.8125 77.625 33.75 77.9688 33.625C78.5312 33.4062 78.9688 33.2969 79.2812 33.2969C79.5938 33.2969 79.75 33.4219 79.75 33.6719C79.75 33.9219 79.5312 34.1562 79.0938 34.375C78.3125 34.7188 77.1719 34.8906 75.6719 34.8906C74.2031 34.8906 72.7188 34.3438 71.2188 33.25C69.7188 32.1562 68.5781 30.7188 67.7969 28.9375C54.6719 40.2188 33.875 55 5.40625 73.2812C3.5625 74.4375 2.39062 75.0156 1.89062 75.0156C1.35938 75.0156 1.09375 74.875 1.09375 74.5938C1.09375 74.3125 1.26562 74.0938 1.60938 73.9375C1.92188 73.7812 2.23438 73.6406 2.54688 73.5156C2.82812 73.3906 3.32812 73.0781 4.04688 72.5781C4.76562 72.0781 5.79688 71.0625 7.14062 69.5312C8.48438 68 9.9375 66.125 11.5 63.9062C13.0625 61.6875 14.7656 59.125 16.6094 56.2188C22.6406 46.6562 26.2969 40.8906 27.5781 38.9219L31.8438 32.875C34.8438 28.7812 37.6719 25.2656 40.3281 22.3281C34.2344 26.6719 29.2656 28.8438 25.4219 28.8438C23.0781 28.8438 21.4375 28.0156 20.5 26.3594C19.625 24.7656 19.8125 22.9375 21.0625 20.875C21.7812 19.6562 22.6406 18.5312 23.6406 17.5L25.9844 14.9688C28.2031 12.5625 29.2812 10.9531 29.2188 10.1406C29.1875 9.29688 29.0156 8.6875 28.7031 8.3125C28.3906 7.90625 27.9688 7.59375 27.4375 7.375C26.4688 6.90625 24.9688 6.67188 22.9375 6.67188C19.0625 6.67188 15.1562 8.29688 11.2188 11.5469C10.6562 12.0469 10.2344 12.2969 9.95312 12.2969C9.67188 12.2969 9.53125 12.1406 9.53125 11.8281C9.5 11.3594 9.875 10.8281 10.6562 10.2344C11.4688 9.60938 12.3906 9.01562 13.4219 8.45312C14.4531 7.89062 15.5312 7.40625 16.6562 7C19.125 6.125 21.2344 5.6875 22.9844 5.6875C24.7344 5.6875 26.125 5.79688 27.1562 6.01562C28.2188 6.23438 29.125 6.5625 29.875 7C33.5312 9.15625 33.3281 13 29.2656 18.5312C28.6094 19.4062 27.9062 20.2188 27.1562 20.9688L25.3281 22.8906C23.9531 24.3594 23.2656 25.3906 23.2656 25.9844C23.2656 27.0781 23.875 27.625 25.0938 27.625C26.3438 27.625 27.6719 27.4375 29.0781 27.0625C30.5156 26.6562 32.2188 25.9375 34.1875 24.9062C38.5625 22.5312 43.6875 18.6094 49.5625 13.1406L50.7812 12.0625C52.9062 10.2812 54.2188 9.39062 54.7188 9.39062C55.25 9.39062 55.5156 9.54688 55.5156 9.85938C55.5469 10.1094 55.4375 10.2969 55.1875 10.4219C54.9375 10.5469 54.6562 10.7188 54.3438 10.9375C52.3125 12.25 50.8594 13.5156 49.9844 14.7344C49.1406 15.9531 48.4688 17 47.9688 17.875C37.5938 37.0312 27.3906 51.75 17.3594 62.0312L11.0312 68.2188L19.0938 62.6875L28.2812 56.0312L38.1719 48.625L48.2031 40.8438C57.2031 33.5312 63.4219 28.3438 66.8594 25.2812C66.8281 25.0625 66.8125 24.8594 66.8125 24.6719V24.0625C66.8125 18.5938 68.6094 13.375 72.2031 8.40625C74.3594 5.40625 76.7188 3.28125 79.2812 2.03125C80.5312 1.40625 81.7031 1.09375 82.7969 1.09375C85.2656 1.09375 86.5 2.35938 86.5 4.89062ZM68.6875 23.6406L75.25 17.5C81.6562 11.1562 84.8594 6.76562 84.8594 4.32812C84.8594 3.67188 84.625 3.17188 84.1562 2.82812C83.7188 2.45312 83.3125 2.26562 82.9375 2.26562C81.3438 2.26562 79.7031 2.84375 78.0156 4C76.3281 5.15625 74.7969 6.70312 73.4219 8.64062C70.2656 13.0781 68.6875 17.9062 68.6875 23.125V23.6406Z" stroke="black"/>
</svg>
