<svg width="19" height="10" viewBox="0 0 19 10" fill="none" xmlns="http://www.w3.org/2000/svg">
<mask id="path-1-inside-1_237_39" fill="white">
<path d="M10.123 0.755859C10.2402 0.642578 10.3457 0.585938 10.4395 0.585938C10.5371 0.585938 10.5859 0.603516 10.5859 0.638672C10.5859 0.669922 10.5684 0.693359 10.5332 0.708984C10.502 0.724609 10.4648 0.746094 10.4219 0.773438L10.2637 0.878906C10.1973 0.925781 10.1191 0.996094 10.0293 1.08984C9.81445 1.32031 9.6582 1.49414 9.56055 1.61133C9.27539 1.9668 9.04688 2.26172 8.875 2.49609L7.56836 4.29492C6.57617 5.67773 5.55078 6.85938 4.49219 7.83984L3.4668 8.74805L3.91797 8.48438C4.25391 8.28125 4.56641 8.0625 4.85547 7.82812L5.6875 7.13672L6.57812 6.31641L9.10938 3.86719C10.082 2.97266 10.7344 2.38672 11.0664 2.10938C11.6914 1.59766 12.0879 1.28125 12.2559 1.16016C12.8262 0.738281 13.1426 0.527344 13.2051 0.527344C13.2715 0.527344 13.3047 0.554688 13.3047 0.609375C13.3047 0.644531 13.2656 0.681641 13.1875 0.720703L12.9707 0.837891C12.623 1.01367 12.3262 1.28906 12.0801 1.66406C11.834 2.03906 11.6035 2.41211 11.3887 2.7832L10.7148 3.9375L9.99414 5.12109C9.74805 5.51172 9.55078 5.80859 9.40234 6.01172L7.96094 7.88672L9.33789 6.46289L10.6035 5.21484L12.502 3.4043C13.9121 2.06836 15.0703 1.23828 15.9766 0.914062C16.3047 0.796875 16.6406 0.738281 16.9844 0.738281C17.3281 0.738281 17.6152 0.806641 17.8457 0.943359C18.0762 1.08008 18.1914 1.2832 18.1914 1.55273C18.1914 1.88086 18.043 2.15625 17.7461 2.37891C17.4688 2.58984 17.123 2.69531 16.709 2.69531C16.4785 2.69531 16.2812 2.65625 16.1172 2.57812C15.8203 2.42969 15.6719 2.29297 15.6719 2.16797C15.6719 2.04297 15.7207 1.98047 15.8184 1.98047C15.873 1.98047 15.9082 1.99414 15.9238 2.02148C15.9434 2.04492 15.959 2.0957 15.9707 2.17383C15.9863 2.24805 16.0234 2.31055 16.082 2.36133C16.1406 2.41211 16.207 2.45312 16.2812 2.48438C16.418 2.54688 16.5508 2.57812 16.6797 2.57812C16.8086 2.57812 16.9414 2.55664 17.0781 2.51367C17.2188 2.4707 17.3477 2.40625 17.4648 2.32031C17.7383 2.125 17.875 1.87305 17.875 1.56445C17.875 1.33789 17.7695 1.16797 17.5586 1.05469C17.3867 0.964844 17.1836 0.919922 16.9492 0.919922C16.7188 0.919922 16.5137 0.939453 16.334 0.978516C16.1543 1.01758 15.957 1.08594 15.7422 1.18359C15.5312 1.27734 15.3008 1.40234 15.0508 1.55859C14.8008 1.71484 14.5234 1.91016 14.2188 2.14453C13.5898 2.62109 12.9961 3.13086 12.4375 3.67383L10.3398 5.70703L9.33203 6.70312L8.08398 7.99805C7.50586 8.59961 6.98828 8.99414 6.53125 9.18164C6.41797 9.22852 6.33789 9.25195 6.29102 9.25195C6.2168 9.25195 6.17969 9.2207 6.17969 9.1582C6.17969 9.11133 6.23242 9.07031 6.33789 9.03516C6.44336 9 6.53125 8.9668 6.60156 8.93555C6.67578 8.90039 6.74609 8.85742 6.8125 8.80664C6.87891 8.75586 6.94531 8.68945 7.01172 8.60742C7.08203 8.52539 7.1582 8.42188 7.24023 8.29688C7.32227 8.16797 7.41797 8.00977 7.52734 7.82227C8.11719 6.79102 8.51367 6.11328 8.7168 5.78906C9.17773 5.08203 9.46875 4.64453 9.58984 4.47656L11.7695 1.75781L11.0605 2.29688C10.8027 2.49609 10.5586 2.70703 10.3281 2.92969L7.53906 5.6543L6.08594 7.00195C5.03125 7.95508 4.12891 8.60352 3.37891 8.94727L3.15625 9.04688C2.87109 9.18359 2.68359 9.25195 2.59375 9.25195C2.50391 9.25195 2.45898 9.22266 2.45898 9.16406C2.45898 9.11719 2.54688 9.06836 2.72266 9.01758C2.92188 8.99414 3.10156 8.90625 3.26172 8.75391C3.53906 8.49219 3.82812 8.14258 4.12891 7.70508L5.24219 6.10547L5.72266 5.4668C6.21484 4.83789 6.57227 4.39648 6.79492 4.14258C7.32617 3.55273 7.73633 3.11328 8.02539 2.82422C9.31055 1.55469 10.0098 0.865234 10.123 0.755859ZM0.677734 3.83789C0.623047 3.83789 0.595703 3.80664 0.595703 3.74414C0.595703 3.5332 0.707031 3.25391 0.929688 2.90625C1.16797 2.53906 1.5 2.21094 1.92578 1.92188C2.61328 1.45312 3.33008 1.21875 4.07617 1.21875C4.60742 1.21875 5.2168 1.33789 5.9043 1.57617L6.39062 1.74609C6.78125 1.87891 7.08594 1.94531 7.30469 1.94531C7.52344 1.94531 7.70312 1.93164 7.84375 1.9043C7.98438 1.87305 8.13281 1.82812 8.28906 1.76953C8.64062 1.64062 8.91602 1.49414 9.11523 1.33008C9.31445 1.16211 9.42773 1.07812 9.45508 1.07812C9.48242 1.07812 9.49609 1.08984 9.49609 1.11328C9.49609 1.14844 9.42578 1.22852 9.28516 1.35352C9.14453 1.47852 8.9707 1.60742 8.76367 1.74023C8.56055 1.87305 8.35742 1.98047 8.1543 2.0625C7.7832 2.20703 7.44922 2.2793 7.15234 2.2793C6.85938 2.2793 6.63867 2.27148 6.49023 2.25586C6.3457 2.24023 6.19922 2.21875 6.05078 2.19141C5.80469 2.14062 5.54297 2.07031 5.26562 1.98047C4.99219 1.89062 4.80078 1.83203 4.69141 1.80469C4.58594 1.77344 4.48438 1.75 4.38672 1.73438C4.19531 1.69922 3.98633 1.68164 3.75977 1.68164C3.5293 1.68164 3.29297 1.71094 3.05078 1.76953C2.80469 1.82422 2.56641 1.9043 2.33594 2.00977C1.66016 2.32227 1.18555 2.74609 0.912109 3.28125C0.837891 3.42969 0.800781 3.54688 0.800781 3.63281C0.800781 3.76953 0.759766 3.83789 0.677734 3.83789Z"/>
</mask>
<path d="M10.123 0.755859C10.2402 0.642578 10.3457 0.585938 10.4395 0.585938C10.5371 0.585938 10.5859 0.603516 10.5859 0.638672C10.5859 0.669922 10.5684 0.693359 10.5332 0.708984C10.502 0.724609 10.4648 0.746094 10.4219 0.773438L10.2637 0.878906C10.1973 0.925781 10.1191 0.996094 10.0293 1.08984C9.81445 1.32031 9.6582 1.49414 9.56055 1.61133C9.27539 1.9668 9.04688 2.26172 8.875 2.49609L7.56836 4.29492C6.57617 5.67773 5.55078 6.85938 4.49219 7.83984L3.4668 8.74805L3.91797 8.48438C4.25391 8.28125 4.56641 8.0625 4.85547 7.82812L5.6875 7.13672L6.57812 6.31641L9.10938 3.86719C10.082 2.97266 10.7344 2.38672 11.0664 2.10938C11.6914 1.59766 12.0879 1.28125 12.2559 1.16016C12.8262 0.738281 13.1426 0.527344 13.2051 0.527344C13.2715 0.527344 13.3047 0.554688 13.3047 0.609375C13.3047 0.644531 13.2656 0.681641 13.1875 0.720703L12.9707 0.837891C12.623 1.01367 12.3262 1.28906 12.0801 1.66406C11.834 2.03906 11.6035 2.41211 11.3887 2.7832L10.7148 3.9375L9.99414 5.12109C9.74805 5.51172 9.55078 5.80859 9.40234 6.01172L7.96094 7.88672L9.33789 6.46289L10.6035 5.21484L12.502 3.4043C13.9121 2.06836 15.0703 1.23828 15.9766 0.914062C16.3047 0.796875 16.6406 0.738281 16.9844 0.738281C17.3281 0.738281 17.6152 0.806641 17.8457 0.943359C18.0762 1.08008 18.1914 1.2832 18.1914 1.55273C18.1914 1.88086 18.043 2.15625 17.7461 2.37891C17.4688 2.58984 17.123 2.69531 16.709 2.69531C16.4785 2.69531 16.2812 2.65625 16.1172 2.57812C15.8203 2.42969 15.6719 2.29297 15.6719 2.16797C15.6719 2.04297 15.7207 1.98047 15.8184 1.98047C15.873 1.98047 15.9082 1.99414 15.9238 2.02148C15.9434 2.04492 15.959 2.0957 15.9707 2.17383C15.9863 2.24805 16.0234 2.31055 16.082 2.36133C16.1406 2.41211 16.207 2.45312 16.2812 2.48438C16.418 2.54688 16.5508 2.57812 16.6797 2.57812C16.8086 2.57812 16.9414 2.55664 17.0781 2.51367C17.2188 2.4707 17.3477 2.40625 17.4648 2.32031C17.7383 2.125 17.875 1.87305 17.875 1.56445C17.875 1.33789 17.7695 1.16797 17.5586 1.05469C17.3867 0.964844 17.1836 0.919922 16.9492 0.919922C16.7188 0.919922 16.5137 0.939453 16.334 0.978516C16.1543 1.01758 15.957 1.08594 15.7422 1.18359C15.5312 1.27734 15.3008 1.40234 15.0508 1.55859C14.8008 1.71484 14.5234 1.91016 14.2188 2.14453C13.5898 2.62109 12.9961 3.13086 12.4375 3.67383L10.3398 5.70703L9.33203 6.70312L8.08398 7.99805C7.50586 8.59961 6.98828 8.99414 6.53125 9.18164C6.41797 9.22852 6.33789 9.25195 6.29102 9.25195C6.2168 9.25195 6.17969 9.2207 6.17969 9.1582C6.17969 9.11133 6.23242 9.07031 6.33789 9.03516C6.44336 9 6.53125 8.9668 6.60156 8.93555C6.67578 8.90039 6.74609 8.85742 6.8125 8.80664C6.87891 8.75586 6.94531 8.68945 7.01172 8.60742C7.08203 8.52539 7.1582 8.42188 7.24023 8.29688C7.32227 8.16797 7.41797 8.00977 7.52734 7.82227C8.11719 6.79102 8.51367 6.11328 8.7168 5.78906C9.17773 5.08203 9.46875 4.64453 9.58984 4.47656L11.7695 1.75781L11.0605 2.29688C10.8027 2.49609 10.5586 2.70703 10.3281 2.92969L7.53906 5.6543L6.08594 7.00195C5.03125 7.95508 4.12891 8.60352 3.37891 8.94727L3.15625 9.04688C2.87109 9.18359 2.68359 9.25195 2.59375 9.25195C2.50391 9.25195 2.45898 9.22266 2.45898 9.16406C2.45898 9.11719 2.54688 9.06836 2.72266 9.01758C2.92188 8.99414 3.10156 8.90625 3.26172 8.75391C3.53906 8.49219 3.82812 8.14258 4.12891 7.70508L5.24219 6.10547L5.72266 5.4668C6.21484 4.83789 6.57227 4.39648 6.79492 4.14258C7.32617 3.55273 7.73633 3.11328 8.02539 2.82422C9.31055 1.55469 10.0098 0.865234 10.123 0.755859ZM0.677734 3.83789C0.623047 3.83789 0.595703 3.80664 0.595703 3.74414C0.595703 3.5332 0.707031 3.25391 0.929688 2.90625C1.16797 2.53906 1.5 2.21094 1.92578 1.92188C2.61328 1.45312 3.33008 1.21875 4.07617 1.21875C4.60742 1.21875 5.2168 1.33789 5.9043 1.57617L6.39062 1.74609C6.78125 1.87891 7.08594 1.94531 7.30469 1.94531C7.52344 1.94531 7.70312 1.93164 7.84375 1.9043C7.98438 1.87305 8.13281 1.82812 8.28906 1.76953C8.64062 1.64062 8.91602 1.49414 9.11523 1.33008C9.31445 1.16211 9.42773 1.07812 9.45508 1.07812C9.48242 1.07812 9.49609 1.08984 9.49609 1.11328C9.49609 1.14844 9.42578 1.22852 9.28516 1.35352C9.14453 1.47852 8.9707 1.60742 8.76367 1.74023C8.56055 1.87305 8.35742 1.98047 8.1543 2.0625C7.7832 2.20703 7.44922 2.2793 7.15234 2.2793C6.85938 2.2793 6.63867 2.27148 6.49023 2.25586C6.3457 2.24023 6.19922 2.21875 6.05078 2.19141C5.80469 2.14062 5.54297 2.07031 5.26562 1.98047C4.99219 1.89062 4.80078 1.83203 4.69141 1.80469C4.58594 1.77344 4.48438 1.75 4.38672 1.73438C4.19531 1.69922 3.98633 1.68164 3.75977 1.68164C3.5293 1.68164 3.29297 1.71094 3.05078 1.76953C2.80469 1.82422 2.56641 1.9043 2.33594 2.00977C1.66016 2.32227 1.18555 2.74609 0.912109 3.28125C0.837891 3.42969 0.800781 3.54688 0.800781 3.63281C0.800781 3.76953 0.759766 3.83789 0.677734 3.83789Z" stroke="black" stroke-width="0.4" mask="url(#path-1-inside-1_237_39)"/>
</svg>
