<svg width="143" height="72" viewBox="0 0 143 72" fill="none" xmlns="http://www.w3.org/2000/svg">
<path d="M76.9844 3.04688C77.9219 2.14062 78.7656 1.6875 79.5156 1.6875C80.2969 1.6875 80.6875 1.82812 80.6875 2.10938C80.6875 2.35938 80.5469 2.54688 80.2656 2.67188C80.0156 2.79688 79.7188 2.96875 79.375 3.1875L78.1094 4.03125C77.5781 4.40625 76.9531 4.96875 76.2344 5.71875C74.5156 7.5625 73.2656 8.95312 72.4844 9.89062C70.2031 12.7344 68.375 15.0938 67 16.9688L56.5469 31.3594C48.6094 42.4219 40.4062 51.875 31.9375 59.7188L23.7344 66.9844L27.3438 64.875C30.0312 63.25 32.5312 61.5 34.8438 59.625L41.5 54.0938L48.625 47.5312L68.875 27.9375C76.6562 20.7812 81.875 16.0938 84.5312 13.875C89.5312 9.78125 92.7031 7.25 94.0469 6.28125C98.6094 2.90625 101.141 1.21875 101.641 1.21875C102.172 1.21875 102.438 1.4375 102.438 1.875C102.438 2.15625 102.125 2.45312 101.5 2.76562L99.7656 3.70312C96.9844 5.10938 94.6094 7.3125 92.6406 10.3125C90.6719 13.3125 88.8281 16.2969 87.1094 19.2656L81.7188 28.5L75.9531 37.9688C73.9844 41.0938 72.4062 43.4688 71.2188 45.0938L59.6875 60.0938L70.7031 48.7031L80.8281 38.7188L96.0156 24.2344C107.297 13.5469 116.562 6.90625 123.812 4.3125C126.438 3.375 129.125 2.90625 131.875 2.90625C134.625 2.90625 136.922 3.45312 138.766 4.54688C140.609 5.64062 141.531 7.26562 141.531 9.42188C141.531 12.0469 140.344 14.25 137.969 16.0312C135.75 17.7188 132.984 18.5625 129.672 18.5625C127.828 18.5625 126.25 18.25 124.938 17.625C122.562 16.4375 121.375 15.3438 121.375 14.3438C121.375 13.3438 121.766 12.8438 122.547 12.8438C122.984 12.8438 123.266 12.9531 123.391 13.1719C123.547 13.3594 123.672 13.7656 123.766 14.3906C123.891 14.9844 124.188 15.4844 124.656 15.8906C125.125 16.2969 125.656 16.625 126.25 16.875C127.344 17.375 128.406 17.625 129.438 17.625C130.469 17.625 131.531 17.4531 132.625 17.1094C133.75 16.7656 134.781 16.25 135.719 15.5625C137.906 14 139 11.9844 139 9.51562C139 7.70312 138.156 6.34375 136.469 5.4375C135.094 4.71875 133.469 4.35938 131.594 4.35938C129.75 4.35938 128.109 4.51562 126.672 4.82812C125.234 5.14062 123.656 5.6875 121.938 6.46875C120.25 7.21875 118.406 8.21875 116.406 9.46875C114.406 10.7188 112.188 12.2812 109.75 14.1562C104.719 17.9688 99.9688 22.0469 95.5 26.3906L78.7188 42.6562L70.6562 50.625L60.6719 60.9844C56.0469 65.7969 51.9062 68.9531 48.25 70.4531C47.3438 70.8281 46.7031 71.0156 46.3281 71.0156C45.7344 71.0156 45.4375 70.7656 45.4375 70.2656C45.4375 69.8906 45.8594 69.5625 46.7031 69.2812C47.5469 69 48.25 68.7344 48.8125 68.4844C49.4062 68.2031 49.9688 67.8594 50.5 67.4531C51.0312 67.0469 51.5625 66.5156 52.0938 65.8594C52.6562 65.2031 53.2656 64.375 53.9219 63.375C54.5781 62.3438 55.3438 61.0781 56.2188 59.5781C60.9375 51.3281 64.1094 45.9062 65.7344 43.3125C69.4219 37.6562 71.75 34.1562 72.7188 32.8125L90.1562 11.0625L84.4844 15.375C82.4219 16.9688 80.4688 18.6562 78.625 20.4375L56.3125 42.2344L44.6875 53.0156C36.25 60.6406 29.0312 65.8281 23.0312 68.5781L21.25 69.375C18.9688 70.4688 17.4688 71.0156 16.75 71.0156C16.0312 71.0156 15.6719 70.7812 15.6719 70.3125C15.6719 69.9375 16.375 69.5469 17.7812 69.1406C19.375 68.9531 20.8125 68.25 22.0938 67.0312C24.3125 64.9375 26.625 62.1406 29.0312 58.6406L37.9375 45.8438L41.7812 40.7344C45.7188 35.7031 48.5781 32.1719 50.3594 30.1406C54.6094 25.4219 57.8906 21.9062 60.2031 19.5938C70.4844 9.4375 76.0781 3.92188 76.9844 3.04688ZM1.42188 27.7031C0.984375 27.7031 0.765625 27.4531 0.765625 26.9531C0.765625 25.2656 1.65625 23.0312 3.4375 20.25C5.34375 17.3125 8 14.6875 11.4062 12.375C16.9062 8.625 22.6406 6.75 28.6094 6.75C32.8594 6.75 37.7344 7.70312 43.2344 9.60938L47.125 10.9688C50.25 12.0312 52.6875 12.5625 54.4375 12.5625C56.1875 12.5625 57.625 12.4531 58.75 12.2344C59.875 11.9844 61.0625 11.625 62.3125 11.1562C65.125 10.125 67.3281 8.95312 68.9219 7.64062C70.5156 6.29688 71.4219 5.625 71.6406 5.625C71.8594 5.625 71.9688 5.71875 71.9688 5.90625C71.9688 6.1875 71.4062 6.82812 70.2812 7.82812C69.1562 8.82812 67.7656 9.85938 66.1094 10.9219C64.4844 11.9844 62.8594 12.8438 61.2344 13.5C58.2656 14.6562 55.5938 15.2344 53.2188 15.2344C50.875 15.2344 49.1094 15.1719 47.9219 15.0469C46.7656 14.9219 45.5938 14.75 44.4062 14.5312C42.4375 14.125 40.3438 13.5625 38.125 12.8438C35.9375 12.125 34.4062 11.6562 33.5312 11.4375C32.6875 11.1875 31.875 11 31.0938 10.875C29.5625 10.5938 27.8906 10.4531 26.0781 10.4531C24.2344 10.4531 22.3438 10.6875 20.4062 11.1562C18.4375 11.5938 16.5312 12.2344 14.6875 13.0781C9.28125 15.5781 5.48438 18.9688 3.29688 23.25C2.70312 24.4375 2.40625 25.375 2.40625 26.0625C2.40625 27.1562 2.07812 27.7031 1.42188 27.7031Z" stroke="black"/>
</svg>
