<svg width="15" height="10" viewBox="0 0 15 10" fill="none" xmlns="http://www.w3.org/2000/svg">
<path d="M0.775682 8.08821C0.8173 8.09841 0.866061 8.10352 0.921966 8.10352C1.03134 8.10352 1.11923 8.07422 1.18564 8.01562C1.25204 7.95703 1.28525 7.88867 1.28525 7.81055C1.29306 7.63086 1.17783 7.54102 0.939544 7.54102C0.837981 7.54102 0.718841 7.5918 0.582122 7.69336M0.775682 8.08821L0.582122 7.69336M0.775682 8.08821C0.775724 8.08654 0.775771 8.08487 0.775823 8.0832L0.775872 8.0832V8.08008V8.04492H0.675872L0.651309 8.07931L0.575921 8.07695C0.575904 8.07749 0.575888 8.07802 0.575872 8.07856V8.08008H0.65076L0.617748 8.1263C0.636124 8.13942 0.655968 8.15061 0.677084 8.16005M0.775682 8.08821L0.677084 8.16005M0.582122 7.69336L0.641754 7.77363C0.642028 7.77343 0.642301 7.77323 0.642574 7.77303C0.642805 7.77285 0.643036 7.77267 0.643267 7.77249L0.582122 7.69336ZM0.885368 8.67185C0.770815 8.59089 0.686019 8.50107 0.629254 8.40175C0.660069 8.47796 0.704314 8.54757 0.762494 8.6098C0.793215 8.64266 0.827349 8.67295 0.864734 8.70079M0.885368 8.67185C0.885202 8.67173 0.885035 8.67162 0.884869 8.6715L0.864734 8.70079M0.885368 8.67185C0.88554 8.67197 0.885712 8.67209 0.885884 8.67221L0.865374 8.70127M0.885368 8.67185C1.01616 8.76167 1.16557 8.8269 1.33467 8.86646C1.33468 8.86646 1.33468 8.86647 1.33469 8.86647C1.46297 8.89648 1.60258 8.91172 1.754 8.91172C1.77718 8.91172 1.80061 8.91126 1.82431 8.91034C2.03385 8.90222 2.26366 8.85816 2.51399 8.77709C2.51427 8.77699 2.51456 8.7769 2.51484 8.77681C2.77972 8.69096 3.06759 8.56368 3.37874 8.39374C3.37897 8.39362 3.37919 8.3935 3.37942 8.39337C3.5346 8.3086 3.69558 8.21321 3.86239 8.10706M0.864734 8.70079C0.864947 8.70095 0.86516 8.70111 0.865374 8.70127M0.864734 8.70079L0.828216 8.75391L0.865374 8.70127M0.865374 8.70127C0.986927 8.7916 1.14277 8.85602 1.3274 8.89826L1.32742 8.89827C1.45446 8.92731 1.59687 8.94325 1.754 8.94686C1.77712 8.94739 1.80055 8.94766 1.82431 8.94766C2.01922 8.94766 2.25348 8.89922 2.52432 8.80762L2.52432 8.80763L2.52556 8.80719C2.79716 8.71133 3.08527 8.58005 3.38977 8.41396L3.38978 8.41397L3.39064 8.41348C3.54859 8.32528 3.70899 8.22815 3.87185 8.12214M3.86239 8.10706C3.86235 8.10709 3.8623 8.10711 3.86226 8.10714L3.87185 8.12214M3.86239 8.10706C3.8624 8.10705 3.86241 8.10705 3.86242 8.10704L3.87198 8.12206M3.86239 8.10706C4.018 8.00762 4.17199 7.90264 4.32436 7.79213C4.32454 7.79199 4.32473 7.79186 4.32491 7.79173C4.65298 7.55373 4.97352 7.29004 5.28651 7.00058C5.28663 7.00047 5.28675 7.00036 5.28686 7.00025C5.55539 6.75189 5.81836 6.48456 6.07577 6.19821M3.87185 8.12214C3.87189 8.12212 3.87193 8.12209 3.87198 8.12206M3.87185 8.12214L3.91611 8.19141L3.87198 8.12206M3.87198 8.12206L6.07577 6.19821M6.07577 6.19821C6.21254 6.04606 6.34774 5.88854 6.48137 5.72564L6.64616 5.83753C6.48968 6.11994 6.35549 6.43781 6.24396 6.79159C6.01357 7.53518 6.01155 8.06319 6.19799 8.40089C6.33106 8.64193 6.57147 8.80419 6.93888 8.87356C6.88496 8.84556 6.83447 8.8118 6.78755 8.77207C6.4534 8.49687 6.41368 8.00697 6.59124 7.36777L6.68759 7.39453M6.07577 6.19821C6.41206 5.81688 6.71615 5.41952 6.98795 5.00611L6.98837 5.00638L6.99301 4.99749C7.49103 4.04459 7.85139 3.19467 8.07253 2.44833C8.27438 1.76759 8.23715 1.241 7.89238 0.922834C7.84669 0.880091 7.79773 0.842315 7.74563 0.809403C7.86341 0.85734 7.9657 0.924054 8.05349 1.00926L8.05366 1.00942C8.47177 1.41336 8.56242 2.17399 8.25497 3.34944C8.16276 3.6952 8.03979 4.03339 7.88598 4.36408L8.02386 4.45442C7.98096 4.50685 7.93868 4.56047 7.89703 4.61527L7.89648 4.61601L7.65624 4.93828L7.65586 4.938L7.65082 4.94635C7.16998 5.74249 6.8165 6.54972 6.59118 7.36798L6.68759 7.39453M6.68759 7.39453C6.91025 6.58594 7.25986 5.78711 7.73642 4.99805L8.04697 8.76562C7.5079 8.9375 7.10947 8.91406 6.85165 8.69531C6.5665 8.46094 6.51181 8.02734 6.68759 7.39453ZM0.677084 8.16005C0.698208 8.48944 0.922413 8.70301 1.3497 8.80078C1.48642 8.83203 1.64462 8.84766 1.82431 8.84766C2.004 8.84766 2.22665 8.80273 2.49228 8.71289C2.7579 8.61914 3.04111 8.49023 3.34189 8.32617C3.64267 8.1582 3.95322 7.95703 4.27353 7.72266C4.59384 7.48438 4.91025 7.2207 5.22275 6.93164C5.879 6.31836 6.43954 5.6582 6.90439 4.95117L0.677084 8.16005ZM4.04501 2.61328C4.22079 2.37891 4.42587 2.14844 4.66025 1.92188C4.89462 1.69531 5.14267 1.49609 5.40439 1.32422C5.66611 1.14844 5.93564 1.00781 6.21298 0.902344L4.04501 2.61328ZM4.04501 2.61328C3.6622 3.12891 3.46689 3.57422 3.45907 3.94922L4.04501 2.61328ZM0.580435 7.85386L0.575872 7.8506V7.86408C0.577355 7.86059 0.578877 7.85718 0.580435 7.85386ZM0.541433 8.03697C0.541442 8.03661 0.541452 8.03624 0.541461 8.03587L0.441497 8.0332L0.541378 8.03808C0.541396 8.03771 0.541414 8.03734 0.541433 8.03697ZM5.44511 3.93871C5.37483 3.98991 5.30536 4.03762 5.2367 4.08188C5.38725 3.96712 5.53899 3.83299 5.6919 3.68009C6.29933 3.07265 6.79596 2.3015 7.18327 1.36917C7.18418 1.38296 7.18486 1.39808 7.18528 1.41461C7.1887 1.5515 7.14907 1.7323 7.05763 1.96091L7.05731 1.96173C6.97062 2.18411 6.84744 2.41385 6.68683 2.65095L6.68663 2.65125C6.5299 2.88443 6.34404 3.11447 6.12873 3.34131L6.1287 3.34135C5.91813 3.56341 5.69045 3.76237 5.44563 3.93833L5.44511 3.93871ZM13.7535 0.95442L13.8756 0.867256C13.9601 0.925963 14.0023 1.00937 13.9998 1.13229C13.9928 1.23606 13.9636 1.30063 13.9246 1.3403C13.8801 1.38156 13.8323 1.4 13.7774 1.4C13.731 1.4 13.6976 1.38325 13.669 1.34161C13.6379 1.28657 13.6222 1.22078 13.6254 1.14072C13.6277 1.08446 13.6592 1.02177 13.7535 0.95442ZM10.6423 5.7045C10.6385 5.85641 10.6224 6.00306 10.5941 6.14453C10.612 6.02846 10.6224 5.90883 10.6255 5.7857L10.6255 5.78567C10.633 5.48152 10.5786 5.23145 10.4468 5.05088C10.581 5.20955 10.6494 5.42385 10.6423 5.7045ZM8.7525 5.5332C8.81139 5.41267 8.88288 5.30584 8.96687 5.21224C8.79158 5.44196 8.69872 5.70035 8.69115 5.9853C8.68267 6.24208 8.76255 6.44845 8.94846 6.57851C8.9612 6.58857 8.97008 6.59713 8.97605 6.60398C8.97775 6.60593 8.97913 6.60765 8.98025 6.60914C8.97662 6.6145 8.97366 6.61802 8.97156 6.62021C8.95686 6.61846 8.9281 6.61155 8.88098 6.5927C8.85362 6.58175 8.8019 6.53783 8.72897 6.42673C8.67277 6.33561 8.64133 6.20492 8.64499 6.02548L8.64499 6.02544C8.64864 5.84287 8.68497 5.67928 8.7525 5.5332Z" stroke="black" stroke-width="0.2"/>
</svg>
