<svg width="88" height="80" viewBox="0 0 88 80" fill="none" xmlns="http://www.w3.org/2000/svg">
<path d="M17.2188 32.5938C13.5312 32.5938 11.6875 30.75 11.6875 27.0625C11.6875 23.6562 13.4844 19.8906 17.0781 15.7656C22.5781 9.42188 29.5 5 37.8438 2.5C40.5312 1.71875 42.9219 1.32812 45.0156 1.32812C47.1094 1.32812 48.8438 1.45312 50.2188 1.70312C51.625 1.95312 52.8594 2.35938 53.9219 2.92188C56.2031 4.14062 57.3438 5.92188 57.3438 8.26562C57.3438 10.9844 56.625 13.5156 55.1875 15.8594C52.5312 20.2031 48.5312 24.8281 43.1875 29.7344L38.0781 34.9375C33.2656 39.9688 30.8594 43.7031 30.8594 46.1406C30.8594 47.0469 31.1094 47.8281 31.6094 48.4844C32.1094 49.1406 32.7969 49.4688 33.6719 49.4688C34.5781 49.4688 35.5469 49.2969 36.5781 48.9531C37.6094 48.6094 38.8594 48.0156 40.3281 47.1719C41.8281 46.2969 43.5469 45.125 45.4844 43.6562C47.4531 42.1875 49.6875 40.3281 52.1875 38.0781C57.5312 33.2969 63.7656 26.9375 70.8906 19C75.5156 13.7812 79.7656 10.4062 83.6406 8.875C84.6719 8.46875 85.4688 8.26562 86.0312 8.26562C86.625 8.26562 86.9219 8.45312 86.9219 8.82812C86.9219 9.10938 86.6719 9.29688 86.1719 9.39062L84.8125 9.85938C80.9062 11.3906 76.875 14.7344 72.7188 19.8906C68.5938 25.0469 64.5312 31.3906 60.5312 38.9219C56.5625 46.4219 52.6562 52.5469 48.8125 57.2969C45 62.0156 41.0625 66.0156 37 69.2969C28.6875 76.0156 20.7969 79.375 13.3281 79.375C7.60938 79.375 3.71875 77.7969 1.65625 74.6406C1 73.6406 0.671875 72.6406 0.671875 71.6406C0.671875 70.6719 0.8125 69.9062 1.09375 69.3438C1.34375 68.8125 1.67188 68.3438 2.07812 67.9375C2.92188 67.1562 3.85938 66.7656 4.89062 66.7656C5.35938 66.7656 5.875 66.9375 6.4375 67.2812C6.96875 67.625 7.23438 68.1406 7.23438 68.8281C7.23438 69.5156 6.96875 70.0938 6.4375 70.5625C5.90625 71.0312 5.26562 71.2656 4.51562 71.2656C3.73438 71.2656 3.125 71.1719 2.6875 70.9844C2.59375 71.3281 2.54688 71.7812 2.54688 72.3438C2.54688 72.9375 2.82812 73.6094 3.39062 74.3594C3.95312 75.1094 4.71875 75.7656 5.6875 76.3281C7.84375 77.5469 10.25 78.1562 12.9062 78.1562C15.5625 78.1562 18.1875 77.5938 20.7812 76.4688C23.4062 75.3438 26.1562 73.6562 29.0312 71.4062C35.1875 66.5938 41.2188 59.875 47.125 51.25L54.3906 40.6562L61.4688 31C48.9062 44.0625 39.7031 50.5938 33.8594 50.5938C31.4219 50.5938 29.875 49.5312 29.2188 47.4062C29.0312 46.8125 28.9375 46 28.9375 44.9688C28.9375 43.9375 29.3281 42.4688 30.1094 40.5625C30.8906 38.625 31.9531 36.5781 33.2969 34.4219C35.9844 30.1406 39.0312 26.2656 42.4375 22.7969L49.75 15.25C52.5938 12.2812 54.1719 10.4062 54.4844 9.625C54.7969 8.8125 54.9531 8.1875 54.9531 7.75C54.9531 4.34375 51.8906 2.64062 45.7656 2.64062C41.1406 2.64062 36.1562 4.04688 30.8125 6.85938C25.9062 9.45312 21.7344 12.6406 18.2969 16.4219C14.7969 20.2656 13.0469 23.6719 13.0469 26.6406C13.0469 29.2969 14.4688 30.625 17.3125 30.625C20.25 30.625 23.7969 28.875 27.9531 25.375C31.1094 22.7188 33.8438 19.8906 36.1562 16.8906C39.9375 11.9844 42.0156 8.84375 42.3906 7.46875C42.6406 7.03125 42.7969 6.8125 42.8594 6.8125C43.1094 6.8125 43.2969 7.3125 43.4219 8.3125C43.5469 9.3125 43.2188 10.7188 42.4375 12.5312C41.6562 14.3125 40.5625 16.1406 39.1562 18.0156C37.75 19.8594 36.1094 21.6562 34.2344 23.4062C32.3594 25.1562 30.4375 26.7188 28.4688 28.0938C24.0625 31.0938 20.3125 32.5938 17.2188 32.5938Z" stroke="black"/>
</svg>
