<svg width="12" height="11" viewBox="0 0 12 11" fill="none" xmlns="http://www.w3.org/2000/svg">
<path d="M5.77344 4.3418C6.44141 3.72852 6.94141 3.15039 7.27344 2.60742C7.45312 2.31445 7.54297 1.99805 7.54297 1.6582C7.54297 1.36523 7.40039 1.14258 7.11523 0.990234L5.77344 4.3418ZM5.77344 4.3418L5.13477 4.99219M5.77344 4.3418L5.13477 4.99219M5.13477 4.99219C4.5332 5.62109 4.23242 6.08789 4.23242 6.39258C4.23242 6.50586 4.26367 6.60352 4.32617 6.68555C4.38867 6.76758 4.47461 6.80859 4.58398 6.80859C4.69727 6.80859 4.81836 6.78711 4.94727 6.74414C5.07617 6.70117 5.23242 6.62695 5.41602 6.52148M5.13477 4.99219L5.41602 6.52148M5.41602 6.52148C5.60352 6.41211 5.81836 6.26562 6.06055 6.08203C6.30664 5.89844 6.58594 5.66602 6.89844 5.38477M5.41602 6.52148L9.23633 3M6.89844 5.38477C7.56641 4.78711 8.3457 3.99219 9.23633 3M6.89844 5.38477L6.95146 5.44403C6.64974 5.71843 6.36909 5.95254 6.10947 6.14657L9.23633 3M6.89844 5.38477L6.95163 5.44387C7.27271 5.15187 7.61765 4.81423 7.98652 4.43068L8.01324 4.45315M9.23633 3C9.81445 2.34766 10.3457 1.92578 10.8301 1.73438C10.959 1.68359 11.0586 1.6582 11.1289 1.6582C11.2031 1.6582 11.2402 1.68164 11.2402 1.72852C11.2402 1.76367 11.209 1.78711 11.1465 1.79883L10.9766 1.85742C10.4883 2.04883 9.98438 2.4668 9.46484 3.11133C8.94922 3.75586 8.44141 4.54883 7.94141 5.49023C7.44531 6.42773 6.95703 7.19336 6.47656 7.78711C6 8.37695 5.50781 8.87695 5 9.28711C3.96094 10.127 2.97461 10.5469 2.04102 10.5469C1.32617 10.5469 0.839844 10.3496 0.582031 9.95508C0.5 9.83008 0.458984 9.70508 0.458984 9.58008C0.458984 9.45898 0.476562 9.36328 0.511719 9.29297C0.542969 9.22656 0.583984 9.16797 0.634766 9.11719M8.01324 4.45315C8.0127 4.45371 8.01215 4.45426 8.01161 4.45481C8.00956 4.45689 8.00751 4.45898 8.00546 4.46105L8.05859 4.5L8.13067 4.56932C7.96673 4.73979 7.80721 4.90153 7.65213 5.05451L7.17383 5.70703M8.01324 4.45315C8.41619 4.04369 8.84871 3.58153 9.31075 3.0668L9.31117 3.06632C9.57778 2.76548 9.8325 2.51625 10.0753 2.31726M8.01324 4.45315L8.13925 4.55912L7.25541 5.76488M7.17383 5.70703L6.26562 7.03125M7.17383 5.70703L7.2563 5.76359L7.25541 5.76488M7.17383 5.70703L7.25448 5.76615L7.25541 5.76488M6.26562 7.03125C5.52734 8.10938 4.77344 8.94922 4.00391 9.55078M6.26562 7.03125L6.34813 7.08775M6.26562 7.03125L6.34809 7.08781M4.00391 9.55078C3.64453 9.83203 3.30078 10.043 2.97266 10.1836M4.00391 9.55078L4.06554 9.62953M4.00391 9.55078L4.06549 9.62957C4.06551 9.62955 4.06552 9.62954 4.06554 9.62953M2.97266 10.1836C2.64844 10.3242 2.32031 10.3945 1.98828 10.3945C1.65625 10.3945 1.35547 10.3184 1.08594 10.166C0.964844 10.0957 0.869141 10.0137 0.798828 9.91992C0.728516 9.82617 0.693359 9.74219 0.693359 9.66797C0.693359 9.64341 0.694077 9.62053 0.695506 9.59931C0.687306 9.5964 0.679317 9.59329 0.671546 9.58996L0.710938 9.49805L0.805633 9.52387C0.844538 9.53009 0.889145 9.5332 0.939453 9.5332C1.0332 9.5332 1.11328 9.50391 1.17969 9.44531C1.24609 9.38672 1.2793 9.31445 1.2793 9.22852C1.2793 9.14258 1.24609 9.07812 1.17969 9.03516M2.97266 10.1836L3.01245 10.2753C3.01243 10.2753 3.01241 10.2754 3.01239 10.2754M2.97266 10.1836L3.01205 10.2755C3.01216 10.2755 3.01228 10.2754 3.01239 10.2754M1.17969 9.03516C1.10938 8.99219 1.04492 8.9707 0.986328 8.9707C0.857422 8.9707 0.740234 9.01953 0.634766 9.11719M1.17969 9.03516L1.12536 9.11911C1.1257 9.11933 1.12603 9.11955 1.12636 9.11977M1.17969 9.03516L1.12754 9.12048C1.12715 9.12024 1.12676 9.12 1.12636 9.11977M0.634766 9.11719L0.702706 9.19056C0.703183 9.19012 0.70366 9.18968 0.704137 9.18924M0.634766 9.11719L0.705476 9.1879C0.705029 9.18835 0.704582 9.18879 0.704137 9.18924M0.704137 9.18924C0.662316 9.23137 0.628365 9.27995 0.602201 9.33555L0.601187 9.3377L0.601161 9.33769C0.575694 9.38863 0.558984 9.46691 0.558984 9.58008C0.558984 9.68079 0.591367 9.78567 0.662959 9.89611M0.704137 9.18924C0.79299 9.1075 0.886121 9.0707 0.986328 9.0707C1.02028 9.0707 1.06625 9.08323 1.12636 9.11977M0.662959 9.89611C0.61939 9.82095 0.593359 9.74449 0.593359 9.66797C0.593359 9.59326 0.59946 9.52674 0.614461 9.47174L0.644699 9.36086L0.750329 9.40613C0.787097 9.42189 0.847742 9.4332 0.939453 9.4332C1.01039 9.4332 1.06652 9.4118 1.11353 9.37033C1.15917 9.33006 1.1793 9.28478 1.1793 9.22852C1.1793 9.17353 1.16083 9.14243 1.12636 9.11977M0.662959 9.89611C0.663778 9.89752 0.664603 9.89893 0.665434 9.90034C0.665467 9.9004 0.6655 9.90046 0.665533 9.90051C0.681237 9.92717 0.699128 9.95366 0.718828 9.97992C0.798601 10.0863 0.905244 10.1767 1.03572 10.2525L1.03673 10.2531C1.32236 10.4145 1.6403 10.4945 1.98828 10.4945C2.00587 10.4945 2.02345 10.4943 2.04102 10.494C2.30769 10.4882 2.57139 10.4389 2.8318 10.3465M0.662959 9.89611C0.663845 9.89748 0.664738 9.89884 0.665636 9.90021L0.665743 9.90038C0.683193 9.92708 0.70186 9.95287 0.721762 9.97772C0.805912 10.0828 0.912138 10.1713 1.04179 10.2421C1.04209 10.2422 1.04239 10.2424 1.04268 10.2425C1.27809 10.3708 1.59061 10.4409 1.98828 10.4465C2.0057 10.4468 2.02327 10.4469 2.04102 10.4469C2.2995 10.4469 2.56308 10.4136 2.8318 10.3465M2.8318 10.3465C2.89217 10.3251 2.95237 10.3014 3.01239 10.2754M2.8318 10.3465C3.50144 10.1794 4.20298 9.80274 4.93714 9.20934L4.93717 9.20932C5.43868 8.80424 5.92596 8.30947 6.39878 7.72426L6.39883 7.7242C6.87401 7.13699 7.35888 6.37728 7.85302 5.44346L7.85309 5.44333C8.35521 4.49792 8.86631 3.69941 9.38676 3.04886L9.38699 3.04857C9.61784 2.76218 9.84721 2.518 10.0753 2.31726M10.0753 2.31726C10.3371 2.08679 10.5972 1.91358 10.8557 1.79947M10.0753 2.31726C10.355 2.08794 10.6189 1.92535 10.8668 1.82738L10.8558 1.79944M7.25541 5.76488L6.34813 7.08775M6.34813 7.08775C6.34812 7.08777 6.34811 7.08779 6.34809 7.08781M6.34813 7.08775L6.34809 7.08781M6.34809 7.08781C5.60587 8.17168 4.84532 9.01995 4.06554 9.62953M4.06554 9.62953C3.70126 9.91462 3.35021 10.1305 3.01239 10.2754M10.8557 1.79947L10.8667 1.82742C10.8978 1.81518 10.9263 1.80479 10.9525 1.79606C10.9534 1.79577 10.9542 1.79548 10.9551 1.79519C11.0341 1.76903 11.0911 1.7582 11.1289 1.7582C11.1301 1.7582 11.1313 1.75821 11.1325 1.75823C11.1348 1.75826 11.1369 1.75833 11.1389 1.75842C11.1471 1.7588 11.153 1.75961 11.157 1.76045C11.16 1.76108 11.1613 1.76159 11.1613 1.76161C11.1614 1.76163 11.1605 1.76129 11.159 1.76033C11.1551 1.75785 11.1492 1.75269 11.1448 1.74443C11.1406 1.73646 11.1402 1.73015 11.1402 1.72852C11.1402 1.72189 11.1419 1.71364 11.1461 1.70563C11.1502 1.69795 11.1549 1.69385 11.1568 1.69246C11.1573 1.69211 11.1575 1.69195 11.1575 1.69195C11.1575 1.69194 11.156 1.69284 11.1524 1.69421C11.1474 1.69607 11.1398 1.69829 11.1289 1.70038C11.1286 1.70043 11.1283 1.70049 11.1281 1.70054L11.1208 1.7019L11.1139 1.70429L10.944 1.76288L10.9439 1.7628L10.9401 1.76432C10.912 1.77533 10.8839 1.78703 10.8558 1.79944M10.8557 1.79947C10.8557 1.79946 10.8558 1.79945 10.8558 1.79944M10.8557 1.79947L10.8558 1.79944M7.25814 1.26292C7.22562 1.20866 7.18455 1.16042 7.13582 1.11792C7.23161 1.17894 7.30257 1.2485 7.35182 1.32541C7.41171 1.41893 7.44297 1.5287 7.44297 1.6582C7.44297 1.97937 7.35835 2.27771 7.18819 2.55514L7.18812 2.55525C6.86253 3.08769 6.36956 3.65872 5.70581 4.26814L5.70572 4.26804L5.70209 4.27173L5.06342 4.92212L5.06341 4.92212L5.0625 4.92307C4.75949 5.23985 4.52915 5.51894 4.37395 5.7598C4.22052 5.99791 4.13242 6.21088 4.13242 6.39258C4.13242 6.50337 4.15822 6.60484 4.21146 6.69416C4.17449 6.64879 4.14468 6.59182 4.12289 6.52127L4.1227 6.52067C4.1037 6.46048 4.09219 6.37055 4.09219 6.24609C4.09219 6.13761 4.13455 5.96907 4.2312 5.73324L4.23142 5.73271C4.32649 5.49693 4.45642 5.24629 4.62193 4.9807C4.95416 4.45148 5.33055 3.97288 5.75104 3.54468L5.7515 3.5442L6.66557 2.60084L6.66596 2.60042C6.84434 2.41421 6.98419 2.26109 7.08481 2.14154C7.13509 2.0818 7.17638 2.02949 7.20806 1.98499C7.23876 1.94185 7.26408 1.90105 7.27839 1.86526L7.2784 1.86527L7.27888 1.86402C7.31887 1.76005 7.34414 1.66766 7.34414 1.59375C7.34414 1.47185 7.31657 1.36041 7.25814 1.26292ZM6.12064 6.16197C6.3698 5.97606 6.6514 5.74163 6.96525 5.45917C7.23962 5.21368 7.53239 4.93534 7.84355 4.62422L7.57622 4.98893C6.25052 6.29579 5.26093 6.94922 4.60742 6.94922C4.30273 6.94922 4.10938 6.81641 4.02734 6.55078C4.00391 6.47656 3.99219 6.375 3.99219 6.24609C3.99219 6.11719 4.04102 5.93359 4.13867 5.69531C4.23633 5.45312 4.36914 5.19727 4.53711 4.92773C4.87305 4.39258 5.25391 3.9082 5.67969 3.47461L6.12064 6.16197ZM2.0795 4.45566C2.03176 4.40791 1.99422 4.34519 1.96952 4.26464C1.99495 4.31605 2.02846 4.36205 2.0709 4.40169C2.18529 4.50854 2.34755 4.55312 2.53906 4.55312C2.94289 4.55312 3.40949 4.31469 3.93355 3.87337C4.33307 3.53714 4.67994 3.17852 4.97373 2.79738L4.97374 2.79737C5.21073 2.48987 5.39547 2.23627 5.52724 2.03712C5.60218 1.92386 5.66248 1.82464 5.70542 1.74107C5.70061 1.83767 5.66504 1.97271 5.58797 2.15155C5.49401 2.36571 5.36165 2.58742 5.18977 2.81663C5.01779 3.04208 4.81665 3.26246 4.58606 3.47768C4.35506 3.69328 4.11864 3.88547 3.87683 4.05439C3.33221 4.42512 2.88401 4.59922 2.52734 4.59922C2.31229 4.59922 2.16937 4.54552 2.0795 4.45566Z" stroke="black" stroke-width="0.2"/>
</svg>
