<svg width="12" height="10" viewBox="0 0 12 10" fill="none" xmlns="http://www.w3.org/2000/svg">
<path d="M3.38886 3.85941C3.38416 3.85358 3.37955 3.84773 3.37502 3.84184L3.38886 3.85941ZM3.38886 3.85941C3.38878 3.8593 3.3887 3.8592 3.38862 3.8591L3.43609 3.82137C3.43616 3.82144 3.43623 3.82152 3.43629 3.8216L3.38911 3.85971C3.38903 3.85961 3.38894 3.85951 3.38886 3.85941ZM3.97135 8.37924L3.92773 8.36258L3.88695 8.38532C3.59182 8.54988 3.30022 8.67548 3.01205 8.76266C3.2132 8.67388 3.41195 8.55702 3.60821 8.41257L3.76362 8.29818L3.58056 8.23716C3.03701 8.05598 2.56556 7.95763 2.16823 7.94608C2.18689 7.94583 2.20572 7.9457 2.22471 7.9457C2.65108 7.9457 3.1854 8.0239 3.82964 8.18302L3.87962 8.19536L3.9187 8.16186C4.50233 7.66161 5.27561 6.7492 6.23712 5.43201L6.23719 5.43191C6.82183 4.629 7.3307 4.00001 7.76404 3.54345L7.76425 3.54323C8.46949 2.79568 9.17379 2.15785 9.87707 1.62922C9.6732 1.83933 9.45446 2.08132 9.22091 2.35501L9.22055 2.35543C8.69027 2.98392 8.15282 3.70978 7.60812 4.5327L7.60807 4.53278C6.50276 6.2063 5.39634 7.4053 4.29061 8.13732L4.10869 8.25775L4.31867 8.31695L5.42024 8.6275L5.42088 8.62768C6.14368 8.82625 6.8599 8.88217 7.56879 8.79458C8.28226 8.71081 8.8072 8.46926 9.11897 8.05245C9.16207 7.99537 9.19917 7.93501 9.23037 7.87149C9.20484 7.94311 9.17422 8.01249 9.13854 8.0797C9.01276 8.31268 8.84279 8.51053 8.62777 8.67378C8.17611 9.00577 7.59888 9.17539 6.88878 9.17539C6.46927 9.17539 6.0615 9.11249 5.66511 8.98671C5.25971 8.85808 4.93554 8.74739 4.69195 8.6546L3.97135 8.37924ZM10.2265 1.28855C10.1802 1.32987 10.1287 1.37826 10.072 1.43344L10.0313 1.3649C10.0794 1.34826 10.1267 1.33034 10.1731 1.31115C10.1912 1.30365 10.209 1.29612 10.2265 1.28855ZM9.26182 1.47695C9.39929 1.47695 9.52012 1.47185 9.6234 1.4611C9.24936 1.60949 8.93019 1.68125 8.66417 1.68125C8.29755 1.68125 8.00133 1.65419 7.77322 1.60192C7.53651 1.54371 7.30373 1.48163 7.07486 1.41568C6.05077 1.11636 5.23048 1.09515 4.63104 1.38037C4.30795 1.5333 4.03224 1.73406 3.80458 1.9823C4.1158 1.60466 4.52852 1.31062 5.04539 1.10052C5.39479 0.960025 5.72777 0.891016 6.04503 0.891016C6.37863 0.891016 6.64246 0.906581 6.83841 0.936728L6.83841 0.936745L6.84028 0.936997C7.04029 0.963921 7.22409 0.99843 7.39187 1.04037L7.39237 1.0405C7.56583 1.0829 7.72724 1.12904 7.87668 1.17886L7.8774 1.17909C8.03508 1.23034 8.1928 1.27765 8.35054 1.32103L8.35066 1.32106C8.7249 1.42349 9.02987 1.47695 9.26182 1.47695ZM8.92955 6.49034C8.9295 6.4903 8.92944 6.49027 8.92938 6.49023L8.91167 6.51763C8.84484 6.475 8.77092 6.43932 8.68961 6.41075L8.6865 6.40966L8.68652 6.40961C8.64976 6.39531 8.61222 6.38304 8.57387 6.3728C8.53896 6.36348 8.50339 6.35584 8.46713 6.3499L8.46869 6.3319L8.5777 6.35299C8.61884 6.36096 8.65862 6.37084 8.69698 6.38269C8.69773 6.38293 8.69848 6.38316 8.69923 6.38339C8.78294 6.40946 8.85991 6.44495 8.92955 6.49034ZM8.00787 6.67391C7.94891 6.64991 7.92872 6.62313 7.9214 6.60194C7.90571 6.55134 7.90731 6.5272 7.90898 6.51963L8.00787 6.67391ZM3.42564 2.51916C3.14505 3.04088 3.10714 3.49336 3.37487 3.84164L3.34385 3.86719C3.05479 3.51172 3.07628 3.02148 3.40831 2.39648L3.42564 2.51916ZM3.42123 3.80384C3.18279 3.51039 3.17233 3.09787 3.45088 2.53269L3.42123 3.80384ZM4.47754 3.99808L4.47755 3.9981L4.47929 3.99721C4.64757 3.91101 4.80689 3.80057 4.95729 3.66643C5.10685 3.53303 5.24406 3.38367 5.36893 3.21851C5.49256 3.05501 5.60058 2.88908 5.69284 2.72072C5.84412 2.45585 5.94744 2.21549 5.99831 2.00087C6.0026 2.02952 6.00652 2.06262 6.00987 2.10059L6.00989 2.10085C6.02022 2.21442 6.00511 2.35848 5.95991 2.53558C5.91552 2.70562 5.84714 2.86643 5.75457 3.01825C5.66129 3.17122 5.54925 3.31326 5.4182 3.44439C5.28724 3.57153 5.14538 3.67971 4.99256 3.76917L4.99255 3.76916L4.99148 3.76981C4.81904 3.87366 4.64729 3.94976 4.47605 3.9988C4.47655 3.99856 4.47705 3.99832 4.47754 3.99808ZM5.92784 1.82812C5.93565 1.76953 5.95714 1.74023 5.99229 1.74023C6.00401 1.74023 6.02354 1.76562 6.05089 1.81641C6.07823 1.86719 6.09776 1.95898 6.10948 2.0918C6.1212 2.2207 6.10362 2.37695 6.05675 2.56055C6.00987 2.74023 5.9376 2.91016 5.83995 3.07031C5.74229 3.23047 5.6251 3.37891 5.48839 3.51562L5.92784 1.82812Z" stroke="black" stroke-width="0.2"/>
</svg>
