<svg width="99" height="69" viewBox="0 0 99 69" fill="none" xmlns="http://www.w3.org/2000/svg">
<path d="M58.5625 36.2188C59.2812 35.9375 60.0938 35.7188 61 35.5625C61.9375 35.375 63.1875 35.2812 64.75 35.2812C66.3125 35.2812 67.9375 35.7031 69.625 36.5469C76.7188 33.0781 81.5625 28.0312 84.1562 21.4062C85.0938 19.0625 85.5625 16.6875 85.5625 14.2812C85.5625 11.875 84.9062 9.82812 83.5938 8.14062C82.875 8.54688 82.1562 9 81.4375 9.5L79.1875 11.0938C75.125 14.1562 71.6875 17.1875 68.875 20.1875C64.125 25.2188 59.0781 31.3281 53.7344 38.5156C48.4219 45.6719 43 51.6094 37.4688 56.3281C31.9688 61.0469 26.7188 64.4375 21.7188 66.5C19 67.5625 15.5625 68.0938 11.4062 68.0938C8.6875 68.0938 6.34375 67.4375 4.375 66.125C2.4375 64.8125 1.46875 63.2188 1.46875 61.3438C1.46875 59.375 2.4375 58.125 4.375 57.5938C4.875 57.4688 5.375 57.4062 5.875 57.4062C6.375 57.4062 6.89062 57.5781 7.42188 57.9219C7.92188 58.2344 8.17188 58.75 8.17188 59.4688C8.17188 60.1562 7.92188 60.7344 7.42188 61.2031C6.89062 61.6406 6.1875 61.8594 5.3125 61.8594C4.40625 61.8594 3.73438 61.7031 3.29688 61.3906V61.6719C3.29688 63.2031 4.0625 64.4531 5.59375 65.4219C7.09375 66.3906 8.82812 66.875 10.7969 66.875C12.7656 66.875 14.3594 66.7344 15.5781 66.4531C16.8281 66.1406 18.1875 65.5625 19.6562 64.7188C21.125 63.875 22.7656 62.6875 24.5781 61.1562C26.4219 59.625 28.5938 57.625 31.0938 55.1562L39.7656 46.0625L51.3438 33.4062C62.3125 20.9688 72.7188 12.1406 82.5625 6.92188C78.9688 3.32812 73.0312 1.53125 64.75 1.53125C55.0938 1.53125 45.5625 5.07812 36.1562 12.1719C31.625 15.6094 27.875 19.25 24.9062 23.0938C21.9062 27.0625 20.4062 30.5 20.4062 33.4062C20.4062 36.0625 21.7188 37.7656 24.3438 38.5156C25.0938 38.7344 26.1406 38.8438 27.4844 38.8438C28.8281 38.8438 30.5312 38.4844 32.5938 37.7656C34.6875 37.0469 36.7812 36.0312 38.875 34.7188C41 33.4062 43.0625 31.8438 45.0625 30.0312C47.0625 28.1875 48.875 26.1562 50.5 23.9375C54.0938 19.1562 56.25 14.1562 56.9688 8.9375C57.1562 7.9375 57.3906 7.4375 57.6719 7.4375C57.9844 7.4375 58.1406 7.78125 58.1406 8.46875C58.1406 14.2188 56.4844 19.625 53.1719 24.6875C50.1719 29.25 46.1562 32.9375 41.125 35.75C36.2188 38.5 31.2969 39.875 26.3594 39.875C23.1094 39.875 20.875 38.6562 19.6562 36.2188C19.2188 35.4062 19 34.0781 19 32.2344C19 30.3906 19.6094 28.1719 20.8281 25.5781C22.0469 22.9531 23.7188 20.4375 25.8438 18.0312C28 15.5938 30.5469 13.3125 33.4844 11.1875C36.4219 9.0625 39.5938 7.20312 43 5.60938C50.3438 2.20312 58 0.5 65.9688 0.5C73.9375 0.5 80.2188 2.25 84.8125 5.75C89.5 3.5 93.4062 2.375 96.5312 2.375C97.5625 2.375 98.0781 2.53125 98.0781 2.84375C98.0781 3 97.7969 3.125 97.2344 3.21875C96.6719 3.28125 95.8594 3.4375 94.7969 3.6875C91.7031 4.34375 88.7812 5.39062 86.0312 6.82812C88.9688 9.64062 90.4375 13.1094 90.4375 17.2344C90.4375 21.2344 88.5625 25.25 84.8125 29.2812C81.3438 33 77.0312 35.9062 71.875 38C74.375 40.2188 75.625 43.3594 75.625 47.4219C75.625 50.8906 74.3281 54.25 71.7344 57.5C67.8594 62.375 62.5312 65.6406 55.75 67.2969C53.5625 67.8281 51.5312 68.0938 49.6562 68.0938C47.7812 68.0938 46.3438 67.9375 45.3438 67.625C44.3438 67.2812 43.5469 66.8594 42.9531 66.3594C41.8594 65.4531 41.3125 64.3906 41.3125 63.1719C41.3125 61.9219 41.6406 60.6719 42.2969 59.4219C42.9531 58.1406 43.8438 56.875 44.9688 55.625C46.125 54.375 47.4844 53.1719 49.0469 52.0156C50.6094 50.8594 52.2812 49.8438 54.0625 48.9688C58.0312 47 61.875 46.0156 65.5938 46.0156C66.25 46.0156 66.5781 46.2188 66.5781 46.625C66.5781 47.0312 65.9219 47.2344 64.6094 47.2344C63.3281 47.2344 61.8125 47.4688 60.0625 47.9375C58.3438 48.4062 56.6562 49.0469 55 49.8594C53.3438 50.6719 51.7812 51.6094 50.3125 52.6719C48.8438 53.7344 47.5625 54.8438 46.4688 56C44.0625 58.5 42.8594 60.8125 42.8594 62.9375C42.8594 65.5 45 66.7812 49.2812 66.7812C52.2812 66.7812 55.4375 65.6562 58.75 63.4062C64.0625 59.8438 67.6875 54.875 69.625 48.5C70.25 46.375 70.5625 44.4219 70.5625 42.6406C70.5625 40.8281 70.3281 39.5469 69.8594 38.7969C66.6406 39.8906 63.9219 40.4375 61.7031 40.4375C59.5156 40.4375 58.0469 40.2031 57.2969 39.7344C56.5781 39.2656 56.2188 38.8125 56.2188 38.375C56.2188 37.9375 56.4219 37.5469 56.8281 37.2031C57.2656 36.8281 57.8438 36.5 58.5625 36.2188ZM68.1719 37.2031C67.2031 36.6406 66.0625 36.3594 64.75 36.3594C63.4688 36.3594 62.5 36.4062 61.8438 36.5C61.2188 36.5938 60.6562 36.7188 60.1562 36.875C59.125 37.1562 58.6094 37.4688 58.6094 37.8125C58.6094 38.5625 59.5156 38.9375 61.3281 38.9375C63.1406 38.9375 65.4219 38.3594 68.1719 37.2031Z" stroke="black"/>
</svg>
