<svg width="97" height="67" viewBox="0 0 97 67" fill="none" xmlns="http://www.w3.org/2000/svg">
<path d="M26.625 63.7031C21.5312 65.4219 15.9375 66.2812 9.84375 66.2812C5.65625 66.2812 3 65.5469 1.875 64.0781C1.5625 63.6719 1.40625 63.25 1.40625 62.8125C1.40625 62.3438 1.625 61.875 2.0625 61.4062C2.46875 60.9375 3.07812 60.5 3.89062 60.0938C5.73438 59.2188 7.59375 58.7812 9.46875 58.7812C11.3438 58.7812 12.7031 58.8281 13.5469 58.9219C14.3906 59.0156 15.3125 59.1562 16.3125 59.3438C18.0625 59.7188 19.8125 60.1719 21.5625 60.7031C23.3125 61.2031 24.2344 61.4531 24.3281 61.4531C24.4219 61.4531 24.5312 61.4844 24.6562 61.5469C27.8438 59.8281 30.9844 57.4688 34.0781 54.4688C37.2031 51.4375 40 48.5469 42.4688 45.7969L50.5781 36.2812L58.4531 26.8125L62.6719 22.1719C64.1406 20.6094 65.8125 18.9375 67.6875 17.1562C69.5938 15.375 71.8281 13.625 74.3906 11.9062C70.2031 5.46875 62.875 2.25 52.4062 2.25C46.5625 2.25 40.7188 3.875 34.875 7.125C29.5938 10.0938 25.2188 13.8281 21.75 18.3281C18.3438 22.7656 16.6406 26.8281 16.6406 30.5156C16.6406 32.7656 17.4062 34.5781 18.9375 35.9531C20.5 37.3281 22.3906 38.0156 24.6094 38.0156C26.8281 38.0156 28.9688 37.6406 31.0312 36.8906C33.125 36.1406 35.25 35.125 37.4062 33.8438C39.5938 32.5312 41.75 31 43.875 29.25C46 27.5 47.9062 25.625 49.5938 23.625C53.3125 19.2188 55.3125 15.0156 55.5938 11.0156C55.6875 10.2969 55.8594 9.9375 56.1094 9.9375C56.4844 9.9375 56.6719 10.2656 56.6719 10.9219C56.6719 15.3906 55.1562 19.8438 52.125 24.2812C47.5 31.125 41.2188 35.75 33.2812 38.1562C30.7188 38.9375 28.4062 39.3281 26.3438 39.3281C24.2812 39.3281 22.5625 39.0938 21.1875 38.625C19.8125 38.1562 18.5938 37.4844 17.5312 36.6094C15.125 34.6719 13.9219 32.4219 13.9219 29.8594C13.9219 27.2656 14.375 24.8125 15.2812 22.5C16.1875 20.1875 17.4688 17.9844 19.125 15.8906C20.7812 13.7969 22.7656 11.8594 25.0781 10.0781C27.4219 8.26562 30 6.6875 32.8125 5.34375C38.8438 2.53125 45.2812 1.125 52.125 1.125C63 1.125 71 4.34375 76.125 10.7812C83.25 6.28125 89.6406 3.90625 95.2969 3.65625C95.7656 3.65625 96 3.78125 96 4.03125C96 4.28125 95.9219 4.45312 95.7656 4.54688C95.6094 4.60938 95.1719 4.70312 94.4531 4.82812C88.9531 5.48438 83.375 8.25 77.7188 13.125C80.0312 16.9688 81.1875 21.1406 81.1875 25.6406C81.1875 30.1406 80.6719 34.1094 79.6406 37.5469C78.6094 40.9844 77.1875 44.1719 75.375 47.1094C73.5625 50.0156 71.3906 52.6406 68.8594 54.9844C66.3594 57.3281 63.625 59.3125 60.6562 60.9375C54.4062 64.375 47.8594 66.0938 41.0156 66.0938C36.7656 66.0938 31.9688 65.2969 26.625 63.7031ZM28.8281 62.8594C32.7969 64.0781 36.625 64.6875 40.3125 64.6875C44 64.6875 47.3438 64.2656 50.3438 63.4219C53.375 62.5469 56.25 61.3281 58.9688 59.7656C61.7188 58.1719 64.2656 56.25 66.6094 54C68.9531 51.7188 70.9844 49.1875 72.7031 46.4062C76.3594 40.4375 78.1875 33.9062 78.1875 26.8125C78.1875 22.0938 77.4219 18.0625 75.8906 14.7188C72.3906 17.9688 69.1094 21.7969 66.0469 26.2031L57.4688 38.25C48.3125 50.75 38.7656 58.9531 28.8281 62.8594ZM22.5469 62.5781C17.9219 61.3906 14.125 60.7969 11.1562 60.7969C8.1875 60.7969 6.03125 61 4.6875 61.4062C3.375 61.8125 2.71875 62.2812 2.71875 62.8125C2.71875 64.125 5.35938 64.7812 10.6406 64.7812C15.2656 64.7812 19.2344 64.0469 22.5469 62.5781Z" stroke="black"/>
</svg>
