<svg width="107" height="76" viewBox="0 0 107 76" fill="none" xmlns="http://www.w3.org/2000/svg">
<path d="M26.6562 29.9531C26.6562 33.3594 28.3125 35.0625 31.625 35.0625C35.8438 35.0625 40.2812 33.0625 44.9375 29.0625C47.6562 26.7188 49.5312 24.6094 50.5625 22.7344C51.5938 20.8281 52.1562 19.5312 52.25 18.8438C52.375 17.8125 52.5312 17.2969 52.7188 17.2969C53.0312 17.2969 53.1875 17.8594 53.1875 18.9844C53.1875 20.0781 52.9062 21.3906 52.3438 22.9219C51.7812 24.4219 51 25.8594 50 27.2344C49.0312 28.6094 47.8906 29.8906 46.5781 31.0781C45.2969 32.2344 43.9062 33.25 42.4062 34.125C39.25 35.9375 36.3125 36.8438 33.5938 36.8438C30.875 36.8438 28.8125 36.2969 27.4062 35.2031C26 34.0781 25.2969 32.5156 25.2969 30.5156C25.2969 28.4844 25.875 26.4688 27.0312 24.4688C28.2188 22.4688 29.9062 20.5625 32.0938 18.75C36.7812 14.8438 42.8438 12 50.2812 10.2188C54.6875 9.21875 60.3281 8.71875 67.2031 8.71875C69.4531 8.71875 72.1406 8.90625 75.2656 9.28125C81.2969 10 85.3906 10.3594 87.5469 10.3594C89.7344 10.3594 91.7344 10.1562 93.5469 9.75C95.3594 9.34375 96.9688 8.76562 98.375 8.01562C101.094 6.57812 103.203 4.57812 104.703 2.01562C105.047 1.48438 105.375 1.21875 105.688 1.21875C106 1.21875 106.156 1.3125 106.156 1.5C106.156 1.84375 106.016 2.17188 105.734 2.48438C100.703 10.5156 92.6719 14.5312 81.6406 14.5312C78.9844 14.5312 75.6094 14.2812 71.5156 13.7812C63.5781 12.8125 58.3594 12.3281 55.8594 12.3281C53.3594 12.3281 50.9219 12.5781 48.5469 13.0781C46.2031 13.5469 43.9531 14.2031 41.7969 15.0469C39.6406 15.8906 37.6406 16.8906 35.7969 18.0469C33.9531 19.1719 32.3438 20.3906 30.9688 21.7031C28.0938 24.4844 26.6562 27.2344 26.6562 29.9531ZM8.04688 66.375C8.04688 67.0625 7.78125 67.6406 7.25 68.1094C6.71875 68.5781 6.04688 68.8125 5.23438 68.8125C4.39062 68.8125 3.70312 68.6562 3.17188 68.3438V68.5781C3.17188 70.0781 4.07812 71.3281 5.89062 72.3281C7.64062 73.2969 9.53125 73.7812 11.5625 73.7812C13.5938 73.7812 15.3438 73.6406 16.8125 73.3594C18.3125 73.0781 19.8594 72.5625 21.4531 71.8125C23.0469 71.0625 24.7031 70.0312 26.4219 68.7188C28.1719 67.375 30 65.6562 31.9062 63.5625C35.9375 59.1875 40.2188 53.1875 44.75 45.5625C44.8438 45.375 44.9219 45.25 44.9844 45.1875C34.4219 47.5312 26.8125 50.8125 22.1562 55.0312C20.7812 56.25 19.875 57.25 19.4375 58.0312C18.8125 59.0938 18.3906 59.625 18.1719 59.625C17.9531 59.625 17.8438 59.5469 17.8438 59.3906C17.8438 59.0156 17.9531 58.7031 18.1719 58.4531C19.3594 55.6094 22.5 52.75 27.5938 49.875C32.8125 46.9688 38.9219 44.7812 45.9219 43.3125C46.0156 43.3125 46.0938 43.2969 46.1562 43.2656C51.3125 35.2031 57.3438 28.75 64.25 23.9062C70 19.875 74.7969 17.8594 78.6406 17.8594C79.3594 17.8594 79.7188 17.9688 79.7188 18.1875C79.7188 18.4062 79.5938 18.5469 79.3438 18.6094C79.0938 18.6406 78.2969 18.8594 76.9531 19.2656C75.6406 19.6406 73.9844 20.4688 71.9844 21.75C69.9844 23.0312 67.9375 24.625 65.8438 26.5312C61.5938 30.4375 57.4844 35.4219 53.5156 41.4844C57.9219 40.3594 61.2188 39.4062 63.4062 38.625C64.0625 38.1875 64.5938 37.5625 65 36.75C66.25 36.75 67.6719 36.8438 69.2656 37.0312C70.8906 37.2188 71.8438 37.3594 72.125 37.4531C68.5 39.1094 65.1875 42.1562 62.1875 46.5938C61.2188 48 60.5469 49.1562 60.1719 50.0625C59.8281 50.9688 59.5938 51.4688 59.4688 51.5625C59.375 51.6562 59.25 51.7031 59.0938 51.7031C58.7188 51.7031 58.5312 51.4844 58.5312 51.0469C58.5312 50.3594 59.0781 48.8281 60.1719 46.4531C61.2656 44.0469 62.2031 42.25 62.9844 41.0625C61.7344 41.4688 60.125 41.8906 58.1562 42.3281L52.1562 43.6406C49.1875 48.8594 45.8594 53.7031 42.1719 58.1719C38.4844 62.6406 35.0625 66.0625 31.9062 68.4375C26.0625 72.8438 19.4844 75.0469 12.1719 75.0469C9.35938 75.0469 6.875 74.375 4.71875 73.0312C2.4375 71.625 1.29688 70.0156 1.29688 68.2031C1.29688 66.2656 2.25 65.0312 4.15625 64.5C4.6875 64.375 5.20312 64.3125 5.70312 64.3125C6.20312 64.3125 6.71875 64.4844 7.25 64.8281C7.78125 65.1719 8.04688 65.6875 8.04688 66.375Z" stroke="black"/>
</svg>
