<svg width="72" height="69" viewBox="0 0 72 69" fill="none" xmlns="http://www.w3.org/2000/svg">
<path d="M64.25 22.9531C65 22.9531 65.375 23.125 65.375 23.4688C65.375 23.75 65.0156 24.0625 64.2969 24.4062C63.6094 24.7188 62.7812 25.2969 61.8125 26.1406C60.8438 26.9531 59.7656 28.0625 58.5781 29.4688C57.3906 30.875 56.0625 32.625 54.5938 34.7188L49.4844 42.3125C38.4531 59.5312 26.1719 68.1406 12.6406 68.1406C9.57812 68.1406 6.92188 67.4844 4.67188 66.1719C2.42188 64.8281 1.29688 63.2344 1.29688 61.3906C1.29688 59.4219 2.25 58.1875 4.15625 57.6875C4.6875 57.5312 5.20312 57.4531 5.70312 57.4531C6.20312 57.4531 6.71875 57.625 7.25 57.9688C7.78125 58.2812 8.04688 58.7969 8.04688 59.5156C8.04688 60.2031 7.78125 60.7812 7.25 61.25C6.71875 61.6875 6.03125 61.9062 5.1875 61.9062C4.3125 61.9062 3.64062 61.7656 3.17188 61.4844V61.7656C3.17188 64.1094 5.09375 65.6875 8.9375 66.5C10.1562 66.7812 11.6094 66.9219 13.2969 66.9219C15.0156 66.9219 16.8438 66.5781 18.7812 65.8906C20.7188 65.2031 22.75 64.0625 24.875 62.4688C29.1562 59.1875 34.1094 53.8125 39.7344 46.3438C41.8281 43.6875 43.4688 41.6719 44.6562 40.2969C47.6875 36.8281 49.6875 34.5625 50.6562 33.5C41.625 39.9688 34.375 43.2031 28.9062 43.2031C26.5938 43.2031 25.0312 42.9062 24.2188 42.3125C22.75 41.2812 22.0156 39.7656 22.0156 37.7656C22.0156 37.2031 22.0938 36.375 22.25 35.2812C21.0625 35.375 19.6875 35.4219 18.125 35.4219C14.75 35.4219 11.7188 34.6719 9.03125 33.1719C8.1875 32.7656 7.76562 32.4219 7.76562 32.1406C7.76562 31.8594 7.875 31.7188 8.09375 31.7188C8.3125 31.7188 8.6875 31.875 9.21875 32.1875C9.78125 32.5 10.4375 32.8125 11.1875 33.125C11.9688 33.4062 12.7812 33.6562 13.625 33.875C15.1562 34.2812 16.75 34.4844 18.4062 34.4844C20.0625 34.4844 21.4062 34.4375 22.4375 34.3438C23.5938 29.4688 26.75 24.3125 31.9062 18.875C36.7188 13.75 42.3125 9.4375 48.6875 5.9375C55.1875 2.3125 60.8906 0.5 65.7969 0.5C67.8594 0.5 69.3125 0.828125 70.1562 1.48438C71.0312 2.14062 71.4688 3.28125 71.4688 4.90625C71.4688 6.5 70.75 8.35938 69.3125 10.4844C67.9062 12.5781 65.9062 14.7344 63.3125 16.9531C57.9688 21.5781 50.9375 25.9062 42.2188 29.9375C37.2812 32.125 32.3281 33.6875 27.3594 34.625C26.3594 36.5625 25.8594 37.9375 25.8594 38.75C25.8594 39.5312 25.9219 40.0781 26.0469 40.3906C26.1719 40.6719 26.375 40.9375 26.6562 41.1875C27.3125 41.7188 28.3125 41.9844 29.6562 41.9844C31.0312 41.9844 32.5781 41.7344 34.2969 41.2344C36.0156 40.7031 37.9688 39.8594 40.1562 38.7031C44.75 36.2969 50.3906 32.5 57.0781 27.3125C60.6719 24.4062 63.0625 22.9531 64.25 22.9531ZM70.3438 4.10938C70.3438 2.42188 69.125 1.57812 66.6875 1.57812C61.25 1.57812 54.1719 5.375 45.4531 12.9688C39.8906 17.8438 35.1094 23.0469 31.1094 28.5781C29.8906 30.2656 28.8594 31.8594 28.0156 33.3594C32.3281 32.3281 36.8594 30.5938 41.6094 28.1562C46.3906 25.6875 50.4688 23.2812 53.8438 20.9375C57.2188 18.5625 60.125 16.2812 62.5625 14.0938C67.75 9.5 70.3438 6.17188 70.3438 4.10938Z" stroke="black"/>
</svg>
