<svg width="117" height="103" viewBox="0 0 117 103" fill="none" xmlns="http://www.w3.org/2000/svg">
<path d="M69.2188 58.0469C71.625 57.0781 72.9531 56.5312 73.2031 56.4062C73.4531 56.25 73.6719 56.2188 73.8594 56.3125C74.0781 56.375 74.1875 56.4688 74.1875 56.5938C74.125 57 73.6094 57.4062 72.6406 57.8125C70.2031 58.8125 68.5312 59.4844 67.625 59.8281L64.9062 60.8125C63.9688 61.1562 62.8906 61.5156 61.6719 61.8906L51.875 64.7031C37.5 82.5156 25.9062 93.7656 17.0938 98.4531C12.9688 100.641 9.04688 101.734 5.32812 101.734C3.92188 101.734 2.9375 101.391 2.375 100.703C1.46875 99.6406 1.01562 98.375 1.01562 96.9062C1.01562 95.4688 1.53125 93.7656 2.5625 91.7969C3.5625 89.8281 5.01562 87.8281 6.92188 85.7969C8.79688 83.7656 11.0625 81.75 13.7188 79.75C16.375 77.75 19.3438 75.8438 22.625 74.0312C29.4375 70.1875 36.9844 67.125 45.2656 64.8438L55.625 50.7344C53.7188 49.7031 52.1406 48.25 50.8906 46.375C49.6406 44.5 49.0156 42.0938 49.0156 39.1562C49.0156 36.2188 49.6719 33.1562 50.9844 29.9688C52.3281 26.75 54.1875 23.7188 56.5625 20.875C58.9375 18.0312 61.75 15.4219 65 13.0469C68.2812 10.6406 71.8438 8.5625 75.6875 6.8125C83.875 3.15625 92.3438 1.32812 101.094 1.32812L109.719 1.98438L114.5 1.65625C115.688 1.65625 116.281 1.85938 116.281 2.26562C116.281 2.95312 114.844 3.29688 111.969 3.29688L108.922 3.25C103.516 4.5625 97.7969 8.01562 91.7656 13.6094C85.7656 19.1719 79.6562 26.6875 73.4375 36.1562L62.4688 51.0625C66.7188 51.0625 71.3594 49.25 76.3906 45.625C81.1719 42.1562 85.25 37.9062 88.625 32.875C92.0938 27.6562 93.8281 22.8594 93.8281 18.4844C93.8281 17.5156 94 17.0312 94.3438 17.0312C94.6875 17.0312 94.8594 18.0312 94.8594 20.0312C94.8594 22.0312 94.4062 24.3594 93.5 27.0156C92.625 29.6406 91.4062 32.1875 89.8438 34.6562C88.2812 37.0938 86.4375 39.3906 84.3125 41.5469C82.1875 43.6719 79.9062 45.5312 77.4688 47.125C72.25 50.5938 67.0781 52.3281 61.9531 52.3281H61.4844C57.6094 57.4531 54.9375 60.9062 53.4688 62.6875L59.0938 61.1875C63.4375 60.0312 66.8125 58.9844 69.2188 58.0469ZM106.578 2.92188C104.953 2.67188 103.125 2.54688 101.094 2.54688C99.0625 2.54688 96.6875 2.875 93.9688 3.53125C91.2812 4.15625 88.5312 5.04688 85.7188 6.20312C82.9375 7.35938 80.1562 8.73438 77.375 10.3281C74.5938 11.8906 71.9375 13.6094 69.4062 15.4844C66.875 17.3281 64.5156 19.2969 62.3281 21.3906C60.1719 23.4844 58.2969 25.6094 56.7031 27.7656C53.2969 32.3594 51.5938 36.6094 51.5938 40.5156C51.5938 44.6406 53.2188 47.6406 56.4688 49.5156L62.1406 41.4531C70.1094 30.0469 78.4844 20.7812 87.2656 13.6562C94.4531 7.8125 100.891 4.23438 106.578 2.92188ZM43.6719 66.9531C38.3281 68.7656 32.25 71.75 25.4375 75.9062C15.25 82.0625 8.23438 87.8438 4.39062 93.25C3.14062 95 2.51562 96.3906 2.51562 97.4219C2.51562 98.4531 2.79688 99.2344 3.35938 99.7656C3.89062 100.297 4.59375 100.562 5.46875 100.562C13.9062 100.562 26.6406 89.3594 43.6719 66.9531Z" stroke="black"/>
</svg>
