<svg width="70" height="68" viewBox="0 0 70 68" fill="none" xmlns="http://www.w3.org/2000/svg">
<path d="M56.5625 23.6406C56.5625 18.3906 53.9062 15.7656 48.5938 15.7656C44.625 15.7656 40.4844 17.3125 36.1719 20.4062C29.3906 25.25 24.7812 31.7812 22.3438 40C21.5312 42.7188 21.125 44.9688 21.125 46.75C21.125 48.5 21.1562 49.7344 21.2188 50.4531C21.2812 51.1719 21.4062 51.9062 21.5938 52.6562C22 54.4688 22.3906 55.6562 22.7656 56.2188C23.1719 56.7812 23.4062 57.1562 23.4688 57.3438C23.5625 57.5 23.5 57.6406 23.2812 57.7656C22.8125 57.9531 22.1562 57.1562 21.3125 55.375C20.25 53.0625 19.7188 50.5 19.7188 47.6875C19.7188 44.8438 20.1094 42.0156 20.8906 39.2031C21.6719 36.3906 22.75 33.75 24.125 31.2812C25.5 28.8125 27.125 26.5469 29 24.4844C30.875 22.4219 32.9062 20.6562 35.0938 19.1875C39.6875 16.0312 44.3438 14.4531 49.0625 14.4531C51.7812 14.4531 54.0312 15.2812 55.8125 16.9375C57.8438 18.7812 58.8594 21.3125 58.8594 24.5312C58.8594 27.7188 58.25 30.9375 57.0312 34.1875C55.8125 37.4062 54.1406 40.5781 52.0156 43.7031C49.8906 46.8281 47.3906 49.8125 44.5156 52.6562C41.6406 55.4688 38.5469 57.9375 35.2344 60.0625C28.0156 64.75 20.9844 67.0938 14.1406 67.0938C8.10938 67.0938 4.0625 64.4531 2 59.1719C1.28125 57.3906 0.921875 55.1719 0.921875 52.5156C0.921875 49.8594 1.35938 47.0156 2.23438 43.9844C3.14062 40.9531 4.39062 37.9531 5.98438 34.9844C7.60938 32.0156 9.53125 29.125 11.75 26.3125C14 23.5 16.4688 20.8438 19.1562 18.3438C21.8438 15.8438 24.7031 13.5625 27.7344 11.5C30.7969 9.40625 33.9375 7.60938 37.1562 6.10938C44 2.92188 50.5469 1.32812 56.7969 1.32812C63.1094 1.32812 67.0938 3.3125 68.75 7.28125C69.25 8.46875 69.5 9.57812 69.5 10.6094C69.5 11.6094 69.4375 12.4844 69.3125 13.2344C69.1875 13.9531 69.0312 14.6719 68.8438 15.3906C68.25 17.4219 67.6875 18.7031 67.1562 19.2344C66.6562 19.7344 66.2969 19.9844 66.0781 19.9844C65.8906 19.9844 65.7969 19.875 65.7969 19.6562C65.7969 19.4062 65.9531 19.0781 66.2656 18.6719C67.0156 17.6719 67.5156 16.375 67.7656 14.7812C68.0469 13.1562 68.1875 11.8594 68.1875 10.8906C68.1875 9.89062 67.9531 8.85938 67.4844 7.79688C67.0469 6.73438 66.3438 5.8125 65.375 5.03125C63.3438 3.4375 60.6875 2.64062 57.4062 2.64062C54.125 2.64062 51.0625 3.14062 48.2188 4.14062C45.375 5.14062 42.5 6.51562 39.5938 8.26562C36.6875 10.0156 33.7969 12.0781 30.9219 14.4531C28.0469 16.8281 25.2969 19.3906 22.6719 22.1406C20.0781 24.8594 17.6562 27.7031 15.4062 30.6719C13.1875 33.6406 11.25 36.5938 9.59375 39.5312C6.09375 45.8125 4.34375 51.2656 4.34375 55.8906C4.34375 60.5781 6.28125 63.6719 10.1562 65.1719C11.4375 65.6719 13.2188 65.9219 15.5 65.9219C17.7812 65.9219 20.5 65.2969 23.6562 64.0469C26.8125 62.7969 29.9375 61.1094 33.0312 58.9844C36.1562 56.8594 39.125 54.3906 41.9375 51.5781C44.7812 48.7656 47.2812 45.7969 49.4375 42.6719C54.1875 35.8594 56.5625 29.5156 56.5625 23.6406Z" stroke="black"/>
</svg>
