<svg width="85" height="68" viewBox="0 0 85 68" fill="none" xmlns="http://www.w3.org/2000/svg">
<path d="M46.875 39.7188C33.2812 57.9688 21.4375 67.0938 11.3438 67.0938C6.4375 67.0938 3.3125 65.7812 1.96875 63.1562C1.59375 62.4062 1.40625 61.6406 1.40625 60.8594C1.40625 60.0469 1.54688 59.3906 1.82812 58.8906C2.10938 58.3906 2.46875 57.9844 2.90625 57.6719C3.6875 57.0781 4.65625 56.7812 5.8125 56.7812C6.28125 56.7812 6.79688 56.9531 7.35938 57.2969C7.89062 57.6406 8.15625 58.1562 8.15625 58.8438C8.15625 59.5312 7.89062 60.1094 7.35938 60.5781C6.82812 61.0469 6.15625 61.2812 5.34375 61.2812C4.5 61.2812 3.8125 61.125 3.28125 60.8125V61.0469C3.28125 62.4531 3.95312 63.5938 5.29688 64.4688C6.60938 65.3438 8.1875 65.7812 10.0312 65.7812C11.8438 65.7812 13.3594 65.6562 14.5781 65.4062C15.7969 65.125 17.0469 64.625 18.3281 63.9062C19.6406 63.1562 21.0312 62.125 22.5 60.8125C24 59.5 25.6562 57.8125 27.4688 55.75C29.3125 53.6562 31.375 51.125 33.6562 48.1562L41.4844 37.6562C39.7344 36.5 38.8594 35.125 38.8594 33.5312C38.8594 32.1875 39.4688 31.0312 40.6875 30.0625C41.8125 29.1562 42.9219 28.7031 44.0156 28.7031C45.1406 28.7031 45.7031 28.8594 45.7031 29.1719C45.7031 29.3281 45.5156 29.4531 45.1406 29.5469C43.6719 29.7969 42.5625 30.375 41.8125 31.2812C41.0938 32.1562 40.7344 33.0781 40.7344 34.0469C40.7344 35.0156 41.25 35.8438 42.2812 36.5312L42.9375 35.6406C48.0625 28.7344 52.2812 23.5938 55.5938 20.2188C60.9375 14.7188 66.1562 10.2188 71.25 6.71875L73.1719 5.45312C69.5469 3.23438 63.9688 2.125 56.4375 2.125C48.875 2.125 41.5312 3.59375 34.4062 6.53125C27.9062 9.1875 22.6094 12.7031 18.5156 17.0781C14.4844 21.3594 12.5312 25.5781 12.6562 29.7344C12.7188 32.0781 13.4688 33.8594 14.9062 35.0781C16.0938 36.0781 17.5469 36.5781 19.2656 36.5781C20.9844 36.5781 22.7969 36.0781 24.7031 35.0781C26.6406 34.0781 28.5 32.7969 30.2812 31.2344C32.0625 29.6406 33.7344 27.875 35.2969 25.9375C36.8906 23.9688 38.2812 22.0156 39.4688 20.0781C42.0312 15.9531 43.4531 12.7344 43.7344 10.4219C43.8281 9.35938 44.0156 8.82812 44.2969 8.82812C44.6094 8.82812 44.7812 8.95312 44.8125 9.20312C44.8438 9.42188 44.875 10.1094 44.9062 11.2656C44.9375 12.4219 44.7031 14.0312 44.2031 16.0938C43.7031 18.1562 42.9375 20.2188 41.9062 22.2812C40.9062 24.3125 39.6406 26.2656 38.1094 28.1406C36.6094 30.0156 34.8906 31.6719 32.9531 33.1094C28.7031 36.2656 24.0156 37.8438 18.8906 37.8438C16.9844 37.8438 15.2812 37.125 13.7812 35.6875C12.125 34.0938 11.2656 32.1094 11.2031 29.7344C11.1094 27.3594 11.6562 24.9688 12.8438 22.5625C14.0312 20.1562 15.6875 17.8906 17.8125 15.7656C19.9688 13.6094 22.5 11.6406 25.4062 9.85938C28.3438 8.04688 31.5 6.5 34.875 5.21875C42 2.46875 49.25 1.09375 56.625 1.09375C64.0312 1.09375 70.0781 2.23438 74.7656 4.51562C78.5469 2.42188 81.375 1.375 83.25 1.375C83.8438 1.375 84.1406 1.5 84.1406 1.75C84.1719 2 84.1094 2.1875 83.9531 2.3125C83.8281 2.4375 83.375 2.5625 82.5938 2.6875C80.75 3.03125 78.7031 3.9375 76.4531 5.40625C81.4844 8.375 84 12.4375 84 17.5938C84 21.4062 82.5312 25.1094 79.5938 28.7031C76.75 32.1406 73.0156 34.9375 68.3906 37.0938C63.6406 39.2812 58.75 40.375 53.7188 40.375C51.25 40.375 48.9688 40.1562 46.875 39.7188ZM47.7656 38.5469C49.7344 38.9531 51.5938 39.1562 53.3438 39.1562C55.125 39.1562 56.9531 38.9219 58.8281 38.4531C60.7344 37.9844 62.5938 37.2969 64.4062 36.3906C66.25 35.4531 68.0156 34.2969 69.7031 32.9219C71.3906 31.5469 72.875 29.9375 74.1562 28.0938C76.9688 24.0938 78.375 19.5781 78.375 14.5469C78.375 11.2344 77.1719 8.57812 74.7656 6.57812C71.3281 9.07812 67.75 12.5312 64.0312 16.9375C60.3125 21.3438 57.2188 25.2969 54.75 28.7969L47.7656 38.5469Z" stroke="black"/>
</svg>
