<svg width="88" height="68" viewBox="0 0 88 68" fill="none" xmlns="http://www.w3.org/2000/svg">
<path d="M52.9688 37.2812C52.9375 36.8438 53.2344 36.4531 53.8594 36.1094C54.4844 35.7344 55.6875 35.5469 57.4688 35.5469C59.25 35.5469 60.8438 35.9375 62.25 36.7188C66.5625 34.9062 70.4375 31.6562 73.875 26.9688C77.2812 22.3125 78.9219 18.0625 78.7969 14.2188C78.7031 11.7188 77.7188 9.57812 75.8438 7.79688C68.1562 12.9844 60.2188 21.5312 52.0312 33.4375C39.3438 51.1875 28.2969 61.8438 18.8906 65.4062C15.9844 66.5312 13.4844 67.0938 11.3906 67.0938C9.26562 67.0938 7.57812 66.9375 6.32812 66.625C5.07812 66.2812 4.03125 65.8125 3.1875 65.2188C1.59375 64.0625 0.796875 62.5469 0.796875 60.6719C0.796875 58.7344 1.75 57.5 3.65625 56.9688C4.1875 56.8438 4.70312 56.7812 5.20312 56.7812C5.70312 56.7812 6.21875 56.9531 6.75 57.2969C7.25 57.6406 7.5 58.1562 7.5 58.8438C7.5 59.5312 7.25 60.1094 6.75 60.5781C6.21875 61.0469 5.53125 61.2812 4.6875 61.2812C3.84375 61.2812 3.17188 61.1094 2.67188 60.7656V61.0469C2.67188 62.4531 3.32812 63.5938 4.64062 64.4688C5.95312 65.3438 7.54688 65.7812 9.42188 65.7812C11.2656 65.7812 12.8125 65.6406 14.0625 65.3594C15.3125 65.0781 16.6094 64.5625 17.9531 63.8125C19.2969 63.0312 20.7188 61.9688 22.2188 60.625C23.7188 59.25 25.4062 57.4844 27.2812 55.3281C29.1562 53.1719 31.2812 50.5625 33.6562 47.5L41.7656 36.625C48.4531 27.25 56.0156 19.375 64.4531 13C68.9531 9.59375 72.1719 7.40625 74.1094 6.4375C70.3281 3.90625 64.75 2.64062 57.375 2.64062C50.5 2.64062 43.7812 4.15625 37.2188 7.1875C31.25 9.96875 26.4062 13.5312 22.6875 17.875C19 22.2188 17.2188 26.3438 17.3438 30.25C17.4062 32.5312 18.2812 34.3125 19.9688 35.5938C21.2812 36.5938 22.8594 37.0938 24.7031 37.0938C26.5469 37.0938 28.4219 36.5938 30.3281 35.5938C32.2656 34.5938 34.125 33.2969 35.9062 31.7031C37.6875 30.0781 39.3594 28.2812 40.9219 26.3125C42.5156 24.3125 43.9219 22.3281 45.1406 20.3594C47.6719 16.2656 49.0781 13.0156 49.3594 10.6094C49.4531 9.54688 49.6562 9.01562 49.9688 9.01562C50.2812 9.01562 50.4531 9.14062 50.4844 9.39062C50.5156 9.60938 50.5469 10.3125 50.5781 11.5C50.6094 12.6875 50.375 14.3281 49.875 16.4219C49.375 18.5156 48.6094 20.5938 47.5781 22.6562C46.5781 24.7188 45.3125 26.6875 43.7812 28.5625C42.2812 30.4375 40.5625 32.0938 38.625 33.5312C34.4062 36.7188 29.7188 38.3125 24.5625 38.3125C22.4062 38.3125 20.4375 37.5938 18.6562 36.1562C16.7812 34.625 15.7969 32.6562 15.7031 30.25C15.6406 27.8125 16.1875 25.375 17.3438 22.9375C18.5 20.5 20.0938 18.2031 22.125 16.0469C24.1875 13.8906 26.6094 11.9062 29.3906 10.0938C32.1719 8.28125 35.1406 6.71875 38.2969 5.40625C44.9531 2.6875 51.7188 1.32812 58.5938 1.32812C65.5 1.32812 71.1562 2.76562 75.5625 5.64062C80.1875 3.29688 83.5781 2.125 85.7344 2.125C86.3281 2.125 86.625 2.25 86.625 2.5C86.6562 2.75 86.5781 2.9375 86.3906 3.0625C86.2031 3.1875 85.6719 3.32812 84.7969 3.48438C82.8594 3.82812 80.3438 4.95312 77.25 6.85938C80.875 9.79688 82.7812 13.5625 82.9688 18.1562C83.1562 22.1562 81.4844 25.9844 77.9531 29.6406C74.3594 33.3906 69.625 36.125 63.75 37.8438C64.6562 38.7812 65.125 39.8906 65.1562 41.1719C65.2188 42.4531 65.1562 43.6094 64.9688 44.6406C64.7812 45.6719 64.3594 46.8125 63.7031 48.0625C62.4219 50.5 59.7656 53.7344 55.7344 57.7656C53.8906 59.2969 53 60.8281 53.0625 62.3594C53.0625 64.6406 54.7031 65.7812 57.9844 65.7812C61.7969 65.7812 65.75 63.7656 69.8438 59.7344C74 55.5781 77.0938 50.5 79.125 44.5C79.4062 43.5625 79.625 43.0938 79.7812 43.0938C80.3438 43.0938 80.625 43.7812 80.625 45.1562C80.625 46.5 80.2656 48.0781 79.5469 49.8906C78.8594 51.7031 77.9219 53.4531 76.7344 55.1406C75.5469 56.8281 74.1719 58.4062 72.6094 59.875C71.0469 61.3125 69.4062 62.5625 67.6875 63.625C64.0625 65.9375 60.8594 67.0938 58.0781 67.0938C55.3281 67.0938 53.2656 66.5625 51.8906 65.5C50.5156 64.4062 49.7969 63.0156 49.7344 61.3281C49.6719 59.6094 49.875 58.0156 50.3438 56.5469C50.8125 55.0781 51.4375 53.7188 52.2188 52.4688C53.0312 51.1875 53.9375 50 54.9375 48.9062L57.8438 45.7656C60.0625 43.9531 61.3125 42.3438 61.5938 40.9375C61.6562 40.5312 61.6875 40.1094 61.6875 39.6719C61.6875 39.2344 61.5938 38.8281 61.4062 38.4531C59.9688 38.7969 58.5625 38.9688 57.1875 38.9688C55.8125 38.9688 54.7812 38.7969 54.0938 38.4531C53.4062 38.0781 53.0312 37.6875 52.9688 37.2812ZM60.3281 37.375C59.4531 36.875 58.2969 36.625 56.8594 36.625C55.4219 36.625 54.7031 36.75 54.7031 37C54.7031 37.5938 55.3438 37.8906 56.625 37.8906C57.9062 37.8906 59.1406 37.7188 60.3281 37.375Z" stroke="black"/>
</svg>
