<svg width="111" height="74" viewBox="0 0 111 74" fill="none" xmlns="http://www.w3.org/2000/svg">
<path d="M58.8906 14.5938C59.2344 14.5938 59.4062 15.2344 59.4062 16.5156C59.4062 17.7656 59.0938 19.25 58.4688 20.9688C57.875 22.6562 57.0625 24.2812 56.0312 25.8438C55 27.375 53.7969 28.8125 52.4219 30.1562C51.0469 31.4688 49.5938 32.6094 48.0625 33.5781C44.75 35.6406 41.75 36.6719 39.0625 36.6719C36.375 36.6719 34.3594 36.0156 33.0156 34.7031C31.7031 33.3906 31.0469 31.7969 31.0469 29.9219C31.0469 28.0156 31.5469 26.1562 32.5469 24.3438C33.5781 22.5312 35 20.75 36.8125 19C40.9062 15.1562 45.8281 12.2656 51.5781 10.3281C55.9844 8.85938 61.7031 8.125 68.7344 8.125C73.2031 8.125 77.5156 8.57812 81.6719 9.48438C85.1719 10.1094 88.125 10.4219 90.5312 10.4219C92.9375 10.4219 95 10.2031 96.7188 9.76562C98.4688 9.29688 100.094 8.6875 101.594 7.9375C104.781 6.3125 107.062 4.42188 108.438 2.26562C108.75 1.73438 109.062 1.46875 109.375 1.46875C109.688 1.46875 109.844 1.65625 109.844 2.03125C109.844 2.40625 109.281 3.26562 108.156 4.60938C107.062 5.95312 105.594 7.21875 103.75 8.40625C101.938 9.59375 99.9062 10.625 97.6562 11.5C92.9062 13.3125 87.9375 14.2188 82.75 14.2188C79.5 14.2188 75.9531 13.8125 72.1094 13C66.1406 11.7812 61.7656 11.1719 58.9844 11.1719C56.2344 11.1719 53.875 11.4531 51.9062 12.0156C49.9375 12.5469 48.0156 13.2812 46.1406 14.2188C44.2656 15.125 42.4844 16.1875 40.7969 17.4062C39.1406 18.625 37.6875 19.9219 36.4375 21.2969C33.7188 24.2969 32.3594 27.1094 32.3594 29.7344C32.3594 32.1719 33.4531 33.8438 35.6406 34.75C36.3594 35.0312 37.2656 35.1719 38.3594 35.1719C39.4531 35.1719 40.6875 34.8438 42.0625 34.1875C43.4688 33.5 44.875 32.6094 46.2812 31.5156C47.6875 30.3906 49.0625 29.1406 50.4062 27.7656C51.75 26.3594 52.9688 24.9375 54.0625 23.5C56.4375 20.3438 57.8594 17.7656 58.3281 15.7656C58.5156 14.9844 58.7031 14.5938 58.8906 14.5938ZM7.98438 63.4844C7.98438 64.1094 7.73438 64.6562 7.23438 65.125C6.70312 65.5938 6.01562 65.8281 5.17188 65.8281C4.32812 65.8281 3.64062 65.6719 3.10938 65.3594V65.6406C3.10938 68.6406 5.25 70.5625 9.53125 71.4062C10.8438 71.6562 12.4531 71.7812 14.3594 71.7812C16.2969 71.7812 18.5156 71.3594 21.0156 70.5156C23.5156 69.6406 26 68.3438 28.4688 66.625C33.7188 62.9688 38.5156 57.7188 42.8594 50.875C44.2344 48.7188 45.7969 46.5312 47.5469 44.3125L53.3125 37.2344C58.1875 31.6094 63.0625 26.75 67.9375 22.6562C72.1562 19.125 74.8438 17.3594 76 17.3594C76.4375 17.3594 76.6562 17.5 76.6562 17.7812C76.6562 18.0938 76.2188 18.5312 75.3438 19.0938C74.4688 19.6562 73.5938 20.25 72.7188 20.875C71.875 21.5 71.0625 22.1719 70.2812 22.8906C69.5312 23.6094 68.7812 24.4219 68.0312 25.3281C67.2812 26.2031 66.4531 27.2656 65.5469 28.5156C64.6406 29.7656 63.625 31.25 62.5 32.9688L58.5625 38.9688C43.8125 61.7188 28.75 73.0938 13.375 73.0938C10.0312 73.0938 7.21875 72.4062 4.9375 71.0312C2.46875 69.5312 1.23438 67.6094 1.23438 65.2656C1.23438 64.0156 1.59375 63.125 2.3125 62.5938C3.375 61.75 4.3125 61.3281 5.125 61.3281C7.03125 61.3281 7.98438 62.0469 7.98438 63.4844Z" stroke="black"/>
</svg>
