<svg width="76" height="68" viewBox="0 0 76 68" fill="none" xmlns="http://www.w3.org/2000/svg">
<path d="M6.2501 67.0938C3.28135 67.0938 1.73448 65.6562 1.60948 62.7812C1.39073 57.8438 5.59385 50.4531 14.2189 40.6094C17.2814 37.1406 20.7189 33.5938 24.5314 29.9688C28.3751 26.3125 31.3282 23.3906 33.3907 21.2031C35.4845 19.0156 37.1251 17.125 38.3126 15.5312C40.4376 12.7188 41.4532 10.3281 41.3595 8.35938C41.172 4.60938 38.0314 2.73438 31.9376 2.73438C24.8751 2.73438 18.0157 5.28125 11.3595 10.375C7.42198 13.4062 4.65635 16.5625 3.0626 19.8438C2.28135 21.4375 1.92198 22.9844 1.98448 24.4844C2.04698 25.9531 2.51573 27.0938 3.39073 27.9062C4.26573 28.6875 5.34385 29.0781 6.6251 29.0781C7.9376 29.0781 9.35948 28.75 10.8907 28.0938C12.422 27.4062 14.0157 26.5 15.672 25.375C17.3282 24.2188 18.9845 22.875 20.6407 21.3438C22.3282 19.8125 23.9064 18.2031 25.3751 16.5156C28.5626 12.8906 30.8751 9.4375 32.3126 6.15625C32.7501 5.21875 33.0626 4.75 33.2501 4.75C33.4689 4.75 33.5939 5.03125 33.6251 5.59375C33.7189 7.09375 33.1251 9.23438 31.8439 12.0156C30.5626 14.7969 28.9845 17.3281 27.1095 19.6094C25.2657 21.8594 23.2814 23.7969 21.1564 25.4219C16.7814 28.7969 12.3751 30.4844 7.9376 30.4844C5.65635 30.4844 3.8751 30 2.59385 29.0312C1.34385 28.0312 0.687605 26.6719 0.625105 24.9531C0.562605 23.2344 0.937605 21.4844 1.7501 19.7031C2.59385 17.8906 3.76573 16.1094 5.26573 14.3594C6.79698 12.6094 8.60948 10.9531 10.7032 9.39062C12.797 7.79688 15.0626 6.40625 17.5001 5.21875C22.8126 2.625 28.0157 1.32812 33.1095 1.32812C35.9532 1.32812 38.2501 1.90625 40.0001 3.0625C47.5626 8.09375 40.5626 21.7812 19.0001 44.125C11.8751 51.5312 7.73448 55.9844 6.57823 57.4844C5.42198 58.9531 4.64073 60.0156 4.23448 60.6719C2.92198 62.7656 2.84385 64.3125 4.0001 65.3125C4.46885 65.7188 5.32823 65.9219 6.57823 65.9219C7.85948 65.9219 9.65635 65.4688 11.9689 64.5625C14.2814 63.625 16.8439 62.2188 19.6564 60.3438C26.2189 56 32.3126 50.3281 37.9376 43.3281C38.5314 42.5469 39.3751 41.5 40.4689 40.1875L61.047 15.9062L67.5626 8.45312H74.3595C74.2032 8.67188 73.7501 9.23438 73.0001 10.1406L52.2345 34.2344C48.6407 38.2656 45.5157 41.6875 42.8595 44.5C40.2345 47.2812 37.7189 50.4219 35.3126 53.9219C32.9376 57.4219 31.797 60.375 31.8907 62.7812C32.0157 64.8438 33.297 65.875 35.7345 65.875C38.5782 65.875 42.0314 64.3125 46.0939 61.1875C47.2501 60.3125 48.2657 59.4219 49.1407 58.5156C49.5157 58.7344 49.6407 59.0625 49.5157 59.5C49.3907 59.9062 49.297 60.1406 49.2345 60.2031C45.8282 63.2031 42.4376 65.2812 39.0626 66.4375C37.7501 66.875 36.4532 67.0938 35.172 67.0938C33.922 67.0938 32.7657 66.7188 31.7032 65.9688C30.6407 65.1875 30.0626 63.8906 29.9689 62.0781C29.8439 59.0156 30.9376 55.625 33.2501 51.9062C24.0939 59.7188 16.5001 64.5312 10.4689 66.3438C8.78135 66.8438 7.3751 67.0938 6.2501 67.0938Z" stroke="black"/>
</svg>
