<svg width="111" height="69" viewBox="0 0 111 69" fill="none" xmlns="http://www.w3.org/2000/svg">
<path d="M56.125 68.0938C45.7812 68.0938 42.4687 62.0938 46.1875 50.0938C47.0937 47.2188 48.1875 44.625 49.4687 42.3125C42.9062 50.3125 35.8594 56.7188 28.3281 61.5312C21.4531 65.9062 15.6875 68.0938 11.0312 68.0938C8.09374 68.0938 5.62499 67.4062 3.62499 66.0312C1.49999 64.5312 0.468743 62.6094 0.531243 60.2656C0.593743 58.9844 0.968743 58.0781 1.65624 57.5469C2.74999 56.7344 3.70312 56.3281 4.51562 56.3281C6.42187 56.3281 7.34374 57.0469 7.28124 58.4844C7.28124 59.1094 7.01562 59.6562 6.48437 60.125C5.95312 60.5938 5.24999 60.8281 4.37499 60.8281C3.49999 60.8281 2.84374 60.6719 2.40624 60.3594V60.6406C2.31249 63.6406 4.10937 65.5625 7.79687 66.4062C8.89062 66.6562 10.1562 66.7812 11.5937 66.7812C13.0312 66.7812 14.8125 66.4219 16.9375 65.7031C19.0625 64.9531 21.3281 63.9219 23.7344 62.6094C26.1406 61.2656 28.625 59.6562 31.1875 57.7812C33.75 55.875 36.2812 53.7656 38.7812 51.4531C44.0312 46.5469 48.5156 41.2656 52.2344 35.6094C56.2031 28.0156 59.0625 21.2656 60.8125 15.3594C62.4062 9.98438 62 6.1875 59.5937 3.96875C58.125 2.59375 56.1562 1.90625 53.6875 1.90625C51.25 1.90625 48.9219 2.34375 46.7031 3.21875C44.4844 4.0625 42.3281 5.1875 40.2344 6.59375C38.1406 7.96875 36.1562 9.5625 34.2812 11.375C32.4062 13.1875 30.7656 15.0312 29.3594 16.9062C26.2969 21.0312 24.7344 24.5938 24.6719 27.5938C24.5469 30.4062 25.9531 31.8125 28.8906 31.8125C32.9844 31.8125 37.3437 29.5 41.9687 24.875C46.8437 20 50.8281 13.7656 53.9219 6.17188C54.1719 5.67188 54.4062 5.42188 54.625 5.42188C55.0312 5.42188 55.25 6.04688 55.2812 7.29688C55.3125 8.54688 54.9531 10.1094 54.2031 11.9844C53.4844 13.8281 52.4687 15.7188 51.1562 17.6562C49.875 19.5625 48.3594 21.4375 46.6094 23.2812C44.8906 25.0938 43.0312 26.7188 41.0312 28.1562C36.6562 31.3438 32.5781 32.9375 28.7969 32.9375C25.0156 32.9375 23.1562 31.1562 23.2187 27.5938C23.2812 24.3438 24.9687 20.5625 28.2812 16.25C33.4687 9.4375 39.5469 4.6875 46.5156 2C48.7969 1.125 50.9219 0.6875 52.8906 0.6875C54.8594 0.6875 56.5937 0.90625 58.0937 1.34375C59.625 1.75 60.9219 2.46875 61.9844 3.5C65.6719 7.0625 66.2812 13.5625 63.8125 23C63.0625 25.8125 62.0625 28.5625 60.8125 31.25C73.875 16.5 85.4687 7.15625 95.5937 3.21875C98.9062 1.90625 101.656 1.25 103.844 1.25C107.875 1.25 109.859 2.53125 109.797 5.09375C109.734 6.0625 109.453 6.79688 108.953 7.29688C108.453 7.76562 107.875 8 107.219 8C106.562 8 106.047 7.71875 105.672 7.15625C105.328 6.5625 105.172 5.875 105.203 5.09375C105.234 4.3125 105.687 3.60938 106.562 2.98438C105.812 2.79688 105.297 2.70312 105.016 2.70312C95.1719 2.70312 82.4531 10.6406 66.8594 26.5156L62.6406 31.1562C62.0156 31.875 61.4062 32.625 60.8125 33.4062L58.8906 35.9844C55.0781 42.2969 52.2812 48.6875 50.5 55.1562C49.0937 60.2188 49.5312 63.6875 51.8125 65.5625C53.875 67.3125 57.0625 67.5 61.375 66.125C65.0312 64.9688 68.5781 62.9219 72.0156 59.9844C75.6406 56.8906 78.25 53.2812 79.8437 49.1562C80.6875 47.0625 81.1406 44.7656 81.2031 42.2656C81.2656 39.7344 80.7656 37.8438 79.7031 36.5938C78.6719 35.3125 77.4687 34.6719 76.0937 34.6719C74.7187 34.6719 73.5312 34.9375 72.5312 35.4688C71.5625 35.9688 70.6875 36.6562 69.9062 37.5312C68.25 39.4062 67.3906 41.5312 67.3281 43.9062C67.2656 45.7812 67.8437 47.1406 69.0625 47.9844C69.625 48.4219 69.7969 48.8281 69.5781 49.2031C69.3594 49.5781 69.1094 49.7656 68.8281 49.7656C68.5781 49.7656 68.2187 49.6719 67.75 49.4844C67.2812 49.2969 66.75 48.75 66.1562 47.8438C65.5937 46.9375 65.3281 45.7188 65.3594 44.1875C65.3906 42.625 65.7031 41.2031 66.2969 39.9219C66.9219 38.6406 67.7187 37.5312 68.6875 36.5938C70.8125 34.5312 73.0781 33.5 75.4844 33.5C77.9219 33.5 79.7812 34.25 81.0625 35.75C82.375 37.2188 83 39.1875 82.9375 41.6562C82.875 44.125 82.4219 46.4375 81.5781 48.5938C80.7656 50.75 79.6719 52.7969 78.2969 54.7344C76.9219 56.6406 75.3437 58.4219 73.5625 60.0781C71.7812 61.7031 69.9062 63.1094 67.9375 64.2969C63.75 66.8281 59.8125 68.0938 56.125 68.0938Z" stroke="black"/>
</svg>
