<svg width="84" height="70" viewBox="0 0 84 70" fill="none" xmlns="http://www.w3.org/2000/svg">
<path d="M26.4845 62.7812C21.3282 65.6562 16.2657 67.0938 11.297 67.0938C7.85948 67.0938 5.28135 66.6562 3.5626 65.7812C1.84385 64.9062 1.0001 64.0156 1.03135 63.1094C1.0626 62.2031 1.34385 61.4531 1.8751 60.8594C2.40635 60.2656 3.17198 59.75 4.17198 59.3125C6.42198 58.2812 9.29698 57.7656 12.797 57.7656C16.297 57.7656 20.6407 58.4062 25.8282 59.6875C30.422 55.75 36.5626 48.5156 44.2501 37.9844C48.9376 31.5469 53.0314 26.4844 56.5314 22.7969C62.7814 16.1719 69.0314 10.6094 75.2814 6.10938C70.9376 8.20312 67.2814 9.25 64.3126 9.25C61.3439 9.25 58.9064 9.03125 57.0001 8.59375C55.0939 8.125 53.2189 7.625 51.3751 7.09375C43.2501 4.71875 36.922 4.60938 32.3907 6.76562C28.297 8.70312 25.2032 11.625 23.1095 15.5312C20.8907 19.6562 20.7657 22.9375 22.7345 25.375C23.7032 26.5938 24.9064 27.2031 26.3439 27.2031C27.8126 27.2031 29.1876 26.8906 30.4689 26.2656C31.7501 25.6094 32.9689 24.7656 34.1251 23.7344C35.2814 22.7031 36.3439 21.5469 37.3126 20.2656C38.2814 18.9844 39.1251 17.6875 39.8439 16.375C41.3439 13.75 42.2032 11.5 42.422 9.625C42.4845 9.15625 42.6564 8.92188 42.9376 8.92188C43.0314 8.92188 43.1876 9.125 43.4064 9.53125C43.6251 9.9375 43.7814 10.6719 43.8751 11.7344C43.9689 12.7656 43.8282 14.0156 43.4532 15.4844C43.0782 16.9219 42.5001 18.2812 41.7189 19.5625C40.9376 20.8438 40.0001 22.0312 38.9064 23.125C37.8126 24.1875 36.6251 25.0938 35.3439 25.8438C32.5939 27.5 29.8282 28.3281 27.047 28.3281C24.8282 28.3281 23.0626 27.5312 21.7501 25.9375C19.4376 23.0938 19.6095 19.1719 22.2657 14.1719C24.9532 9.14062 29.2189 5.4375 35.0626 3.0625C37.9376 1.90625 40.7032 1.32812 43.3595 1.32812C46.047 1.32812 48.2032 1.45312 49.8282 1.70312C51.4532 1.92188 52.9532 2.20312 54.3282 2.54688C55.7345 2.89062 57.047 3.26562 58.2657 3.67188C59.5157 4.07812 60.7657 4.45312 62.0157 4.79688C64.9845 5.60938 67.3439 6.01562 69.0939 6.01562C70.8751 6.01562 72.2501 5.90625 73.2189 5.6875C74.2189 5.4375 75.172 5.125 76.0782 4.75C77.8907 4 79.2032 3.23438 80.0157 2.45312C81.0782 1.45312 81.8595 0.953125 82.3595 0.953125C82.8595 0.953125 83.1095 1.125 83.1095 1.46875C83.1095 1.78125 82.8751 2.09375 82.4064 2.40625C81.9689 2.71875 81.6407 2.9375 81.422 3.0625C81.2032 3.1875 80.9845 3.3125 80.7657 3.4375C80.047 3.90625 79.3282 4.39062 78.6095 4.89062C77.8907 5.35938 76.672 6.46875 74.9532 8.21875C73.2345 9.96875 71.3751 12.0156 69.3751 14.3594C65.1564 19.3594 60.8751 25.1406 56.5314 31.7031C47.6564 45.1406 38.7345 54.8281 29.7657 60.7656L38.5782 63.25C44.2657 64.8125 49.8907 65.25 55.4532 64.5625C61.047 63.9062 65.0001 62.0312 67.3126 58.9375C68.4689 57.4062 69.047 55.5312 69.047 53.3125C69.047 50.8125 68.0314 48.9062 66.0001 47.5938C65.2814 47.125 64.4376 46.7969 63.4689 46.6094C63.4064 47.3281 63.1095 47.9219 62.5782 48.3906C62.047 48.8594 61.4376 49.1562 60.7501 49.2812C60.0626 49.4062 59.4064 49.3594 58.7814 49.1406C58.1564 48.8906 57.7657 48.5312 57.6095 48.0625C57.4532 47.5625 57.422 47.1719 57.5157 46.8906C57.6407 46.5781 57.8126 46.3125 58.0314 46.0938C58.8439 45.2812 59.8907 44.875 61.172 44.875C62.4532 44.875 63.6564 45.0938 64.7814 45.5312C65.9376 45.9375 66.9376 46.5156 67.7814 47.2656C69.5314 48.8594 70.4064 50.8906 70.4064 53.3594C70.4064 55.7969 69.8751 58.0156 68.8126 60.0156C67.7501 61.9844 66.3126 63.6562 64.5001 65.0312C60.7189 67.8125 55.922 69.2031 50.1095 69.2031C46.672 69.2031 43.3282 68.6875 40.0782 67.6562C36.8282 66.625 34.2189 65.7344 32.2501 64.9844L26.4845 62.7812ZM23.3907 61.6562C18.797 60.125 14.9064 59.3594 11.7189 59.3594C7.8126 59.3594 5.03135 59.9844 3.3751 61.2344C2.28135 62.0781 2.1251 62.9688 2.90635 63.9062C4.0626 65.2812 6.90635 65.9688 11.4376 65.9688C15.5001 65.9688 19.4845 64.5312 23.3907 61.6562Z" stroke="black"/>
</svg>
