<svg width="128" height="128" viewBox="0 0 128 128" fill="none" xmlns="http://www.w3.org/2000/svg">
<path d="M7.44991 123.27C9.71991 125.73 19.0699 121.44 26.4499 118C31.9799 115.43 54.1099 106.35 65.1099 101.64C68.0799 100.37 72.3999 98.71 75.5099 94.62C78.2699 90.98 85.5899 75.52 70.8499 59.86C55.8899 43.96 40.4799 48.35 34.7199 52.43C31.3299 54.83 28.5699 60.24 27.3299 62.99C22.0899 74.61 14.6199 95.9 11.5799 104.27C9.34991 110.44 5.19991 120.83 7.44991 123.27Z" stroke="black"/>
<path d="M25.85 66.4902C25.99 68.2302 26.34 71.0602 27.54 76.5102C28.36 80.2502 29.7 84.1702 30.79 86.7602C34.06 94.5502 38.6499 97.6902 43.2999 100.21C51.1999 104.49 56.57 105.29 56.57 105.29L50.13 107.92C50.13 107.92 46.23 107.11 40.91 104.49C35.84 101.99 30.56 97.7602 26.7 89.4802C25.03 85.8902 24.06 82.4102 23.5 79.6502C22.81 76.2302 22.7 74.2902 22.7 74.2902L25.85 66.4902Z" stroke="black"/>
<path d="M17.9399 86.77C17.9399 86.77 18.7399 93.26 24.0999 101.45C30.3799 111.03 39.1499 112.6 39.1499 112.6L33.3199 115C33.3199 115 26.8099 113.01 20.6199 104.56C16.7599 99.29 15.6799 92.99 15.6799 92.99L17.9399 86.77Z" stroke="black"/>
<path d="M12.39 102.15C12.39 102.15 13.85 107.75 17.05 111.93C20.86 116.92 25.71 118.37 25.71 118.37L21.24 120.35C21.24 120.35 17.85 119.64 14.14 114.94C11.32 111.37 10.52 107.27 10.52 107.27L12.39 102.15Z" stroke="black"/>
<path d="M41.65 83.1901C53.55 97.1101 67.1 95.3701 71.61 91.8501C76.13 88.3201 79.7 76.1901 67.85 62.5001C55.43 48.1601 41.37 52.2501 38.12 55.3501C34.87 58.4501 30.73 70.4201 41.65 83.1901Z" stroke="black"/>
<path d="M82.5199 88.9198C78.1799 85.2798 75.8699 85.9298 72.7699 87.2198C68.7699 88.8798 62.4799 90.1098 53.9399 87.2198L56.5099 81.0298C61.5799 82.7398 65.2499 81.9098 68.4199 80.0398C72.4999 77.6398 78.0799 74.3498 86.7599 81.6398C90.3799 84.6798 94.0899 86.6998 96.8099 85.7798C98.7899 85.1198 99.8399 82.1698 100.37 79.8198C100.42 79.6098 100.5 79.0098 100.56 78.4798C101.04 74.8098 101.84 66.8898 107.74 62.8398C114.05 58.5098 120.68 58.5098 120.68 58.5098L121.88 70.4298C118.83 69.9798 116.71 70.5998 114.92 71.5898C108.18 75.3398 114.05 89.7398 103.56 94.5798C93.4699 99.2698 85.2199 91.1798 82.5199 88.9198Z" stroke="black"/>
<path d="M45.4 73.72L41.06 69.83C49.03 60.93 46.93 54.39 45.4 49.63C45.09 48.67 44.8 47.76 44.61 46.89C43.93 43.81 43.79 41.13 44 38.79C40.94 34.98 39.59 30.99 39.5 30.72C37.64 25.09 39.04 19.6 42.25 14.45C48.74 4 60.49 4 60.49 4L64.41 14.49C61.43 14.37 51.66 14.52 48.66 19.25C44.87 25.21 47.36 28.89 47.54 29.31C48.27 28.36 49.01 27.6 49.67 27.01C54.46 22.76 58.62 22.15 61.27 22.39C64.25 22.66 66.95 24.16 68.88 26.62C70.99 29.32 71.86 32.83 71.19 36.02C70.54 39.13 68.47 41.76 65.36 43.43C59.93 46.35 55.41 45.95 52.38 44.94C52.4 45.01 52.41 45.09 52.43 45.16C52.54 45.66 52.76 46.36 53.02 47.17C54.79 52.65 58.08 61.35 45.4 73.72ZM52.75 36.19C53.33 36.61 53.94 36.96 54.57 37.21C56.67 38.05 58.96 37.77 61.56 36.37C63.09 35.55 63.27 34.67 63.33 34.38C63.51 33.51 63.21 32.4 62.56 31.57C61.99 30.84 61.33 30.46 60.54 30.38C59.04 30.25 57.01 31.2 54.98 33.01C54.01 33.88 53.27 34.95 52.75 36.19Z" stroke="black"/>
<path d="M62.7701 75.3501L56.5601 75.1801C56.5601 75.1801 59.5101 58.5201 69.0601 55.7201C70.8501 55.2001 72.8101 54.6701 74.7801 54.3801C75.9501 54.2001 77.8001 53.9301 78.7101 53.5901C78.9201 52.0201 78.2601 50.0201 77.5201 47.7501C76.9401 45.9901 76.3401 44.1801 76.0201 42.2001C75.4001 38.3401 76.4301 34.9301 78.9201 32.5801C81.9601 29.7301 86.8701 28.8201 92.4101 30.0801C95.5701 30.8001 97.9001 32.3501 99.9501 33.7101C102.88 35.6601 104.59 36.6501 108.17 34.2401C112.5 31.3201 106.84 19.8901 103.83 13.2901L115.06 8.61011C116.57 11.9101 123.86 28.8901 119.05 38.5801C117.43 41.8401 114.64 44.0001 110.98 44.8101C103.02 46.5901 98.3601 43.4901 94.9601 41.2301C93.3501 40.1601 91.9401 39.3201 90.4101 38.8801C79.7801 35.8501 94.6201 51.4901 87.6701 58.5201C83.5001 62.7301 73.3101 63.8401 72.6501 64.0001C66.0901 65.5801 62.7701 75.3501 62.7701 75.3501Z" stroke="black"/>
<path d="M43.9901 38.79C43.8001 40.99 43.7101 42.3 44.2801 45.16C47.0301 47.18 53.0201 47.18 53.0201 47.18C52.7601 46.37 52.5301 45.67 52.4301 45.17C52.4101 45.1 52.4001 45.02 52.3801 44.95C46.2901 41.91 43.9901 38.79 43.9901 38.79Z" stroke="black"/>
<path d="M31.5299 48.6399L21.1899 43.5699L26.3399 36.1299L34.4499 41.4999L31.5299 48.6399Z" stroke="black"/>
<path d="M16.29 34.6001C11.01 33.8901 5.63004 29.4101 5.04004 28.9001L10.23 22.8101C11.8 24.1401 15.13 26.3701 17.36 26.6701L16.29 34.6001Z" stroke="black"/>
<path d="M25.61 21.27L18.01 18.78C18.88 16.12 19.11 13.25 18.66 10.48L26.56 9.20996C27.21 13.23 26.88 17.4 25.61 21.27Z" stroke="black"/>
<path d="M73.073 15.325L80.8882 13.6154L83.1449 23.9314L75.3297 25.641L73.073 15.325Z" stroke="black"/>
<path d="M92.46 17.7701L86.96 11.9601C89.84 9.23012 90.5 5.66012 90.5 5.62012L98.4 6.91012C98.3 7.54012 97.29 13.2001 92.46 17.7701Z" stroke="black"/>
<path d="M95.5161 48.5811L102.503 46.3975L104.889 54.0335L97.9025 56.2171L95.5161 48.5811Z" stroke="black"/>
<path d="M97.55 113.03L89.6 112.09C89.94 109.26 87.83 105.79 87.25 105.02L93.65 100.22C94.13 100.85 98.3 106.62 97.55 113.03Z" stroke="black"/>
<path d="M120.37 102.89C117.38 102.44 114.32 102.26 111.3 102.37L111.03 94.3701C114.54 94.2501 118.09 94.4501 121.56 94.9801L120.37 102.89Z" stroke="black"/>
<path d="M109.614 113.902L115.235 108.209L122.97 115.846L117.349 121.539L109.614 113.902Z" stroke="black"/>
<path d="M93.0991 63.3311L98.879 69.9398L92.2703 75.7196L86.4904 69.1109L93.0991 63.3311Z" stroke="black"/>
</svg>
