<svg width="117" height="116" viewBox="0 0 117 116" fill="none" xmlns="http://www.w3.org/2000/svg">
<g clip-path="url(#clip0_273_15)">
<path d="M58.0877 1.14844C28.9667 1.14844 30.7841 13.7929 30.7841 13.7929L30.82 26.8931H58.6074V30.8232H19.7759C19.7759 30.8232 1.14697 28.7056 1.14697 58.1291C1.14697 87.5455 17.4101 86.5046 17.4101 86.5046H27.1171V72.8517C27.1171 72.8517 26.5938 56.5679 43.1222 56.5679H70.6802C70.6802 56.5679 86.1655 56.8191 86.1655 41.5833V16.3914C86.1655 16.3914 88.517 1.14844 58.0877 1.14844ZM42.7637 9.95611C45.5274 9.95611 47.7642 12.1957 47.7642 14.9629C47.7642 17.7301 45.5274 19.9697 42.7637 19.9697C42.1068 19.9707 41.4561 19.8418 40.849 19.5905C40.2419 19.3392 39.6903 18.9705 39.2257 18.5054C38.7612 18.0403 38.3929 17.4879 38.142 16.8801C37.891 16.2722 37.7623 15.6207 37.7632 14.9629C37.7632 12.1957 40 9.95611 42.7637 9.95611Z" stroke="black"/>
<path d="M58.9122 115.401C88.0332 115.401 86.2158 102.756 86.2158 102.756L86.18 89.656H58.3925V85.7259H97.2204C97.2204 85.7259 115.853 87.8435 115.853 58.4235C115.853 29.0036 99.5898 30.048 99.5898 30.048H89.8828V43.6974C89.8828 43.6974 90.4062 59.9812 73.8778 59.9812H46.3197C46.3197 59.9812 30.8344 59.73 30.8344 74.9658V100.158C30.8344 100.158 28.4829 115.401 58.9122 115.401ZM74.2362 106.593C73.5793 106.594 72.9286 106.465 72.3215 106.214C71.7144 105.963 71.1628 105.594 70.6983 105.129C70.2337 104.664 69.8654 104.111 69.6145 103.503C69.3635 102.895 69.2348 102.244 69.2358 101.586C69.2358 98.8226 71.4725 96.583 74.2362 96.583C76.9999 96.583 79.2367 98.819 79.2367 101.586C79.2367 104.357 76.9999 106.593 74.2362 106.593Z" stroke="black"/>
</g>
<defs>
<clipPath id="clip0_273_15">
<rect width="117" height="116" fill="white"/>
</clipPath>
</defs>
</svg>
