<svg width="157" height="147" viewBox="0 0 157 147" fill="none" xmlns="http://www.w3.org/2000/svg">
<path d="M134.208 29.2434C128.859 42.1138 123.339 55.422 116.49 55.422C109.64 55.422 104.12 42.1138 98.7714 29.2278C92.7819 14.778 87.1052 1.07887 78.1758 1.07887C69.2463 1.07887 63.5696 14.7311 57.5645 29.2278C52.2162 42.0981 46.6959 55.4063 39.8463 55.4063C32.9967 55.4063 27.4764 42.0981 22.1281 29.2122C16.1386 14.7624 10.4619 1.06323 1.53247 1.06323V4.19089C8.38205 4.19089 13.9024 17.4991 19.235 30.3694C25.2245 44.8348 30.9012 58.5183 39.8307 58.5183C48.7601 58.5183 54.4368 44.8661 60.4263 30.3694C65.8215 17.5616 71.3418 4.25344 78.1914 4.25344C85.041 4.25344 90.5613 17.5616 95.894 30.432C101.883 44.8974 107.56 58.5809 116.49 58.5809C125.419 58.5809 131.096 44.9287 137.085 30.432C142.449 17.5616 147.969 4.25344 154.819 4.25344V1.12579C145.874 1.12579 140.213 14.778 134.208 29.2434Z" stroke="black"/>
<path d="M151.472 136.929C149.815 132.941 148.251 129.11 145.217 129.11C142.183 129.11 140.635 132.879 138.962 136.929C138.18 138.821 136.554 142.746 135.615 142.746C134.677 142.746 133.051 138.821 132.269 136.929C130.611 132.941 129.047 129.11 126.013 129.11C122.979 129.11 121.431 132.879 119.758 136.929C118.976 138.821 117.35 142.746 116.411 142.746C115.473 142.746 113.847 138.821 113.065 136.929C111.407 132.941 109.843 129.11 106.809 129.11C103.776 129.11 102.227 132.879 100.554 136.929C99.7722 138.821 98.1458 142.746 97.2075 142.746C96.2693 142.746 94.6429 138.821 93.861 136.929C92.2033 132.941 90.6395 129.11 87.6056 129.11C84.5718 129.11 83.0236 132.879 81.3503 136.929C80.5684 138.821 78.942 142.746 78.0037 142.746C77.0654 142.746 75.439 138.821 74.6571 136.929C72.9995 132.941 71.4356 129.11 68.4018 129.11C65.368 129.11 63.8198 132.879 62.1465 136.929C61.3646 138.821 59.7382 142.746 58.7999 142.746C57.8616 142.746 56.2352 138.821 55.4533 136.929C53.7956 132.941 52.2318 129.11 49.198 129.11C46.1641 129.11 44.616 132.879 42.9427 136.929C42.1607 138.821 40.5344 142.746 39.5961 142.746C38.6578 142.746 37.0314 138.821 36.2495 136.929C34.5918 132.941 33.028 129.11 29.9941 129.11C26.9603 129.11 25.4121 132.879 23.7388 136.929C22.9569 138.821 21.3305 142.746 20.3922 142.746C19.4539 142.746 17.8275 138.821 17.0456 136.929C15.388 132.941 13.8241 129.11 10.7903 129.11C7.75649 129.11 6.2083 132.879 4.535 136.929C4.1284 138.821 2.50202 142.746 1.56372 142.746V145.874C4.58191 145.874 6.14574 142.105 7.81904 138.055C8.60095 136.163 10.2273 132.238 11.1656 132.238C12.1039 132.238 13.7303 136.163 14.5122 138.055C16.1699 142.043 17.7337 145.874 20.7675 145.874C23.8014 145.874 25.3496 142.105 27.0229 138.055C27.8048 136.163 29.4312 132.238 30.3695 132.238C31.3078 132.238 32.9341 136.163 33.7161 138.055C35.3737 142.043 36.9375 145.874 39.9714 145.874C43.0052 145.874 44.5534 142.105 46.2267 138.055C46.9148 136.241 48.4786 132.3 49.4638 132.3C50.449 132.3 52.0285 136.225 52.8104 138.118C54.4681 142.105 56.0319 145.937 59.0657 145.937C62.0996 145.937 63.6478 142.168 65.3211 138.118C66.103 136.225 67.7294 132.3 68.6677 132.3C69.606 132.3 71.2323 136.225 72.0143 138.118C73.6719 142.105 75.2357 145.937 78.2696 145.937C81.3034 145.937 82.8516 142.168 84.5249 138.118C85.3068 136.225 86.9332 132.3 87.8715 132.3C88.8098 132.3 90.4362 136.225 91.2181 138.118C92.8757 142.105 94.4396 145.937 97.4734 145.937C100.507 145.937 102.055 142.168 103.729 138.118C104.511 136.225 106.137 132.3 107.075 132.3C108.014 132.3 109.64 136.225 110.422 138.118C112.08 142.105 113.643 145.937 116.677 145.937C119.711 145.937 121.259 142.168 122.933 138.118C123.542 136.241 125.106 132.3 126.091 132.3C127.077 132.3 128.656 136.225 129.438 138.118C131.096 142.105 132.66 145.937 135.693 145.937C138.727 145.937 140.275 142.168 141.949 138.118C142.731 136.225 144.357 132.3 145.295 132.3C146.234 132.3 147.86 136.225 148.642 138.118C150.3 142.105 151.863 145.937 154.897 145.937V142.809C153.896 142.746 152.254 138.821 151.472 136.929Z" stroke="black"/>
<path d="M143.497 93.2667C139.431 83.4615 135.584 74.2036 129.282 74.2036C122.98 74.2036 119.133 83.4615 115.067 93.2667C111.736 101.305 107.951 110.469 103.729 110.469C99.5066 110.469 95.7378 101.367 92.4068 93.2667C88.3409 83.4615 84.4469 74.2036 78.1916 74.2036C71.9363 74.2036 68.0424 83.4615 63.9764 93.2667C60.6454 101.305 56.861 110.469 52.6543 110.469C48.4476 110.469 44.6631 101.367 41.3321 93.2667C37.2662 83.4615 33.4192 74.2036 27.1169 74.2036C20.8147 74.2036 16.9677 83.4615 12.9017 93.2667C9.57076 101.305 5.80193 110.469 1.57959 110.469V113.596C7.83491 113.596 11.7288 104.339 15.7948 94.5334C19.1258 86.4953 22.8946 77.3313 27.1169 77.3313C31.3393 77.3313 35.1081 86.4328 38.4547 94.5334C42.5207 104.339 46.3677 113.596 52.6699 113.596C58.9722 113.596 62.8192 104.339 66.8851 94.5334C70.2161 86.4953 73.9849 77.3313 78.2073 77.3313C82.4296 77.3313 86.1984 86.4328 89.5294 94.5334C93.5953 104.339 97.4424 113.596 103.745 113.596C110.047 113.596 113.894 104.339 117.96 94.5334C121.291 86.511 125.06 77.3313 129.282 77.3313C133.504 77.3313 137.273 86.4328 140.604 94.5334C144.67 104.26 148.564 113.518 154.819 113.518V110.391C150.597 110.391 146.828 101.289 143.497 93.2667Z" stroke="black"/>
</svg>
