<svg width="137" height="243" viewBox="0 0 137 243" fill="none" xmlns="http://www.w3.org/2000/svg">
<path d="M83.4385 107.644L86.6978 91.076C86.6978 90.2612 86.6978 89.7179 86.1546 88.9031C85.6113 88.3599 85.0681 88.0883 84.2533 88.0883H83.1669L86.4262 71.2485C86.4262 70.4337 86.4262 69.8905 85.8829 69.3473C85.3397 68.804 84.7965 68.5324 83.9817 68.5324H77.7347L80.1791 59.8409C80.4508 59.0261 80.1791 58.2113 79.6359 57.6681C79.0927 57.1248 78.5495 56.8532 77.7347 56.8532H75.5618V37.0258C75.5618 35.6677 74.4754 34.5813 73.1173 34.5813H70.9444V3.07461C70.9444 1.71656 69.858 0.630127 68.5 0.630127C67.1419 0.630127 66.0555 1.71656 66.0555 3.07461V34.3097H63.8826C62.5245 34.3097 61.4381 35.3961 61.4381 36.7541V56.31H59.2652C58.4504 56.31 57.9072 56.5816 57.364 57.1248C56.8208 57.6681 56.8208 58.4829 57.0924 59.2977L59.5369 67.9892H53.2898C52.475 67.9892 51.9318 68.2608 51.3886 68.804C50.8454 69.3473 50.8454 70.1621 50.8454 70.7053L54.1047 87.5451H53.0182C52.2034 87.5451 51.6602 87.8167 51.117 88.3599C50.5737 88.9031 50.5738 89.718 50.5738 90.5328L53.8331 107.373H53.0182C22.0548 114.978 0.597656 142.139 0.597656 173.917C0.597656 203.794 20.1535 229.325 47.3144 238.288H47.586C54.1047 240.461 61.1665 241.548 68.5 241.548C75.8334 241.548 82.6236 240.461 89.4139 238.288C89.6855 238.288 89.9571 238.288 89.9571 238.017C116.846 229.325 136.402 203.794 136.402 173.917C136.402 142.41 114.13 114.434 83.4385 107.644ZM66.3271 39.1986H70.9444V56.5816H66.3271V39.1986ZM74.747 61.4706L72.8457 68.5324H63.8826L62.2529 61.4706H74.747ZM81.2656 73.1498L78.2779 88.0883H58.4504L55.4627 73.1498H81.2656ZM81.2656 92.9773L78.2779 107.916H58.4504L55.4627 92.9773H81.2656ZM81.2656 112.805L78.2779 127.743H58.4504L55.4627 112.805H81.2656ZM81.2656 132.632L78.2779 147.571H58.4504L55.4627 132.632H81.2656ZM81.2656 152.46L78.2779 167.398H58.4504L55.4627 152.46H81.2656ZM81.2656 172.016L78.2779 186.954H58.4504L55.4627 172.016H81.2656ZM46.228 232.856C22.3264 223.893 5.48662 200.806 5.48662 173.917C5.48662 145.669 23.956 121.225 50.8454 113.348L53.8331 127.743H52.7466C51.9318 127.743 51.3886 128.015 50.8454 128.558C50.3021 129.101 50.3021 129.916 50.3021 130.731L53.5614 147.571H52.475C51.6602 147.571 51.117 147.842 50.5738 148.386C50.0305 148.929 50.0305 149.744 50.0305 150.287L53.2898 167.127H52.2034C51.3886 167.127 50.8454 167.398 50.3021 167.941C49.7589 168.485 49.7589 169.299 49.7589 169.843L53.5614 189.127L46.228 232.856ZM68.5 236.93C62.5246 236.93 56.5491 236.115 50.8454 234.486L58.722 191.843H78.2779L85.8829 234.486C80.4508 236.115 74.4754 236.93 68.5 236.93ZM90.7719 232.856L82.8952 189.399L86.6978 170.114C86.6978 169.299 86.6978 168.756 86.1546 168.213C85.6113 167.67 85.0681 167.398 84.2533 167.398H83.1669L86.4262 150.558C86.4262 149.744 86.4262 149.2 85.8829 148.657C85.3397 148.114 84.7965 147.842 83.9817 147.842H82.8952L86.1546 131.003C86.1546 130.188 86.1545 129.645 85.6113 128.83C85.0681 128.286 84.5249 128.015 83.7101 128.015H82.6236L85.3397 113.62C111.957 121.496 130.698 146.213 130.698 174.188C131.513 200.806 114.674 223.893 90.7719 232.856Z" stroke="black"/>
</svg>
