<svg width="127" height="114" viewBox="0 0 127 114" fill="none" xmlns="http://www.w3.org/2000/svg">
<path d="M122.019 65.4518C125.363 63.3965 126 60.2562 126 58.1657C126 52.7212 121.532 46.6297 115.555 46.6297H86.3235C85.2748 46.6173 80.0443 46.2627 80.0443 40.4075C80.0443 39.2627 79.1106 38.3335 77.9555 38.3335C76.8003 38.3335 75.8666 39.2627 75.8666 40.4075C75.8666 48.6104 82.6995 50.778 86.3112 50.778H115.556C119.028 50.778 121.823 54.8203 121.823 58.1659C121.823 59.2444 121.823 62.5278 115.328 63.2349C114.225 63.3552 113.411 64.3092 113.471 65.4105C113.53 66.5098 114.447 67.3705 115.556 67.3705C119.011 67.3705 121.823 70.1622 121.823 73.5927C121.823 77.0232 119.011 79.815 115.556 79.815H111.378C110.223 79.815 109.289 80.7442 109.289 81.8889C109.289 83.0337 110.223 83.963 111.378 83.963C114.833 83.963 117.645 86.7547 117.645 90.1852C117.645 93.6157 114.833 96.4074 111.378 96.4074H105.111C103.956 96.4074 103.023 97.3366 103.023 98.4814C103.023 99.6262 103.956 100.555 105.111 100.555C107.298 100.555 109.289 102.532 109.289 104.704C109.289 106.796 107.221 108.852 105.111 108.852H73.7778C65.0566 108.852 61.9191 107.133 58.2844 105.143C55.2115 103.461 51.7273 101.555 44.8298 100.576C43.6871 100.413 42.6281 101.203 42.4651 102.335C42.3021 103.47 43.094 104.521 44.2364 104.683C50.382 105.554 53.3733 107.193 56.2685 108.777C60.0621 110.853 63.9807 113 73.7776 113H105.111C109.485 113 113.467 109.045 113.467 104.704C113.467 103.19 113.032 101.755 112.284 100.516C117.619 100.06 121.822 95.6007 121.822 90.1852C121.822 87.5531 120.828 85.1452 119.194 83.3137C123.165 81.8433 126 78.0416 126 73.5927C126 70.2949 124.442 67.3518 122.019 65.4518Z" stroke="black"/>
<path d="M19.7165 102.333C21.9283 102.333 23.7272 100.54 23.7272 98.3334C23.7272 96.1272 21.9283 94.3335 19.7165 94.3335C17.5047 94.3335 15.7058 96.1274 15.7058 98.3336C15.7058 100.54 17.5047 102.333 19.7165 102.333Z" stroke="black"/>
<path d="M44.5403 55C50.7691 55 58.6497 48.1128 62.7946 44.0068C71.795 35.0904 71.795 24.0082 71.795 7.23054C71.795 5.93035 72.579 5.1537 73.8914 5.1537C81.141 5.1537 84.374 8.35622 84.374 15.5384V40.4616C84.374 41.6079 85.311 42.5384 86.4704 42.5384C87.6298 42.5384 88.5668 41.6079 88.5668 40.4616V15.5384C88.5668 6.02601 83.4913 1 73.8914 1C70.2477 1 67.6019 3.62107 67.6019 7.23079C67.6019 23.5326 67.6019 33.3711 59.8302 41.0703C53.7438 47.0993 47.8843 50.8461 44.5403 50.8461C43.3809 50.8461 42.4438 51.7765 42.4438 52.9229C42.4438 54.0693 43.3809 55 44.5403 55Z" stroke="black"/>
<path d="M36.3538 46.3335H3.07955C1.9295 46.3335 1 47.2668 1 48.4168V110.917C1 112.067 1.9295 113 3.07955 113H36.3536C37.5037 113 38.4332 112.067 38.4332 110.917V48.4168C38.4334 47.2668 37.5039 46.3335 36.3538 46.3335ZM34.2741 108.834H5.15935V50.5003H34.2743L34.2741 108.834Z" stroke="black"/>
</svg>
