<svg width="67" height="63" viewBox="0 0 67 63" fill="none" xmlns="http://www.w3.org/2000/svg">
<path d="M38.059 28.309L51.1944 47.8993C54.8356 53.316 57.5289 56.7465 59.2743 58.191C61.0498 59.6053 63.2917 60.3877 66 60.5382V62.2083H39.7292V60.5382C41.4745 60.5081 42.7685 60.3275 43.6111 59.9965C44.2431 59.7257 44.7546 59.3194 45.1458 58.7778C45.5671 58.206 45.7778 57.6343 45.7778 57.0625C45.7778 56.3704 45.6424 55.6782 45.3715 54.9861C45.1609 54.4745 44.3333 53.1505 42.8889 51.0139L32.5069 35.3056L19.6875 51.7361C18.3333 53.4815 17.5208 54.6551 17.25 55.2569C16.9792 55.8287 16.8438 56.4306 16.8438 57.0625C16.8438 58.0255 17.25 58.8229 18.0625 59.4549C18.875 60.0868 20.4248 60.4479 22.7118 60.5382V62.2083H1V60.5382C2.53472 60.3877 3.8588 60.0718 4.97222 59.5903C6.83796 58.8079 8.61343 57.7546 10.2986 56.4306C11.9838 55.1065 13.9097 53.0752 16.0764 50.3368L30.5208 32.1007L18.4688 14.4514C15.1887 9.66667 12.4051 6.53704 10.1181 5.0625C7.83102 3.55787 5.19792 2.76042 2.21875 2.67014V1H30.5208V2.67014C28.1134 2.76042 26.4583 3.15162 25.5556 3.84375C24.6829 4.53588 24.2465 5.30324 24.2465 6.14583C24.2465 7.25926 24.9688 8.88426 26.4132 11.0208L35.8021 25.059L46.6806 11.2917C47.9444 9.66667 48.7118 8.55324 48.9826 7.95139C49.2836 7.34954 49.434 6.73264 49.434 6.10069C49.434 5.46875 49.2535 4.91204 48.8924 4.43056C48.441 3.79861 47.8692 3.36227 47.1771 3.12153C46.485 2.85069 45.0556 2.70023 42.8889 2.67014V1H64.6007V2.67014C62.8854 2.76042 61.4861 3.03125 60.4028 3.48264C58.7778 4.17477 57.2882 5.10764 55.934 6.28125C54.5799 7.45486 52.669 9.62153 50.2014 12.7812L38.059 28.309Z" stroke="black" stroke-width="0.77"/>
</svg>
